%TF.GenerationSoftware,KiCad,Pcbnew,(5.1.6)-1*%
%TF.CreationDate,2020-11-16T12:45:36+03:00*%
%TF.ProjectId,SensorBoard,53656e73-6f72-4426-9f61-72642e6b6963,rev?*%
%TF.SameCoordinates,Original*%
%TF.FileFunction,Legend,Top*%
%TF.FilePolarity,Positive*%
%FSLAX46Y46*%
G04 Gerber Fmt 4.6, Leading zero omitted, Abs format (unit mm)*
G04 Created by KiCad (PCBNEW (5.1.6)-1) date 2020-11-16 12:45:36*
%MOMM*%
%LPD*%
G01*
G04 APERTURE LIST*
%ADD10C,0.150000*%
%ADD11C,0.120000*%
G04 APERTURE END LIST*
D10*
X171196000Y-98044000D02*
X171831000Y-98806000D01*
X144216380Y-113252285D02*
X144216380Y-113823714D01*
X144216380Y-113538000D02*
X143216380Y-113538000D01*
X143359238Y-113633238D01*
X143454476Y-113728476D01*
X143502095Y-113823714D01*
D11*
%TO.C,R19*%
X140740000Y-110662779D02*
X140740000Y-110337221D01*
X141760000Y-110662779D02*
X141760000Y-110337221D01*
%TO.C,J8*%
X131145000Y-125205000D02*
X131145000Y-122545000D01*
X131145000Y-125205000D02*
X136285000Y-125205000D01*
X136285000Y-125205000D02*
X136285000Y-122545000D01*
X131145000Y-122545000D02*
X136285000Y-122545000D01*
X128545000Y-122545000D02*
X129875000Y-122545000D01*
X128545000Y-123875000D02*
X128545000Y-122545000D01*
%TO.C,C27*%
X161165000Y-113747733D02*
X161165000Y-114090267D01*
X160145000Y-113747733D02*
X160145000Y-114090267D01*
%TO.C,R18*%
X152148000Y-94198221D02*
X152148000Y-94523779D01*
X151128000Y-94198221D02*
X151128000Y-94523779D01*
%TO.C,R17*%
X153672000Y-94198221D02*
X153672000Y-94523779D01*
X152652000Y-94198221D02*
X152652000Y-94523779D01*
%TO.C,R16*%
X159857221Y-87628000D02*
X160182779Y-87628000D01*
X159857221Y-88648000D02*
X160182779Y-88648000D01*
D10*
%TO.C,D6*%
X157802386Y-89021884D02*
X153984010Y-92840260D01*
X155681066Y-86900564D02*
X151791979Y-90789651D01*
X152499086Y-91496758D02*
X151791979Y-90789651D01*
D11*
%TO.C,R15*%
X131222000Y-113929733D02*
X131222000Y-114272267D01*
X132242000Y-113929733D02*
X132242000Y-114272267D01*
%TO.C,R1*%
X129597000Y-113929733D02*
X129597000Y-114272267D01*
X130617000Y-113929733D02*
X130617000Y-114272267D01*
%TO.C,J7*%
X128545000Y-117602000D02*
X128545000Y-116272000D01*
X128545000Y-116272000D02*
X129875000Y-116272000D01*
X131145000Y-116272000D02*
X136285000Y-116272000D01*
X136285000Y-118932000D02*
X136285000Y-116272000D01*
X131145000Y-118932000D02*
X136285000Y-118932000D01*
X131145000Y-118932000D02*
X131145000Y-116272000D01*
%TO.C,J6*%
X120330000Y-84250000D02*
X120330000Y-85580000D01*
X120330000Y-85580000D02*
X119000000Y-85580000D01*
X117730000Y-85580000D02*
X112590000Y-85580000D01*
X112590000Y-82920000D02*
X112590000Y-85580000D01*
X117730000Y-82920000D02*
X112590000Y-82920000D01*
X117730000Y-82920000D02*
X117730000Y-85580000D01*
%TO.C,J5*%
X120330000Y-78125000D02*
X120330000Y-79455000D01*
X120330000Y-79455000D02*
X119000000Y-79455000D01*
X117730000Y-79455000D02*
X112590000Y-79455000D01*
X112590000Y-76795000D02*
X112590000Y-79455000D01*
X117730000Y-76795000D02*
X112590000Y-76795000D01*
X117730000Y-76795000D02*
X117730000Y-79455000D01*
%TO.C,L3*%
X159740000Y-95703733D02*
X159740000Y-96046267D01*
X160760000Y-95703733D02*
X160760000Y-96046267D01*
%TO.C,U15*%
X158110000Y-99590000D02*
X158110000Y-98890000D01*
X158110000Y-98890000D02*
X157410000Y-98890000D01*
X158110000Y-112410000D02*
X158110000Y-113110000D01*
X158110000Y-113110000D02*
X157410000Y-113110000D01*
X143890000Y-99590000D02*
X143890000Y-98890000D01*
X143890000Y-98890000D02*
X144590000Y-98890000D01*
X143890000Y-112410000D02*
X143890000Y-113110000D01*
X143890000Y-113110000D02*
X144590000Y-113110000D01*
X144590000Y-113110000D02*
X144590000Y-114475000D01*
%TO.C,C19*%
X142688000Y-119736267D02*
X142688000Y-119393733D01*
X143708000Y-119736267D02*
X143708000Y-119393733D01*
%TO.C,C26*%
X143708000Y-115393733D02*
X143708000Y-115736267D01*
X142688000Y-115393733D02*
X142688000Y-115736267D01*
%TO.C,C25*%
X161760000Y-100578733D02*
X161760000Y-100921267D01*
X160740000Y-100578733D02*
X160740000Y-100921267D01*
%TO.C,C24*%
X149604000Y-94532267D02*
X149604000Y-94189733D01*
X150624000Y-94532267D02*
X150624000Y-94189733D01*
%TO.C,C23*%
X144488000Y-94536267D02*
X144488000Y-94193733D01*
X145508000Y-94536267D02*
X145508000Y-94193733D01*
%TO.C,C22*%
X146769267Y-116375000D02*
X146426733Y-116375000D01*
X146769267Y-115355000D02*
X146426733Y-115355000D01*
%TO.C,C20*%
X163576733Y-105355000D02*
X163919267Y-105355000D01*
X163576733Y-106375000D02*
X163919267Y-106375000D01*
%TO.C,C17*%
X163576733Y-107105000D02*
X163919267Y-107105000D01*
X163576733Y-108125000D02*
X163919267Y-108125000D01*
D10*
%TO.C,U11*%
X173473000Y-94990000D02*
X173473000Y-95165000D01*
X176723000Y-94990000D02*
X176723000Y-95265000D01*
X176723000Y-98240000D02*
X176723000Y-97965000D01*
X173473000Y-98240000D02*
X173473000Y-97965000D01*
X173473000Y-94990000D02*
X176723000Y-94990000D01*
X173473000Y-98240000D02*
X176723000Y-98240000D01*
X173473000Y-95165000D02*
X172398000Y-95165000D01*
D11*
%TO.C,U19*%
X164098000Y-115475000D02*
X166548000Y-115475000D01*
X165898000Y-112255000D02*
X164098000Y-112255000D01*
%TO.C,U18*%
X157600000Y-120360000D02*
X160050000Y-120360000D01*
X159400000Y-117140000D02*
X157600000Y-117140000D01*
%TO.C,U17*%
X165098000Y-119610000D02*
X167548000Y-119610000D01*
X166898000Y-116390000D02*
X165098000Y-116390000D01*
%TO.C,U16*%
X170985000Y-91775000D02*
X170985000Y-89325000D01*
X167765000Y-89975000D02*
X167765000Y-91775000D01*
%TO.C,J4*%
X162163000Y-86547000D02*
X158633000Y-86547000D01*
X162163000Y-80077000D02*
X158633000Y-80077000D01*
X163488000Y-86482000D02*
X162163000Y-86482000D01*
X162163000Y-86547000D02*
X162163000Y-86482000D01*
X158633000Y-86547000D02*
X158633000Y-86482000D01*
X162163000Y-80142000D02*
X162163000Y-80077000D01*
X158633000Y-80142000D02*
X158633000Y-80077000D01*
%TO.C,Y1*%
X148448000Y-116965000D02*
X148448000Y-120265000D01*
X148448000Y-120265000D02*
X152448000Y-120265000D01*
%TO.C,L2*%
X163576733Y-102355000D02*
X163919267Y-102355000D01*
X163576733Y-103375000D02*
X163919267Y-103375000D01*
%TO.C,L1*%
X172510000Y-90453733D02*
X172510000Y-90796267D01*
X171490000Y-90453733D02*
X171490000Y-90796267D01*
%TO.C,C28*%
X142585000Y-94988748D02*
X142585000Y-95511252D01*
X141165000Y-94988748D02*
X141165000Y-95511252D01*
%TO.C,C21*%
X163576733Y-103855000D02*
X163919267Y-103855000D01*
X163576733Y-104875000D02*
X163919267Y-104875000D01*
%TO.C,C18*%
X163576733Y-108605000D02*
X163919267Y-108605000D01*
X163576733Y-109625000D02*
X163919267Y-109625000D01*
%TO.C,C16*%
X153488000Y-118786267D02*
X153488000Y-118443733D01*
X154508000Y-118786267D02*
X154508000Y-118443733D01*
%TO.C,C15*%
X147508000Y-118443733D02*
X147508000Y-118786267D01*
X146488000Y-118443733D02*
X146488000Y-118786267D01*
%TO.C,J3*%
X170628000Y-102735000D02*
X170628000Y-101405000D01*
X170628000Y-101405000D02*
X171958000Y-101405000D01*
X173228000Y-101405000D02*
X178368000Y-101405000D01*
X178368000Y-104065000D02*
X178368000Y-101405000D01*
X173228000Y-104065000D02*
X178368000Y-104065000D01*
X173228000Y-104065000D02*
X173228000Y-101405000D01*
%TO.C,J2*%
X170628000Y-107815000D02*
X170628000Y-106485000D01*
X170628000Y-106485000D02*
X171958000Y-106485000D01*
X173228000Y-106485000D02*
X178368000Y-106485000D01*
X178368000Y-109145000D02*
X178368000Y-106485000D01*
X173228000Y-109145000D02*
X178368000Y-109145000D01*
X173228000Y-109145000D02*
X173228000Y-106485000D01*
%TO.C,J1*%
X170628000Y-112895000D02*
X170628000Y-111565000D01*
X170628000Y-111565000D02*
X171958000Y-111565000D01*
X173228000Y-111565000D02*
X178368000Y-111565000D01*
X178368000Y-114225000D02*
X178368000Y-111565000D01*
X173228000Y-114225000D02*
X178368000Y-114225000D01*
X173228000Y-114225000D02*
X173228000Y-111565000D01*
%TO.C,U14*%
X131298000Y-86685000D02*
X129063000Y-86685000D01*
X129063000Y-86685000D02*
X129063000Y-91885000D01*
X129063000Y-91885000D02*
X135533000Y-91885000D01*
X135533000Y-91885000D02*
X135533000Y-86685000D01*
X135533000Y-86685000D02*
X133298000Y-86685000D01*
X133298000Y-86685000D02*
G75*
G02*
X131298000Y-86685000I-1000000J0D01*
G01*
%TO.C,U13*%
X131298000Y-80335000D02*
X129063000Y-80335000D01*
X129063000Y-80335000D02*
X129063000Y-85535000D01*
X129063000Y-85535000D02*
X135533000Y-85535000D01*
X135533000Y-85535000D02*
X135533000Y-80335000D01*
X135533000Y-80335000D02*
X133298000Y-80335000D01*
X133298000Y-80335000D02*
G75*
G02*
X131298000Y-80335000I-1000000J0D01*
G01*
%TO.C,U12*%
X125677000Y-106172000D02*
X125677000Y-110032000D01*
X125677000Y-110032000D02*
X125932000Y-110032000D01*
X125677000Y-106172000D02*
X125677000Y-102312000D01*
X125677000Y-102312000D02*
X125932000Y-102312000D01*
X136197000Y-106172000D02*
X136197000Y-110032000D01*
X136197000Y-110032000D02*
X135942000Y-110032000D01*
X136197000Y-106172000D02*
X136197000Y-102312000D01*
X136197000Y-102312000D02*
X135942000Y-102312000D01*
X135942000Y-102312000D02*
X135942000Y-100497000D01*
%TO.C,U10*%
X111718000Y-96995000D02*
X123488000Y-96995000D01*
X111718000Y-96995000D02*
X111718000Y-103335000D01*
X111718000Y-103335000D02*
X123488000Y-103335000D01*
X123488000Y-96995000D02*
X123488000Y-103335000D01*
X111518000Y-102335000D02*
X111518000Y-103535000D01*
X111518000Y-103535000D02*
X112718000Y-103535000D01*
%TO.C,U9*%
X111718000Y-89775000D02*
X123488000Y-89775000D01*
X111718000Y-89775000D02*
X111718000Y-96115000D01*
X111718000Y-96115000D02*
X123488000Y-96115000D01*
X123488000Y-89775000D02*
X123488000Y-96115000D01*
X111518000Y-95115000D02*
X111518000Y-96315000D01*
X111518000Y-96315000D02*
X112718000Y-96315000D01*
%TO.C,U8*%
X115200000Y-120310000D02*
X114200000Y-120310000D01*
X116200000Y-118090000D02*
X114200000Y-118090000D01*
%TO.C,U7*%
X161588000Y-95315000D02*
X161588000Y-97115000D01*
X164808000Y-97115000D02*
X164808000Y-94665000D01*
%TO.C,U1*%
X136350000Y-96860000D02*
X138150000Y-96860000D01*
X138150000Y-93640000D02*
X135700000Y-93640000D01*
%TO.C,R14*%
X148528000Y-83856267D02*
X148528000Y-83513733D01*
X149548000Y-83856267D02*
X149548000Y-83513733D01*
%TO.C,R13*%
X149548000Y-87323733D02*
X149548000Y-87666267D01*
X148528000Y-87323733D02*
X148528000Y-87666267D01*
%TO.C,R12*%
X140760000Y-83328733D02*
X140760000Y-83671267D01*
X139740000Y-83328733D02*
X139740000Y-83671267D01*
%TO.C,R11*%
X152169267Y-85075000D02*
X151826733Y-85075000D01*
X152169267Y-84055000D02*
X151826733Y-84055000D01*
%TO.C,R10*%
X139740000Y-87921267D02*
X139740000Y-87578733D01*
X140760000Y-87921267D02*
X140760000Y-87578733D01*
%TO.C,R9*%
X152169267Y-87075000D02*
X151826733Y-87075000D01*
X152169267Y-86055000D02*
X151826733Y-86055000D01*
%TO.C,R8*%
X141328733Y-90855000D02*
X141671267Y-90855000D01*
X141328733Y-91875000D02*
X141671267Y-91875000D01*
%TO.C,R7*%
X145569267Y-81675000D02*
X145226733Y-81675000D01*
X145569267Y-80655000D02*
X145226733Y-80655000D01*
%TO.C,R6*%
X122838748Y-86540000D02*
X123361252Y-86540000D01*
X122838748Y-87960000D02*
X123361252Y-87960000D01*
%TO.C,R5*%
X122963748Y-80540000D02*
X123486252Y-80540000D01*
X122963748Y-81960000D02*
X123486252Y-81960000D01*
%TO.C,R4*%
X168508000Y-108068733D02*
X168508000Y-108411267D01*
X167488000Y-108068733D02*
X167488000Y-108411267D01*
%TO.C,R3*%
X171510000Y-118192733D02*
X171510000Y-118535267D01*
X170490000Y-118192733D02*
X170490000Y-118535267D01*
%TO.C,R2*%
X173110000Y-118192733D02*
X173110000Y-118535267D01*
X172090000Y-118192733D02*
X172090000Y-118535267D01*
%TO.C,F1*%
X114988748Y-121165000D02*
X117761252Y-121165000D01*
X114988748Y-124585000D02*
X117761252Y-124585000D01*
%TO.C,D1*%
X119250000Y-115850000D02*
X119250000Y-120150000D01*
X119250000Y-120150000D02*
X124950000Y-120150000D01*
X119250000Y-115850000D02*
X124950000Y-115850000D01*
%TO.C,C14*%
X138559000Y-102179733D02*
X138559000Y-102522267D01*
X137539000Y-102179733D02*
X137539000Y-102522267D01*
%TO.C,C13*%
X146328733Y-90855000D02*
X146671267Y-90855000D01*
X146328733Y-91875000D02*
X146671267Y-91875000D01*
%TO.C,C12*%
X134866267Y-114351000D02*
X134523733Y-114351000D01*
X134866267Y-113331000D02*
X134523733Y-113331000D01*
%TO.C,C11*%
X125960000Y-93638748D02*
X125960000Y-94161252D01*
X124540000Y-93638748D02*
X124540000Y-94161252D01*
%TO.C,C10*%
X167488000Y-114536267D02*
X167488000Y-114193733D01*
X168508000Y-114536267D02*
X168508000Y-114193733D01*
%TO.C,C9*%
X168908000Y-118535267D02*
X168908000Y-118192733D01*
X169928000Y-118535267D02*
X169928000Y-118192733D01*
%TO.C,C8*%
X161365000Y-119171267D02*
X161365000Y-118828733D01*
X162385000Y-119171267D02*
X162385000Y-118828733D01*
%TO.C,C7*%
X114597936Y-113840000D02*
X115802064Y-113840000D01*
X114597936Y-116560000D02*
X115802064Y-116560000D01*
%TO.C,C6*%
X165238000Y-98726252D02*
X165238000Y-98203748D01*
X166658000Y-98726252D02*
X166658000Y-98203748D01*
%TO.C,C5*%
X169566267Y-81539000D02*
X169223733Y-81539000D01*
X169566267Y-80519000D02*
X169223733Y-80519000D01*
%TO.C,C4*%
X169421267Y-94635000D02*
X169078733Y-94635000D01*
X169421267Y-93615000D02*
X169078733Y-93615000D01*
%TO.C,C3*%
X169546267Y-84885000D02*
X169203733Y-84885000D01*
X169546267Y-83865000D02*
X169203733Y-83865000D01*
%TO.C,C2*%
X166658000Y-94203748D02*
X166658000Y-94726252D01*
X165238000Y-94203748D02*
X165238000Y-94726252D01*
%TO.C,C1*%
X169421267Y-99635000D02*
X169078733Y-99635000D01*
X169421267Y-98615000D02*
X169078733Y-98615000D01*
%TO.C,U6*%
X111828000Y-112355000D02*
X111828000Y-104505000D01*
X111828000Y-104505000D02*
X123768000Y-104505000D01*
X123768000Y-104505000D02*
X123768000Y-112355000D01*
X123768000Y-112355000D02*
X111828000Y-112355000D01*
X111498000Y-110235000D02*
X111498000Y-112685000D01*
X111498000Y-112685000D02*
X113828000Y-112685000D01*
%TO.C,U4*%
X168490000Y-95045000D02*
X169950000Y-95045000D01*
X168490000Y-98205000D02*
X170650000Y-98205000D01*
X168490000Y-98205000D02*
X168490000Y-97275000D01*
X168490000Y-95045000D02*
X168490000Y-95975000D01*
%TO.C,U3*%
X146518000Y-86225000D02*
X146518000Y-82775000D01*
X146518000Y-86225000D02*
X146518000Y-88175000D01*
X141398000Y-86225000D02*
X141398000Y-84275000D01*
X141398000Y-86225000D02*
X141398000Y-88175000D01*
%TO.C,U2*%
X173930000Y-82525000D02*
X173930000Y-82525000D01*
X173930000Y-83025000D02*
X173930000Y-82525000D01*
X172230000Y-82525000D02*
X172230000Y-82525000D01*
X171730000Y-82525000D02*
X172230000Y-82525000D01*
X171730000Y-83025000D02*
X171730000Y-82525000D01*
X171730000Y-84225000D02*
X171730000Y-84225000D01*
X171730000Y-84725000D02*
X171730000Y-84225000D01*
X172230000Y-84725000D02*
X171730000Y-84725000D01*
X173430000Y-84725000D02*
X173430000Y-84725000D01*
X173930000Y-84725000D02*
X173430000Y-84725000D01*
X173930000Y-84225000D02*
X173930000Y-84725000D01*
D10*
%TO.C,P1*%
X140208000Y-125095000D02*
X157988000Y-125095000D01*
X157988000Y-125095000D02*
X157988000Y-122555000D01*
X157988000Y-122555000D02*
X140208000Y-122555000D01*
X137388000Y-125375000D02*
X138938000Y-125375000D01*
X140208000Y-125095000D02*
X140208000Y-122555000D01*
X138938000Y-122275000D02*
X137388000Y-122275000D01*
X137388000Y-122275000D02*
X137388000Y-125375000D01*
%TO.C,P2*%
X163068000Y-125095000D02*
X175768000Y-125095000D01*
X175768000Y-125095000D02*
X175768000Y-122555000D01*
X175768000Y-122555000D02*
X163068000Y-122555000D01*
X160248000Y-125375000D02*
X161798000Y-125375000D01*
X163068000Y-125095000D02*
X163068000Y-122555000D01*
X161798000Y-122275000D02*
X160248000Y-122275000D01*
X160248000Y-122275000D02*
X160248000Y-125375000D01*
%TO.C,P3*%
X131064000Y-76835000D02*
X153924000Y-76835000D01*
X153924000Y-76835000D02*
X153924000Y-74295000D01*
X153924000Y-74295000D02*
X131064000Y-74295000D01*
X128244000Y-77115000D02*
X129794000Y-77115000D01*
X131064000Y-76835000D02*
X131064000Y-74295000D01*
X129794000Y-74015000D02*
X128244000Y-74015000D01*
X128244000Y-74015000D02*
X128244000Y-77115000D01*
%TO.C,P4*%
X157988000Y-76835000D02*
X175768000Y-76835000D01*
X175768000Y-76835000D02*
X175768000Y-74295000D01*
X175768000Y-74295000D02*
X157988000Y-74295000D01*
X155168000Y-77115000D02*
X156718000Y-77115000D01*
X157988000Y-76835000D02*
X157988000Y-74295000D01*
X156718000Y-74015000D02*
X155168000Y-74015000D01*
X155168000Y-74015000D02*
X155168000Y-77115000D01*
%TO.C,P5*%
X127254000Y-123825000D02*
G75*
G03*
X127254000Y-123825000I-2286000J0D01*
G01*
%TO.C,P6*%
X179324000Y-118745000D02*
G75*
G03*
X179324000Y-118745000I-2286000J0D01*
G01*
%TO.C,P7*%
X128524000Y-75565000D02*
G75*
G03*
X128524000Y-75565000I-2286000J0D01*
G01*
%TO.C,P8*%
X179324000Y-90805000D02*
G75*
G03*
X179324000Y-90805000I-2286000J0D01*
G01*
%TO.C,R19*%
X140272380Y-111142857D02*
X139796190Y-111476190D01*
X140272380Y-111714285D02*
X139272380Y-111714285D01*
X139272380Y-111333333D01*
X139320000Y-111238095D01*
X139367619Y-111190476D01*
X139462857Y-111142857D01*
X139605714Y-111142857D01*
X139700952Y-111190476D01*
X139748571Y-111238095D01*
X139796190Y-111333333D01*
X139796190Y-111714285D01*
X140272380Y-110190476D02*
X140272380Y-110761904D01*
X140272380Y-110476190D02*
X139272380Y-110476190D01*
X139415238Y-110571428D01*
X139510476Y-110666666D01*
X139558095Y-110761904D01*
X140272380Y-109714285D02*
X140272380Y-109523809D01*
X140224761Y-109428571D01*
X140177142Y-109380952D01*
X140034285Y-109285714D01*
X139843809Y-109238095D01*
X139462857Y-109238095D01*
X139367619Y-109285714D01*
X139320000Y-109333333D01*
X139272380Y-109428571D01*
X139272380Y-109619047D01*
X139320000Y-109714285D01*
X139367619Y-109761904D01*
X139462857Y-109809523D01*
X139700952Y-109809523D01*
X139796190Y-109761904D01*
X139843809Y-109714285D01*
X139891428Y-109619047D01*
X139891428Y-109428571D01*
X139843809Y-109333333D01*
X139796190Y-109285714D01*
X139700952Y-109238095D01*
%TO.C,J8*%
X126557380Y-124208333D02*
X127271666Y-124208333D01*
X127414523Y-124255952D01*
X127509761Y-124351190D01*
X127557380Y-124494047D01*
X127557380Y-124589285D01*
X126985952Y-123589285D02*
X126938333Y-123684523D01*
X126890714Y-123732142D01*
X126795476Y-123779761D01*
X126747857Y-123779761D01*
X126652619Y-123732142D01*
X126605000Y-123684523D01*
X126557380Y-123589285D01*
X126557380Y-123398809D01*
X126605000Y-123303571D01*
X126652619Y-123255952D01*
X126747857Y-123208333D01*
X126795476Y-123208333D01*
X126890714Y-123255952D01*
X126938333Y-123303571D01*
X126985952Y-123398809D01*
X126985952Y-123589285D01*
X127033571Y-123684523D01*
X127081190Y-123732142D01*
X127176428Y-123779761D01*
X127366904Y-123779761D01*
X127462142Y-123732142D01*
X127509761Y-123684523D01*
X127557380Y-123589285D01*
X127557380Y-123398809D01*
X127509761Y-123303571D01*
X127462142Y-123255952D01*
X127366904Y-123208333D01*
X127176428Y-123208333D01*
X127081190Y-123255952D01*
X127033571Y-123303571D01*
X126985952Y-123398809D01*
%TO.C,C27*%
X162442142Y-114561857D02*
X162489761Y-114609476D01*
X162537380Y-114752333D01*
X162537380Y-114847571D01*
X162489761Y-114990428D01*
X162394523Y-115085666D01*
X162299285Y-115133285D01*
X162108809Y-115180904D01*
X161965952Y-115180904D01*
X161775476Y-115133285D01*
X161680238Y-115085666D01*
X161585000Y-114990428D01*
X161537380Y-114847571D01*
X161537380Y-114752333D01*
X161585000Y-114609476D01*
X161632619Y-114561857D01*
X161632619Y-114180904D02*
X161585000Y-114133285D01*
X161537380Y-114038047D01*
X161537380Y-113799952D01*
X161585000Y-113704714D01*
X161632619Y-113657095D01*
X161727857Y-113609476D01*
X161823095Y-113609476D01*
X161965952Y-113657095D01*
X162537380Y-114228523D01*
X162537380Y-113609476D01*
X161537380Y-113276142D02*
X161537380Y-112609476D01*
X162537380Y-113038047D01*
%TO.C,R18*%
X155392380Y-95511857D02*
X154916190Y-95845190D01*
X155392380Y-96083285D02*
X154392380Y-96083285D01*
X154392380Y-95702333D01*
X154440000Y-95607095D01*
X154487619Y-95559476D01*
X154582857Y-95511857D01*
X154725714Y-95511857D01*
X154820952Y-95559476D01*
X154868571Y-95607095D01*
X154916190Y-95702333D01*
X154916190Y-96083285D01*
X155392380Y-94559476D02*
X155392380Y-95130904D01*
X155392380Y-94845190D02*
X154392380Y-94845190D01*
X154535238Y-94940428D01*
X154630476Y-95035666D01*
X154678095Y-95130904D01*
X154820952Y-93988047D02*
X154773333Y-94083285D01*
X154725714Y-94130904D01*
X154630476Y-94178523D01*
X154582857Y-94178523D01*
X154487619Y-94130904D01*
X154440000Y-94083285D01*
X154392380Y-93988047D01*
X154392380Y-93797571D01*
X154440000Y-93702333D01*
X154487619Y-93654714D01*
X154582857Y-93607095D01*
X154630476Y-93607095D01*
X154725714Y-93654714D01*
X154773333Y-93702333D01*
X154820952Y-93797571D01*
X154820952Y-93988047D01*
X154868571Y-94083285D01*
X154916190Y-94130904D01*
X155011428Y-94178523D01*
X155201904Y-94178523D01*
X155297142Y-94130904D01*
X155344761Y-94083285D01*
X155392380Y-93988047D01*
X155392380Y-93797571D01*
X155344761Y-93702333D01*
X155297142Y-93654714D01*
X155201904Y-93607095D01*
X155011428Y-93607095D01*
X154916190Y-93654714D01*
X154868571Y-93702333D01*
X154820952Y-93797571D01*
%TO.C,R17*%
X156789380Y-95511857D02*
X156313190Y-95845190D01*
X156789380Y-96083285D02*
X155789380Y-96083285D01*
X155789380Y-95702333D01*
X155837000Y-95607095D01*
X155884619Y-95559476D01*
X155979857Y-95511857D01*
X156122714Y-95511857D01*
X156217952Y-95559476D01*
X156265571Y-95607095D01*
X156313190Y-95702333D01*
X156313190Y-96083285D01*
X156789380Y-94559476D02*
X156789380Y-95130904D01*
X156789380Y-94845190D02*
X155789380Y-94845190D01*
X155932238Y-94940428D01*
X156027476Y-95035666D01*
X156075095Y-95130904D01*
X155789380Y-94226142D02*
X155789380Y-93559476D01*
X156789380Y-93988047D01*
%TO.C,R16*%
X162425142Y-88844380D02*
X162091809Y-88368190D01*
X161853714Y-88844380D02*
X161853714Y-87844380D01*
X162234666Y-87844380D01*
X162329904Y-87892000D01*
X162377523Y-87939619D01*
X162425142Y-88034857D01*
X162425142Y-88177714D01*
X162377523Y-88272952D01*
X162329904Y-88320571D01*
X162234666Y-88368190D01*
X161853714Y-88368190D01*
X163377523Y-88844380D02*
X162806095Y-88844380D01*
X163091809Y-88844380D02*
X163091809Y-87844380D01*
X162996571Y-87987238D01*
X162901333Y-88082476D01*
X162806095Y-88130095D01*
X164234666Y-87844380D02*
X164044190Y-87844380D01*
X163948952Y-87892000D01*
X163901333Y-87939619D01*
X163806095Y-88082476D01*
X163758476Y-88272952D01*
X163758476Y-88653904D01*
X163806095Y-88749142D01*
X163853714Y-88796761D01*
X163948952Y-88844380D01*
X164139428Y-88844380D01*
X164234666Y-88796761D01*
X164282285Y-88749142D01*
X164329904Y-88653904D01*
X164329904Y-88415809D01*
X164282285Y-88320571D01*
X164234666Y-88272952D01*
X164139428Y-88225333D01*
X163948952Y-88225333D01*
X163853714Y-88272952D01*
X163806095Y-88320571D01*
X163758476Y-88415809D01*
%TO.C,D6*%
X153004161Y-89085859D02*
X152297054Y-88378753D01*
X152465413Y-88210394D01*
X152600100Y-88143050D01*
X152734787Y-88143050D01*
X152835802Y-88176722D01*
X153004161Y-88277737D01*
X153105176Y-88378753D01*
X153206192Y-88547111D01*
X153239863Y-88648127D01*
X153239863Y-88782814D01*
X153172520Y-88917501D01*
X153004161Y-89085859D01*
X153307207Y-87368600D02*
X153172520Y-87503287D01*
X153138848Y-87604302D01*
X153138848Y-87671646D01*
X153172520Y-87840004D01*
X153273535Y-88008363D01*
X153542909Y-88277737D01*
X153643924Y-88311409D01*
X153711268Y-88311409D01*
X153812283Y-88277737D01*
X153946970Y-88143050D01*
X153980642Y-88042035D01*
X153980642Y-87974691D01*
X153946970Y-87873676D01*
X153778611Y-87705317D01*
X153677596Y-87671646D01*
X153610253Y-87671646D01*
X153509237Y-87705317D01*
X153374550Y-87840004D01*
X153340879Y-87941020D01*
X153340879Y-88008363D01*
X153374550Y-88109378D01*
%TO.C,R15*%
X128341380Y-114561857D02*
X127865190Y-114895190D01*
X128341380Y-115133285D02*
X127341380Y-115133285D01*
X127341380Y-114752333D01*
X127389000Y-114657095D01*
X127436619Y-114609476D01*
X127531857Y-114561857D01*
X127674714Y-114561857D01*
X127769952Y-114609476D01*
X127817571Y-114657095D01*
X127865190Y-114752333D01*
X127865190Y-115133285D01*
X128341380Y-113609476D02*
X128341380Y-114180904D01*
X128341380Y-113895190D02*
X127341380Y-113895190D01*
X127484238Y-113990428D01*
X127579476Y-114085666D01*
X127627095Y-114180904D01*
X127341380Y-112704714D02*
X127341380Y-113180904D01*
X127817571Y-113228523D01*
X127769952Y-113180904D01*
X127722333Y-113085666D01*
X127722333Y-112847571D01*
X127769952Y-112752333D01*
X127817571Y-112704714D01*
X127912809Y-112657095D01*
X128150904Y-112657095D01*
X128246142Y-112704714D01*
X128293761Y-112752333D01*
X128341380Y-112847571D01*
X128341380Y-113085666D01*
X128293761Y-113180904D01*
X128246142Y-113228523D01*
%TO.C,R1*%
X126817380Y-113958666D02*
X126341190Y-114292000D01*
X126817380Y-114530095D02*
X125817380Y-114530095D01*
X125817380Y-114149142D01*
X125865000Y-114053904D01*
X125912619Y-114006285D01*
X126007857Y-113958666D01*
X126150714Y-113958666D01*
X126245952Y-114006285D01*
X126293571Y-114053904D01*
X126341190Y-114149142D01*
X126341190Y-114530095D01*
X126817380Y-113006285D02*
X126817380Y-113577714D01*
X126817380Y-113292000D02*
X125817380Y-113292000D01*
X125960238Y-113387238D01*
X126055476Y-113482476D01*
X126103095Y-113577714D01*
%TO.C,J7*%
X126914380Y-117935333D02*
X127628666Y-117935333D01*
X127771523Y-117982952D01*
X127866761Y-118078190D01*
X127914380Y-118221047D01*
X127914380Y-118316285D01*
X126914380Y-117554380D02*
X126914380Y-116887714D01*
X127914380Y-117316285D01*
%TO.C,J6*%
X113331666Y-80732380D02*
X113331666Y-81446666D01*
X113284047Y-81589523D01*
X113188809Y-81684761D01*
X113045952Y-81732380D01*
X112950714Y-81732380D01*
X114236428Y-80732380D02*
X114045952Y-80732380D01*
X113950714Y-80780000D01*
X113903095Y-80827619D01*
X113807857Y-80970476D01*
X113760238Y-81160952D01*
X113760238Y-81541904D01*
X113807857Y-81637142D01*
X113855476Y-81684761D01*
X113950714Y-81732380D01*
X114141190Y-81732380D01*
X114236428Y-81684761D01*
X114284047Y-81637142D01*
X114331666Y-81541904D01*
X114331666Y-81303809D01*
X114284047Y-81208571D01*
X114236428Y-81160952D01*
X114141190Y-81113333D01*
X113950714Y-81113333D01*
X113855476Y-81160952D01*
X113807857Y-81208571D01*
X113760238Y-81303809D01*
%TO.C,J5*%
X113458666Y-74890380D02*
X113458666Y-75604666D01*
X113411047Y-75747523D01*
X113315809Y-75842761D01*
X113172952Y-75890380D01*
X113077714Y-75890380D01*
X114411047Y-74890380D02*
X113934857Y-74890380D01*
X113887238Y-75366571D01*
X113934857Y-75318952D01*
X114030095Y-75271333D01*
X114268190Y-75271333D01*
X114363428Y-75318952D01*
X114411047Y-75366571D01*
X114458666Y-75461809D01*
X114458666Y-75699904D01*
X114411047Y-75795142D01*
X114363428Y-75842761D01*
X114268190Y-75890380D01*
X114030095Y-75890380D01*
X113934857Y-75842761D01*
X113887238Y-75795142D01*
%TO.C,L3*%
X159454380Y-95924666D02*
X159454380Y-96400857D01*
X158454380Y-96400857D01*
X158454380Y-95686571D02*
X158454380Y-95067523D01*
X158835333Y-95400857D01*
X158835333Y-95258000D01*
X158882952Y-95162761D01*
X158930571Y-95115142D01*
X159025809Y-95067523D01*
X159263904Y-95067523D01*
X159359142Y-95115142D01*
X159406761Y-95162761D01*
X159454380Y-95258000D01*
X159454380Y-95543714D01*
X159406761Y-95638952D01*
X159359142Y-95686571D01*
%TO.C,U15*%
X140930380Y-112871095D02*
X141739904Y-112871095D01*
X141835142Y-112823476D01*
X141882761Y-112775857D01*
X141930380Y-112680619D01*
X141930380Y-112490142D01*
X141882761Y-112394904D01*
X141835142Y-112347285D01*
X141739904Y-112299666D01*
X140930380Y-112299666D01*
X141930380Y-111299666D02*
X141930380Y-111871095D01*
X141930380Y-111585380D02*
X140930380Y-111585380D01*
X141073238Y-111680619D01*
X141168476Y-111775857D01*
X141216095Y-111871095D01*
X140930380Y-110394904D02*
X140930380Y-110871095D01*
X141406571Y-110918714D01*
X141358952Y-110871095D01*
X141311333Y-110775857D01*
X141311333Y-110537761D01*
X141358952Y-110442523D01*
X141406571Y-110394904D01*
X141501809Y-110347285D01*
X141739904Y-110347285D01*
X141835142Y-110394904D01*
X141882761Y-110442523D01*
X141930380Y-110537761D01*
X141930380Y-110775857D01*
X141882761Y-110871095D01*
X141835142Y-110918714D01*
%TO.C,C19*%
X142125142Y-120207857D02*
X142172761Y-120255476D01*
X142220380Y-120398333D01*
X142220380Y-120493571D01*
X142172761Y-120636428D01*
X142077523Y-120731666D01*
X141982285Y-120779285D01*
X141791809Y-120826904D01*
X141648952Y-120826904D01*
X141458476Y-120779285D01*
X141363238Y-120731666D01*
X141268000Y-120636428D01*
X141220380Y-120493571D01*
X141220380Y-120398333D01*
X141268000Y-120255476D01*
X141315619Y-120207857D01*
X142220380Y-119255476D02*
X142220380Y-119826904D01*
X142220380Y-119541190D02*
X141220380Y-119541190D01*
X141363238Y-119636428D01*
X141458476Y-119731666D01*
X141506095Y-119826904D01*
X142220380Y-118779285D02*
X142220380Y-118588809D01*
X142172761Y-118493571D01*
X142125142Y-118445952D01*
X141982285Y-118350714D01*
X141791809Y-118303095D01*
X141410857Y-118303095D01*
X141315619Y-118350714D01*
X141268000Y-118398333D01*
X141220380Y-118493571D01*
X141220380Y-118684047D01*
X141268000Y-118779285D01*
X141315619Y-118826904D01*
X141410857Y-118874523D01*
X141648952Y-118874523D01*
X141744190Y-118826904D01*
X141791809Y-118779285D01*
X141839428Y-118684047D01*
X141839428Y-118493571D01*
X141791809Y-118398333D01*
X141744190Y-118350714D01*
X141648952Y-118303095D01*
%TO.C,C26*%
X141454142Y-116466857D02*
X141501761Y-116514476D01*
X141549380Y-116657333D01*
X141549380Y-116752571D01*
X141501761Y-116895428D01*
X141406523Y-116990666D01*
X141311285Y-117038285D01*
X141120809Y-117085904D01*
X140977952Y-117085904D01*
X140787476Y-117038285D01*
X140692238Y-116990666D01*
X140597000Y-116895428D01*
X140549380Y-116752571D01*
X140549380Y-116657333D01*
X140597000Y-116514476D01*
X140644619Y-116466857D01*
X140644619Y-116085904D02*
X140597000Y-116038285D01*
X140549380Y-115943047D01*
X140549380Y-115704952D01*
X140597000Y-115609714D01*
X140644619Y-115562095D01*
X140739857Y-115514476D01*
X140835095Y-115514476D01*
X140977952Y-115562095D01*
X141549380Y-116133523D01*
X141549380Y-115514476D01*
X140549380Y-114657333D02*
X140549380Y-114847809D01*
X140597000Y-114943047D01*
X140644619Y-114990666D01*
X140787476Y-115085904D01*
X140977952Y-115133523D01*
X141358904Y-115133523D01*
X141454142Y-115085904D01*
X141501761Y-115038285D01*
X141549380Y-114943047D01*
X141549380Y-114752571D01*
X141501761Y-114657333D01*
X141454142Y-114609714D01*
X141358904Y-114562095D01*
X141120809Y-114562095D01*
X141025571Y-114609714D01*
X140977952Y-114657333D01*
X140930333Y-114752571D01*
X140930333Y-114943047D01*
X140977952Y-115038285D01*
X141025571Y-115085904D01*
X141120809Y-115133523D01*
%TO.C,C25*%
X163037142Y-101392857D02*
X163084761Y-101440476D01*
X163132380Y-101583333D01*
X163132380Y-101678571D01*
X163084761Y-101821428D01*
X162989523Y-101916666D01*
X162894285Y-101964285D01*
X162703809Y-102011904D01*
X162560952Y-102011904D01*
X162370476Y-101964285D01*
X162275238Y-101916666D01*
X162180000Y-101821428D01*
X162132380Y-101678571D01*
X162132380Y-101583333D01*
X162180000Y-101440476D01*
X162227619Y-101392857D01*
X162227619Y-101011904D02*
X162180000Y-100964285D01*
X162132380Y-100869047D01*
X162132380Y-100630952D01*
X162180000Y-100535714D01*
X162227619Y-100488095D01*
X162322857Y-100440476D01*
X162418095Y-100440476D01*
X162560952Y-100488095D01*
X163132380Y-101059523D01*
X163132380Y-100440476D01*
X162132380Y-99535714D02*
X162132380Y-100011904D01*
X162608571Y-100059523D01*
X162560952Y-100011904D01*
X162513333Y-99916666D01*
X162513333Y-99678571D01*
X162560952Y-99583333D01*
X162608571Y-99535714D01*
X162703809Y-99488095D01*
X162941904Y-99488095D01*
X163037142Y-99535714D01*
X163084761Y-99583333D01*
X163132380Y-99678571D01*
X163132380Y-99916666D01*
X163084761Y-100011904D01*
X163037142Y-100059523D01*
%TO.C,C24*%
X148820142Y-95130857D02*
X148867761Y-95178476D01*
X148915380Y-95321333D01*
X148915380Y-95416571D01*
X148867761Y-95559428D01*
X148772523Y-95654666D01*
X148677285Y-95702285D01*
X148486809Y-95749904D01*
X148343952Y-95749904D01*
X148153476Y-95702285D01*
X148058238Y-95654666D01*
X147963000Y-95559428D01*
X147915380Y-95416571D01*
X147915380Y-95321333D01*
X147963000Y-95178476D01*
X148010619Y-95130857D01*
X148010619Y-94749904D02*
X147963000Y-94702285D01*
X147915380Y-94607047D01*
X147915380Y-94368952D01*
X147963000Y-94273714D01*
X148010619Y-94226095D01*
X148105857Y-94178476D01*
X148201095Y-94178476D01*
X148343952Y-94226095D01*
X148915380Y-94797523D01*
X148915380Y-94178476D01*
X148248714Y-93321333D02*
X148915380Y-93321333D01*
X147867761Y-93559428D02*
X148582047Y-93797523D01*
X148582047Y-93178476D01*
%TO.C,C23*%
X143925142Y-95007857D02*
X143972761Y-95055476D01*
X144020380Y-95198333D01*
X144020380Y-95293571D01*
X143972761Y-95436428D01*
X143877523Y-95531666D01*
X143782285Y-95579285D01*
X143591809Y-95626904D01*
X143448952Y-95626904D01*
X143258476Y-95579285D01*
X143163238Y-95531666D01*
X143068000Y-95436428D01*
X143020380Y-95293571D01*
X143020380Y-95198333D01*
X143068000Y-95055476D01*
X143115619Y-95007857D01*
X143115619Y-94626904D02*
X143068000Y-94579285D01*
X143020380Y-94484047D01*
X143020380Y-94245952D01*
X143068000Y-94150714D01*
X143115619Y-94103095D01*
X143210857Y-94055476D01*
X143306095Y-94055476D01*
X143448952Y-94103095D01*
X144020380Y-94674523D01*
X144020380Y-94055476D01*
X143020380Y-93722142D02*
X143020380Y-93103095D01*
X143401333Y-93436428D01*
X143401333Y-93293571D01*
X143448952Y-93198333D01*
X143496571Y-93150714D01*
X143591809Y-93103095D01*
X143829904Y-93103095D01*
X143925142Y-93150714D01*
X143972761Y-93198333D01*
X144020380Y-93293571D01*
X144020380Y-93579285D01*
X143972761Y-93674523D01*
X143925142Y-93722142D01*
%TO.C,C22*%
X149090142Y-116181142D02*
X149042523Y-116228761D01*
X148899666Y-116276380D01*
X148804428Y-116276380D01*
X148661571Y-116228761D01*
X148566333Y-116133523D01*
X148518714Y-116038285D01*
X148471095Y-115847809D01*
X148471095Y-115704952D01*
X148518714Y-115514476D01*
X148566333Y-115419238D01*
X148661571Y-115324000D01*
X148804428Y-115276380D01*
X148899666Y-115276380D01*
X149042523Y-115324000D01*
X149090142Y-115371619D01*
X149471095Y-115371619D02*
X149518714Y-115324000D01*
X149613952Y-115276380D01*
X149852047Y-115276380D01*
X149947285Y-115324000D01*
X149994904Y-115371619D01*
X150042523Y-115466857D01*
X150042523Y-115562095D01*
X149994904Y-115704952D01*
X149423476Y-116276380D01*
X150042523Y-116276380D01*
X150423476Y-115371619D02*
X150471095Y-115324000D01*
X150566333Y-115276380D01*
X150804428Y-115276380D01*
X150899666Y-115324000D01*
X150947285Y-115371619D01*
X150994904Y-115466857D01*
X150994904Y-115562095D01*
X150947285Y-115704952D01*
X150375857Y-116276380D01*
X150994904Y-116276380D01*
%TO.C,C20*%
X166362142Y-104792142D02*
X166314523Y-104839761D01*
X166171666Y-104887380D01*
X166076428Y-104887380D01*
X165933571Y-104839761D01*
X165838333Y-104744523D01*
X165790714Y-104649285D01*
X165743095Y-104458809D01*
X165743095Y-104315952D01*
X165790714Y-104125476D01*
X165838333Y-104030238D01*
X165933571Y-103935000D01*
X166076428Y-103887380D01*
X166171666Y-103887380D01*
X166314523Y-103935000D01*
X166362142Y-103982619D01*
X166743095Y-103982619D02*
X166790714Y-103935000D01*
X166885952Y-103887380D01*
X167124047Y-103887380D01*
X167219285Y-103935000D01*
X167266904Y-103982619D01*
X167314523Y-104077857D01*
X167314523Y-104173095D01*
X167266904Y-104315952D01*
X166695476Y-104887380D01*
X167314523Y-104887380D01*
X167933571Y-103887380D02*
X168028809Y-103887380D01*
X168124047Y-103935000D01*
X168171666Y-103982619D01*
X168219285Y-104077857D01*
X168266904Y-104268333D01*
X168266904Y-104506428D01*
X168219285Y-104696904D01*
X168171666Y-104792142D01*
X168124047Y-104839761D01*
X168028809Y-104887380D01*
X167933571Y-104887380D01*
X167838333Y-104839761D01*
X167790714Y-104792142D01*
X167743095Y-104696904D01*
X167695476Y-104506428D01*
X167695476Y-104268333D01*
X167743095Y-104077857D01*
X167790714Y-103982619D01*
X167838333Y-103935000D01*
X167933571Y-103887380D01*
%TO.C,C17*%
X166235142Y-106021142D02*
X166187523Y-106068761D01*
X166044666Y-106116380D01*
X165949428Y-106116380D01*
X165806571Y-106068761D01*
X165711333Y-105973523D01*
X165663714Y-105878285D01*
X165616095Y-105687809D01*
X165616095Y-105544952D01*
X165663714Y-105354476D01*
X165711333Y-105259238D01*
X165806571Y-105164000D01*
X165949428Y-105116380D01*
X166044666Y-105116380D01*
X166187523Y-105164000D01*
X166235142Y-105211619D01*
X167187523Y-106116380D02*
X166616095Y-106116380D01*
X166901809Y-106116380D02*
X166901809Y-105116380D01*
X166806571Y-105259238D01*
X166711333Y-105354476D01*
X166616095Y-105402095D01*
X167520857Y-105116380D02*
X168187523Y-105116380D01*
X167758952Y-106116380D01*
%TO.C,U11*%
X173859904Y-93517380D02*
X173859904Y-94326904D01*
X173907523Y-94422142D01*
X173955142Y-94469761D01*
X174050380Y-94517380D01*
X174240857Y-94517380D01*
X174336095Y-94469761D01*
X174383714Y-94422142D01*
X174431333Y-94326904D01*
X174431333Y-93517380D01*
X175431333Y-94517380D02*
X174859904Y-94517380D01*
X175145619Y-94517380D02*
X175145619Y-93517380D01*
X175050380Y-93660238D01*
X174955142Y-93755476D01*
X174859904Y-93803095D01*
X176383714Y-94517380D02*
X175812285Y-94517380D01*
X176098000Y-94517380D02*
X176098000Y-93517380D01*
X176002761Y-93660238D01*
X175907523Y-93755476D01*
X175812285Y-93803095D01*
%TO.C,U19*%
X161885380Y-115284095D02*
X162694904Y-115284095D01*
X162790142Y-115236476D01*
X162837761Y-115188857D01*
X162885380Y-115093619D01*
X162885380Y-114903142D01*
X162837761Y-114807904D01*
X162790142Y-114760285D01*
X162694904Y-114712666D01*
X161885380Y-114712666D01*
X162885380Y-113712666D02*
X162885380Y-114284095D01*
X162885380Y-113998380D02*
X161885380Y-113998380D01*
X162028238Y-114093619D01*
X162123476Y-114188857D01*
X162171095Y-114284095D01*
X162885380Y-113236476D02*
X162885380Y-113046000D01*
X162837761Y-112950761D01*
X162790142Y-112903142D01*
X162647285Y-112807904D01*
X162456809Y-112760285D01*
X162075857Y-112760285D01*
X161980619Y-112807904D01*
X161933000Y-112855523D01*
X161885380Y-112950761D01*
X161885380Y-113141238D01*
X161933000Y-113236476D01*
X161980619Y-113284095D01*
X162075857Y-113331714D01*
X162313952Y-113331714D01*
X162409190Y-113284095D01*
X162456809Y-113236476D01*
X162504428Y-113141238D01*
X162504428Y-112950761D01*
X162456809Y-112855523D01*
X162409190Y-112807904D01*
X162313952Y-112760285D01*
%TO.C,U18*%
X156636904Y-115827380D02*
X156636904Y-116636904D01*
X156684523Y-116732142D01*
X156732142Y-116779761D01*
X156827380Y-116827380D01*
X157017857Y-116827380D01*
X157113095Y-116779761D01*
X157160714Y-116732142D01*
X157208333Y-116636904D01*
X157208333Y-115827380D01*
X158208333Y-116827380D02*
X157636904Y-116827380D01*
X157922619Y-116827380D02*
X157922619Y-115827380D01*
X157827380Y-115970238D01*
X157732142Y-116065476D01*
X157636904Y-116113095D01*
X158779761Y-116255952D02*
X158684523Y-116208333D01*
X158636904Y-116160714D01*
X158589285Y-116065476D01*
X158589285Y-116017857D01*
X158636904Y-115922619D01*
X158684523Y-115875000D01*
X158779761Y-115827380D01*
X158970238Y-115827380D01*
X159065476Y-115875000D01*
X159113095Y-115922619D01*
X159160714Y-116017857D01*
X159160714Y-116065476D01*
X159113095Y-116160714D01*
X159065476Y-116208333D01*
X158970238Y-116255952D01*
X158779761Y-116255952D01*
X158684523Y-116303571D01*
X158636904Y-116351190D01*
X158589285Y-116446428D01*
X158589285Y-116636904D01*
X158636904Y-116732142D01*
X158684523Y-116779761D01*
X158779761Y-116827380D01*
X158970238Y-116827380D01*
X159065476Y-116779761D01*
X159113095Y-116732142D01*
X159160714Y-116636904D01*
X159160714Y-116446428D01*
X159113095Y-116351190D01*
X159065476Y-116303571D01*
X158970238Y-116255952D01*
%TO.C,U17*%
X162901380Y-118863095D02*
X163710904Y-118863095D01*
X163806142Y-118815476D01*
X163853761Y-118767857D01*
X163901380Y-118672619D01*
X163901380Y-118482142D01*
X163853761Y-118386904D01*
X163806142Y-118339285D01*
X163710904Y-118291666D01*
X162901380Y-118291666D01*
X163901380Y-117291666D02*
X163901380Y-117863095D01*
X163901380Y-117577380D02*
X162901380Y-117577380D01*
X163044238Y-117672619D01*
X163139476Y-117767857D01*
X163187095Y-117863095D01*
X162901380Y-116958333D02*
X162901380Y-116291666D01*
X163901380Y-116720238D01*
%TO.C,U16*%
X166452380Y-92238095D02*
X167261904Y-92238095D01*
X167357142Y-92190476D01*
X167404761Y-92142857D01*
X167452380Y-92047619D01*
X167452380Y-91857142D01*
X167404761Y-91761904D01*
X167357142Y-91714285D01*
X167261904Y-91666666D01*
X166452380Y-91666666D01*
X167452380Y-90666666D02*
X167452380Y-91238095D01*
X167452380Y-90952380D02*
X166452380Y-90952380D01*
X166595238Y-91047619D01*
X166690476Y-91142857D01*
X166738095Y-91238095D01*
X166452380Y-89809523D02*
X166452380Y-90000000D01*
X166500000Y-90095238D01*
X166547619Y-90142857D01*
X166690476Y-90238095D01*
X166880952Y-90285714D01*
X167261904Y-90285714D01*
X167357142Y-90238095D01*
X167404761Y-90190476D01*
X167452380Y-90095238D01*
X167452380Y-89904761D01*
X167404761Y-89809523D01*
X167357142Y-89761904D01*
X167261904Y-89714285D01*
X167023809Y-89714285D01*
X166928571Y-89761904D01*
X166880952Y-89809523D01*
X166833333Y-89904761D01*
X166833333Y-90095238D01*
X166880952Y-90190476D01*
X166928571Y-90238095D01*
X167023809Y-90285714D01*
%TO.C,J4*%
X160064666Y-86999380D02*
X160064666Y-87713666D01*
X160017047Y-87856523D01*
X159921809Y-87951761D01*
X159778952Y-87999380D01*
X159683714Y-87999380D01*
X160969428Y-87332714D02*
X160969428Y-87999380D01*
X160731333Y-86951761D02*
X160493238Y-87666047D01*
X161112285Y-87666047D01*
%TO.C,Y1*%
X151669809Y-116141190D02*
X151669809Y-116617380D01*
X151336476Y-115617380D02*
X151669809Y-116141190D01*
X152003142Y-115617380D01*
X152860285Y-116617380D02*
X152288857Y-116617380D01*
X152574571Y-116617380D02*
X152574571Y-115617380D01*
X152479333Y-115760238D01*
X152384095Y-115855476D01*
X152288857Y-115903095D01*
%TO.C,L2*%
X166330333Y-102052380D02*
X165854142Y-102052380D01*
X165854142Y-101052380D01*
X166616047Y-101147619D02*
X166663666Y-101100000D01*
X166758904Y-101052380D01*
X166997000Y-101052380D01*
X167092238Y-101100000D01*
X167139857Y-101147619D01*
X167187476Y-101242857D01*
X167187476Y-101338095D01*
X167139857Y-101480952D01*
X166568428Y-102052380D01*
X167187476Y-102052380D01*
%TO.C,L1*%
X174062380Y-90736666D02*
X174062380Y-91212857D01*
X173062380Y-91212857D01*
X174062380Y-89879523D02*
X174062380Y-90450952D01*
X174062380Y-90165238D02*
X173062380Y-90165238D01*
X173205238Y-90260476D01*
X173300476Y-90355714D01*
X173348095Y-90450952D01*
%TO.C,C28*%
X142075142Y-99310857D02*
X142122761Y-99358476D01*
X142170380Y-99501333D01*
X142170380Y-99596571D01*
X142122761Y-99739428D01*
X142027523Y-99834666D01*
X141932285Y-99882285D01*
X141741809Y-99929904D01*
X141598952Y-99929904D01*
X141408476Y-99882285D01*
X141313238Y-99834666D01*
X141218000Y-99739428D01*
X141170380Y-99596571D01*
X141170380Y-99501333D01*
X141218000Y-99358476D01*
X141265619Y-99310857D01*
X141265619Y-98929904D02*
X141218000Y-98882285D01*
X141170380Y-98787047D01*
X141170380Y-98548952D01*
X141218000Y-98453714D01*
X141265619Y-98406095D01*
X141360857Y-98358476D01*
X141456095Y-98358476D01*
X141598952Y-98406095D01*
X142170380Y-98977523D01*
X142170380Y-98358476D01*
X141598952Y-97787047D02*
X141551333Y-97882285D01*
X141503714Y-97929904D01*
X141408476Y-97977523D01*
X141360857Y-97977523D01*
X141265619Y-97929904D01*
X141218000Y-97882285D01*
X141170380Y-97787047D01*
X141170380Y-97596571D01*
X141218000Y-97501333D01*
X141265619Y-97453714D01*
X141360857Y-97406095D01*
X141408476Y-97406095D01*
X141503714Y-97453714D01*
X141551333Y-97501333D01*
X141598952Y-97596571D01*
X141598952Y-97787047D01*
X141646571Y-97882285D01*
X141694190Y-97929904D01*
X141789428Y-97977523D01*
X141979904Y-97977523D01*
X142075142Y-97929904D01*
X142122761Y-97882285D01*
X142170380Y-97787047D01*
X142170380Y-97596571D01*
X142122761Y-97501333D01*
X142075142Y-97453714D01*
X141979904Y-97406095D01*
X141789428Y-97406095D01*
X141694190Y-97453714D01*
X141646571Y-97501333D01*
X141598952Y-97596571D01*
%TO.C,C21*%
X166362142Y-103292142D02*
X166314523Y-103339761D01*
X166171666Y-103387380D01*
X166076428Y-103387380D01*
X165933571Y-103339761D01*
X165838333Y-103244523D01*
X165790714Y-103149285D01*
X165743095Y-102958809D01*
X165743095Y-102815952D01*
X165790714Y-102625476D01*
X165838333Y-102530238D01*
X165933571Y-102435000D01*
X166076428Y-102387380D01*
X166171666Y-102387380D01*
X166314523Y-102435000D01*
X166362142Y-102482619D01*
X166743095Y-102482619D02*
X166790714Y-102435000D01*
X166885952Y-102387380D01*
X167124047Y-102387380D01*
X167219285Y-102435000D01*
X167266904Y-102482619D01*
X167314523Y-102577857D01*
X167314523Y-102673095D01*
X167266904Y-102815952D01*
X166695476Y-103387380D01*
X167314523Y-103387380D01*
X168266904Y-103387380D02*
X167695476Y-103387380D01*
X167981190Y-103387380D02*
X167981190Y-102387380D01*
X167885952Y-102530238D01*
X167790714Y-102625476D01*
X167695476Y-102673095D01*
%TO.C,C18*%
X163060142Y-111101142D02*
X163012523Y-111148761D01*
X162869666Y-111196380D01*
X162774428Y-111196380D01*
X162631571Y-111148761D01*
X162536333Y-111053523D01*
X162488714Y-110958285D01*
X162441095Y-110767809D01*
X162441095Y-110624952D01*
X162488714Y-110434476D01*
X162536333Y-110339238D01*
X162631571Y-110244000D01*
X162774428Y-110196380D01*
X162869666Y-110196380D01*
X163012523Y-110244000D01*
X163060142Y-110291619D01*
X164012523Y-111196380D02*
X163441095Y-111196380D01*
X163726809Y-111196380D02*
X163726809Y-110196380D01*
X163631571Y-110339238D01*
X163536333Y-110434476D01*
X163441095Y-110482095D01*
X164583952Y-110624952D02*
X164488714Y-110577333D01*
X164441095Y-110529714D01*
X164393476Y-110434476D01*
X164393476Y-110386857D01*
X164441095Y-110291619D01*
X164488714Y-110244000D01*
X164583952Y-110196380D01*
X164774428Y-110196380D01*
X164869666Y-110244000D01*
X164917285Y-110291619D01*
X164964904Y-110386857D01*
X164964904Y-110434476D01*
X164917285Y-110529714D01*
X164869666Y-110577333D01*
X164774428Y-110624952D01*
X164583952Y-110624952D01*
X164488714Y-110672571D01*
X164441095Y-110720190D01*
X164393476Y-110815428D01*
X164393476Y-111005904D01*
X164441095Y-111101142D01*
X164488714Y-111148761D01*
X164583952Y-111196380D01*
X164774428Y-111196380D01*
X164869666Y-111148761D01*
X164917285Y-111101142D01*
X164964904Y-111005904D01*
X164964904Y-110815428D01*
X164917285Y-110720190D01*
X164869666Y-110672571D01*
X164774428Y-110624952D01*
%TO.C,C16*%
X155805142Y-118752857D02*
X155852761Y-118800476D01*
X155900380Y-118943333D01*
X155900380Y-119038571D01*
X155852761Y-119181428D01*
X155757523Y-119276666D01*
X155662285Y-119324285D01*
X155471809Y-119371904D01*
X155328952Y-119371904D01*
X155138476Y-119324285D01*
X155043238Y-119276666D01*
X154948000Y-119181428D01*
X154900380Y-119038571D01*
X154900380Y-118943333D01*
X154948000Y-118800476D01*
X154995619Y-118752857D01*
X155900380Y-117800476D02*
X155900380Y-118371904D01*
X155900380Y-118086190D02*
X154900380Y-118086190D01*
X155043238Y-118181428D01*
X155138476Y-118276666D01*
X155186095Y-118371904D01*
X154900380Y-116943333D02*
X154900380Y-117133809D01*
X154948000Y-117229047D01*
X154995619Y-117276666D01*
X155138476Y-117371904D01*
X155328952Y-117419523D01*
X155709904Y-117419523D01*
X155805142Y-117371904D01*
X155852761Y-117324285D01*
X155900380Y-117229047D01*
X155900380Y-117038571D01*
X155852761Y-116943333D01*
X155805142Y-116895714D01*
X155709904Y-116848095D01*
X155471809Y-116848095D01*
X155376571Y-116895714D01*
X155328952Y-116943333D01*
X155281333Y-117038571D01*
X155281333Y-117229047D01*
X155328952Y-117324285D01*
X155376571Y-117371904D01*
X155471809Y-117419523D01*
%TO.C,C15*%
X145518142Y-120911857D02*
X145565761Y-120959476D01*
X145613380Y-121102333D01*
X145613380Y-121197571D01*
X145565761Y-121340428D01*
X145470523Y-121435666D01*
X145375285Y-121483285D01*
X145184809Y-121530904D01*
X145041952Y-121530904D01*
X144851476Y-121483285D01*
X144756238Y-121435666D01*
X144661000Y-121340428D01*
X144613380Y-121197571D01*
X144613380Y-121102333D01*
X144661000Y-120959476D01*
X144708619Y-120911857D01*
X145613380Y-119959476D02*
X145613380Y-120530904D01*
X145613380Y-120245190D02*
X144613380Y-120245190D01*
X144756238Y-120340428D01*
X144851476Y-120435666D01*
X144899095Y-120530904D01*
X144613380Y-119054714D02*
X144613380Y-119530904D01*
X145089571Y-119578523D01*
X145041952Y-119530904D01*
X144994333Y-119435666D01*
X144994333Y-119197571D01*
X145041952Y-119102333D01*
X145089571Y-119054714D01*
X145184809Y-119007095D01*
X145422904Y-119007095D01*
X145518142Y-119054714D01*
X145565761Y-119102333D01*
X145613380Y-119197571D01*
X145613380Y-119435666D01*
X145565761Y-119530904D01*
X145518142Y-119578523D01*
%TO.C,J3*%
X168997380Y-103330333D02*
X169711666Y-103330333D01*
X169854523Y-103377952D01*
X169949761Y-103473190D01*
X169997380Y-103616047D01*
X169997380Y-103711285D01*
X168997380Y-102949380D02*
X168997380Y-102330333D01*
X169378333Y-102663666D01*
X169378333Y-102520809D01*
X169425952Y-102425571D01*
X169473571Y-102377952D01*
X169568809Y-102330333D01*
X169806904Y-102330333D01*
X169902142Y-102377952D01*
X169949761Y-102425571D01*
X169997380Y-102520809D01*
X169997380Y-102806523D01*
X169949761Y-102901761D01*
X169902142Y-102949380D01*
%TO.C,J2*%
X168997380Y-108156333D02*
X169711666Y-108156333D01*
X169854523Y-108203952D01*
X169949761Y-108299190D01*
X169997380Y-108442047D01*
X169997380Y-108537285D01*
X169092619Y-107727761D02*
X169045000Y-107680142D01*
X168997380Y-107584904D01*
X168997380Y-107346809D01*
X169045000Y-107251571D01*
X169092619Y-107203952D01*
X169187857Y-107156333D01*
X169283095Y-107156333D01*
X169425952Y-107203952D01*
X169997380Y-107775380D01*
X169997380Y-107156333D01*
%TO.C,J1*%
X168997380Y-113236333D02*
X169711666Y-113236333D01*
X169854523Y-113283952D01*
X169949761Y-113379190D01*
X169997380Y-113522047D01*
X169997380Y-113617285D01*
X169997380Y-112236333D02*
X169997380Y-112807761D01*
X169997380Y-112522047D02*
X168997380Y-112522047D01*
X169140238Y-112617285D01*
X169235476Y-112712523D01*
X169283095Y-112807761D01*
%TO.C,U14*%
X124928380Y-91408095D02*
X125737904Y-91408095D01*
X125833142Y-91360476D01*
X125880761Y-91312857D01*
X125928380Y-91217619D01*
X125928380Y-91027142D01*
X125880761Y-90931904D01*
X125833142Y-90884285D01*
X125737904Y-90836666D01*
X124928380Y-90836666D01*
X125928380Y-89836666D02*
X125928380Y-90408095D01*
X125928380Y-90122380D02*
X124928380Y-90122380D01*
X125071238Y-90217619D01*
X125166476Y-90312857D01*
X125214095Y-90408095D01*
X125261714Y-88979523D02*
X125928380Y-88979523D01*
X124880761Y-89217619D02*
X125595047Y-89455714D01*
X125595047Y-88836666D01*
%TO.C,U13*%
X124928380Y-85185095D02*
X125737904Y-85185095D01*
X125833142Y-85137476D01*
X125880761Y-85089857D01*
X125928380Y-84994619D01*
X125928380Y-84804142D01*
X125880761Y-84708904D01*
X125833142Y-84661285D01*
X125737904Y-84613666D01*
X124928380Y-84613666D01*
X125928380Y-83613666D02*
X125928380Y-84185095D01*
X125928380Y-83899380D02*
X124928380Y-83899380D01*
X125071238Y-83994619D01*
X125166476Y-84089857D01*
X125214095Y-84185095D01*
X124928380Y-83280333D02*
X124928380Y-82661285D01*
X125309333Y-82994619D01*
X125309333Y-82851761D01*
X125356952Y-82756523D01*
X125404571Y-82708904D01*
X125499809Y-82661285D01*
X125737904Y-82661285D01*
X125833142Y-82708904D01*
X125880761Y-82756523D01*
X125928380Y-82851761D01*
X125928380Y-83137476D01*
X125880761Y-83232714D01*
X125833142Y-83280333D01*
%TO.C,U12*%
X136556904Y-106005380D02*
X136556904Y-106814904D01*
X136604523Y-106910142D01*
X136652142Y-106957761D01*
X136747380Y-107005380D01*
X136937857Y-107005380D01*
X137033095Y-106957761D01*
X137080714Y-106910142D01*
X137128333Y-106814904D01*
X137128333Y-106005380D01*
X138128333Y-107005380D02*
X137556904Y-107005380D01*
X137842619Y-107005380D02*
X137842619Y-106005380D01*
X137747380Y-106148238D01*
X137652142Y-106243476D01*
X137556904Y-106291095D01*
X138509285Y-106100619D02*
X138556904Y-106053000D01*
X138652142Y-106005380D01*
X138890238Y-106005380D01*
X138985476Y-106053000D01*
X139033095Y-106100619D01*
X139080714Y-106195857D01*
X139080714Y-106291095D01*
X139033095Y-106433952D01*
X138461666Y-107005380D01*
X139080714Y-107005380D01*
%TO.C,U10*%
X123856904Y-97115380D02*
X123856904Y-97924904D01*
X123904523Y-98020142D01*
X123952142Y-98067761D01*
X124047380Y-98115380D01*
X124237857Y-98115380D01*
X124333095Y-98067761D01*
X124380714Y-98020142D01*
X124428333Y-97924904D01*
X124428333Y-97115380D01*
X125428333Y-98115380D02*
X124856904Y-98115380D01*
X125142619Y-98115380D02*
X125142619Y-97115380D01*
X125047380Y-97258238D01*
X124952142Y-97353476D01*
X124856904Y-97401095D01*
X126047380Y-97115380D02*
X126142619Y-97115380D01*
X126237857Y-97163000D01*
X126285476Y-97210619D01*
X126333095Y-97305857D01*
X126380714Y-97496333D01*
X126380714Y-97734428D01*
X126333095Y-97924904D01*
X126285476Y-98020142D01*
X126237857Y-98067761D01*
X126142619Y-98115380D01*
X126047380Y-98115380D01*
X125952142Y-98067761D01*
X125904523Y-98020142D01*
X125856904Y-97924904D01*
X125809285Y-97734428D01*
X125809285Y-97496333D01*
X125856904Y-97305857D01*
X125904523Y-97210619D01*
X125952142Y-97163000D01*
X126047380Y-97115380D01*
%TO.C,U9*%
X112014095Y-88479380D02*
X112014095Y-89288904D01*
X112061714Y-89384142D01*
X112109333Y-89431761D01*
X112204571Y-89479380D01*
X112395047Y-89479380D01*
X112490285Y-89431761D01*
X112537904Y-89384142D01*
X112585523Y-89288904D01*
X112585523Y-88479380D01*
X113109333Y-89479380D02*
X113299809Y-89479380D01*
X113395047Y-89431761D01*
X113442666Y-89384142D01*
X113537904Y-89241285D01*
X113585523Y-89050809D01*
X113585523Y-88669857D01*
X113537904Y-88574619D01*
X113490285Y-88527000D01*
X113395047Y-88479380D01*
X113204571Y-88479380D01*
X113109333Y-88527000D01*
X113061714Y-88574619D01*
X113014095Y-88669857D01*
X113014095Y-88907952D01*
X113061714Y-89003190D01*
X113109333Y-89050809D01*
X113204571Y-89098428D01*
X113395047Y-89098428D01*
X113490285Y-89050809D01*
X113537904Y-89003190D01*
X113585523Y-88907952D01*
%TO.C,U8*%
X112482380Y-120141904D02*
X113291904Y-120141904D01*
X113387142Y-120094285D01*
X113434761Y-120046666D01*
X113482380Y-119951428D01*
X113482380Y-119760952D01*
X113434761Y-119665714D01*
X113387142Y-119618095D01*
X113291904Y-119570476D01*
X112482380Y-119570476D01*
X112910952Y-118951428D02*
X112863333Y-119046666D01*
X112815714Y-119094285D01*
X112720476Y-119141904D01*
X112672857Y-119141904D01*
X112577619Y-119094285D01*
X112530000Y-119046666D01*
X112482380Y-118951428D01*
X112482380Y-118760952D01*
X112530000Y-118665714D01*
X112577619Y-118618095D01*
X112672857Y-118570476D01*
X112720476Y-118570476D01*
X112815714Y-118618095D01*
X112863333Y-118665714D01*
X112910952Y-118760952D01*
X112910952Y-118951428D01*
X112958571Y-119046666D01*
X113006190Y-119094285D01*
X113101428Y-119141904D01*
X113291904Y-119141904D01*
X113387142Y-119094285D01*
X113434761Y-119046666D01*
X113482380Y-118951428D01*
X113482380Y-118760952D01*
X113434761Y-118665714D01*
X113387142Y-118618095D01*
X113291904Y-118570476D01*
X113101428Y-118570476D01*
X113006190Y-118618095D01*
X112958571Y-118665714D01*
X112910952Y-118760952D01*
%TO.C,U7*%
X161671095Y-93051380D02*
X161671095Y-93860904D01*
X161718714Y-93956142D01*
X161766333Y-94003761D01*
X161861571Y-94051380D01*
X162052047Y-94051380D01*
X162147285Y-94003761D01*
X162194904Y-93956142D01*
X162242523Y-93860904D01*
X162242523Y-93051380D01*
X162623476Y-93051380D02*
X163290142Y-93051380D01*
X162861571Y-94051380D01*
%TO.C,U1*%
X136488095Y-92327380D02*
X136488095Y-93136904D01*
X136535714Y-93232142D01*
X136583333Y-93279761D01*
X136678571Y-93327380D01*
X136869047Y-93327380D01*
X136964285Y-93279761D01*
X137011904Y-93232142D01*
X137059523Y-93136904D01*
X137059523Y-92327380D01*
X138059523Y-93327380D02*
X137488095Y-93327380D01*
X137773809Y-93327380D02*
X137773809Y-92327380D01*
X137678571Y-92470238D01*
X137583333Y-92565476D01*
X137488095Y-92613095D01*
%TO.C,R14*%
X148060380Y-83573857D02*
X147584190Y-83907190D01*
X148060380Y-84145285D02*
X147060380Y-84145285D01*
X147060380Y-83764333D01*
X147108000Y-83669095D01*
X147155619Y-83621476D01*
X147250857Y-83573857D01*
X147393714Y-83573857D01*
X147488952Y-83621476D01*
X147536571Y-83669095D01*
X147584190Y-83764333D01*
X147584190Y-84145285D01*
X148060380Y-82621476D02*
X148060380Y-83192904D01*
X148060380Y-82907190D02*
X147060380Y-82907190D01*
X147203238Y-83002428D01*
X147298476Y-83097666D01*
X147346095Y-83192904D01*
X147393714Y-81764333D02*
X148060380Y-81764333D01*
X147012761Y-82002428D02*
X147727047Y-82240523D01*
X147727047Y-81621476D01*
%TO.C,R13*%
X148153380Y-89415857D02*
X147677190Y-89749190D01*
X148153380Y-89987285D02*
X147153380Y-89987285D01*
X147153380Y-89606333D01*
X147201000Y-89511095D01*
X147248619Y-89463476D01*
X147343857Y-89415857D01*
X147486714Y-89415857D01*
X147581952Y-89463476D01*
X147629571Y-89511095D01*
X147677190Y-89606333D01*
X147677190Y-89987285D01*
X148153380Y-88463476D02*
X148153380Y-89034904D01*
X148153380Y-88749190D02*
X147153380Y-88749190D01*
X147296238Y-88844428D01*
X147391476Y-88939666D01*
X147439095Y-89034904D01*
X147153380Y-88130142D02*
X147153380Y-87511095D01*
X147534333Y-87844428D01*
X147534333Y-87701571D01*
X147581952Y-87606333D01*
X147629571Y-87558714D01*
X147724809Y-87511095D01*
X147962904Y-87511095D01*
X148058142Y-87558714D01*
X148105761Y-87606333D01*
X148153380Y-87701571D01*
X148153380Y-87987285D01*
X148105761Y-88082523D01*
X148058142Y-88130142D01*
%TO.C,R12*%
X139390380Y-84462857D02*
X138914190Y-84796190D01*
X139390380Y-85034285D02*
X138390380Y-85034285D01*
X138390380Y-84653333D01*
X138438000Y-84558095D01*
X138485619Y-84510476D01*
X138580857Y-84462857D01*
X138723714Y-84462857D01*
X138818952Y-84510476D01*
X138866571Y-84558095D01*
X138914190Y-84653333D01*
X138914190Y-85034285D01*
X139390380Y-83510476D02*
X139390380Y-84081904D01*
X139390380Y-83796190D02*
X138390380Y-83796190D01*
X138533238Y-83891428D01*
X138628476Y-83986666D01*
X138676095Y-84081904D01*
X138485619Y-83129523D02*
X138438000Y-83081904D01*
X138390380Y-82986666D01*
X138390380Y-82748571D01*
X138438000Y-82653333D01*
X138485619Y-82605714D01*
X138580857Y-82558095D01*
X138676095Y-82558095D01*
X138818952Y-82605714D01*
X139390380Y-83177142D01*
X139390380Y-82558095D01*
%TO.C,R11*%
X154424142Y-84018380D02*
X154090809Y-83542190D01*
X153852714Y-84018380D02*
X153852714Y-83018380D01*
X154233666Y-83018380D01*
X154328904Y-83066000D01*
X154376523Y-83113619D01*
X154424142Y-83208857D01*
X154424142Y-83351714D01*
X154376523Y-83446952D01*
X154328904Y-83494571D01*
X154233666Y-83542190D01*
X153852714Y-83542190D01*
X155376523Y-84018380D02*
X154805095Y-84018380D01*
X155090809Y-84018380D02*
X155090809Y-83018380D01*
X154995571Y-83161238D01*
X154900333Y-83256476D01*
X154805095Y-83304095D01*
X156328904Y-84018380D02*
X155757476Y-84018380D01*
X156043190Y-84018380D02*
X156043190Y-83018380D01*
X155947952Y-83161238D01*
X155852714Y-83256476D01*
X155757476Y-83304095D01*
%TO.C,R10*%
X139390380Y-88392857D02*
X138914190Y-88726190D01*
X139390380Y-88964285D02*
X138390380Y-88964285D01*
X138390380Y-88583333D01*
X138438000Y-88488095D01*
X138485619Y-88440476D01*
X138580857Y-88392857D01*
X138723714Y-88392857D01*
X138818952Y-88440476D01*
X138866571Y-88488095D01*
X138914190Y-88583333D01*
X138914190Y-88964285D01*
X139390380Y-87440476D02*
X139390380Y-88011904D01*
X139390380Y-87726190D02*
X138390380Y-87726190D01*
X138533238Y-87821428D01*
X138628476Y-87916666D01*
X138676095Y-88011904D01*
X138390380Y-86821428D02*
X138390380Y-86726190D01*
X138438000Y-86630952D01*
X138485619Y-86583333D01*
X138580857Y-86535714D01*
X138771333Y-86488095D01*
X139009428Y-86488095D01*
X139199904Y-86535714D01*
X139295142Y-86583333D01*
X139342761Y-86630952D01*
X139390380Y-86726190D01*
X139390380Y-86821428D01*
X139342761Y-86916666D01*
X139295142Y-86964285D01*
X139199904Y-87011904D01*
X139009428Y-87059523D01*
X138771333Y-87059523D01*
X138580857Y-87011904D01*
X138485619Y-86964285D01*
X138438000Y-86916666D01*
X138390380Y-86821428D01*
%TO.C,R9*%
X154519333Y-86939380D02*
X154186000Y-86463190D01*
X153947904Y-86939380D02*
X153947904Y-85939380D01*
X154328857Y-85939380D01*
X154424095Y-85987000D01*
X154471714Y-86034619D01*
X154519333Y-86129857D01*
X154519333Y-86272714D01*
X154471714Y-86367952D01*
X154424095Y-86415571D01*
X154328857Y-86463190D01*
X153947904Y-86463190D01*
X154995523Y-86939380D02*
X155186000Y-86939380D01*
X155281238Y-86891761D01*
X155328857Y-86844142D01*
X155424095Y-86701285D01*
X155471714Y-86510809D01*
X155471714Y-86129857D01*
X155424095Y-86034619D01*
X155376476Y-85987000D01*
X155281238Y-85939380D01*
X155090761Y-85939380D01*
X154995523Y-85987000D01*
X154947904Y-86034619D01*
X154900285Y-86129857D01*
X154900285Y-86367952D01*
X154947904Y-86463190D01*
X154995523Y-86510809D01*
X155090761Y-86558428D01*
X155281238Y-86558428D01*
X155376476Y-86510809D01*
X155424095Y-86463190D01*
X155471714Y-86367952D01*
%TO.C,R8*%
X138635333Y-91892380D02*
X138302000Y-91416190D01*
X138063904Y-91892380D02*
X138063904Y-90892380D01*
X138444857Y-90892380D01*
X138540095Y-90940000D01*
X138587714Y-90987619D01*
X138635333Y-91082857D01*
X138635333Y-91225714D01*
X138587714Y-91320952D01*
X138540095Y-91368571D01*
X138444857Y-91416190D01*
X138063904Y-91416190D01*
X139206761Y-91320952D02*
X139111523Y-91273333D01*
X139063904Y-91225714D01*
X139016285Y-91130476D01*
X139016285Y-91082857D01*
X139063904Y-90987619D01*
X139111523Y-90940000D01*
X139206761Y-90892380D01*
X139397238Y-90892380D01*
X139492476Y-90940000D01*
X139540095Y-90987619D01*
X139587714Y-91082857D01*
X139587714Y-91130476D01*
X139540095Y-91225714D01*
X139492476Y-91273333D01*
X139397238Y-91320952D01*
X139206761Y-91320952D01*
X139111523Y-91368571D01*
X139063904Y-91416190D01*
X139016285Y-91511428D01*
X139016285Y-91701904D01*
X139063904Y-91797142D01*
X139111523Y-91844761D01*
X139206761Y-91892380D01*
X139397238Y-91892380D01*
X139492476Y-91844761D01*
X139540095Y-91797142D01*
X139587714Y-91701904D01*
X139587714Y-91511428D01*
X139540095Y-91416190D01*
X139492476Y-91368571D01*
X139397238Y-91320952D01*
%TO.C,R7*%
X144359333Y-80208380D02*
X144026000Y-79732190D01*
X143787904Y-80208380D02*
X143787904Y-79208380D01*
X144168857Y-79208380D01*
X144264095Y-79256000D01*
X144311714Y-79303619D01*
X144359333Y-79398857D01*
X144359333Y-79541714D01*
X144311714Y-79636952D01*
X144264095Y-79684571D01*
X144168857Y-79732190D01*
X143787904Y-79732190D01*
X144692666Y-79208380D02*
X145359333Y-79208380D01*
X144930761Y-80208380D01*
%TO.C,R6*%
X122933333Y-86052380D02*
X122600000Y-85576190D01*
X122361904Y-86052380D02*
X122361904Y-85052380D01*
X122742857Y-85052380D01*
X122838095Y-85100000D01*
X122885714Y-85147619D01*
X122933333Y-85242857D01*
X122933333Y-85385714D01*
X122885714Y-85480952D01*
X122838095Y-85528571D01*
X122742857Y-85576190D01*
X122361904Y-85576190D01*
X123790476Y-85052380D02*
X123600000Y-85052380D01*
X123504761Y-85100000D01*
X123457142Y-85147619D01*
X123361904Y-85290476D01*
X123314285Y-85480952D01*
X123314285Y-85861904D01*
X123361904Y-85957142D01*
X123409523Y-86004761D01*
X123504761Y-86052380D01*
X123695238Y-86052380D01*
X123790476Y-86004761D01*
X123838095Y-85957142D01*
X123885714Y-85861904D01*
X123885714Y-85623809D01*
X123838095Y-85528571D01*
X123790476Y-85480952D01*
X123695238Y-85433333D01*
X123504761Y-85433333D01*
X123409523Y-85480952D01*
X123361904Y-85528571D01*
X123314285Y-85623809D01*
%TO.C,R5*%
X123058333Y-80052380D02*
X122725000Y-79576190D01*
X122486904Y-80052380D02*
X122486904Y-79052380D01*
X122867857Y-79052380D01*
X122963095Y-79100000D01*
X123010714Y-79147619D01*
X123058333Y-79242857D01*
X123058333Y-79385714D01*
X123010714Y-79480952D01*
X122963095Y-79528571D01*
X122867857Y-79576190D01*
X122486904Y-79576190D01*
X123963095Y-79052380D02*
X123486904Y-79052380D01*
X123439285Y-79528571D01*
X123486904Y-79480952D01*
X123582142Y-79433333D01*
X123820238Y-79433333D01*
X123915476Y-79480952D01*
X123963095Y-79528571D01*
X124010714Y-79623809D01*
X124010714Y-79861904D01*
X123963095Y-79957142D01*
X123915476Y-80004761D01*
X123820238Y-80052380D01*
X123582142Y-80052380D01*
X123486904Y-80004761D01*
X123439285Y-79957142D01*
%TO.C,R4*%
X167076380Y-108751666D02*
X166600190Y-109085000D01*
X167076380Y-109323095D02*
X166076380Y-109323095D01*
X166076380Y-108942142D01*
X166124000Y-108846904D01*
X166171619Y-108799285D01*
X166266857Y-108751666D01*
X166409714Y-108751666D01*
X166504952Y-108799285D01*
X166552571Y-108846904D01*
X166600190Y-108942142D01*
X166600190Y-109323095D01*
X166409714Y-107894523D02*
X167076380Y-107894523D01*
X166028761Y-108132619D02*
X166743047Y-108370714D01*
X166743047Y-107751666D01*
%TO.C,R3*%
X172537380Y-121197666D02*
X172061190Y-121531000D01*
X172537380Y-121769095D02*
X171537380Y-121769095D01*
X171537380Y-121388142D01*
X171585000Y-121292904D01*
X171632619Y-121245285D01*
X171727857Y-121197666D01*
X171870714Y-121197666D01*
X171965952Y-121245285D01*
X172013571Y-121292904D01*
X172061190Y-121388142D01*
X172061190Y-121769095D01*
X171537380Y-120864333D02*
X171537380Y-120245285D01*
X171918333Y-120578619D01*
X171918333Y-120435761D01*
X171965952Y-120340523D01*
X172013571Y-120292904D01*
X172108809Y-120245285D01*
X172346904Y-120245285D01*
X172442142Y-120292904D01*
X172489761Y-120340523D01*
X172537380Y-120435761D01*
X172537380Y-120721476D01*
X172489761Y-120816714D01*
X172442142Y-120864333D01*
%TO.C,R2*%
X174315380Y-121070666D02*
X173839190Y-121404000D01*
X174315380Y-121642095D02*
X173315380Y-121642095D01*
X173315380Y-121261142D01*
X173363000Y-121165904D01*
X173410619Y-121118285D01*
X173505857Y-121070666D01*
X173648714Y-121070666D01*
X173743952Y-121118285D01*
X173791571Y-121165904D01*
X173839190Y-121261142D01*
X173839190Y-121642095D01*
X173410619Y-120689714D02*
X173363000Y-120642095D01*
X173315380Y-120546857D01*
X173315380Y-120308761D01*
X173363000Y-120213523D01*
X173410619Y-120165904D01*
X173505857Y-120118285D01*
X173601095Y-120118285D01*
X173743952Y-120165904D01*
X174315380Y-120737333D01*
X174315380Y-120118285D01*
%TO.C,F1*%
X119935666Y-124007571D02*
X119602333Y-124007571D01*
X119602333Y-124531380D02*
X119602333Y-123531380D01*
X120078523Y-123531380D01*
X120983285Y-124531380D02*
X120411857Y-124531380D01*
X120697571Y-124531380D02*
X120697571Y-123531380D01*
X120602333Y-123674238D01*
X120507095Y-123769476D01*
X120411857Y-123817095D01*
%TO.C,D1*%
X120673904Y-121610380D02*
X120673904Y-120610380D01*
X120912000Y-120610380D01*
X121054857Y-120658000D01*
X121150095Y-120753238D01*
X121197714Y-120848476D01*
X121245333Y-121038952D01*
X121245333Y-121181809D01*
X121197714Y-121372285D01*
X121150095Y-121467523D01*
X121054857Y-121562761D01*
X120912000Y-121610380D01*
X120673904Y-121610380D01*
X122197714Y-121610380D02*
X121626285Y-121610380D01*
X121912000Y-121610380D02*
X121912000Y-120610380D01*
X121816761Y-120753238D01*
X121721523Y-120848476D01*
X121626285Y-120896095D01*
%TO.C,C14*%
X139836142Y-102993857D02*
X139883761Y-103041476D01*
X139931380Y-103184333D01*
X139931380Y-103279571D01*
X139883761Y-103422428D01*
X139788523Y-103517666D01*
X139693285Y-103565285D01*
X139502809Y-103612904D01*
X139359952Y-103612904D01*
X139169476Y-103565285D01*
X139074238Y-103517666D01*
X138979000Y-103422428D01*
X138931380Y-103279571D01*
X138931380Y-103184333D01*
X138979000Y-103041476D01*
X139026619Y-102993857D01*
X139931380Y-102041476D02*
X139931380Y-102612904D01*
X139931380Y-102327190D02*
X138931380Y-102327190D01*
X139074238Y-102422428D01*
X139169476Y-102517666D01*
X139217095Y-102612904D01*
X139264714Y-101184333D02*
X139931380Y-101184333D01*
X138883761Y-101422428D02*
X139598047Y-101660523D01*
X139598047Y-101041476D01*
%TO.C,C13*%
X148919142Y-91035142D02*
X148871523Y-91082761D01*
X148728666Y-91130380D01*
X148633428Y-91130380D01*
X148490571Y-91082761D01*
X148395333Y-90987523D01*
X148347714Y-90892285D01*
X148300095Y-90701809D01*
X148300095Y-90558952D01*
X148347714Y-90368476D01*
X148395333Y-90273238D01*
X148490571Y-90178000D01*
X148633428Y-90130380D01*
X148728666Y-90130380D01*
X148871523Y-90178000D01*
X148919142Y-90225619D01*
X149871523Y-91130380D02*
X149300095Y-91130380D01*
X149585809Y-91130380D02*
X149585809Y-90130380D01*
X149490571Y-90273238D01*
X149395333Y-90368476D01*
X149300095Y-90416095D01*
X150204857Y-90130380D02*
X150823904Y-90130380D01*
X150490571Y-90511333D01*
X150633428Y-90511333D01*
X150728666Y-90558952D01*
X150776285Y-90606571D01*
X150823904Y-90701809D01*
X150823904Y-90939904D01*
X150776285Y-91035142D01*
X150728666Y-91082761D01*
X150633428Y-91130380D01*
X150347714Y-91130380D01*
X150252476Y-91082761D01*
X150204857Y-91035142D01*
%TO.C,C12*%
X137406142Y-114276142D02*
X137358523Y-114323761D01*
X137215666Y-114371380D01*
X137120428Y-114371380D01*
X136977571Y-114323761D01*
X136882333Y-114228523D01*
X136834714Y-114133285D01*
X136787095Y-113942809D01*
X136787095Y-113799952D01*
X136834714Y-113609476D01*
X136882333Y-113514238D01*
X136977571Y-113419000D01*
X137120428Y-113371380D01*
X137215666Y-113371380D01*
X137358523Y-113419000D01*
X137406142Y-113466619D01*
X138358523Y-114371380D02*
X137787095Y-114371380D01*
X138072809Y-114371380D02*
X138072809Y-113371380D01*
X137977571Y-113514238D01*
X137882333Y-113609476D01*
X137787095Y-113657095D01*
X138739476Y-113466619D02*
X138787095Y-113419000D01*
X138882333Y-113371380D01*
X139120428Y-113371380D01*
X139215666Y-113419000D01*
X139263285Y-113466619D01*
X139310904Y-113561857D01*
X139310904Y-113657095D01*
X139263285Y-113799952D01*
X138691857Y-114371380D01*
X139310904Y-114371380D01*
%TO.C,C11*%
X127257142Y-94542857D02*
X127304761Y-94590476D01*
X127352380Y-94733333D01*
X127352380Y-94828571D01*
X127304761Y-94971428D01*
X127209523Y-95066666D01*
X127114285Y-95114285D01*
X126923809Y-95161904D01*
X126780952Y-95161904D01*
X126590476Y-95114285D01*
X126495238Y-95066666D01*
X126400000Y-94971428D01*
X126352380Y-94828571D01*
X126352380Y-94733333D01*
X126400000Y-94590476D01*
X126447619Y-94542857D01*
X127352380Y-93590476D02*
X127352380Y-94161904D01*
X127352380Y-93876190D02*
X126352380Y-93876190D01*
X126495238Y-93971428D01*
X126590476Y-94066666D01*
X126638095Y-94161904D01*
X127352380Y-92638095D02*
X127352380Y-93209523D01*
X127352380Y-92923809D02*
X126352380Y-92923809D01*
X126495238Y-93019047D01*
X126590476Y-93114285D01*
X126638095Y-93209523D01*
%TO.C,C10*%
X168378142Y-112021857D02*
X168425761Y-112069476D01*
X168473380Y-112212333D01*
X168473380Y-112307571D01*
X168425761Y-112450428D01*
X168330523Y-112545666D01*
X168235285Y-112593285D01*
X168044809Y-112640904D01*
X167901952Y-112640904D01*
X167711476Y-112593285D01*
X167616238Y-112545666D01*
X167521000Y-112450428D01*
X167473380Y-112307571D01*
X167473380Y-112212333D01*
X167521000Y-112069476D01*
X167568619Y-112021857D01*
X168473380Y-111069476D02*
X168473380Y-111640904D01*
X168473380Y-111355190D02*
X167473380Y-111355190D01*
X167616238Y-111450428D01*
X167711476Y-111545666D01*
X167759095Y-111640904D01*
X167473380Y-110450428D02*
X167473380Y-110355190D01*
X167521000Y-110259952D01*
X167568619Y-110212333D01*
X167663857Y-110164714D01*
X167854333Y-110117095D01*
X168092428Y-110117095D01*
X168282904Y-110164714D01*
X168378142Y-110212333D01*
X168425761Y-110259952D01*
X168473380Y-110355190D01*
X168473380Y-110450428D01*
X168425761Y-110545666D01*
X168378142Y-110593285D01*
X168282904Y-110640904D01*
X168092428Y-110688523D01*
X167854333Y-110688523D01*
X167663857Y-110640904D01*
X167568619Y-110593285D01*
X167521000Y-110545666D01*
X167473380Y-110450428D01*
%TO.C,C9*%
X170918142Y-121197666D02*
X170965761Y-121245285D01*
X171013380Y-121388142D01*
X171013380Y-121483380D01*
X170965761Y-121626238D01*
X170870523Y-121721476D01*
X170775285Y-121769095D01*
X170584809Y-121816714D01*
X170441952Y-121816714D01*
X170251476Y-121769095D01*
X170156238Y-121721476D01*
X170061000Y-121626238D01*
X170013380Y-121483380D01*
X170013380Y-121388142D01*
X170061000Y-121245285D01*
X170108619Y-121197666D01*
X171013380Y-120721476D02*
X171013380Y-120531000D01*
X170965761Y-120435761D01*
X170918142Y-120388142D01*
X170775285Y-120292904D01*
X170584809Y-120245285D01*
X170203857Y-120245285D01*
X170108619Y-120292904D01*
X170061000Y-120340523D01*
X170013380Y-120435761D01*
X170013380Y-120626238D01*
X170061000Y-120721476D01*
X170108619Y-120769095D01*
X170203857Y-120816714D01*
X170441952Y-120816714D01*
X170537190Y-120769095D01*
X170584809Y-120721476D01*
X170632428Y-120626238D01*
X170632428Y-120435761D01*
X170584809Y-120340523D01*
X170537190Y-120292904D01*
X170441952Y-120245285D01*
%TO.C,C8*%
X163732142Y-121291666D02*
X163779761Y-121339285D01*
X163827380Y-121482142D01*
X163827380Y-121577380D01*
X163779761Y-121720238D01*
X163684523Y-121815476D01*
X163589285Y-121863095D01*
X163398809Y-121910714D01*
X163255952Y-121910714D01*
X163065476Y-121863095D01*
X162970238Y-121815476D01*
X162875000Y-121720238D01*
X162827380Y-121577380D01*
X162827380Y-121482142D01*
X162875000Y-121339285D01*
X162922619Y-121291666D01*
X163255952Y-120720238D02*
X163208333Y-120815476D01*
X163160714Y-120863095D01*
X163065476Y-120910714D01*
X163017857Y-120910714D01*
X162922619Y-120863095D01*
X162875000Y-120815476D01*
X162827380Y-120720238D01*
X162827380Y-120529761D01*
X162875000Y-120434523D01*
X162922619Y-120386904D01*
X163017857Y-120339285D01*
X163065476Y-120339285D01*
X163160714Y-120386904D01*
X163208333Y-120434523D01*
X163255952Y-120529761D01*
X163255952Y-120720238D01*
X163303571Y-120815476D01*
X163351190Y-120863095D01*
X163446428Y-120910714D01*
X163636904Y-120910714D01*
X163732142Y-120863095D01*
X163779761Y-120815476D01*
X163827380Y-120720238D01*
X163827380Y-120529761D01*
X163779761Y-120434523D01*
X163732142Y-120386904D01*
X163636904Y-120339285D01*
X163446428Y-120339285D01*
X163351190Y-120386904D01*
X163303571Y-120434523D01*
X163255952Y-120529761D01*
%TO.C,C7*%
X118705333Y-114276142D02*
X118657714Y-114323761D01*
X118514857Y-114371380D01*
X118419619Y-114371380D01*
X118276761Y-114323761D01*
X118181523Y-114228523D01*
X118133904Y-114133285D01*
X118086285Y-113942809D01*
X118086285Y-113799952D01*
X118133904Y-113609476D01*
X118181523Y-113514238D01*
X118276761Y-113419000D01*
X118419619Y-113371380D01*
X118514857Y-113371380D01*
X118657714Y-113419000D01*
X118705333Y-113466619D01*
X119038666Y-113371380D02*
X119705333Y-113371380D01*
X119276761Y-114371380D01*
%TO.C,C6*%
X164695142Y-99861666D02*
X164742761Y-99909285D01*
X164790380Y-100052142D01*
X164790380Y-100147380D01*
X164742761Y-100290238D01*
X164647523Y-100385476D01*
X164552285Y-100433095D01*
X164361809Y-100480714D01*
X164218952Y-100480714D01*
X164028476Y-100433095D01*
X163933238Y-100385476D01*
X163838000Y-100290238D01*
X163790380Y-100147380D01*
X163790380Y-100052142D01*
X163838000Y-99909285D01*
X163885619Y-99861666D01*
X163790380Y-99004523D02*
X163790380Y-99195000D01*
X163838000Y-99290238D01*
X163885619Y-99337857D01*
X164028476Y-99433095D01*
X164218952Y-99480714D01*
X164599904Y-99480714D01*
X164695142Y-99433095D01*
X164742761Y-99385476D01*
X164790380Y-99290238D01*
X164790380Y-99099761D01*
X164742761Y-99004523D01*
X164695142Y-98956904D01*
X164599904Y-98909285D01*
X164361809Y-98909285D01*
X164266571Y-98956904D01*
X164218952Y-99004523D01*
X164171333Y-99099761D01*
X164171333Y-99290238D01*
X164218952Y-99385476D01*
X164266571Y-99433095D01*
X164361809Y-99480714D01*
%TO.C,C5*%
X166711333Y-80113142D02*
X166663714Y-80160761D01*
X166520857Y-80208380D01*
X166425619Y-80208380D01*
X166282761Y-80160761D01*
X166187523Y-80065523D01*
X166139904Y-79970285D01*
X166092285Y-79779809D01*
X166092285Y-79636952D01*
X166139904Y-79446476D01*
X166187523Y-79351238D01*
X166282761Y-79256000D01*
X166425619Y-79208380D01*
X166520857Y-79208380D01*
X166663714Y-79256000D01*
X166711333Y-79303619D01*
X167616095Y-79208380D02*
X167139904Y-79208380D01*
X167092285Y-79684571D01*
X167139904Y-79636952D01*
X167235142Y-79589333D01*
X167473238Y-79589333D01*
X167568476Y-79636952D01*
X167616095Y-79684571D01*
X167663714Y-79779809D01*
X167663714Y-80017904D01*
X167616095Y-80113142D01*
X167568476Y-80160761D01*
X167473238Y-80208380D01*
X167235142Y-80208380D01*
X167139904Y-80160761D01*
X167092285Y-80113142D01*
%TO.C,C4*%
X171693333Y-94470142D02*
X171645714Y-94517761D01*
X171502857Y-94565380D01*
X171407619Y-94565380D01*
X171264761Y-94517761D01*
X171169523Y-94422523D01*
X171121904Y-94327285D01*
X171074285Y-94136809D01*
X171074285Y-93993952D01*
X171121904Y-93803476D01*
X171169523Y-93708238D01*
X171264761Y-93613000D01*
X171407619Y-93565380D01*
X171502857Y-93565380D01*
X171645714Y-93613000D01*
X171693333Y-93660619D01*
X172550476Y-93898714D02*
X172550476Y-94565380D01*
X172312380Y-93517761D02*
X172074285Y-94232047D01*
X172693333Y-94232047D01*
%TO.C,C3*%
X166564333Y-84034142D02*
X166516714Y-84081761D01*
X166373857Y-84129380D01*
X166278619Y-84129380D01*
X166135761Y-84081761D01*
X166040523Y-83986523D01*
X165992904Y-83891285D01*
X165945285Y-83700809D01*
X165945285Y-83557952D01*
X165992904Y-83367476D01*
X166040523Y-83272238D01*
X166135761Y-83177000D01*
X166278619Y-83129380D01*
X166373857Y-83129380D01*
X166516714Y-83177000D01*
X166564333Y-83224619D01*
X166897666Y-83129380D02*
X167516714Y-83129380D01*
X167183380Y-83510333D01*
X167326238Y-83510333D01*
X167421476Y-83557952D01*
X167469095Y-83605571D01*
X167516714Y-83700809D01*
X167516714Y-83938904D01*
X167469095Y-84034142D01*
X167421476Y-84081761D01*
X167326238Y-84129380D01*
X167040523Y-84129380D01*
X166945285Y-84081761D01*
X166897666Y-84034142D01*
%TO.C,C2*%
X164822142Y-93130666D02*
X164869761Y-93178285D01*
X164917380Y-93321142D01*
X164917380Y-93416380D01*
X164869761Y-93559238D01*
X164774523Y-93654476D01*
X164679285Y-93702095D01*
X164488809Y-93749714D01*
X164345952Y-93749714D01*
X164155476Y-93702095D01*
X164060238Y-93654476D01*
X163965000Y-93559238D01*
X163917380Y-93416380D01*
X163917380Y-93321142D01*
X163965000Y-93178285D01*
X164012619Y-93130666D01*
X164012619Y-92749714D02*
X163965000Y-92702095D01*
X163917380Y-92606857D01*
X163917380Y-92368761D01*
X163965000Y-92273523D01*
X164012619Y-92225904D01*
X164107857Y-92178285D01*
X164203095Y-92178285D01*
X164345952Y-92225904D01*
X164917380Y-92797333D01*
X164917380Y-92178285D01*
%TO.C,C1*%
X169083333Y-100912142D02*
X169035714Y-100959761D01*
X168892857Y-101007380D01*
X168797619Y-101007380D01*
X168654761Y-100959761D01*
X168559523Y-100864523D01*
X168511904Y-100769285D01*
X168464285Y-100578809D01*
X168464285Y-100435952D01*
X168511904Y-100245476D01*
X168559523Y-100150238D01*
X168654761Y-100055000D01*
X168797619Y-100007380D01*
X168892857Y-100007380D01*
X169035714Y-100055000D01*
X169083333Y-100102619D01*
X170035714Y-101007380D02*
X169464285Y-101007380D01*
X169750000Y-101007380D02*
X169750000Y-100007380D01*
X169654761Y-100150238D01*
X169559523Y-100245476D01*
X169464285Y-100293095D01*
%TO.C,U6*%
X122555095Y-112736380D02*
X122555095Y-113545904D01*
X122602714Y-113641142D01*
X122650333Y-113688761D01*
X122745571Y-113736380D01*
X122936047Y-113736380D01*
X123031285Y-113688761D01*
X123078904Y-113641142D01*
X123126523Y-113545904D01*
X123126523Y-112736380D01*
X124031285Y-112736380D02*
X123840809Y-112736380D01*
X123745571Y-112784000D01*
X123697952Y-112831619D01*
X123602714Y-112974476D01*
X123555095Y-113164952D01*
X123555095Y-113545904D01*
X123602714Y-113641142D01*
X123650333Y-113688761D01*
X123745571Y-113736380D01*
X123936047Y-113736380D01*
X124031285Y-113688761D01*
X124078904Y-113641142D01*
X124126523Y-113545904D01*
X124126523Y-113307809D01*
X124078904Y-113212571D01*
X124031285Y-113164952D01*
X123936047Y-113117333D01*
X123745571Y-113117333D01*
X123650333Y-113164952D01*
X123602714Y-113212571D01*
X123555095Y-113307809D01*
%TO.C,U4*%
X171636095Y-99187380D02*
X171636095Y-99996904D01*
X171683714Y-100092142D01*
X171731333Y-100139761D01*
X171826571Y-100187380D01*
X172017047Y-100187380D01*
X172112285Y-100139761D01*
X172159904Y-100092142D01*
X172207523Y-99996904D01*
X172207523Y-99187380D01*
X173112285Y-99520714D02*
X173112285Y-100187380D01*
X172874190Y-99139761D02*
X172636095Y-99854047D01*
X173255142Y-99854047D01*
%TO.C,U3*%
X146810380Y-86986904D02*
X147619904Y-86986904D01*
X147715142Y-86939285D01*
X147762761Y-86891666D01*
X147810380Y-86796428D01*
X147810380Y-86605952D01*
X147762761Y-86510714D01*
X147715142Y-86463095D01*
X147619904Y-86415476D01*
X146810380Y-86415476D01*
X146810380Y-86034523D02*
X146810380Y-85415476D01*
X147191333Y-85748809D01*
X147191333Y-85605952D01*
X147238952Y-85510714D01*
X147286571Y-85463095D01*
X147381809Y-85415476D01*
X147619904Y-85415476D01*
X147715142Y-85463095D01*
X147762761Y-85510714D01*
X147810380Y-85605952D01*
X147810380Y-85891666D01*
X147762761Y-85986904D01*
X147715142Y-86034523D01*
%TO.C,U2*%
X174585380Y-84256904D02*
X175394904Y-84256904D01*
X175490142Y-84209285D01*
X175537761Y-84161666D01*
X175585380Y-84066428D01*
X175585380Y-83875952D01*
X175537761Y-83780714D01*
X175490142Y-83733095D01*
X175394904Y-83685476D01*
X174585380Y-83685476D01*
X174680619Y-83256904D02*
X174633000Y-83209285D01*
X174585380Y-83114047D01*
X174585380Y-82875952D01*
X174633000Y-82780714D01*
X174680619Y-82733095D01*
X174775857Y-82685476D01*
X174871095Y-82685476D01*
X175013952Y-82733095D01*
X175585380Y-83304523D01*
X175585380Y-82685476D01*
%TO.C,P1*%
X147089904Y-121737380D02*
X147089904Y-120737380D01*
X147470857Y-120737380D01*
X147566095Y-120785000D01*
X147613714Y-120832619D01*
X147661333Y-120927857D01*
X147661333Y-121070714D01*
X147613714Y-121165952D01*
X147566095Y-121213571D01*
X147470857Y-121261190D01*
X147089904Y-121261190D01*
X148613714Y-121737380D02*
X148042285Y-121737380D01*
X148328000Y-121737380D02*
X148328000Y-120737380D01*
X148232761Y-120880238D01*
X148137523Y-120975476D01*
X148042285Y-121023095D01*
%TO.C,P2*%
X167663904Y-121737380D02*
X167663904Y-120737380D01*
X168044857Y-120737380D01*
X168140095Y-120785000D01*
X168187714Y-120832619D01*
X168235333Y-120927857D01*
X168235333Y-121070714D01*
X168187714Y-121165952D01*
X168140095Y-121213571D01*
X168044857Y-121261190D01*
X167663904Y-121261190D01*
X168616285Y-120832619D02*
X168663904Y-120785000D01*
X168759142Y-120737380D01*
X168997238Y-120737380D01*
X169092476Y-120785000D01*
X169140095Y-120832619D01*
X169187714Y-120927857D01*
X169187714Y-121023095D01*
X169140095Y-121165952D01*
X168568666Y-121737380D01*
X169187714Y-121737380D01*
%TO.C,P3*%
X140485904Y-78811380D02*
X140485904Y-77811380D01*
X140866857Y-77811380D01*
X140962095Y-77859000D01*
X141009714Y-77906619D01*
X141057333Y-78001857D01*
X141057333Y-78144714D01*
X141009714Y-78239952D01*
X140962095Y-78287571D01*
X140866857Y-78335190D01*
X140485904Y-78335190D01*
X141390666Y-77811380D02*
X142009714Y-77811380D01*
X141676380Y-78192333D01*
X141819238Y-78192333D01*
X141914476Y-78239952D01*
X141962095Y-78287571D01*
X142009714Y-78382809D01*
X142009714Y-78620904D01*
X141962095Y-78716142D01*
X141914476Y-78763761D01*
X141819238Y-78811380D01*
X141533523Y-78811380D01*
X141438285Y-78763761D01*
X141390666Y-78716142D01*
%TO.C,P4*%
X164869904Y-78811380D02*
X164869904Y-77811380D01*
X165250857Y-77811380D01*
X165346095Y-77859000D01*
X165393714Y-77906619D01*
X165441333Y-78001857D01*
X165441333Y-78144714D01*
X165393714Y-78239952D01*
X165346095Y-78287571D01*
X165250857Y-78335190D01*
X164869904Y-78335190D01*
X166298476Y-78144714D02*
X166298476Y-78811380D01*
X166060380Y-77763761D02*
X165822285Y-78478047D01*
X166441333Y-78478047D01*
%TD*%
M02*
