%TF.GenerationSoftware,KiCad,Pcbnew,(5.1.6)-1*%
%TF.CreationDate,2020-11-16T12:45:36+03:00*%
%TF.ProjectId,SensorBoard,53656e73-6f72-4426-9f61-72642e6b6963,rev?*%
%TF.SameCoordinates,Original*%
%TF.FileFunction,Soldermask,Top*%
%TF.FilePolarity,Negative*%
%FSLAX46Y46*%
G04 Gerber Fmt 4.6, Leading zero omitted, Abs format (unit mm)*
G04 Created by KiCad (PCBNEW (5.1.6)-1) date 2020-11-16 12:45:36*
%MOMM*%
%LPD*%
G01*
G04 APERTURE LIST*
%ADD10O,1.700000X1.700000*%
%ADD11R,1.700000X1.700000*%
%ADD12C,0.100000*%
%ADD13R,1.100000X0.250000*%
%ADD14R,1.060000X0.650000*%
%ADD15R,0.650000X1.060000*%
%ADD16R,2.400000X0.740000*%
%ADD17R,1.400000X1.200000*%
%ADD18R,2.000000X1.780000*%
%ADD19R,1.500000X2.000000*%
%ADD20O,1.500000X2.000000*%
%ADD21R,1.000000X1.600000*%
%ADD22R,2.500000X2.300000*%
%ADD23O,1.500000X2.500000*%
%ADD24R,1.500000X2.500000*%
%ADD25R,0.900000X0.800000*%
%ADD26R,0.375000X0.350000*%
%ADD27R,0.350000X0.375000*%
%ADD28O,1.727200X2.032000*%
%ADD29C,4.064000*%
G04 APERTURE END LIST*
%TO.C,R19*%
G36*
G01*
X141506250Y-110150000D02*
X140993750Y-110150000D01*
G75*
G02*
X140775000Y-109931250I0J218750D01*
G01*
X140775000Y-109493750D01*
G75*
G02*
X140993750Y-109275000I218750J0D01*
G01*
X141506250Y-109275000D01*
G75*
G02*
X141725000Y-109493750I0J-218750D01*
G01*
X141725000Y-109931250D01*
G75*
G02*
X141506250Y-110150000I-218750J0D01*
G01*
G37*
G36*
G01*
X141506250Y-111725000D02*
X140993750Y-111725000D01*
G75*
G02*
X140775000Y-111506250I0J218750D01*
G01*
X140775000Y-111068750D01*
G75*
G02*
X140993750Y-110850000I218750J0D01*
G01*
X141506250Y-110850000D01*
G75*
G02*
X141725000Y-111068750I0J-218750D01*
G01*
X141725000Y-111506250D01*
G75*
G02*
X141506250Y-111725000I-218750J0D01*
G01*
G37*
%TD*%
D10*
%TO.C,J8*%
X134955000Y-123875000D03*
X132415000Y-123875000D03*
D11*
X129875000Y-123875000D03*
%TD*%
%TO.C,C27*%
G36*
G01*
X160417500Y-114269000D02*
X160892500Y-114269000D01*
G75*
G02*
X161130000Y-114506500I0J-237500D01*
G01*
X161130000Y-115081500D01*
G75*
G02*
X160892500Y-115319000I-237500J0D01*
G01*
X160417500Y-115319000D01*
G75*
G02*
X160180000Y-115081500I0J237500D01*
G01*
X160180000Y-114506500D01*
G75*
G02*
X160417500Y-114269000I237500J0D01*
G01*
G37*
G36*
G01*
X160417500Y-112519000D02*
X160892500Y-112519000D01*
G75*
G02*
X161130000Y-112756500I0J-237500D01*
G01*
X161130000Y-113331500D01*
G75*
G02*
X160892500Y-113569000I-237500J0D01*
G01*
X160417500Y-113569000D01*
G75*
G02*
X160180000Y-113331500I0J237500D01*
G01*
X160180000Y-112756500D01*
G75*
G02*
X160417500Y-112519000I237500J0D01*
G01*
G37*
%TD*%
%TO.C,R18*%
G36*
G01*
X151381750Y-94711000D02*
X151894250Y-94711000D01*
G75*
G02*
X152113000Y-94929750I0J-218750D01*
G01*
X152113000Y-95367250D01*
G75*
G02*
X151894250Y-95586000I-218750J0D01*
G01*
X151381750Y-95586000D01*
G75*
G02*
X151163000Y-95367250I0J218750D01*
G01*
X151163000Y-94929750D01*
G75*
G02*
X151381750Y-94711000I218750J0D01*
G01*
G37*
G36*
G01*
X151381750Y-93136000D02*
X151894250Y-93136000D01*
G75*
G02*
X152113000Y-93354750I0J-218750D01*
G01*
X152113000Y-93792250D01*
G75*
G02*
X151894250Y-94011000I-218750J0D01*
G01*
X151381750Y-94011000D01*
G75*
G02*
X151163000Y-93792250I0J218750D01*
G01*
X151163000Y-93354750D01*
G75*
G02*
X151381750Y-93136000I218750J0D01*
G01*
G37*
%TD*%
%TO.C,R17*%
G36*
G01*
X152905750Y-94711000D02*
X153418250Y-94711000D01*
G75*
G02*
X153637000Y-94929750I0J-218750D01*
G01*
X153637000Y-95367250D01*
G75*
G02*
X153418250Y-95586000I-218750J0D01*
G01*
X152905750Y-95586000D01*
G75*
G02*
X152687000Y-95367250I0J218750D01*
G01*
X152687000Y-94929750D01*
G75*
G02*
X152905750Y-94711000I218750J0D01*
G01*
G37*
G36*
G01*
X152905750Y-93136000D02*
X153418250Y-93136000D01*
G75*
G02*
X153637000Y-93354750I0J-218750D01*
G01*
X153637000Y-93792250D01*
G75*
G02*
X153418250Y-94011000I-218750J0D01*
G01*
X152905750Y-94011000D01*
G75*
G02*
X152687000Y-93792250I0J218750D01*
G01*
X152687000Y-93354750D01*
G75*
G02*
X152905750Y-93136000I218750J0D01*
G01*
G37*
%TD*%
%TO.C,R16*%
G36*
G01*
X160370000Y-88394250D02*
X160370000Y-87881750D01*
G75*
G02*
X160588750Y-87663000I218750J0D01*
G01*
X161026250Y-87663000D01*
G75*
G02*
X161245000Y-87881750I0J-218750D01*
G01*
X161245000Y-88394250D01*
G75*
G02*
X161026250Y-88613000I-218750J0D01*
G01*
X160588750Y-88613000D01*
G75*
G02*
X160370000Y-88394250I0J218750D01*
G01*
G37*
G36*
G01*
X158795000Y-88394250D02*
X158795000Y-87881750D01*
G75*
G02*
X159013750Y-87663000I218750J0D01*
G01*
X159451250Y-87663000D01*
G75*
G02*
X159670000Y-87881750I0J-218750D01*
G01*
X159670000Y-88394250D01*
G75*
G02*
X159451250Y-88613000I-218750J0D01*
G01*
X159013750Y-88613000D01*
G75*
G02*
X158795000Y-88394250I0J218750D01*
G01*
G37*
%TD*%
D12*
%TO.C,D6*%
G36*
X156741727Y-88244067D02*
G01*
X157448833Y-88951173D01*
X156388173Y-90011833D01*
X155681067Y-89304727D01*
X156741727Y-88244067D01*
G37*
G36*
X155751777Y-87254117D02*
G01*
X156458883Y-87961223D01*
X155398223Y-89021883D01*
X154691117Y-88314777D01*
X155751777Y-87254117D01*
G37*
G36*
X154266853Y-90718941D02*
G01*
X154973959Y-91426047D01*
X153913299Y-92486707D01*
X153206193Y-91779601D01*
X154266853Y-90718941D01*
G37*
G36*
X153276903Y-89728991D02*
G01*
X153984009Y-90436097D01*
X152923349Y-91496757D01*
X152216243Y-90789651D01*
X153276903Y-89728991D01*
G37*
%TD*%
%TO.C,R15*%
G36*
G01*
X131494500Y-114451000D02*
X131969500Y-114451000D01*
G75*
G02*
X132207000Y-114688500I0J-237500D01*
G01*
X132207000Y-115263500D01*
G75*
G02*
X131969500Y-115501000I-237500J0D01*
G01*
X131494500Y-115501000D01*
G75*
G02*
X131257000Y-115263500I0J237500D01*
G01*
X131257000Y-114688500D01*
G75*
G02*
X131494500Y-114451000I237500J0D01*
G01*
G37*
G36*
G01*
X131494500Y-112701000D02*
X131969500Y-112701000D01*
G75*
G02*
X132207000Y-112938500I0J-237500D01*
G01*
X132207000Y-113513500D01*
G75*
G02*
X131969500Y-113751000I-237500J0D01*
G01*
X131494500Y-113751000D01*
G75*
G02*
X131257000Y-113513500I0J237500D01*
G01*
X131257000Y-112938500D01*
G75*
G02*
X131494500Y-112701000I237500J0D01*
G01*
G37*
%TD*%
%TO.C,R1*%
G36*
G01*
X129869500Y-114451000D02*
X130344500Y-114451000D01*
G75*
G02*
X130582000Y-114688500I0J-237500D01*
G01*
X130582000Y-115263500D01*
G75*
G02*
X130344500Y-115501000I-237500J0D01*
G01*
X129869500Y-115501000D01*
G75*
G02*
X129632000Y-115263500I0J237500D01*
G01*
X129632000Y-114688500D01*
G75*
G02*
X129869500Y-114451000I237500J0D01*
G01*
G37*
G36*
G01*
X129869500Y-112701000D02*
X130344500Y-112701000D01*
G75*
G02*
X130582000Y-112938500I0J-237500D01*
G01*
X130582000Y-113513500D01*
G75*
G02*
X130344500Y-113751000I-237500J0D01*
G01*
X129869500Y-113751000D01*
G75*
G02*
X129632000Y-113513500I0J237500D01*
G01*
X129632000Y-112938500D01*
G75*
G02*
X129869500Y-112701000I237500J0D01*
G01*
G37*
%TD*%
D10*
%TO.C,J7*%
X134955000Y-117602000D03*
X132415000Y-117602000D03*
D11*
X129875000Y-117602000D03*
%TD*%
D10*
%TO.C,J6*%
X113920000Y-84250000D03*
X116460000Y-84250000D03*
D11*
X119000000Y-84250000D03*
%TD*%
D10*
%TO.C,J5*%
X113920000Y-78125000D03*
X116460000Y-78125000D03*
D11*
X119000000Y-78125000D03*
%TD*%
%TO.C,L3*%
G36*
G01*
X160012500Y-96225000D02*
X160487500Y-96225000D01*
G75*
G02*
X160725000Y-96462500I0J-237500D01*
G01*
X160725000Y-97037500D01*
G75*
G02*
X160487500Y-97275000I-237500J0D01*
G01*
X160012500Y-97275000D01*
G75*
G02*
X159775000Y-97037500I0J237500D01*
G01*
X159775000Y-96462500D01*
G75*
G02*
X160012500Y-96225000I237500J0D01*
G01*
G37*
G36*
G01*
X160012500Y-94475000D02*
X160487500Y-94475000D01*
G75*
G02*
X160725000Y-94712500I0J-237500D01*
G01*
X160725000Y-95287500D01*
G75*
G02*
X160487500Y-95525000I-237500J0D01*
G01*
X160012500Y-95525000D01*
G75*
G02*
X159775000Y-95287500I0J237500D01*
G01*
X159775000Y-94712500D01*
G75*
G02*
X160012500Y-94475000I237500J0D01*
G01*
G37*
%TD*%
%TO.C,U15*%
G36*
G01*
X144050000Y-112150000D02*
X142600000Y-112150000D01*
G75*
G02*
X142525000Y-112075000I0J75000D01*
G01*
X142525000Y-111925000D01*
G75*
G02*
X142600000Y-111850000I75000J0D01*
G01*
X144050000Y-111850000D01*
G75*
G02*
X144125000Y-111925000I0J-75000D01*
G01*
X144125000Y-112075000D01*
G75*
G02*
X144050000Y-112150000I-75000J0D01*
G01*
G37*
G36*
G01*
X144050000Y-111650000D02*
X142600000Y-111650000D01*
G75*
G02*
X142525000Y-111575000I0J75000D01*
G01*
X142525000Y-111425000D01*
G75*
G02*
X142600000Y-111350000I75000J0D01*
G01*
X144050000Y-111350000D01*
G75*
G02*
X144125000Y-111425000I0J-75000D01*
G01*
X144125000Y-111575000D01*
G75*
G02*
X144050000Y-111650000I-75000J0D01*
G01*
G37*
G36*
G01*
X144050000Y-111150000D02*
X142600000Y-111150000D01*
G75*
G02*
X142525000Y-111075000I0J75000D01*
G01*
X142525000Y-110925000D01*
G75*
G02*
X142600000Y-110850000I75000J0D01*
G01*
X144050000Y-110850000D01*
G75*
G02*
X144125000Y-110925000I0J-75000D01*
G01*
X144125000Y-111075000D01*
G75*
G02*
X144050000Y-111150000I-75000J0D01*
G01*
G37*
G36*
G01*
X144050000Y-110650000D02*
X142600000Y-110650000D01*
G75*
G02*
X142525000Y-110575000I0J75000D01*
G01*
X142525000Y-110425000D01*
G75*
G02*
X142600000Y-110350000I75000J0D01*
G01*
X144050000Y-110350000D01*
G75*
G02*
X144125000Y-110425000I0J-75000D01*
G01*
X144125000Y-110575000D01*
G75*
G02*
X144050000Y-110650000I-75000J0D01*
G01*
G37*
G36*
G01*
X144050000Y-110150000D02*
X142600000Y-110150000D01*
G75*
G02*
X142525000Y-110075000I0J75000D01*
G01*
X142525000Y-109925000D01*
G75*
G02*
X142600000Y-109850000I75000J0D01*
G01*
X144050000Y-109850000D01*
G75*
G02*
X144125000Y-109925000I0J-75000D01*
G01*
X144125000Y-110075000D01*
G75*
G02*
X144050000Y-110150000I-75000J0D01*
G01*
G37*
G36*
G01*
X144050000Y-109650000D02*
X142600000Y-109650000D01*
G75*
G02*
X142525000Y-109575000I0J75000D01*
G01*
X142525000Y-109425000D01*
G75*
G02*
X142600000Y-109350000I75000J0D01*
G01*
X144050000Y-109350000D01*
G75*
G02*
X144125000Y-109425000I0J-75000D01*
G01*
X144125000Y-109575000D01*
G75*
G02*
X144050000Y-109650000I-75000J0D01*
G01*
G37*
G36*
G01*
X144050000Y-109150000D02*
X142600000Y-109150000D01*
G75*
G02*
X142525000Y-109075000I0J75000D01*
G01*
X142525000Y-108925000D01*
G75*
G02*
X142600000Y-108850000I75000J0D01*
G01*
X144050000Y-108850000D01*
G75*
G02*
X144125000Y-108925000I0J-75000D01*
G01*
X144125000Y-109075000D01*
G75*
G02*
X144050000Y-109150000I-75000J0D01*
G01*
G37*
G36*
G01*
X144050000Y-108650000D02*
X142600000Y-108650000D01*
G75*
G02*
X142525000Y-108575000I0J75000D01*
G01*
X142525000Y-108425000D01*
G75*
G02*
X142600000Y-108350000I75000J0D01*
G01*
X144050000Y-108350000D01*
G75*
G02*
X144125000Y-108425000I0J-75000D01*
G01*
X144125000Y-108575000D01*
G75*
G02*
X144050000Y-108650000I-75000J0D01*
G01*
G37*
G36*
G01*
X144050000Y-108150000D02*
X142600000Y-108150000D01*
G75*
G02*
X142525000Y-108075000I0J75000D01*
G01*
X142525000Y-107925000D01*
G75*
G02*
X142600000Y-107850000I75000J0D01*
G01*
X144050000Y-107850000D01*
G75*
G02*
X144125000Y-107925000I0J-75000D01*
G01*
X144125000Y-108075000D01*
G75*
G02*
X144050000Y-108150000I-75000J0D01*
G01*
G37*
G36*
G01*
X144050000Y-107650000D02*
X142600000Y-107650000D01*
G75*
G02*
X142525000Y-107575000I0J75000D01*
G01*
X142525000Y-107425000D01*
G75*
G02*
X142600000Y-107350000I75000J0D01*
G01*
X144050000Y-107350000D01*
G75*
G02*
X144125000Y-107425000I0J-75000D01*
G01*
X144125000Y-107575000D01*
G75*
G02*
X144050000Y-107650000I-75000J0D01*
G01*
G37*
G36*
G01*
X144050000Y-107150000D02*
X142600000Y-107150000D01*
G75*
G02*
X142525000Y-107075000I0J75000D01*
G01*
X142525000Y-106925000D01*
G75*
G02*
X142600000Y-106850000I75000J0D01*
G01*
X144050000Y-106850000D01*
G75*
G02*
X144125000Y-106925000I0J-75000D01*
G01*
X144125000Y-107075000D01*
G75*
G02*
X144050000Y-107150000I-75000J0D01*
G01*
G37*
G36*
G01*
X144050000Y-106650000D02*
X142600000Y-106650000D01*
G75*
G02*
X142525000Y-106575000I0J75000D01*
G01*
X142525000Y-106425000D01*
G75*
G02*
X142600000Y-106350000I75000J0D01*
G01*
X144050000Y-106350000D01*
G75*
G02*
X144125000Y-106425000I0J-75000D01*
G01*
X144125000Y-106575000D01*
G75*
G02*
X144050000Y-106650000I-75000J0D01*
G01*
G37*
G36*
G01*
X144050000Y-106150000D02*
X142600000Y-106150000D01*
G75*
G02*
X142525000Y-106075000I0J75000D01*
G01*
X142525000Y-105925000D01*
G75*
G02*
X142600000Y-105850000I75000J0D01*
G01*
X144050000Y-105850000D01*
G75*
G02*
X144125000Y-105925000I0J-75000D01*
G01*
X144125000Y-106075000D01*
G75*
G02*
X144050000Y-106150000I-75000J0D01*
G01*
G37*
G36*
G01*
X144050000Y-105650000D02*
X142600000Y-105650000D01*
G75*
G02*
X142525000Y-105575000I0J75000D01*
G01*
X142525000Y-105425000D01*
G75*
G02*
X142600000Y-105350000I75000J0D01*
G01*
X144050000Y-105350000D01*
G75*
G02*
X144125000Y-105425000I0J-75000D01*
G01*
X144125000Y-105575000D01*
G75*
G02*
X144050000Y-105650000I-75000J0D01*
G01*
G37*
G36*
G01*
X144050000Y-105150000D02*
X142600000Y-105150000D01*
G75*
G02*
X142525000Y-105075000I0J75000D01*
G01*
X142525000Y-104925000D01*
G75*
G02*
X142600000Y-104850000I75000J0D01*
G01*
X144050000Y-104850000D01*
G75*
G02*
X144125000Y-104925000I0J-75000D01*
G01*
X144125000Y-105075000D01*
G75*
G02*
X144050000Y-105150000I-75000J0D01*
G01*
G37*
G36*
G01*
X144050000Y-104650000D02*
X142600000Y-104650000D01*
G75*
G02*
X142525000Y-104575000I0J75000D01*
G01*
X142525000Y-104425000D01*
G75*
G02*
X142600000Y-104350000I75000J0D01*
G01*
X144050000Y-104350000D01*
G75*
G02*
X144125000Y-104425000I0J-75000D01*
G01*
X144125000Y-104575000D01*
G75*
G02*
X144050000Y-104650000I-75000J0D01*
G01*
G37*
G36*
G01*
X144050000Y-104150000D02*
X142600000Y-104150000D01*
G75*
G02*
X142525000Y-104075000I0J75000D01*
G01*
X142525000Y-103925000D01*
G75*
G02*
X142600000Y-103850000I75000J0D01*
G01*
X144050000Y-103850000D01*
G75*
G02*
X144125000Y-103925000I0J-75000D01*
G01*
X144125000Y-104075000D01*
G75*
G02*
X144050000Y-104150000I-75000J0D01*
G01*
G37*
G36*
G01*
X144050000Y-103650000D02*
X142600000Y-103650000D01*
G75*
G02*
X142525000Y-103575000I0J75000D01*
G01*
X142525000Y-103425000D01*
G75*
G02*
X142600000Y-103350000I75000J0D01*
G01*
X144050000Y-103350000D01*
G75*
G02*
X144125000Y-103425000I0J-75000D01*
G01*
X144125000Y-103575000D01*
G75*
G02*
X144050000Y-103650000I-75000J0D01*
G01*
G37*
G36*
G01*
X144050000Y-103150000D02*
X142600000Y-103150000D01*
G75*
G02*
X142525000Y-103075000I0J75000D01*
G01*
X142525000Y-102925000D01*
G75*
G02*
X142600000Y-102850000I75000J0D01*
G01*
X144050000Y-102850000D01*
G75*
G02*
X144125000Y-102925000I0J-75000D01*
G01*
X144125000Y-103075000D01*
G75*
G02*
X144050000Y-103150000I-75000J0D01*
G01*
G37*
G36*
G01*
X144050000Y-102650000D02*
X142600000Y-102650000D01*
G75*
G02*
X142525000Y-102575000I0J75000D01*
G01*
X142525000Y-102425000D01*
G75*
G02*
X142600000Y-102350000I75000J0D01*
G01*
X144050000Y-102350000D01*
G75*
G02*
X144125000Y-102425000I0J-75000D01*
G01*
X144125000Y-102575000D01*
G75*
G02*
X144050000Y-102650000I-75000J0D01*
G01*
G37*
G36*
G01*
X144050000Y-102150000D02*
X142600000Y-102150000D01*
G75*
G02*
X142525000Y-102075000I0J75000D01*
G01*
X142525000Y-101925000D01*
G75*
G02*
X142600000Y-101850000I75000J0D01*
G01*
X144050000Y-101850000D01*
G75*
G02*
X144125000Y-101925000I0J-75000D01*
G01*
X144125000Y-102075000D01*
G75*
G02*
X144050000Y-102150000I-75000J0D01*
G01*
G37*
G36*
G01*
X144050000Y-101650000D02*
X142600000Y-101650000D01*
G75*
G02*
X142525000Y-101575000I0J75000D01*
G01*
X142525000Y-101425000D01*
G75*
G02*
X142600000Y-101350000I75000J0D01*
G01*
X144050000Y-101350000D01*
G75*
G02*
X144125000Y-101425000I0J-75000D01*
G01*
X144125000Y-101575000D01*
G75*
G02*
X144050000Y-101650000I-75000J0D01*
G01*
G37*
G36*
G01*
X144050000Y-101150000D02*
X142600000Y-101150000D01*
G75*
G02*
X142525000Y-101075000I0J75000D01*
G01*
X142525000Y-100925000D01*
G75*
G02*
X142600000Y-100850000I75000J0D01*
G01*
X144050000Y-100850000D01*
G75*
G02*
X144125000Y-100925000I0J-75000D01*
G01*
X144125000Y-101075000D01*
G75*
G02*
X144050000Y-101150000I-75000J0D01*
G01*
G37*
G36*
G01*
X144050000Y-100650000D02*
X142600000Y-100650000D01*
G75*
G02*
X142525000Y-100575000I0J75000D01*
G01*
X142525000Y-100425000D01*
G75*
G02*
X142600000Y-100350000I75000J0D01*
G01*
X144050000Y-100350000D01*
G75*
G02*
X144125000Y-100425000I0J-75000D01*
G01*
X144125000Y-100575000D01*
G75*
G02*
X144050000Y-100650000I-75000J0D01*
G01*
G37*
G36*
G01*
X144050000Y-100150000D02*
X142600000Y-100150000D01*
G75*
G02*
X142525000Y-100075000I0J75000D01*
G01*
X142525000Y-99925000D01*
G75*
G02*
X142600000Y-99850000I75000J0D01*
G01*
X144050000Y-99850000D01*
G75*
G02*
X144125000Y-99925000I0J-75000D01*
G01*
X144125000Y-100075000D01*
G75*
G02*
X144050000Y-100150000I-75000J0D01*
G01*
G37*
G36*
G01*
X145075000Y-99125000D02*
X144925000Y-99125000D01*
G75*
G02*
X144850000Y-99050000I0J75000D01*
G01*
X144850000Y-97600000D01*
G75*
G02*
X144925000Y-97525000I75000J0D01*
G01*
X145075000Y-97525000D01*
G75*
G02*
X145150000Y-97600000I0J-75000D01*
G01*
X145150000Y-99050000D01*
G75*
G02*
X145075000Y-99125000I-75000J0D01*
G01*
G37*
G36*
G01*
X145575000Y-99125000D02*
X145425000Y-99125000D01*
G75*
G02*
X145350000Y-99050000I0J75000D01*
G01*
X145350000Y-97600000D01*
G75*
G02*
X145425000Y-97525000I75000J0D01*
G01*
X145575000Y-97525000D01*
G75*
G02*
X145650000Y-97600000I0J-75000D01*
G01*
X145650000Y-99050000D01*
G75*
G02*
X145575000Y-99125000I-75000J0D01*
G01*
G37*
G36*
G01*
X146075000Y-99125000D02*
X145925000Y-99125000D01*
G75*
G02*
X145850000Y-99050000I0J75000D01*
G01*
X145850000Y-97600000D01*
G75*
G02*
X145925000Y-97525000I75000J0D01*
G01*
X146075000Y-97525000D01*
G75*
G02*
X146150000Y-97600000I0J-75000D01*
G01*
X146150000Y-99050000D01*
G75*
G02*
X146075000Y-99125000I-75000J0D01*
G01*
G37*
G36*
G01*
X146575000Y-99125000D02*
X146425000Y-99125000D01*
G75*
G02*
X146350000Y-99050000I0J75000D01*
G01*
X146350000Y-97600000D01*
G75*
G02*
X146425000Y-97525000I75000J0D01*
G01*
X146575000Y-97525000D01*
G75*
G02*
X146650000Y-97600000I0J-75000D01*
G01*
X146650000Y-99050000D01*
G75*
G02*
X146575000Y-99125000I-75000J0D01*
G01*
G37*
G36*
G01*
X147075000Y-99125000D02*
X146925000Y-99125000D01*
G75*
G02*
X146850000Y-99050000I0J75000D01*
G01*
X146850000Y-97600000D01*
G75*
G02*
X146925000Y-97525000I75000J0D01*
G01*
X147075000Y-97525000D01*
G75*
G02*
X147150000Y-97600000I0J-75000D01*
G01*
X147150000Y-99050000D01*
G75*
G02*
X147075000Y-99125000I-75000J0D01*
G01*
G37*
G36*
G01*
X147575000Y-99125000D02*
X147425000Y-99125000D01*
G75*
G02*
X147350000Y-99050000I0J75000D01*
G01*
X147350000Y-97600000D01*
G75*
G02*
X147425000Y-97525000I75000J0D01*
G01*
X147575000Y-97525000D01*
G75*
G02*
X147650000Y-97600000I0J-75000D01*
G01*
X147650000Y-99050000D01*
G75*
G02*
X147575000Y-99125000I-75000J0D01*
G01*
G37*
G36*
G01*
X148075000Y-99125000D02*
X147925000Y-99125000D01*
G75*
G02*
X147850000Y-99050000I0J75000D01*
G01*
X147850000Y-97600000D01*
G75*
G02*
X147925000Y-97525000I75000J0D01*
G01*
X148075000Y-97525000D01*
G75*
G02*
X148150000Y-97600000I0J-75000D01*
G01*
X148150000Y-99050000D01*
G75*
G02*
X148075000Y-99125000I-75000J0D01*
G01*
G37*
G36*
G01*
X148575000Y-99125000D02*
X148425000Y-99125000D01*
G75*
G02*
X148350000Y-99050000I0J75000D01*
G01*
X148350000Y-97600000D01*
G75*
G02*
X148425000Y-97525000I75000J0D01*
G01*
X148575000Y-97525000D01*
G75*
G02*
X148650000Y-97600000I0J-75000D01*
G01*
X148650000Y-99050000D01*
G75*
G02*
X148575000Y-99125000I-75000J0D01*
G01*
G37*
G36*
G01*
X149075000Y-99125000D02*
X148925000Y-99125000D01*
G75*
G02*
X148850000Y-99050000I0J75000D01*
G01*
X148850000Y-97600000D01*
G75*
G02*
X148925000Y-97525000I75000J0D01*
G01*
X149075000Y-97525000D01*
G75*
G02*
X149150000Y-97600000I0J-75000D01*
G01*
X149150000Y-99050000D01*
G75*
G02*
X149075000Y-99125000I-75000J0D01*
G01*
G37*
G36*
G01*
X149575000Y-99125000D02*
X149425000Y-99125000D01*
G75*
G02*
X149350000Y-99050000I0J75000D01*
G01*
X149350000Y-97600000D01*
G75*
G02*
X149425000Y-97525000I75000J0D01*
G01*
X149575000Y-97525000D01*
G75*
G02*
X149650000Y-97600000I0J-75000D01*
G01*
X149650000Y-99050000D01*
G75*
G02*
X149575000Y-99125000I-75000J0D01*
G01*
G37*
G36*
G01*
X150075000Y-99125000D02*
X149925000Y-99125000D01*
G75*
G02*
X149850000Y-99050000I0J75000D01*
G01*
X149850000Y-97600000D01*
G75*
G02*
X149925000Y-97525000I75000J0D01*
G01*
X150075000Y-97525000D01*
G75*
G02*
X150150000Y-97600000I0J-75000D01*
G01*
X150150000Y-99050000D01*
G75*
G02*
X150075000Y-99125000I-75000J0D01*
G01*
G37*
G36*
G01*
X150575000Y-99125000D02*
X150425000Y-99125000D01*
G75*
G02*
X150350000Y-99050000I0J75000D01*
G01*
X150350000Y-97600000D01*
G75*
G02*
X150425000Y-97525000I75000J0D01*
G01*
X150575000Y-97525000D01*
G75*
G02*
X150650000Y-97600000I0J-75000D01*
G01*
X150650000Y-99050000D01*
G75*
G02*
X150575000Y-99125000I-75000J0D01*
G01*
G37*
G36*
G01*
X151075000Y-99125000D02*
X150925000Y-99125000D01*
G75*
G02*
X150850000Y-99050000I0J75000D01*
G01*
X150850000Y-97600000D01*
G75*
G02*
X150925000Y-97525000I75000J0D01*
G01*
X151075000Y-97525000D01*
G75*
G02*
X151150000Y-97600000I0J-75000D01*
G01*
X151150000Y-99050000D01*
G75*
G02*
X151075000Y-99125000I-75000J0D01*
G01*
G37*
G36*
G01*
X151575000Y-99125000D02*
X151425000Y-99125000D01*
G75*
G02*
X151350000Y-99050000I0J75000D01*
G01*
X151350000Y-97600000D01*
G75*
G02*
X151425000Y-97525000I75000J0D01*
G01*
X151575000Y-97525000D01*
G75*
G02*
X151650000Y-97600000I0J-75000D01*
G01*
X151650000Y-99050000D01*
G75*
G02*
X151575000Y-99125000I-75000J0D01*
G01*
G37*
G36*
G01*
X152075000Y-99125000D02*
X151925000Y-99125000D01*
G75*
G02*
X151850000Y-99050000I0J75000D01*
G01*
X151850000Y-97600000D01*
G75*
G02*
X151925000Y-97525000I75000J0D01*
G01*
X152075000Y-97525000D01*
G75*
G02*
X152150000Y-97600000I0J-75000D01*
G01*
X152150000Y-99050000D01*
G75*
G02*
X152075000Y-99125000I-75000J0D01*
G01*
G37*
G36*
G01*
X152575000Y-99125000D02*
X152425000Y-99125000D01*
G75*
G02*
X152350000Y-99050000I0J75000D01*
G01*
X152350000Y-97600000D01*
G75*
G02*
X152425000Y-97525000I75000J0D01*
G01*
X152575000Y-97525000D01*
G75*
G02*
X152650000Y-97600000I0J-75000D01*
G01*
X152650000Y-99050000D01*
G75*
G02*
X152575000Y-99125000I-75000J0D01*
G01*
G37*
G36*
G01*
X153075000Y-99125000D02*
X152925000Y-99125000D01*
G75*
G02*
X152850000Y-99050000I0J75000D01*
G01*
X152850000Y-97600000D01*
G75*
G02*
X152925000Y-97525000I75000J0D01*
G01*
X153075000Y-97525000D01*
G75*
G02*
X153150000Y-97600000I0J-75000D01*
G01*
X153150000Y-99050000D01*
G75*
G02*
X153075000Y-99125000I-75000J0D01*
G01*
G37*
G36*
G01*
X153575000Y-99125000D02*
X153425000Y-99125000D01*
G75*
G02*
X153350000Y-99050000I0J75000D01*
G01*
X153350000Y-97600000D01*
G75*
G02*
X153425000Y-97525000I75000J0D01*
G01*
X153575000Y-97525000D01*
G75*
G02*
X153650000Y-97600000I0J-75000D01*
G01*
X153650000Y-99050000D01*
G75*
G02*
X153575000Y-99125000I-75000J0D01*
G01*
G37*
G36*
G01*
X154075000Y-99125000D02*
X153925000Y-99125000D01*
G75*
G02*
X153850000Y-99050000I0J75000D01*
G01*
X153850000Y-97600000D01*
G75*
G02*
X153925000Y-97525000I75000J0D01*
G01*
X154075000Y-97525000D01*
G75*
G02*
X154150000Y-97600000I0J-75000D01*
G01*
X154150000Y-99050000D01*
G75*
G02*
X154075000Y-99125000I-75000J0D01*
G01*
G37*
G36*
G01*
X154575000Y-99125000D02*
X154425000Y-99125000D01*
G75*
G02*
X154350000Y-99050000I0J75000D01*
G01*
X154350000Y-97600000D01*
G75*
G02*
X154425000Y-97525000I75000J0D01*
G01*
X154575000Y-97525000D01*
G75*
G02*
X154650000Y-97600000I0J-75000D01*
G01*
X154650000Y-99050000D01*
G75*
G02*
X154575000Y-99125000I-75000J0D01*
G01*
G37*
G36*
G01*
X155075000Y-99125000D02*
X154925000Y-99125000D01*
G75*
G02*
X154850000Y-99050000I0J75000D01*
G01*
X154850000Y-97600000D01*
G75*
G02*
X154925000Y-97525000I75000J0D01*
G01*
X155075000Y-97525000D01*
G75*
G02*
X155150000Y-97600000I0J-75000D01*
G01*
X155150000Y-99050000D01*
G75*
G02*
X155075000Y-99125000I-75000J0D01*
G01*
G37*
G36*
G01*
X155575000Y-99125000D02*
X155425000Y-99125000D01*
G75*
G02*
X155350000Y-99050000I0J75000D01*
G01*
X155350000Y-97600000D01*
G75*
G02*
X155425000Y-97525000I75000J0D01*
G01*
X155575000Y-97525000D01*
G75*
G02*
X155650000Y-97600000I0J-75000D01*
G01*
X155650000Y-99050000D01*
G75*
G02*
X155575000Y-99125000I-75000J0D01*
G01*
G37*
G36*
G01*
X156075000Y-99125000D02*
X155925000Y-99125000D01*
G75*
G02*
X155850000Y-99050000I0J75000D01*
G01*
X155850000Y-97600000D01*
G75*
G02*
X155925000Y-97525000I75000J0D01*
G01*
X156075000Y-97525000D01*
G75*
G02*
X156150000Y-97600000I0J-75000D01*
G01*
X156150000Y-99050000D01*
G75*
G02*
X156075000Y-99125000I-75000J0D01*
G01*
G37*
G36*
G01*
X156575000Y-99125000D02*
X156425000Y-99125000D01*
G75*
G02*
X156350000Y-99050000I0J75000D01*
G01*
X156350000Y-97600000D01*
G75*
G02*
X156425000Y-97525000I75000J0D01*
G01*
X156575000Y-97525000D01*
G75*
G02*
X156650000Y-97600000I0J-75000D01*
G01*
X156650000Y-99050000D01*
G75*
G02*
X156575000Y-99125000I-75000J0D01*
G01*
G37*
G36*
G01*
X157075000Y-99125000D02*
X156925000Y-99125000D01*
G75*
G02*
X156850000Y-99050000I0J75000D01*
G01*
X156850000Y-97600000D01*
G75*
G02*
X156925000Y-97525000I75000J0D01*
G01*
X157075000Y-97525000D01*
G75*
G02*
X157150000Y-97600000I0J-75000D01*
G01*
X157150000Y-99050000D01*
G75*
G02*
X157075000Y-99125000I-75000J0D01*
G01*
G37*
G36*
G01*
X159400000Y-100150000D02*
X157950000Y-100150000D01*
G75*
G02*
X157875000Y-100075000I0J75000D01*
G01*
X157875000Y-99925000D01*
G75*
G02*
X157950000Y-99850000I75000J0D01*
G01*
X159400000Y-99850000D01*
G75*
G02*
X159475000Y-99925000I0J-75000D01*
G01*
X159475000Y-100075000D01*
G75*
G02*
X159400000Y-100150000I-75000J0D01*
G01*
G37*
G36*
G01*
X159400000Y-100650000D02*
X157950000Y-100650000D01*
G75*
G02*
X157875000Y-100575000I0J75000D01*
G01*
X157875000Y-100425000D01*
G75*
G02*
X157950000Y-100350000I75000J0D01*
G01*
X159400000Y-100350000D01*
G75*
G02*
X159475000Y-100425000I0J-75000D01*
G01*
X159475000Y-100575000D01*
G75*
G02*
X159400000Y-100650000I-75000J0D01*
G01*
G37*
G36*
G01*
X159400000Y-101150000D02*
X157950000Y-101150000D01*
G75*
G02*
X157875000Y-101075000I0J75000D01*
G01*
X157875000Y-100925000D01*
G75*
G02*
X157950000Y-100850000I75000J0D01*
G01*
X159400000Y-100850000D01*
G75*
G02*
X159475000Y-100925000I0J-75000D01*
G01*
X159475000Y-101075000D01*
G75*
G02*
X159400000Y-101150000I-75000J0D01*
G01*
G37*
G36*
G01*
X159400000Y-101650000D02*
X157950000Y-101650000D01*
G75*
G02*
X157875000Y-101575000I0J75000D01*
G01*
X157875000Y-101425000D01*
G75*
G02*
X157950000Y-101350000I75000J0D01*
G01*
X159400000Y-101350000D01*
G75*
G02*
X159475000Y-101425000I0J-75000D01*
G01*
X159475000Y-101575000D01*
G75*
G02*
X159400000Y-101650000I-75000J0D01*
G01*
G37*
G36*
G01*
X159400000Y-102150000D02*
X157950000Y-102150000D01*
G75*
G02*
X157875000Y-102075000I0J75000D01*
G01*
X157875000Y-101925000D01*
G75*
G02*
X157950000Y-101850000I75000J0D01*
G01*
X159400000Y-101850000D01*
G75*
G02*
X159475000Y-101925000I0J-75000D01*
G01*
X159475000Y-102075000D01*
G75*
G02*
X159400000Y-102150000I-75000J0D01*
G01*
G37*
G36*
G01*
X159400000Y-102650000D02*
X157950000Y-102650000D01*
G75*
G02*
X157875000Y-102575000I0J75000D01*
G01*
X157875000Y-102425000D01*
G75*
G02*
X157950000Y-102350000I75000J0D01*
G01*
X159400000Y-102350000D01*
G75*
G02*
X159475000Y-102425000I0J-75000D01*
G01*
X159475000Y-102575000D01*
G75*
G02*
X159400000Y-102650000I-75000J0D01*
G01*
G37*
G36*
G01*
X159400000Y-103150000D02*
X157950000Y-103150000D01*
G75*
G02*
X157875000Y-103075000I0J75000D01*
G01*
X157875000Y-102925000D01*
G75*
G02*
X157950000Y-102850000I75000J0D01*
G01*
X159400000Y-102850000D01*
G75*
G02*
X159475000Y-102925000I0J-75000D01*
G01*
X159475000Y-103075000D01*
G75*
G02*
X159400000Y-103150000I-75000J0D01*
G01*
G37*
G36*
G01*
X159400000Y-103650000D02*
X157950000Y-103650000D01*
G75*
G02*
X157875000Y-103575000I0J75000D01*
G01*
X157875000Y-103425000D01*
G75*
G02*
X157950000Y-103350000I75000J0D01*
G01*
X159400000Y-103350000D01*
G75*
G02*
X159475000Y-103425000I0J-75000D01*
G01*
X159475000Y-103575000D01*
G75*
G02*
X159400000Y-103650000I-75000J0D01*
G01*
G37*
G36*
G01*
X159400000Y-104150000D02*
X157950000Y-104150000D01*
G75*
G02*
X157875000Y-104075000I0J75000D01*
G01*
X157875000Y-103925000D01*
G75*
G02*
X157950000Y-103850000I75000J0D01*
G01*
X159400000Y-103850000D01*
G75*
G02*
X159475000Y-103925000I0J-75000D01*
G01*
X159475000Y-104075000D01*
G75*
G02*
X159400000Y-104150000I-75000J0D01*
G01*
G37*
G36*
G01*
X159400000Y-104650000D02*
X157950000Y-104650000D01*
G75*
G02*
X157875000Y-104575000I0J75000D01*
G01*
X157875000Y-104425000D01*
G75*
G02*
X157950000Y-104350000I75000J0D01*
G01*
X159400000Y-104350000D01*
G75*
G02*
X159475000Y-104425000I0J-75000D01*
G01*
X159475000Y-104575000D01*
G75*
G02*
X159400000Y-104650000I-75000J0D01*
G01*
G37*
G36*
G01*
X159400000Y-105150000D02*
X157950000Y-105150000D01*
G75*
G02*
X157875000Y-105075000I0J75000D01*
G01*
X157875000Y-104925000D01*
G75*
G02*
X157950000Y-104850000I75000J0D01*
G01*
X159400000Y-104850000D01*
G75*
G02*
X159475000Y-104925000I0J-75000D01*
G01*
X159475000Y-105075000D01*
G75*
G02*
X159400000Y-105150000I-75000J0D01*
G01*
G37*
G36*
G01*
X159400000Y-105650000D02*
X157950000Y-105650000D01*
G75*
G02*
X157875000Y-105575000I0J75000D01*
G01*
X157875000Y-105425000D01*
G75*
G02*
X157950000Y-105350000I75000J0D01*
G01*
X159400000Y-105350000D01*
G75*
G02*
X159475000Y-105425000I0J-75000D01*
G01*
X159475000Y-105575000D01*
G75*
G02*
X159400000Y-105650000I-75000J0D01*
G01*
G37*
G36*
G01*
X159400000Y-106150000D02*
X157950000Y-106150000D01*
G75*
G02*
X157875000Y-106075000I0J75000D01*
G01*
X157875000Y-105925000D01*
G75*
G02*
X157950000Y-105850000I75000J0D01*
G01*
X159400000Y-105850000D01*
G75*
G02*
X159475000Y-105925000I0J-75000D01*
G01*
X159475000Y-106075000D01*
G75*
G02*
X159400000Y-106150000I-75000J0D01*
G01*
G37*
G36*
G01*
X159400000Y-106650000D02*
X157950000Y-106650000D01*
G75*
G02*
X157875000Y-106575000I0J75000D01*
G01*
X157875000Y-106425000D01*
G75*
G02*
X157950000Y-106350000I75000J0D01*
G01*
X159400000Y-106350000D01*
G75*
G02*
X159475000Y-106425000I0J-75000D01*
G01*
X159475000Y-106575000D01*
G75*
G02*
X159400000Y-106650000I-75000J0D01*
G01*
G37*
G36*
G01*
X159400000Y-107150000D02*
X157950000Y-107150000D01*
G75*
G02*
X157875000Y-107075000I0J75000D01*
G01*
X157875000Y-106925000D01*
G75*
G02*
X157950000Y-106850000I75000J0D01*
G01*
X159400000Y-106850000D01*
G75*
G02*
X159475000Y-106925000I0J-75000D01*
G01*
X159475000Y-107075000D01*
G75*
G02*
X159400000Y-107150000I-75000J0D01*
G01*
G37*
G36*
G01*
X159400000Y-107650000D02*
X157950000Y-107650000D01*
G75*
G02*
X157875000Y-107575000I0J75000D01*
G01*
X157875000Y-107425000D01*
G75*
G02*
X157950000Y-107350000I75000J0D01*
G01*
X159400000Y-107350000D01*
G75*
G02*
X159475000Y-107425000I0J-75000D01*
G01*
X159475000Y-107575000D01*
G75*
G02*
X159400000Y-107650000I-75000J0D01*
G01*
G37*
G36*
G01*
X159400000Y-108150000D02*
X157950000Y-108150000D01*
G75*
G02*
X157875000Y-108075000I0J75000D01*
G01*
X157875000Y-107925000D01*
G75*
G02*
X157950000Y-107850000I75000J0D01*
G01*
X159400000Y-107850000D01*
G75*
G02*
X159475000Y-107925000I0J-75000D01*
G01*
X159475000Y-108075000D01*
G75*
G02*
X159400000Y-108150000I-75000J0D01*
G01*
G37*
G36*
G01*
X159400000Y-108650000D02*
X157950000Y-108650000D01*
G75*
G02*
X157875000Y-108575000I0J75000D01*
G01*
X157875000Y-108425000D01*
G75*
G02*
X157950000Y-108350000I75000J0D01*
G01*
X159400000Y-108350000D01*
G75*
G02*
X159475000Y-108425000I0J-75000D01*
G01*
X159475000Y-108575000D01*
G75*
G02*
X159400000Y-108650000I-75000J0D01*
G01*
G37*
G36*
G01*
X159400000Y-109150000D02*
X157950000Y-109150000D01*
G75*
G02*
X157875000Y-109075000I0J75000D01*
G01*
X157875000Y-108925000D01*
G75*
G02*
X157950000Y-108850000I75000J0D01*
G01*
X159400000Y-108850000D01*
G75*
G02*
X159475000Y-108925000I0J-75000D01*
G01*
X159475000Y-109075000D01*
G75*
G02*
X159400000Y-109150000I-75000J0D01*
G01*
G37*
G36*
G01*
X159400000Y-109650000D02*
X157950000Y-109650000D01*
G75*
G02*
X157875000Y-109575000I0J75000D01*
G01*
X157875000Y-109425000D01*
G75*
G02*
X157950000Y-109350000I75000J0D01*
G01*
X159400000Y-109350000D01*
G75*
G02*
X159475000Y-109425000I0J-75000D01*
G01*
X159475000Y-109575000D01*
G75*
G02*
X159400000Y-109650000I-75000J0D01*
G01*
G37*
G36*
G01*
X159400000Y-110150000D02*
X157950000Y-110150000D01*
G75*
G02*
X157875000Y-110075000I0J75000D01*
G01*
X157875000Y-109925000D01*
G75*
G02*
X157950000Y-109850000I75000J0D01*
G01*
X159400000Y-109850000D01*
G75*
G02*
X159475000Y-109925000I0J-75000D01*
G01*
X159475000Y-110075000D01*
G75*
G02*
X159400000Y-110150000I-75000J0D01*
G01*
G37*
G36*
G01*
X159400000Y-110650000D02*
X157950000Y-110650000D01*
G75*
G02*
X157875000Y-110575000I0J75000D01*
G01*
X157875000Y-110425000D01*
G75*
G02*
X157950000Y-110350000I75000J0D01*
G01*
X159400000Y-110350000D01*
G75*
G02*
X159475000Y-110425000I0J-75000D01*
G01*
X159475000Y-110575000D01*
G75*
G02*
X159400000Y-110650000I-75000J0D01*
G01*
G37*
G36*
G01*
X159400000Y-111150000D02*
X157950000Y-111150000D01*
G75*
G02*
X157875000Y-111075000I0J75000D01*
G01*
X157875000Y-110925000D01*
G75*
G02*
X157950000Y-110850000I75000J0D01*
G01*
X159400000Y-110850000D01*
G75*
G02*
X159475000Y-110925000I0J-75000D01*
G01*
X159475000Y-111075000D01*
G75*
G02*
X159400000Y-111150000I-75000J0D01*
G01*
G37*
G36*
G01*
X159400000Y-111650000D02*
X157950000Y-111650000D01*
G75*
G02*
X157875000Y-111575000I0J75000D01*
G01*
X157875000Y-111425000D01*
G75*
G02*
X157950000Y-111350000I75000J0D01*
G01*
X159400000Y-111350000D01*
G75*
G02*
X159475000Y-111425000I0J-75000D01*
G01*
X159475000Y-111575000D01*
G75*
G02*
X159400000Y-111650000I-75000J0D01*
G01*
G37*
G36*
G01*
X159400000Y-112150000D02*
X157950000Y-112150000D01*
G75*
G02*
X157875000Y-112075000I0J75000D01*
G01*
X157875000Y-111925000D01*
G75*
G02*
X157950000Y-111850000I75000J0D01*
G01*
X159400000Y-111850000D01*
G75*
G02*
X159475000Y-111925000I0J-75000D01*
G01*
X159475000Y-112075000D01*
G75*
G02*
X159400000Y-112150000I-75000J0D01*
G01*
G37*
G36*
G01*
X157075000Y-114475000D02*
X156925000Y-114475000D01*
G75*
G02*
X156850000Y-114400000I0J75000D01*
G01*
X156850000Y-112950000D01*
G75*
G02*
X156925000Y-112875000I75000J0D01*
G01*
X157075000Y-112875000D01*
G75*
G02*
X157150000Y-112950000I0J-75000D01*
G01*
X157150000Y-114400000D01*
G75*
G02*
X157075000Y-114475000I-75000J0D01*
G01*
G37*
G36*
G01*
X156575000Y-114475000D02*
X156425000Y-114475000D01*
G75*
G02*
X156350000Y-114400000I0J75000D01*
G01*
X156350000Y-112950000D01*
G75*
G02*
X156425000Y-112875000I75000J0D01*
G01*
X156575000Y-112875000D01*
G75*
G02*
X156650000Y-112950000I0J-75000D01*
G01*
X156650000Y-114400000D01*
G75*
G02*
X156575000Y-114475000I-75000J0D01*
G01*
G37*
G36*
G01*
X156075000Y-114475000D02*
X155925000Y-114475000D01*
G75*
G02*
X155850000Y-114400000I0J75000D01*
G01*
X155850000Y-112950000D01*
G75*
G02*
X155925000Y-112875000I75000J0D01*
G01*
X156075000Y-112875000D01*
G75*
G02*
X156150000Y-112950000I0J-75000D01*
G01*
X156150000Y-114400000D01*
G75*
G02*
X156075000Y-114475000I-75000J0D01*
G01*
G37*
G36*
G01*
X155575000Y-114475000D02*
X155425000Y-114475000D01*
G75*
G02*
X155350000Y-114400000I0J75000D01*
G01*
X155350000Y-112950000D01*
G75*
G02*
X155425000Y-112875000I75000J0D01*
G01*
X155575000Y-112875000D01*
G75*
G02*
X155650000Y-112950000I0J-75000D01*
G01*
X155650000Y-114400000D01*
G75*
G02*
X155575000Y-114475000I-75000J0D01*
G01*
G37*
G36*
G01*
X155075000Y-114475000D02*
X154925000Y-114475000D01*
G75*
G02*
X154850000Y-114400000I0J75000D01*
G01*
X154850000Y-112950000D01*
G75*
G02*
X154925000Y-112875000I75000J0D01*
G01*
X155075000Y-112875000D01*
G75*
G02*
X155150000Y-112950000I0J-75000D01*
G01*
X155150000Y-114400000D01*
G75*
G02*
X155075000Y-114475000I-75000J0D01*
G01*
G37*
G36*
G01*
X154575000Y-114475000D02*
X154425000Y-114475000D01*
G75*
G02*
X154350000Y-114400000I0J75000D01*
G01*
X154350000Y-112950000D01*
G75*
G02*
X154425000Y-112875000I75000J0D01*
G01*
X154575000Y-112875000D01*
G75*
G02*
X154650000Y-112950000I0J-75000D01*
G01*
X154650000Y-114400000D01*
G75*
G02*
X154575000Y-114475000I-75000J0D01*
G01*
G37*
G36*
G01*
X154075000Y-114475000D02*
X153925000Y-114475000D01*
G75*
G02*
X153850000Y-114400000I0J75000D01*
G01*
X153850000Y-112950000D01*
G75*
G02*
X153925000Y-112875000I75000J0D01*
G01*
X154075000Y-112875000D01*
G75*
G02*
X154150000Y-112950000I0J-75000D01*
G01*
X154150000Y-114400000D01*
G75*
G02*
X154075000Y-114475000I-75000J0D01*
G01*
G37*
G36*
G01*
X153575000Y-114475000D02*
X153425000Y-114475000D01*
G75*
G02*
X153350000Y-114400000I0J75000D01*
G01*
X153350000Y-112950000D01*
G75*
G02*
X153425000Y-112875000I75000J0D01*
G01*
X153575000Y-112875000D01*
G75*
G02*
X153650000Y-112950000I0J-75000D01*
G01*
X153650000Y-114400000D01*
G75*
G02*
X153575000Y-114475000I-75000J0D01*
G01*
G37*
G36*
G01*
X153075000Y-114475000D02*
X152925000Y-114475000D01*
G75*
G02*
X152850000Y-114400000I0J75000D01*
G01*
X152850000Y-112950000D01*
G75*
G02*
X152925000Y-112875000I75000J0D01*
G01*
X153075000Y-112875000D01*
G75*
G02*
X153150000Y-112950000I0J-75000D01*
G01*
X153150000Y-114400000D01*
G75*
G02*
X153075000Y-114475000I-75000J0D01*
G01*
G37*
G36*
G01*
X152575000Y-114475000D02*
X152425000Y-114475000D01*
G75*
G02*
X152350000Y-114400000I0J75000D01*
G01*
X152350000Y-112950000D01*
G75*
G02*
X152425000Y-112875000I75000J0D01*
G01*
X152575000Y-112875000D01*
G75*
G02*
X152650000Y-112950000I0J-75000D01*
G01*
X152650000Y-114400000D01*
G75*
G02*
X152575000Y-114475000I-75000J0D01*
G01*
G37*
G36*
G01*
X152075000Y-114475000D02*
X151925000Y-114475000D01*
G75*
G02*
X151850000Y-114400000I0J75000D01*
G01*
X151850000Y-112950000D01*
G75*
G02*
X151925000Y-112875000I75000J0D01*
G01*
X152075000Y-112875000D01*
G75*
G02*
X152150000Y-112950000I0J-75000D01*
G01*
X152150000Y-114400000D01*
G75*
G02*
X152075000Y-114475000I-75000J0D01*
G01*
G37*
G36*
G01*
X151575000Y-114475000D02*
X151425000Y-114475000D01*
G75*
G02*
X151350000Y-114400000I0J75000D01*
G01*
X151350000Y-112950000D01*
G75*
G02*
X151425000Y-112875000I75000J0D01*
G01*
X151575000Y-112875000D01*
G75*
G02*
X151650000Y-112950000I0J-75000D01*
G01*
X151650000Y-114400000D01*
G75*
G02*
X151575000Y-114475000I-75000J0D01*
G01*
G37*
G36*
G01*
X151075000Y-114475000D02*
X150925000Y-114475000D01*
G75*
G02*
X150850000Y-114400000I0J75000D01*
G01*
X150850000Y-112950000D01*
G75*
G02*
X150925000Y-112875000I75000J0D01*
G01*
X151075000Y-112875000D01*
G75*
G02*
X151150000Y-112950000I0J-75000D01*
G01*
X151150000Y-114400000D01*
G75*
G02*
X151075000Y-114475000I-75000J0D01*
G01*
G37*
G36*
G01*
X150575000Y-114475000D02*
X150425000Y-114475000D01*
G75*
G02*
X150350000Y-114400000I0J75000D01*
G01*
X150350000Y-112950000D01*
G75*
G02*
X150425000Y-112875000I75000J0D01*
G01*
X150575000Y-112875000D01*
G75*
G02*
X150650000Y-112950000I0J-75000D01*
G01*
X150650000Y-114400000D01*
G75*
G02*
X150575000Y-114475000I-75000J0D01*
G01*
G37*
G36*
G01*
X150075000Y-114475000D02*
X149925000Y-114475000D01*
G75*
G02*
X149850000Y-114400000I0J75000D01*
G01*
X149850000Y-112950000D01*
G75*
G02*
X149925000Y-112875000I75000J0D01*
G01*
X150075000Y-112875000D01*
G75*
G02*
X150150000Y-112950000I0J-75000D01*
G01*
X150150000Y-114400000D01*
G75*
G02*
X150075000Y-114475000I-75000J0D01*
G01*
G37*
G36*
G01*
X149575000Y-114475000D02*
X149425000Y-114475000D01*
G75*
G02*
X149350000Y-114400000I0J75000D01*
G01*
X149350000Y-112950000D01*
G75*
G02*
X149425000Y-112875000I75000J0D01*
G01*
X149575000Y-112875000D01*
G75*
G02*
X149650000Y-112950000I0J-75000D01*
G01*
X149650000Y-114400000D01*
G75*
G02*
X149575000Y-114475000I-75000J0D01*
G01*
G37*
G36*
G01*
X149075000Y-114475000D02*
X148925000Y-114475000D01*
G75*
G02*
X148850000Y-114400000I0J75000D01*
G01*
X148850000Y-112950000D01*
G75*
G02*
X148925000Y-112875000I75000J0D01*
G01*
X149075000Y-112875000D01*
G75*
G02*
X149150000Y-112950000I0J-75000D01*
G01*
X149150000Y-114400000D01*
G75*
G02*
X149075000Y-114475000I-75000J0D01*
G01*
G37*
G36*
G01*
X148575000Y-114475000D02*
X148425000Y-114475000D01*
G75*
G02*
X148350000Y-114400000I0J75000D01*
G01*
X148350000Y-112950000D01*
G75*
G02*
X148425000Y-112875000I75000J0D01*
G01*
X148575000Y-112875000D01*
G75*
G02*
X148650000Y-112950000I0J-75000D01*
G01*
X148650000Y-114400000D01*
G75*
G02*
X148575000Y-114475000I-75000J0D01*
G01*
G37*
G36*
G01*
X148075000Y-114475000D02*
X147925000Y-114475000D01*
G75*
G02*
X147850000Y-114400000I0J75000D01*
G01*
X147850000Y-112950000D01*
G75*
G02*
X147925000Y-112875000I75000J0D01*
G01*
X148075000Y-112875000D01*
G75*
G02*
X148150000Y-112950000I0J-75000D01*
G01*
X148150000Y-114400000D01*
G75*
G02*
X148075000Y-114475000I-75000J0D01*
G01*
G37*
G36*
G01*
X147575000Y-114475000D02*
X147425000Y-114475000D01*
G75*
G02*
X147350000Y-114400000I0J75000D01*
G01*
X147350000Y-112950000D01*
G75*
G02*
X147425000Y-112875000I75000J0D01*
G01*
X147575000Y-112875000D01*
G75*
G02*
X147650000Y-112950000I0J-75000D01*
G01*
X147650000Y-114400000D01*
G75*
G02*
X147575000Y-114475000I-75000J0D01*
G01*
G37*
G36*
G01*
X147075000Y-114475000D02*
X146925000Y-114475000D01*
G75*
G02*
X146850000Y-114400000I0J75000D01*
G01*
X146850000Y-112950000D01*
G75*
G02*
X146925000Y-112875000I75000J0D01*
G01*
X147075000Y-112875000D01*
G75*
G02*
X147150000Y-112950000I0J-75000D01*
G01*
X147150000Y-114400000D01*
G75*
G02*
X147075000Y-114475000I-75000J0D01*
G01*
G37*
G36*
G01*
X146575000Y-114475000D02*
X146425000Y-114475000D01*
G75*
G02*
X146350000Y-114400000I0J75000D01*
G01*
X146350000Y-112950000D01*
G75*
G02*
X146425000Y-112875000I75000J0D01*
G01*
X146575000Y-112875000D01*
G75*
G02*
X146650000Y-112950000I0J-75000D01*
G01*
X146650000Y-114400000D01*
G75*
G02*
X146575000Y-114475000I-75000J0D01*
G01*
G37*
G36*
G01*
X146075000Y-114475000D02*
X145925000Y-114475000D01*
G75*
G02*
X145850000Y-114400000I0J75000D01*
G01*
X145850000Y-112950000D01*
G75*
G02*
X145925000Y-112875000I75000J0D01*
G01*
X146075000Y-112875000D01*
G75*
G02*
X146150000Y-112950000I0J-75000D01*
G01*
X146150000Y-114400000D01*
G75*
G02*
X146075000Y-114475000I-75000J0D01*
G01*
G37*
G36*
G01*
X145575000Y-114475000D02*
X145425000Y-114475000D01*
G75*
G02*
X145350000Y-114400000I0J75000D01*
G01*
X145350000Y-112950000D01*
G75*
G02*
X145425000Y-112875000I75000J0D01*
G01*
X145575000Y-112875000D01*
G75*
G02*
X145650000Y-112950000I0J-75000D01*
G01*
X145650000Y-114400000D01*
G75*
G02*
X145575000Y-114475000I-75000J0D01*
G01*
G37*
G36*
G01*
X145075000Y-114475000D02*
X144925000Y-114475000D01*
G75*
G02*
X144850000Y-114400000I0J75000D01*
G01*
X144850000Y-112950000D01*
G75*
G02*
X144925000Y-112875000I75000J0D01*
G01*
X145075000Y-112875000D01*
G75*
G02*
X145150000Y-112950000I0J-75000D01*
G01*
X145150000Y-114400000D01*
G75*
G02*
X145075000Y-114475000I-75000J0D01*
G01*
G37*
%TD*%
%TO.C,C19*%
G36*
G01*
X143435500Y-119215000D02*
X142960500Y-119215000D01*
G75*
G02*
X142723000Y-118977500I0J237500D01*
G01*
X142723000Y-118402500D01*
G75*
G02*
X142960500Y-118165000I237500J0D01*
G01*
X143435500Y-118165000D01*
G75*
G02*
X143673000Y-118402500I0J-237500D01*
G01*
X143673000Y-118977500D01*
G75*
G02*
X143435500Y-119215000I-237500J0D01*
G01*
G37*
G36*
G01*
X143435500Y-120965000D02*
X142960500Y-120965000D01*
G75*
G02*
X142723000Y-120727500I0J237500D01*
G01*
X142723000Y-120152500D01*
G75*
G02*
X142960500Y-119915000I237500J0D01*
G01*
X143435500Y-119915000D01*
G75*
G02*
X143673000Y-120152500I0J-237500D01*
G01*
X143673000Y-120727500D01*
G75*
G02*
X143435500Y-120965000I-237500J0D01*
G01*
G37*
%TD*%
%TO.C,C26*%
G36*
G01*
X142960500Y-115915000D02*
X143435500Y-115915000D01*
G75*
G02*
X143673000Y-116152500I0J-237500D01*
G01*
X143673000Y-116727500D01*
G75*
G02*
X143435500Y-116965000I-237500J0D01*
G01*
X142960500Y-116965000D01*
G75*
G02*
X142723000Y-116727500I0J237500D01*
G01*
X142723000Y-116152500D01*
G75*
G02*
X142960500Y-115915000I237500J0D01*
G01*
G37*
G36*
G01*
X142960500Y-114165000D02*
X143435500Y-114165000D01*
G75*
G02*
X143673000Y-114402500I0J-237500D01*
G01*
X143673000Y-114977500D01*
G75*
G02*
X143435500Y-115215000I-237500J0D01*
G01*
X142960500Y-115215000D01*
G75*
G02*
X142723000Y-114977500I0J237500D01*
G01*
X142723000Y-114402500D01*
G75*
G02*
X142960500Y-114165000I237500J0D01*
G01*
G37*
%TD*%
%TO.C,C25*%
G36*
G01*
X161012500Y-101100000D02*
X161487500Y-101100000D01*
G75*
G02*
X161725000Y-101337500I0J-237500D01*
G01*
X161725000Y-101912500D01*
G75*
G02*
X161487500Y-102150000I-237500J0D01*
G01*
X161012500Y-102150000D01*
G75*
G02*
X160775000Y-101912500I0J237500D01*
G01*
X160775000Y-101337500D01*
G75*
G02*
X161012500Y-101100000I237500J0D01*
G01*
G37*
G36*
G01*
X161012500Y-99350000D02*
X161487500Y-99350000D01*
G75*
G02*
X161725000Y-99587500I0J-237500D01*
G01*
X161725000Y-100162500D01*
G75*
G02*
X161487500Y-100400000I-237500J0D01*
G01*
X161012500Y-100400000D01*
G75*
G02*
X160775000Y-100162500I0J237500D01*
G01*
X160775000Y-99587500D01*
G75*
G02*
X161012500Y-99350000I237500J0D01*
G01*
G37*
%TD*%
%TO.C,C24*%
G36*
G01*
X150351500Y-94011000D02*
X149876500Y-94011000D01*
G75*
G02*
X149639000Y-93773500I0J237500D01*
G01*
X149639000Y-93198500D01*
G75*
G02*
X149876500Y-92961000I237500J0D01*
G01*
X150351500Y-92961000D01*
G75*
G02*
X150589000Y-93198500I0J-237500D01*
G01*
X150589000Y-93773500D01*
G75*
G02*
X150351500Y-94011000I-237500J0D01*
G01*
G37*
G36*
G01*
X150351500Y-95761000D02*
X149876500Y-95761000D01*
G75*
G02*
X149639000Y-95523500I0J237500D01*
G01*
X149639000Y-94948500D01*
G75*
G02*
X149876500Y-94711000I237500J0D01*
G01*
X150351500Y-94711000D01*
G75*
G02*
X150589000Y-94948500I0J-237500D01*
G01*
X150589000Y-95523500D01*
G75*
G02*
X150351500Y-95761000I-237500J0D01*
G01*
G37*
%TD*%
%TO.C,C23*%
G36*
G01*
X145235500Y-94015000D02*
X144760500Y-94015000D01*
G75*
G02*
X144523000Y-93777500I0J237500D01*
G01*
X144523000Y-93202500D01*
G75*
G02*
X144760500Y-92965000I237500J0D01*
G01*
X145235500Y-92965000D01*
G75*
G02*
X145473000Y-93202500I0J-237500D01*
G01*
X145473000Y-93777500D01*
G75*
G02*
X145235500Y-94015000I-237500J0D01*
G01*
G37*
G36*
G01*
X145235500Y-95765000D02*
X144760500Y-95765000D01*
G75*
G02*
X144523000Y-95527500I0J237500D01*
G01*
X144523000Y-94952500D01*
G75*
G02*
X144760500Y-94715000I237500J0D01*
G01*
X145235500Y-94715000D01*
G75*
G02*
X145473000Y-94952500I0J-237500D01*
G01*
X145473000Y-95527500D01*
G75*
G02*
X145235500Y-95765000I-237500J0D01*
G01*
G37*
%TD*%
%TO.C,C22*%
G36*
G01*
X146248000Y-115627500D02*
X146248000Y-116102500D01*
G75*
G02*
X146010500Y-116340000I-237500J0D01*
G01*
X145435500Y-116340000D01*
G75*
G02*
X145198000Y-116102500I0J237500D01*
G01*
X145198000Y-115627500D01*
G75*
G02*
X145435500Y-115390000I237500J0D01*
G01*
X146010500Y-115390000D01*
G75*
G02*
X146248000Y-115627500I0J-237500D01*
G01*
G37*
G36*
G01*
X147998000Y-115627500D02*
X147998000Y-116102500D01*
G75*
G02*
X147760500Y-116340000I-237500J0D01*
G01*
X147185500Y-116340000D01*
G75*
G02*
X146948000Y-116102500I0J237500D01*
G01*
X146948000Y-115627500D01*
G75*
G02*
X147185500Y-115390000I237500J0D01*
G01*
X147760500Y-115390000D01*
G75*
G02*
X147998000Y-115627500I0J-237500D01*
G01*
G37*
%TD*%
%TO.C,C20*%
G36*
G01*
X164098000Y-106102500D02*
X164098000Y-105627500D01*
G75*
G02*
X164335500Y-105390000I237500J0D01*
G01*
X164910500Y-105390000D01*
G75*
G02*
X165148000Y-105627500I0J-237500D01*
G01*
X165148000Y-106102500D01*
G75*
G02*
X164910500Y-106340000I-237500J0D01*
G01*
X164335500Y-106340000D01*
G75*
G02*
X164098000Y-106102500I0J237500D01*
G01*
G37*
G36*
G01*
X162348000Y-106102500D02*
X162348000Y-105627500D01*
G75*
G02*
X162585500Y-105390000I237500J0D01*
G01*
X163160500Y-105390000D01*
G75*
G02*
X163398000Y-105627500I0J-237500D01*
G01*
X163398000Y-106102500D01*
G75*
G02*
X163160500Y-106340000I-237500J0D01*
G01*
X162585500Y-106340000D01*
G75*
G02*
X162348000Y-106102500I0J237500D01*
G01*
G37*
%TD*%
%TO.C,C17*%
G36*
G01*
X164098000Y-107852500D02*
X164098000Y-107377500D01*
G75*
G02*
X164335500Y-107140000I237500J0D01*
G01*
X164910500Y-107140000D01*
G75*
G02*
X165148000Y-107377500I0J-237500D01*
G01*
X165148000Y-107852500D01*
G75*
G02*
X164910500Y-108090000I-237500J0D01*
G01*
X164335500Y-108090000D01*
G75*
G02*
X164098000Y-107852500I0J237500D01*
G01*
G37*
G36*
G01*
X162348000Y-107852500D02*
X162348000Y-107377500D01*
G75*
G02*
X162585500Y-107140000I237500J0D01*
G01*
X163160500Y-107140000D01*
G75*
G02*
X163398000Y-107377500I0J-237500D01*
G01*
X163398000Y-107852500D01*
G75*
G02*
X163160500Y-108090000I-237500J0D01*
G01*
X162585500Y-108090000D01*
G75*
G02*
X162348000Y-107852500I0J237500D01*
G01*
G37*
%TD*%
D13*
%TO.C,U11*%
X177248000Y-95615000D03*
X177248000Y-96115000D03*
X177248000Y-96615000D03*
X177248000Y-97115000D03*
X177248000Y-97615000D03*
X172948000Y-97615000D03*
X172948000Y-97115000D03*
X172948000Y-96615000D03*
X172948000Y-96115000D03*
X172948000Y-95615000D03*
%TD*%
D14*
%TO.C,U19*%
X163898000Y-114815000D03*
X163898000Y-112915000D03*
X166098000Y-112915000D03*
X166098000Y-113865000D03*
X166098000Y-114815000D03*
%TD*%
%TO.C,U18*%
X157400000Y-119700000D03*
X157400000Y-117800000D03*
X159600000Y-117800000D03*
X159600000Y-118750000D03*
X159600000Y-119700000D03*
%TD*%
%TO.C,U17*%
X164898000Y-118950000D03*
X164898000Y-117050000D03*
X167098000Y-117050000D03*
X167098000Y-118000000D03*
X167098000Y-118950000D03*
%TD*%
D15*
%TO.C,U16*%
X170325000Y-91975000D03*
X168425000Y-91975000D03*
X168425000Y-89775000D03*
X169375000Y-89775000D03*
X170325000Y-89775000D03*
%TD*%
D16*
%TO.C,J4*%
X158448000Y-80772000D03*
X162348000Y-80772000D03*
X158448000Y-82042000D03*
X162348000Y-82042000D03*
X158448000Y-83312000D03*
X162348000Y-83312000D03*
X158448000Y-84582000D03*
X162348000Y-84582000D03*
X158448000Y-85852000D03*
X162348000Y-85852000D03*
%TD*%
D17*
%TO.C,Y1*%
X149348000Y-117765000D03*
X151548000Y-117765000D03*
X151548000Y-119465000D03*
X149348000Y-119465000D03*
%TD*%
%TO.C,L2*%
G36*
G01*
X164098000Y-103102500D02*
X164098000Y-102627500D01*
G75*
G02*
X164335500Y-102390000I237500J0D01*
G01*
X164910500Y-102390000D01*
G75*
G02*
X165148000Y-102627500I0J-237500D01*
G01*
X165148000Y-103102500D01*
G75*
G02*
X164910500Y-103340000I-237500J0D01*
G01*
X164335500Y-103340000D01*
G75*
G02*
X164098000Y-103102500I0J237500D01*
G01*
G37*
G36*
G01*
X162348000Y-103102500D02*
X162348000Y-102627500D01*
G75*
G02*
X162585500Y-102390000I237500J0D01*
G01*
X163160500Y-102390000D01*
G75*
G02*
X163398000Y-102627500I0J-237500D01*
G01*
X163398000Y-103102500D01*
G75*
G02*
X163160500Y-103340000I-237500J0D01*
G01*
X162585500Y-103340000D01*
G75*
G02*
X162348000Y-103102500I0J237500D01*
G01*
G37*
%TD*%
%TO.C,L1*%
G36*
G01*
X171762500Y-90975000D02*
X172237500Y-90975000D01*
G75*
G02*
X172475000Y-91212500I0J-237500D01*
G01*
X172475000Y-91787500D01*
G75*
G02*
X172237500Y-92025000I-237500J0D01*
G01*
X171762500Y-92025000D01*
G75*
G02*
X171525000Y-91787500I0J237500D01*
G01*
X171525000Y-91212500D01*
G75*
G02*
X171762500Y-90975000I237500J0D01*
G01*
G37*
G36*
G01*
X171762500Y-89225000D02*
X172237500Y-89225000D01*
G75*
G02*
X172475000Y-89462500I0J-237500D01*
G01*
X172475000Y-90037500D01*
G75*
G02*
X172237500Y-90275000I-237500J0D01*
G01*
X171762500Y-90275000D01*
G75*
G02*
X171525000Y-90037500I0J237500D01*
G01*
X171525000Y-89462500D01*
G75*
G02*
X171762500Y-89225000I237500J0D01*
G01*
G37*
%TD*%
%TO.C,C28*%
G36*
G01*
X141424999Y-95700000D02*
X142325001Y-95700000D01*
G75*
G02*
X142575000Y-95949999I0J-249999D01*
G01*
X142575000Y-96600001D01*
G75*
G02*
X142325001Y-96850000I-249999J0D01*
G01*
X141424999Y-96850000D01*
G75*
G02*
X141175000Y-96600001I0J249999D01*
G01*
X141175000Y-95949999D01*
G75*
G02*
X141424999Y-95700000I249999J0D01*
G01*
G37*
G36*
G01*
X141424999Y-93650000D02*
X142325001Y-93650000D01*
G75*
G02*
X142575000Y-93899999I0J-249999D01*
G01*
X142575000Y-94550001D01*
G75*
G02*
X142325001Y-94800000I-249999J0D01*
G01*
X141424999Y-94800000D01*
G75*
G02*
X141175000Y-94550001I0J249999D01*
G01*
X141175000Y-93899999D01*
G75*
G02*
X141424999Y-93650000I249999J0D01*
G01*
G37*
%TD*%
%TO.C,C21*%
G36*
G01*
X164098000Y-104602500D02*
X164098000Y-104127500D01*
G75*
G02*
X164335500Y-103890000I237500J0D01*
G01*
X164910500Y-103890000D01*
G75*
G02*
X165148000Y-104127500I0J-237500D01*
G01*
X165148000Y-104602500D01*
G75*
G02*
X164910500Y-104840000I-237500J0D01*
G01*
X164335500Y-104840000D01*
G75*
G02*
X164098000Y-104602500I0J237500D01*
G01*
G37*
G36*
G01*
X162348000Y-104602500D02*
X162348000Y-104127500D01*
G75*
G02*
X162585500Y-103890000I237500J0D01*
G01*
X163160500Y-103890000D01*
G75*
G02*
X163398000Y-104127500I0J-237500D01*
G01*
X163398000Y-104602500D01*
G75*
G02*
X163160500Y-104840000I-237500J0D01*
G01*
X162585500Y-104840000D01*
G75*
G02*
X162348000Y-104602500I0J237500D01*
G01*
G37*
%TD*%
%TO.C,C18*%
G36*
G01*
X164098000Y-109352500D02*
X164098000Y-108877500D01*
G75*
G02*
X164335500Y-108640000I237500J0D01*
G01*
X164910500Y-108640000D01*
G75*
G02*
X165148000Y-108877500I0J-237500D01*
G01*
X165148000Y-109352500D01*
G75*
G02*
X164910500Y-109590000I-237500J0D01*
G01*
X164335500Y-109590000D01*
G75*
G02*
X164098000Y-109352500I0J237500D01*
G01*
G37*
G36*
G01*
X162348000Y-109352500D02*
X162348000Y-108877500D01*
G75*
G02*
X162585500Y-108640000I237500J0D01*
G01*
X163160500Y-108640000D01*
G75*
G02*
X163398000Y-108877500I0J-237500D01*
G01*
X163398000Y-109352500D01*
G75*
G02*
X163160500Y-109590000I-237500J0D01*
G01*
X162585500Y-109590000D01*
G75*
G02*
X162348000Y-109352500I0J237500D01*
G01*
G37*
%TD*%
%TO.C,C16*%
G36*
G01*
X154235500Y-118265000D02*
X153760500Y-118265000D01*
G75*
G02*
X153523000Y-118027500I0J237500D01*
G01*
X153523000Y-117452500D01*
G75*
G02*
X153760500Y-117215000I237500J0D01*
G01*
X154235500Y-117215000D01*
G75*
G02*
X154473000Y-117452500I0J-237500D01*
G01*
X154473000Y-118027500D01*
G75*
G02*
X154235500Y-118265000I-237500J0D01*
G01*
G37*
G36*
G01*
X154235500Y-120015000D02*
X153760500Y-120015000D01*
G75*
G02*
X153523000Y-119777500I0J237500D01*
G01*
X153523000Y-119202500D01*
G75*
G02*
X153760500Y-118965000I237500J0D01*
G01*
X154235500Y-118965000D01*
G75*
G02*
X154473000Y-119202500I0J-237500D01*
G01*
X154473000Y-119777500D01*
G75*
G02*
X154235500Y-120015000I-237500J0D01*
G01*
G37*
%TD*%
%TO.C,C15*%
G36*
G01*
X146760500Y-118965000D02*
X147235500Y-118965000D01*
G75*
G02*
X147473000Y-119202500I0J-237500D01*
G01*
X147473000Y-119777500D01*
G75*
G02*
X147235500Y-120015000I-237500J0D01*
G01*
X146760500Y-120015000D01*
G75*
G02*
X146523000Y-119777500I0J237500D01*
G01*
X146523000Y-119202500D01*
G75*
G02*
X146760500Y-118965000I237500J0D01*
G01*
G37*
G36*
G01*
X146760500Y-117215000D02*
X147235500Y-117215000D01*
G75*
G02*
X147473000Y-117452500I0J-237500D01*
G01*
X147473000Y-118027500D01*
G75*
G02*
X147235500Y-118265000I-237500J0D01*
G01*
X146760500Y-118265000D01*
G75*
G02*
X146523000Y-118027500I0J237500D01*
G01*
X146523000Y-117452500D01*
G75*
G02*
X146760500Y-117215000I237500J0D01*
G01*
G37*
%TD*%
D10*
%TO.C,J3*%
X177038000Y-102735000D03*
X174498000Y-102735000D03*
D11*
X171958000Y-102735000D03*
%TD*%
D10*
%TO.C,J2*%
X177038000Y-107815000D03*
X174498000Y-107815000D03*
D11*
X171958000Y-107815000D03*
%TD*%
D10*
%TO.C,J1*%
X177038000Y-112895000D03*
X174498000Y-112895000D03*
D11*
X171958000Y-112895000D03*
%TD*%
D18*
%TO.C,U14*%
X137063000Y-88015000D03*
X127533000Y-90555000D03*
X137063000Y-90555000D03*
X127533000Y-88015000D03*
%TD*%
%TO.C,U13*%
X137063000Y-81665000D03*
X127533000Y-84205000D03*
X137063000Y-84205000D03*
X127533000Y-81665000D03*
%TD*%
%TO.C,U12*%
G36*
G01*
X135232000Y-109797000D02*
X135532000Y-109797000D01*
G75*
G02*
X135682000Y-109947000I0J-150000D01*
G01*
X135682000Y-111697000D01*
G75*
G02*
X135532000Y-111847000I-150000J0D01*
G01*
X135232000Y-111847000D01*
G75*
G02*
X135082000Y-111697000I0J150000D01*
G01*
X135082000Y-109947000D01*
G75*
G02*
X135232000Y-109797000I150000J0D01*
G01*
G37*
G36*
G01*
X133962000Y-109797000D02*
X134262000Y-109797000D01*
G75*
G02*
X134412000Y-109947000I0J-150000D01*
G01*
X134412000Y-111697000D01*
G75*
G02*
X134262000Y-111847000I-150000J0D01*
G01*
X133962000Y-111847000D01*
G75*
G02*
X133812000Y-111697000I0J150000D01*
G01*
X133812000Y-109947000D01*
G75*
G02*
X133962000Y-109797000I150000J0D01*
G01*
G37*
G36*
G01*
X132692000Y-109797000D02*
X132992000Y-109797000D01*
G75*
G02*
X133142000Y-109947000I0J-150000D01*
G01*
X133142000Y-111697000D01*
G75*
G02*
X132992000Y-111847000I-150000J0D01*
G01*
X132692000Y-111847000D01*
G75*
G02*
X132542000Y-111697000I0J150000D01*
G01*
X132542000Y-109947000D01*
G75*
G02*
X132692000Y-109797000I150000J0D01*
G01*
G37*
G36*
G01*
X131422000Y-109797000D02*
X131722000Y-109797000D01*
G75*
G02*
X131872000Y-109947000I0J-150000D01*
G01*
X131872000Y-111697000D01*
G75*
G02*
X131722000Y-111847000I-150000J0D01*
G01*
X131422000Y-111847000D01*
G75*
G02*
X131272000Y-111697000I0J150000D01*
G01*
X131272000Y-109947000D01*
G75*
G02*
X131422000Y-109797000I150000J0D01*
G01*
G37*
G36*
G01*
X130152000Y-109797000D02*
X130452000Y-109797000D01*
G75*
G02*
X130602000Y-109947000I0J-150000D01*
G01*
X130602000Y-111697000D01*
G75*
G02*
X130452000Y-111847000I-150000J0D01*
G01*
X130152000Y-111847000D01*
G75*
G02*
X130002000Y-111697000I0J150000D01*
G01*
X130002000Y-109947000D01*
G75*
G02*
X130152000Y-109797000I150000J0D01*
G01*
G37*
G36*
G01*
X128882000Y-109797000D02*
X129182000Y-109797000D01*
G75*
G02*
X129332000Y-109947000I0J-150000D01*
G01*
X129332000Y-111697000D01*
G75*
G02*
X129182000Y-111847000I-150000J0D01*
G01*
X128882000Y-111847000D01*
G75*
G02*
X128732000Y-111697000I0J150000D01*
G01*
X128732000Y-109947000D01*
G75*
G02*
X128882000Y-109797000I150000J0D01*
G01*
G37*
G36*
G01*
X127612000Y-109797000D02*
X127912000Y-109797000D01*
G75*
G02*
X128062000Y-109947000I0J-150000D01*
G01*
X128062000Y-111697000D01*
G75*
G02*
X127912000Y-111847000I-150000J0D01*
G01*
X127612000Y-111847000D01*
G75*
G02*
X127462000Y-111697000I0J150000D01*
G01*
X127462000Y-109947000D01*
G75*
G02*
X127612000Y-109797000I150000J0D01*
G01*
G37*
G36*
G01*
X126342000Y-109797000D02*
X126642000Y-109797000D01*
G75*
G02*
X126792000Y-109947000I0J-150000D01*
G01*
X126792000Y-111697000D01*
G75*
G02*
X126642000Y-111847000I-150000J0D01*
G01*
X126342000Y-111847000D01*
G75*
G02*
X126192000Y-111697000I0J150000D01*
G01*
X126192000Y-109947000D01*
G75*
G02*
X126342000Y-109797000I150000J0D01*
G01*
G37*
G36*
G01*
X126342000Y-100497000D02*
X126642000Y-100497000D01*
G75*
G02*
X126792000Y-100647000I0J-150000D01*
G01*
X126792000Y-102397000D01*
G75*
G02*
X126642000Y-102547000I-150000J0D01*
G01*
X126342000Y-102547000D01*
G75*
G02*
X126192000Y-102397000I0J150000D01*
G01*
X126192000Y-100647000D01*
G75*
G02*
X126342000Y-100497000I150000J0D01*
G01*
G37*
G36*
G01*
X127612000Y-100497000D02*
X127912000Y-100497000D01*
G75*
G02*
X128062000Y-100647000I0J-150000D01*
G01*
X128062000Y-102397000D01*
G75*
G02*
X127912000Y-102547000I-150000J0D01*
G01*
X127612000Y-102547000D01*
G75*
G02*
X127462000Y-102397000I0J150000D01*
G01*
X127462000Y-100647000D01*
G75*
G02*
X127612000Y-100497000I150000J0D01*
G01*
G37*
G36*
G01*
X128882000Y-100497000D02*
X129182000Y-100497000D01*
G75*
G02*
X129332000Y-100647000I0J-150000D01*
G01*
X129332000Y-102397000D01*
G75*
G02*
X129182000Y-102547000I-150000J0D01*
G01*
X128882000Y-102547000D01*
G75*
G02*
X128732000Y-102397000I0J150000D01*
G01*
X128732000Y-100647000D01*
G75*
G02*
X128882000Y-100497000I150000J0D01*
G01*
G37*
G36*
G01*
X130152000Y-100497000D02*
X130452000Y-100497000D01*
G75*
G02*
X130602000Y-100647000I0J-150000D01*
G01*
X130602000Y-102397000D01*
G75*
G02*
X130452000Y-102547000I-150000J0D01*
G01*
X130152000Y-102547000D01*
G75*
G02*
X130002000Y-102397000I0J150000D01*
G01*
X130002000Y-100647000D01*
G75*
G02*
X130152000Y-100497000I150000J0D01*
G01*
G37*
G36*
G01*
X131422000Y-100497000D02*
X131722000Y-100497000D01*
G75*
G02*
X131872000Y-100647000I0J-150000D01*
G01*
X131872000Y-102397000D01*
G75*
G02*
X131722000Y-102547000I-150000J0D01*
G01*
X131422000Y-102547000D01*
G75*
G02*
X131272000Y-102397000I0J150000D01*
G01*
X131272000Y-100647000D01*
G75*
G02*
X131422000Y-100497000I150000J0D01*
G01*
G37*
G36*
G01*
X132692000Y-100497000D02*
X132992000Y-100497000D01*
G75*
G02*
X133142000Y-100647000I0J-150000D01*
G01*
X133142000Y-102397000D01*
G75*
G02*
X132992000Y-102547000I-150000J0D01*
G01*
X132692000Y-102547000D01*
G75*
G02*
X132542000Y-102397000I0J150000D01*
G01*
X132542000Y-100647000D01*
G75*
G02*
X132692000Y-100497000I150000J0D01*
G01*
G37*
G36*
G01*
X133962000Y-100497000D02*
X134262000Y-100497000D01*
G75*
G02*
X134412000Y-100647000I0J-150000D01*
G01*
X134412000Y-102397000D01*
G75*
G02*
X134262000Y-102547000I-150000J0D01*
G01*
X133962000Y-102547000D01*
G75*
G02*
X133812000Y-102397000I0J150000D01*
G01*
X133812000Y-100647000D01*
G75*
G02*
X133962000Y-100497000I150000J0D01*
G01*
G37*
G36*
G01*
X135232000Y-100497000D02*
X135532000Y-100497000D01*
G75*
G02*
X135682000Y-100647000I0J-150000D01*
G01*
X135682000Y-102397000D01*
G75*
G02*
X135532000Y-102547000I-150000J0D01*
G01*
X135232000Y-102547000D01*
G75*
G02*
X135082000Y-102397000I0J150000D01*
G01*
X135082000Y-100647000D01*
G75*
G02*
X135232000Y-100497000I150000J0D01*
G01*
G37*
%TD*%
D19*
%TO.C,U10*%
X113788000Y-102085000D03*
D20*
X116328000Y-102085000D03*
X118868000Y-102085000D03*
X121408000Y-102085000D03*
%TD*%
D19*
%TO.C,U9*%
X113788000Y-94865000D03*
D20*
X116328000Y-94865000D03*
X118868000Y-94865000D03*
X121408000Y-94865000D03*
%TD*%
D21*
%TO.C,U8*%
X115200000Y-119200000D03*
G36*
G01*
X114500000Y-119743750D02*
X114500000Y-119956250D01*
G75*
G02*
X114406250Y-120050000I-93750J0D01*
G01*
X114218750Y-120050000D01*
G75*
G02*
X114125000Y-119956250I0J93750D01*
G01*
X114125000Y-119743750D01*
G75*
G02*
X114218750Y-119650000I93750J0D01*
G01*
X114406250Y-119650000D01*
G75*
G02*
X114500000Y-119743750I0J-93750D01*
G01*
G37*
G36*
G01*
X114500000Y-119093750D02*
X114500000Y-119306250D01*
G75*
G02*
X114406250Y-119400000I-93750J0D01*
G01*
X114218750Y-119400000D01*
G75*
G02*
X114125000Y-119306250I0J93750D01*
G01*
X114125000Y-119093750D01*
G75*
G02*
X114218750Y-119000000I93750J0D01*
G01*
X114406250Y-119000000D01*
G75*
G02*
X114500000Y-119093750I0J-93750D01*
G01*
G37*
G36*
G01*
X114500000Y-118443750D02*
X114500000Y-118656250D01*
G75*
G02*
X114406250Y-118750000I-93750J0D01*
G01*
X114218750Y-118750000D01*
G75*
G02*
X114125000Y-118656250I0J93750D01*
G01*
X114125000Y-118443750D01*
G75*
G02*
X114218750Y-118350000I93750J0D01*
G01*
X114406250Y-118350000D01*
G75*
G02*
X114500000Y-118443750I0J-93750D01*
G01*
G37*
G36*
G01*
X116275000Y-118443750D02*
X116275000Y-118656250D01*
G75*
G02*
X116181250Y-118750000I-93750J0D01*
G01*
X115993750Y-118750000D01*
G75*
G02*
X115900000Y-118656250I0J93750D01*
G01*
X115900000Y-118443750D01*
G75*
G02*
X115993750Y-118350000I93750J0D01*
G01*
X116181250Y-118350000D01*
G75*
G02*
X116275000Y-118443750I0J-93750D01*
G01*
G37*
G36*
G01*
X116275000Y-119093750D02*
X116275000Y-119306250D01*
G75*
G02*
X116181250Y-119400000I-93750J0D01*
G01*
X115993750Y-119400000D01*
G75*
G02*
X115900000Y-119306250I0J93750D01*
G01*
X115900000Y-119093750D01*
G75*
G02*
X115993750Y-119000000I93750J0D01*
G01*
X116181250Y-119000000D01*
G75*
G02*
X116275000Y-119093750I0J-93750D01*
G01*
G37*
G36*
G01*
X116275000Y-119743750D02*
X116275000Y-119956250D01*
G75*
G02*
X116181250Y-120050000I-93750J0D01*
G01*
X115993750Y-120050000D01*
G75*
G02*
X115900000Y-119956250I0J93750D01*
G01*
X115900000Y-119743750D01*
G75*
G02*
X115993750Y-119650000I93750J0D01*
G01*
X116181250Y-119650000D01*
G75*
G02*
X116275000Y-119743750I0J-93750D01*
G01*
G37*
%TD*%
D15*
%TO.C,U7*%
X164148000Y-97315000D03*
X162248000Y-97315000D03*
X162248000Y-95115000D03*
X163198000Y-95115000D03*
X164148000Y-95115000D03*
%TD*%
D14*
%TO.C,U1*%
X138350000Y-94300000D03*
X138350000Y-96200000D03*
X136150000Y-96200000D03*
X136150000Y-95250000D03*
X136150000Y-94300000D03*
%TD*%
%TO.C,R14*%
G36*
G01*
X149275500Y-83335000D02*
X148800500Y-83335000D01*
G75*
G02*
X148563000Y-83097500I0J237500D01*
G01*
X148563000Y-82522500D01*
G75*
G02*
X148800500Y-82285000I237500J0D01*
G01*
X149275500Y-82285000D01*
G75*
G02*
X149513000Y-82522500I0J-237500D01*
G01*
X149513000Y-83097500D01*
G75*
G02*
X149275500Y-83335000I-237500J0D01*
G01*
G37*
G36*
G01*
X149275500Y-85085000D02*
X148800500Y-85085000D01*
G75*
G02*
X148563000Y-84847500I0J237500D01*
G01*
X148563000Y-84272500D01*
G75*
G02*
X148800500Y-84035000I237500J0D01*
G01*
X149275500Y-84035000D01*
G75*
G02*
X149513000Y-84272500I0J-237500D01*
G01*
X149513000Y-84847500D01*
G75*
G02*
X149275500Y-85085000I-237500J0D01*
G01*
G37*
%TD*%
%TO.C,R13*%
G36*
G01*
X148800500Y-87845000D02*
X149275500Y-87845000D01*
G75*
G02*
X149513000Y-88082500I0J-237500D01*
G01*
X149513000Y-88657500D01*
G75*
G02*
X149275500Y-88895000I-237500J0D01*
G01*
X148800500Y-88895000D01*
G75*
G02*
X148563000Y-88657500I0J237500D01*
G01*
X148563000Y-88082500D01*
G75*
G02*
X148800500Y-87845000I237500J0D01*
G01*
G37*
G36*
G01*
X148800500Y-86095000D02*
X149275500Y-86095000D01*
G75*
G02*
X149513000Y-86332500I0J-237500D01*
G01*
X149513000Y-86907500D01*
G75*
G02*
X149275500Y-87145000I-237500J0D01*
G01*
X148800500Y-87145000D01*
G75*
G02*
X148563000Y-86907500I0J237500D01*
G01*
X148563000Y-86332500D01*
G75*
G02*
X148800500Y-86095000I237500J0D01*
G01*
G37*
%TD*%
%TO.C,R12*%
G36*
G01*
X140012500Y-83850000D02*
X140487500Y-83850000D01*
G75*
G02*
X140725000Y-84087500I0J-237500D01*
G01*
X140725000Y-84662500D01*
G75*
G02*
X140487500Y-84900000I-237500J0D01*
G01*
X140012500Y-84900000D01*
G75*
G02*
X139775000Y-84662500I0J237500D01*
G01*
X139775000Y-84087500D01*
G75*
G02*
X140012500Y-83850000I237500J0D01*
G01*
G37*
G36*
G01*
X140012500Y-82100000D02*
X140487500Y-82100000D01*
G75*
G02*
X140725000Y-82337500I0J-237500D01*
G01*
X140725000Y-82912500D01*
G75*
G02*
X140487500Y-83150000I-237500J0D01*
G01*
X140012500Y-83150000D01*
G75*
G02*
X139775000Y-82912500I0J237500D01*
G01*
X139775000Y-82337500D01*
G75*
G02*
X140012500Y-82100000I237500J0D01*
G01*
G37*
%TD*%
%TO.C,R11*%
G36*
G01*
X151648000Y-84327500D02*
X151648000Y-84802500D01*
G75*
G02*
X151410500Y-85040000I-237500J0D01*
G01*
X150835500Y-85040000D01*
G75*
G02*
X150598000Y-84802500I0J237500D01*
G01*
X150598000Y-84327500D01*
G75*
G02*
X150835500Y-84090000I237500J0D01*
G01*
X151410500Y-84090000D01*
G75*
G02*
X151648000Y-84327500I0J-237500D01*
G01*
G37*
G36*
G01*
X153398000Y-84327500D02*
X153398000Y-84802500D01*
G75*
G02*
X153160500Y-85040000I-237500J0D01*
G01*
X152585500Y-85040000D01*
G75*
G02*
X152348000Y-84802500I0J237500D01*
G01*
X152348000Y-84327500D01*
G75*
G02*
X152585500Y-84090000I237500J0D01*
G01*
X153160500Y-84090000D01*
G75*
G02*
X153398000Y-84327500I0J-237500D01*
G01*
G37*
%TD*%
%TO.C,R10*%
G36*
G01*
X140487500Y-87400000D02*
X140012500Y-87400000D01*
G75*
G02*
X139775000Y-87162500I0J237500D01*
G01*
X139775000Y-86587500D01*
G75*
G02*
X140012500Y-86350000I237500J0D01*
G01*
X140487500Y-86350000D01*
G75*
G02*
X140725000Y-86587500I0J-237500D01*
G01*
X140725000Y-87162500D01*
G75*
G02*
X140487500Y-87400000I-237500J0D01*
G01*
G37*
G36*
G01*
X140487500Y-89150000D02*
X140012500Y-89150000D01*
G75*
G02*
X139775000Y-88912500I0J237500D01*
G01*
X139775000Y-88337500D01*
G75*
G02*
X140012500Y-88100000I237500J0D01*
G01*
X140487500Y-88100000D01*
G75*
G02*
X140725000Y-88337500I0J-237500D01*
G01*
X140725000Y-88912500D01*
G75*
G02*
X140487500Y-89150000I-237500J0D01*
G01*
G37*
%TD*%
%TO.C,R9*%
G36*
G01*
X151648000Y-86327500D02*
X151648000Y-86802500D01*
G75*
G02*
X151410500Y-87040000I-237500J0D01*
G01*
X150835500Y-87040000D01*
G75*
G02*
X150598000Y-86802500I0J237500D01*
G01*
X150598000Y-86327500D01*
G75*
G02*
X150835500Y-86090000I237500J0D01*
G01*
X151410500Y-86090000D01*
G75*
G02*
X151648000Y-86327500I0J-237500D01*
G01*
G37*
G36*
G01*
X153398000Y-86327500D02*
X153398000Y-86802500D01*
G75*
G02*
X153160500Y-87040000I-237500J0D01*
G01*
X152585500Y-87040000D01*
G75*
G02*
X152348000Y-86802500I0J237500D01*
G01*
X152348000Y-86327500D01*
G75*
G02*
X152585500Y-86090000I237500J0D01*
G01*
X153160500Y-86090000D01*
G75*
G02*
X153398000Y-86327500I0J-237500D01*
G01*
G37*
%TD*%
%TO.C,R8*%
G36*
G01*
X141850000Y-91602500D02*
X141850000Y-91127500D01*
G75*
G02*
X142087500Y-90890000I237500J0D01*
G01*
X142662500Y-90890000D01*
G75*
G02*
X142900000Y-91127500I0J-237500D01*
G01*
X142900000Y-91602500D01*
G75*
G02*
X142662500Y-91840000I-237500J0D01*
G01*
X142087500Y-91840000D01*
G75*
G02*
X141850000Y-91602500I0J237500D01*
G01*
G37*
G36*
G01*
X140100000Y-91602500D02*
X140100000Y-91127500D01*
G75*
G02*
X140337500Y-90890000I237500J0D01*
G01*
X140912500Y-90890000D01*
G75*
G02*
X141150000Y-91127500I0J-237500D01*
G01*
X141150000Y-91602500D01*
G75*
G02*
X140912500Y-91840000I-237500J0D01*
G01*
X140337500Y-91840000D01*
G75*
G02*
X140100000Y-91602500I0J237500D01*
G01*
G37*
%TD*%
%TO.C,R7*%
G36*
G01*
X145048000Y-80927500D02*
X145048000Y-81402500D01*
G75*
G02*
X144810500Y-81640000I-237500J0D01*
G01*
X144235500Y-81640000D01*
G75*
G02*
X143998000Y-81402500I0J237500D01*
G01*
X143998000Y-80927500D01*
G75*
G02*
X144235500Y-80690000I237500J0D01*
G01*
X144810500Y-80690000D01*
G75*
G02*
X145048000Y-80927500I0J-237500D01*
G01*
G37*
G36*
G01*
X146798000Y-80927500D02*
X146798000Y-81402500D01*
G75*
G02*
X146560500Y-81640000I-237500J0D01*
G01*
X145985500Y-81640000D01*
G75*
G02*
X145748000Y-81402500I0J237500D01*
G01*
X145748000Y-80927500D01*
G75*
G02*
X145985500Y-80690000I237500J0D01*
G01*
X146560500Y-80690000D01*
G75*
G02*
X146798000Y-80927500I0J-237500D01*
G01*
G37*
%TD*%
%TO.C,R6*%
G36*
G01*
X123550000Y-87700001D02*
X123550000Y-86799999D01*
G75*
G02*
X123799999Y-86550000I249999J0D01*
G01*
X124450001Y-86550000D01*
G75*
G02*
X124700000Y-86799999I0J-249999D01*
G01*
X124700000Y-87700001D01*
G75*
G02*
X124450001Y-87950000I-249999J0D01*
G01*
X123799999Y-87950000D01*
G75*
G02*
X123550000Y-87700001I0J249999D01*
G01*
G37*
G36*
G01*
X121500000Y-87700001D02*
X121500000Y-86799999D01*
G75*
G02*
X121749999Y-86550000I249999J0D01*
G01*
X122400001Y-86550000D01*
G75*
G02*
X122650000Y-86799999I0J-249999D01*
G01*
X122650000Y-87700001D01*
G75*
G02*
X122400001Y-87950000I-249999J0D01*
G01*
X121749999Y-87950000D01*
G75*
G02*
X121500000Y-87700001I0J249999D01*
G01*
G37*
%TD*%
%TO.C,R5*%
G36*
G01*
X123675000Y-81700001D02*
X123675000Y-80799999D01*
G75*
G02*
X123924999Y-80550000I249999J0D01*
G01*
X124575001Y-80550000D01*
G75*
G02*
X124825000Y-80799999I0J-249999D01*
G01*
X124825000Y-81700001D01*
G75*
G02*
X124575001Y-81950000I-249999J0D01*
G01*
X123924999Y-81950000D01*
G75*
G02*
X123675000Y-81700001I0J249999D01*
G01*
G37*
G36*
G01*
X121625000Y-81700001D02*
X121625000Y-80799999D01*
G75*
G02*
X121874999Y-80550000I249999J0D01*
G01*
X122525001Y-80550000D01*
G75*
G02*
X122775000Y-80799999I0J-249999D01*
G01*
X122775000Y-81700001D01*
G75*
G02*
X122525001Y-81950000I-249999J0D01*
G01*
X121874999Y-81950000D01*
G75*
G02*
X121625000Y-81700001I0J249999D01*
G01*
G37*
%TD*%
%TO.C,R4*%
G36*
G01*
X167760500Y-108590000D02*
X168235500Y-108590000D01*
G75*
G02*
X168473000Y-108827500I0J-237500D01*
G01*
X168473000Y-109402500D01*
G75*
G02*
X168235500Y-109640000I-237500J0D01*
G01*
X167760500Y-109640000D01*
G75*
G02*
X167523000Y-109402500I0J237500D01*
G01*
X167523000Y-108827500D01*
G75*
G02*
X167760500Y-108590000I237500J0D01*
G01*
G37*
G36*
G01*
X167760500Y-106840000D02*
X168235500Y-106840000D01*
G75*
G02*
X168473000Y-107077500I0J-237500D01*
G01*
X168473000Y-107652500D01*
G75*
G02*
X168235500Y-107890000I-237500J0D01*
G01*
X167760500Y-107890000D01*
G75*
G02*
X167523000Y-107652500I0J237500D01*
G01*
X167523000Y-107077500D01*
G75*
G02*
X167760500Y-106840000I237500J0D01*
G01*
G37*
%TD*%
%TO.C,R3*%
G36*
G01*
X170762500Y-118714000D02*
X171237500Y-118714000D01*
G75*
G02*
X171475000Y-118951500I0J-237500D01*
G01*
X171475000Y-119526500D01*
G75*
G02*
X171237500Y-119764000I-237500J0D01*
G01*
X170762500Y-119764000D01*
G75*
G02*
X170525000Y-119526500I0J237500D01*
G01*
X170525000Y-118951500D01*
G75*
G02*
X170762500Y-118714000I237500J0D01*
G01*
G37*
G36*
G01*
X170762500Y-116964000D02*
X171237500Y-116964000D01*
G75*
G02*
X171475000Y-117201500I0J-237500D01*
G01*
X171475000Y-117776500D01*
G75*
G02*
X171237500Y-118014000I-237500J0D01*
G01*
X170762500Y-118014000D01*
G75*
G02*
X170525000Y-117776500I0J237500D01*
G01*
X170525000Y-117201500D01*
G75*
G02*
X170762500Y-116964000I237500J0D01*
G01*
G37*
%TD*%
%TO.C,R2*%
G36*
G01*
X172362500Y-118714000D02*
X172837500Y-118714000D01*
G75*
G02*
X173075000Y-118951500I0J-237500D01*
G01*
X173075000Y-119526500D01*
G75*
G02*
X172837500Y-119764000I-237500J0D01*
G01*
X172362500Y-119764000D01*
G75*
G02*
X172125000Y-119526500I0J237500D01*
G01*
X172125000Y-118951500D01*
G75*
G02*
X172362500Y-118714000I237500J0D01*
G01*
G37*
G36*
G01*
X172362500Y-116964000D02*
X172837500Y-116964000D01*
G75*
G02*
X173075000Y-117201500I0J-237500D01*
G01*
X173075000Y-117776500D01*
G75*
G02*
X172837500Y-118014000I-237500J0D01*
G01*
X172362500Y-118014000D01*
G75*
G02*
X172125000Y-117776500I0J237500D01*
G01*
X172125000Y-117201500D01*
G75*
G02*
X172362500Y-116964000I237500J0D01*
G01*
G37*
%TD*%
%TO.C,F1*%
G36*
G01*
X117950000Y-124325001D02*
X117950000Y-121424999D01*
G75*
G02*
X118199999Y-121175000I249999J0D01*
G01*
X118825001Y-121175000D01*
G75*
G02*
X119075000Y-121424999I0J-249999D01*
G01*
X119075000Y-124325001D01*
G75*
G02*
X118825001Y-124575000I-249999J0D01*
G01*
X118199999Y-124575000D01*
G75*
G02*
X117950000Y-124325001I0J249999D01*
G01*
G37*
G36*
G01*
X113675000Y-124325001D02*
X113675000Y-121424999D01*
G75*
G02*
X113924999Y-121175000I249999J0D01*
G01*
X114550001Y-121175000D01*
G75*
G02*
X114800000Y-121424999I0J-249999D01*
G01*
X114800000Y-124325001D01*
G75*
G02*
X114550001Y-124575000I-249999J0D01*
G01*
X113924999Y-124575000D01*
G75*
G02*
X113675000Y-124325001I0J249999D01*
G01*
G37*
%TD*%
D22*
%TO.C,D1*%
X124950000Y-118000000D03*
X120650000Y-118000000D03*
%TD*%
%TO.C,C14*%
G36*
G01*
X137811500Y-102701000D02*
X138286500Y-102701000D01*
G75*
G02*
X138524000Y-102938500I0J-237500D01*
G01*
X138524000Y-103513500D01*
G75*
G02*
X138286500Y-103751000I-237500J0D01*
G01*
X137811500Y-103751000D01*
G75*
G02*
X137574000Y-103513500I0J237500D01*
G01*
X137574000Y-102938500D01*
G75*
G02*
X137811500Y-102701000I237500J0D01*
G01*
G37*
G36*
G01*
X137811500Y-100951000D02*
X138286500Y-100951000D01*
G75*
G02*
X138524000Y-101188500I0J-237500D01*
G01*
X138524000Y-101763500D01*
G75*
G02*
X138286500Y-102001000I-237500J0D01*
G01*
X137811500Y-102001000D01*
G75*
G02*
X137574000Y-101763500I0J237500D01*
G01*
X137574000Y-101188500D01*
G75*
G02*
X137811500Y-100951000I237500J0D01*
G01*
G37*
%TD*%
%TO.C,C13*%
G36*
G01*
X146850000Y-91602500D02*
X146850000Y-91127500D01*
G75*
G02*
X147087500Y-90890000I237500J0D01*
G01*
X147662500Y-90890000D01*
G75*
G02*
X147900000Y-91127500I0J-237500D01*
G01*
X147900000Y-91602500D01*
G75*
G02*
X147662500Y-91840000I-237500J0D01*
G01*
X147087500Y-91840000D01*
G75*
G02*
X146850000Y-91602500I0J237500D01*
G01*
G37*
G36*
G01*
X145100000Y-91602500D02*
X145100000Y-91127500D01*
G75*
G02*
X145337500Y-90890000I237500J0D01*
G01*
X145912500Y-90890000D01*
G75*
G02*
X146150000Y-91127500I0J-237500D01*
G01*
X146150000Y-91602500D01*
G75*
G02*
X145912500Y-91840000I-237500J0D01*
G01*
X145337500Y-91840000D01*
G75*
G02*
X145100000Y-91602500I0J237500D01*
G01*
G37*
%TD*%
%TO.C,C12*%
G36*
G01*
X134345000Y-113603500D02*
X134345000Y-114078500D01*
G75*
G02*
X134107500Y-114316000I-237500J0D01*
G01*
X133532500Y-114316000D01*
G75*
G02*
X133295000Y-114078500I0J237500D01*
G01*
X133295000Y-113603500D01*
G75*
G02*
X133532500Y-113366000I237500J0D01*
G01*
X134107500Y-113366000D01*
G75*
G02*
X134345000Y-113603500I0J-237500D01*
G01*
G37*
G36*
G01*
X136095000Y-113603500D02*
X136095000Y-114078500D01*
G75*
G02*
X135857500Y-114316000I-237500J0D01*
G01*
X135282500Y-114316000D01*
G75*
G02*
X135045000Y-114078500I0J237500D01*
G01*
X135045000Y-113603500D01*
G75*
G02*
X135282500Y-113366000I237500J0D01*
G01*
X135857500Y-113366000D01*
G75*
G02*
X136095000Y-113603500I0J-237500D01*
G01*
G37*
%TD*%
%TO.C,C11*%
G36*
G01*
X124799999Y-94350000D02*
X125700001Y-94350000D01*
G75*
G02*
X125950000Y-94599999I0J-249999D01*
G01*
X125950000Y-95250001D01*
G75*
G02*
X125700001Y-95500000I-249999J0D01*
G01*
X124799999Y-95500000D01*
G75*
G02*
X124550000Y-95250001I0J249999D01*
G01*
X124550000Y-94599999D01*
G75*
G02*
X124799999Y-94350000I249999J0D01*
G01*
G37*
G36*
G01*
X124799999Y-92300000D02*
X125700001Y-92300000D01*
G75*
G02*
X125950000Y-92549999I0J-249999D01*
G01*
X125950000Y-93200001D01*
G75*
G02*
X125700001Y-93450000I-249999J0D01*
G01*
X124799999Y-93450000D01*
G75*
G02*
X124550000Y-93200001I0J249999D01*
G01*
X124550000Y-92549999D01*
G75*
G02*
X124799999Y-92300000I249999J0D01*
G01*
G37*
%TD*%
%TO.C,C10*%
G36*
G01*
X168235500Y-114015000D02*
X167760500Y-114015000D01*
G75*
G02*
X167523000Y-113777500I0J237500D01*
G01*
X167523000Y-113202500D01*
G75*
G02*
X167760500Y-112965000I237500J0D01*
G01*
X168235500Y-112965000D01*
G75*
G02*
X168473000Y-113202500I0J-237500D01*
G01*
X168473000Y-113777500D01*
G75*
G02*
X168235500Y-114015000I-237500J0D01*
G01*
G37*
G36*
G01*
X168235500Y-115765000D02*
X167760500Y-115765000D01*
G75*
G02*
X167523000Y-115527500I0J237500D01*
G01*
X167523000Y-114952500D01*
G75*
G02*
X167760500Y-114715000I237500J0D01*
G01*
X168235500Y-114715000D01*
G75*
G02*
X168473000Y-114952500I0J-237500D01*
G01*
X168473000Y-115527500D01*
G75*
G02*
X168235500Y-115765000I-237500J0D01*
G01*
G37*
%TD*%
%TO.C,C9*%
G36*
G01*
X169655500Y-118014000D02*
X169180500Y-118014000D01*
G75*
G02*
X168943000Y-117776500I0J237500D01*
G01*
X168943000Y-117201500D01*
G75*
G02*
X169180500Y-116964000I237500J0D01*
G01*
X169655500Y-116964000D01*
G75*
G02*
X169893000Y-117201500I0J-237500D01*
G01*
X169893000Y-117776500D01*
G75*
G02*
X169655500Y-118014000I-237500J0D01*
G01*
G37*
G36*
G01*
X169655500Y-119764000D02*
X169180500Y-119764000D01*
G75*
G02*
X168943000Y-119526500I0J237500D01*
G01*
X168943000Y-118951500D01*
G75*
G02*
X169180500Y-118714000I237500J0D01*
G01*
X169655500Y-118714000D01*
G75*
G02*
X169893000Y-118951500I0J-237500D01*
G01*
X169893000Y-119526500D01*
G75*
G02*
X169655500Y-119764000I-237500J0D01*
G01*
G37*
%TD*%
%TO.C,C8*%
G36*
G01*
X162112500Y-118650000D02*
X161637500Y-118650000D01*
G75*
G02*
X161400000Y-118412500I0J237500D01*
G01*
X161400000Y-117837500D01*
G75*
G02*
X161637500Y-117600000I237500J0D01*
G01*
X162112500Y-117600000D01*
G75*
G02*
X162350000Y-117837500I0J-237500D01*
G01*
X162350000Y-118412500D01*
G75*
G02*
X162112500Y-118650000I-237500J0D01*
G01*
G37*
G36*
G01*
X162112500Y-120400000D02*
X161637500Y-120400000D01*
G75*
G02*
X161400000Y-120162500I0J237500D01*
G01*
X161400000Y-119587500D01*
G75*
G02*
X161637500Y-119350000I237500J0D01*
G01*
X162112500Y-119350000D01*
G75*
G02*
X162350000Y-119587500I0J-237500D01*
G01*
X162350000Y-120162500D01*
G75*
G02*
X162112500Y-120400000I-237500J0D01*
G01*
G37*
%TD*%
%TO.C,C7*%
G36*
G01*
X115975000Y-116275000D02*
X115975000Y-114125000D01*
G75*
G02*
X116225000Y-113875000I250000J0D01*
G01*
X117150000Y-113875000D01*
G75*
G02*
X117400000Y-114125000I0J-250000D01*
G01*
X117400000Y-116275000D01*
G75*
G02*
X117150000Y-116525000I-250000J0D01*
G01*
X116225000Y-116525000D01*
G75*
G02*
X115975000Y-116275000I0J250000D01*
G01*
G37*
G36*
G01*
X113000000Y-116275000D02*
X113000000Y-114125000D01*
G75*
G02*
X113250000Y-113875000I250000J0D01*
G01*
X114175000Y-113875000D01*
G75*
G02*
X114425000Y-114125000I0J-250000D01*
G01*
X114425000Y-116275000D01*
G75*
G02*
X114175000Y-116525000I-250000J0D01*
G01*
X113250000Y-116525000D01*
G75*
G02*
X113000000Y-116275000I0J250000D01*
G01*
G37*
%TD*%
%TO.C,C6*%
G36*
G01*
X166398001Y-98015000D02*
X165497999Y-98015000D01*
G75*
G02*
X165248000Y-97765001I0J249999D01*
G01*
X165248000Y-97114999D01*
G75*
G02*
X165497999Y-96865000I249999J0D01*
G01*
X166398001Y-96865000D01*
G75*
G02*
X166648000Y-97114999I0J-249999D01*
G01*
X166648000Y-97765001D01*
G75*
G02*
X166398001Y-98015000I-249999J0D01*
G01*
G37*
G36*
G01*
X166398001Y-100065000D02*
X165497999Y-100065000D01*
G75*
G02*
X165248000Y-99815001I0J249999D01*
G01*
X165248000Y-99164999D01*
G75*
G02*
X165497999Y-98915000I249999J0D01*
G01*
X166398001Y-98915000D01*
G75*
G02*
X166648000Y-99164999I0J-249999D01*
G01*
X166648000Y-99815001D01*
G75*
G02*
X166398001Y-100065000I-249999J0D01*
G01*
G37*
%TD*%
%TO.C,C5*%
G36*
G01*
X169045000Y-80791500D02*
X169045000Y-81266500D01*
G75*
G02*
X168807500Y-81504000I-237500J0D01*
G01*
X168232500Y-81504000D01*
G75*
G02*
X167995000Y-81266500I0J237500D01*
G01*
X167995000Y-80791500D01*
G75*
G02*
X168232500Y-80554000I237500J0D01*
G01*
X168807500Y-80554000D01*
G75*
G02*
X169045000Y-80791500I0J-237500D01*
G01*
G37*
G36*
G01*
X170795000Y-80791500D02*
X170795000Y-81266500D01*
G75*
G02*
X170557500Y-81504000I-237500J0D01*
G01*
X169982500Y-81504000D01*
G75*
G02*
X169745000Y-81266500I0J237500D01*
G01*
X169745000Y-80791500D01*
G75*
G02*
X169982500Y-80554000I237500J0D01*
G01*
X170557500Y-80554000D01*
G75*
G02*
X170795000Y-80791500I0J-237500D01*
G01*
G37*
%TD*%
%TO.C,C4*%
G36*
G01*
X168900000Y-93887500D02*
X168900000Y-94362500D01*
G75*
G02*
X168662500Y-94600000I-237500J0D01*
G01*
X168087500Y-94600000D01*
G75*
G02*
X167850000Y-94362500I0J237500D01*
G01*
X167850000Y-93887500D01*
G75*
G02*
X168087500Y-93650000I237500J0D01*
G01*
X168662500Y-93650000D01*
G75*
G02*
X168900000Y-93887500I0J-237500D01*
G01*
G37*
G36*
G01*
X170650000Y-93887500D02*
X170650000Y-94362500D01*
G75*
G02*
X170412500Y-94600000I-237500J0D01*
G01*
X169837500Y-94600000D01*
G75*
G02*
X169600000Y-94362500I0J237500D01*
G01*
X169600000Y-93887500D01*
G75*
G02*
X169837500Y-93650000I237500J0D01*
G01*
X170412500Y-93650000D01*
G75*
G02*
X170650000Y-93887500I0J-237500D01*
G01*
G37*
%TD*%
%TO.C,C3*%
G36*
G01*
X169025000Y-84137500D02*
X169025000Y-84612500D01*
G75*
G02*
X168787500Y-84850000I-237500J0D01*
G01*
X168212500Y-84850000D01*
G75*
G02*
X167975000Y-84612500I0J237500D01*
G01*
X167975000Y-84137500D01*
G75*
G02*
X168212500Y-83900000I237500J0D01*
G01*
X168787500Y-83900000D01*
G75*
G02*
X169025000Y-84137500I0J-237500D01*
G01*
G37*
G36*
G01*
X170775000Y-84137500D02*
X170775000Y-84612500D01*
G75*
G02*
X170537500Y-84850000I-237500J0D01*
G01*
X169962500Y-84850000D01*
G75*
G02*
X169725000Y-84612500I0J237500D01*
G01*
X169725000Y-84137500D01*
G75*
G02*
X169962500Y-83900000I237500J0D01*
G01*
X170537500Y-83900000D01*
G75*
G02*
X170775000Y-84137500I0J-237500D01*
G01*
G37*
%TD*%
%TO.C,C2*%
G36*
G01*
X165497999Y-94915000D02*
X166398001Y-94915000D01*
G75*
G02*
X166648000Y-95164999I0J-249999D01*
G01*
X166648000Y-95815001D01*
G75*
G02*
X166398001Y-96065000I-249999J0D01*
G01*
X165497999Y-96065000D01*
G75*
G02*
X165248000Y-95815001I0J249999D01*
G01*
X165248000Y-95164999D01*
G75*
G02*
X165497999Y-94915000I249999J0D01*
G01*
G37*
G36*
G01*
X165497999Y-92865000D02*
X166398001Y-92865000D01*
G75*
G02*
X166648000Y-93114999I0J-249999D01*
G01*
X166648000Y-93765001D01*
G75*
G02*
X166398001Y-94015000I-249999J0D01*
G01*
X165497999Y-94015000D01*
G75*
G02*
X165248000Y-93765001I0J249999D01*
G01*
X165248000Y-93114999D01*
G75*
G02*
X165497999Y-92865000I249999J0D01*
G01*
G37*
%TD*%
%TO.C,C1*%
G36*
G01*
X168900000Y-98887500D02*
X168900000Y-99362500D01*
G75*
G02*
X168662500Y-99600000I-237500J0D01*
G01*
X168087500Y-99600000D01*
G75*
G02*
X167850000Y-99362500I0J237500D01*
G01*
X167850000Y-98887500D01*
G75*
G02*
X168087500Y-98650000I237500J0D01*
G01*
X168662500Y-98650000D01*
G75*
G02*
X168900000Y-98887500I0J-237500D01*
G01*
G37*
G36*
G01*
X170650000Y-98887500D02*
X170650000Y-99362500D01*
G75*
G02*
X170412500Y-99600000I-237500J0D01*
G01*
X169837500Y-99600000D01*
G75*
G02*
X169600000Y-99362500I0J237500D01*
G01*
X169600000Y-98887500D01*
G75*
G02*
X169837500Y-98650000I237500J0D01*
G01*
X170412500Y-98650000D01*
G75*
G02*
X170650000Y-98887500I0J-237500D01*
G01*
G37*
%TD*%
D23*
%TO.C,U6*%
X120328000Y-110235000D03*
X117788000Y-110235000D03*
D24*
X115248000Y-110235000D03*
%TD*%
D25*
%TO.C,U4*%
X168250000Y-96625000D03*
X170250000Y-95675000D03*
X170250000Y-97575000D03*
%TD*%
%TO.C,U3*%
G36*
G01*
X145713000Y-87725000D02*
X146013000Y-87725000D01*
G75*
G02*
X146163000Y-87875000I0J-150000D01*
G01*
X146163000Y-89525000D01*
G75*
G02*
X146013000Y-89675000I-150000J0D01*
G01*
X145713000Y-89675000D01*
G75*
G02*
X145563000Y-89525000I0J150000D01*
G01*
X145563000Y-87875000D01*
G75*
G02*
X145713000Y-87725000I150000J0D01*
G01*
G37*
G36*
G01*
X144443000Y-87725000D02*
X144743000Y-87725000D01*
G75*
G02*
X144893000Y-87875000I0J-150000D01*
G01*
X144893000Y-89525000D01*
G75*
G02*
X144743000Y-89675000I-150000J0D01*
G01*
X144443000Y-89675000D01*
G75*
G02*
X144293000Y-89525000I0J150000D01*
G01*
X144293000Y-87875000D01*
G75*
G02*
X144443000Y-87725000I150000J0D01*
G01*
G37*
G36*
G01*
X143173000Y-87725000D02*
X143473000Y-87725000D01*
G75*
G02*
X143623000Y-87875000I0J-150000D01*
G01*
X143623000Y-89525000D01*
G75*
G02*
X143473000Y-89675000I-150000J0D01*
G01*
X143173000Y-89675000D01*
G75*
G02*
X143023000Y-89525000I0J150000D01*
G01*
X143023000Y-87875000D01*
G75*
G02*
X143173000Y-87725000I150000J0D01*
G01*
G37*
G36*
G01*
X141903000Y-87725000D02*
X142203000Y-87725000D01*
G75*
G02*
X142353000Y-87875000I0J-150000D01*
G01*
X142353000Y-89525000D01*
G75*
G02*
X142203000Y-89675000I-150000J0D01*
G01*
X141903000Y-89675000D01*
G75*
G02*
X141753000Y-89525000I0J150000D01*
G01*
X141753000Y-87875000D01*
G75*
G02*
X141903000Y-87725000I150000J0D01*
G01*
G37*
G36*
G01*
X141903000Y-82775000D02*
X142203000Y-82775000D01*
G75*
G02*
X142353000Y-82925000I0J-150000D01*
G01*
X142353000Y-84575000D01*
G75*
G02*
X142203000Y-84725000I-150000J0D01*
G01*
X141903000Y-84725000D01*
G75*
G02*
X141753000Y-84575000I0J150000D01*
G01*
X141753000Y-82925000D01*
G75*
G02*
X141903000Y-82775000I150000J0D01*
G01*
G37*
G36*
G01*
X143173000Y-82775000D02*
X143473000Y-82775000D01*
G75*
G02*
X143623000Y-82925000I0J-150000D01*
G01*
X143623000Y-84575000D01*
G75*
G02*
X143473000Y-84725000I-150000J0D01*
G01*
X143173000Y-84725000D01*
G75*
G02*
X143023000Y-84575000I0J150000D01*
G01*
X143023000Y-82925000D01*
G75*
G02*
X143173000Y-82775000I150000J0D01*
G01*
G37*
G36*
G01*
X144443000Y-82775000D02*
X144743000Y-82775000D01*
G75*
G02*
X144893000Y-82925000I0J-150000D01*
G01*
X144893000Y-84575000D01*
G75*
G02*
X144743000Y-84725000I-150000J0D01*
G01*
X144443000Y-84725000D01*
G75*
G02*
X144293000Y-84575000I0J150000D01*
G01*
X144293000Y-82925000D01*
G75*
G02*
X144443000Y-82775000I150000J0D01*
G01*
G37*
G36*
G01*
X145713000Y-82775000D02*
X146013000Y-82775000D01*
G75*
G02*
X146163000Y-82925000I0J-150000D01*
G01*
X146163000Y-84575000D01*
G75*
G02*
X146013000Y-84725000I-150000J0D01*
G01*
X145713000Y-84725000D01*
G75*
G02*
X145563000Y-84575000I0J150000D01*
G01*
X145563000Y-82925000D01*
G75*
G02*
X145713000Y-82775000I150000J0D01*
G01*
G37*
%TD*%
D26*
%TO.C,U2*%
X173592500Y-83375000D03*
X173592500Y-83875000D03*
X172067500Y-83875000D03*
X172067500Y-83375000D03*
D27*
X173580000Y-84387500D03*
X173580000Y-82862500D03*
X172080000Y-84387500D03*
X172080000Y-82862500D03*
X172580000Y-84387500D03*
X173080000Y-84387500D03*
X172580000Y-82862500D03*
X173080000Y-82862500D03*
%TD*%
D28*
%TO.C,P1*%
X138938000Y-123825000D03*
X141478000Y-123825000D03*
X144018000Y-123825000D03*
X146558000Y-123825000D03*
X149098000Y-123825000D03*
X151638000Y-123825000D03*
X154178000Y-123825000D03*
X156718000Y-123825000D03*
%TD*%
%TO.C,P2*%
X161798000Y-123825000D03*
X164338000Y-123825000D03*
X166878000Y-123825000D03*
X169418000Y-123825000D03*
X171958000Y-123825000D03*
X174498000Y-123825000D03*
%TD*%
%TO.C,P3*%
X129794000Y-75565000D03*
X132334000Y-75565000D03*
X134874000Y-75565000D03*
X137414000Y-75565000D03*
X139954000Y-75565000D03*
X142494000Y-75565000D03*
X145034000Y-75565000D03*
X147574000Y-75565000D03*
X150114000Y-75565000D03*
X152654000Y-75565000D03*
%TD*%
%TO.C,P4*%
X156718000Y-75565000D03*
X159258000Y-75565000D03*
X161798000Y-75565000D03*
X164338000Y-75565000D03*
X166878000Y-75565000D03*
X169418000Y-75565000D03*
X171958000Y-75565000D03*
X174498000Y-75565000D03*
%TD*%
D29*
%TO.C,P5*%
X124968000Y-123825000D03*
%TD*%
%TO.C,P6*%
X177038000Y-118745000D03*
%TD*%
%TO.C,P7*%
X126238000Y-75565000D03*
%TD*%
%TO.C,P8*%
X177038000Y-90805000D03*
%TD*%
M02*
