M48
; DRILL file {KiCad (5.1.6)-1} date 11/16/20 12:45:40
; FORMAT={-:-/ absolute / metric / decimal}
; #@! TF.CreationDate,2020-11-16T12:45:40+03:00
; #@! TF.GenerationSoftware,Kicad,Pcbnew,(5.1.6)-1
; #@! TF.FileFunction,Plated,1,4,PTH
FMAT,2
METRIC
T1C0.450
T2C0.700
T3C1.000
T4C1.016
T5C3.048
%
G90
G05
T1
X126.5Y-99.5
X126.5Y-103.375
X128.25Y-98.75
X129.25Y-97.75
X130.302Y-99.58
X131.572Y-99.58
X134.112Y-99.568
X134.112Y-103.505
X134.5Y-93.0
X134.5Y-94.25
X135.382Y-99.568
X136.15Y-93.025
X136.73Y-101.522
X137.25Y-97.15
X138.75Y-84.205
X139.055Y-90.555
X139.65Y-95.3
X139.65Y-97.125
X140.25Y-85.625
X140.773Y-99.822
X141.535Y-100.584
X141.94Y-117.565
X141.998Y-85.615
X142.125Y-113.0
X143.198Y-117.565
X143.25Y-113.0
X143.625Y-96.5
X143.625Y-97.75
X144.125Y-90.625
X144.125Y-92.125
X144.943Y-109.943
X144.943Y-110.995
X144.998Y-96.502
X145.598Y-117.765
X145.598Y-119.098
X145.875Y-103.0
X146.176Y-104.824
X146.25Y-96.5
X146.25Y-109.94
X146.5Y-99.875
X147.125Y-89.125
X147.125Y-102.125
X147.5Y-112.035
X148.0Y-81.125
X148.094Y-89.985
X148.25Y-103.0
X148.898Y-115.865
X149.375Y-81.125
X150.0Y-101.625
X150.0Y-102.875
X150.114Y-91.694
X150.5Y-99.875
X151.0Y-88.375
X151.0Y-96.75
X151.003Y-90.787
X151.748Y-99.856
X152.375Y-82.875
X152.873Y-87.849
X153.875Y-110.625
X153.998Y-120.765
X154.25Y-112.0
X154.375Y-104.5
X154.375Y-105.625
X154.5Y-103.0
X154.525Y-85.625
X155.125Y-110.625
X155.375Y-102.25
X155.375Y-112.0
X155.448Y-82.042
X156.21Y-108.573
X156.337Y-80.772
X156.375Y-85.852
X156.418Y-84.582
X156.591Y-87.122
X156.75Y-103.875
X156.75Y-105.0
X156.75Y-106.125
X157.0Y-107.5
X157.0Y-96.5
X157.046Y-109.6
X157.4Y-120.85
X158.5Y-118.75
X158.6Y-120.85
X158.875Y-96.75
X158.875Y-98.125
X158.875Y-116.5
X160.25Y-98.125
X160.75Y-116.5
X161.575Y-110.205
X162.348Y-87.027
X162.553Y-113.926
X162.553Y-114.815
X163.198Y-96.302
X164.592Y-83.312
X164.592Y-84.582
X164.623Y-110.205
X164.898Y-120.125
X164.9Y-113.865
X165.75Y-81.75
X165.862Y-105.664
X166.006Y-118.0
X166.125Y-120.125
X166.875Y-81.0
X168.0Y-79.625
X168.0Y-82.5
X168.375Y-95.375
X168.375Y-97.875
X169.418Y-116.218
X169.5Y-83.0
X169.75Y-79.75
X170.75Y-85.875
X170.875Y-83.0
X171.25Y-79.75
X171.704Y-94.234
X171.704Y-95.25
X172.0Y-92.875
X172.625Y-86.5
X173.125Y-92.375
X173.375Y-89.75
X173.375Y-91.125
X173.375Y-98.875
X173.875Y-80.5
X173.875Y-86.5
X174.125Y-94.125
X175.375Y-98.875
X175.5Y-94.125
X177.248Y-98.875
X178.5Y-98.875
T2
X113.788Y-94.865
X116.328Y-94.865
X118.868Y-94.865
X121.408Y-94.865
X113.788Y-102.085
X116.328Y-102.085
X118.868Y-102.085
X121.408Y-102.085
T3
X171.958Y-102.735
X174.498Y-102.735
X177.038Y-102.735
X115.248Y-110.235
X117.788Y-110.235
X120.328Y-110.235
X171.958Y-107.815
X174.498Y-107.815
X177.038Y-107.815
X113.92Y-84.25
X116.46Y-84.25
X119.0Y-84.25
X129.875Y-123.875
X132.415Y-123.875
X134.955Y-123.875
X171.958Y-112.895
X174.498Y-112.895
X177.038Y-112.895
X129.875Y-117.602
X132.415Y-117.602
X134.955Y-117.602
X113.92Y-78.125
X116.46Y-78.125
X119.0Y-78.125
T4
X161.798Y-123.825
X164.338Y-123.825
X166.878Y-123.825
X169.418Y-123.825
X171.958Y-123.825
X174.498Y-123.825
X156.718Y-75.565
X159.258Y-75.565
X161.798Y-75.565
X164.338Y-75.565
X166.878Y-75.565
X169.418Y-75.565
X171.958Y-75.565
X174.498Y-75.565
X138.938Y-123.825
X141.478Y-123.825
X144.018Y-123.825
X146.558Y-123.825
X149.098Y-123.825
X151.638Y-123.825
X154.178Y-123.825
X156.718Y-123.825
X129.794Y-75.565
X132.334Y-75.565
X134.874Y-75.565
X137.414Y-75.565
X139.954Y-75.565
X142.494Y-75.565
X145.034Y-75.565
X147.574Y-75.565
X150.114Y-75.565
X152.654Y-75.565
T5
X126.238Y-75.565
X124.968Y-123.825
X177.038Y-118.745
X177.038Y-90.805
T0
M30
