%TF.GenerationSoftware,KiCad,Pcbnew,(5.1.6)-1*%
%TF.CreationDate,2020-11-16T12:45:35+03:00*%
%TF.ProjectId,SensorBoard,53656e73-6f72-4426-9f61-72642e6b6963,rev?*%
%TF.SameCoordinates,Original*%
%TF.FileFunction,Copper,L2,Inr*%
%TF.FilePolarity,Positive*%
%FSLAX46Y46*%
G04 Gerber Fmt 4.6, Leading zero omitted, Abs format (unit mm)*
G04 Created by KiCad (PCBNEW (5.1.6)-1) date 2020-11-16 12:45:35*
%MOMM*%
%LPD*%
G01*
G04 APERTURE LIST*
%TA.AperFunction,ViaPad*%
%ADD10O,1.700000X1.700000*%
%TD*%
%TA.AperFunction,ViaPad*%
%ADD11R,1.700000X1.700000*%
%TD*%
%TA.AperFunction,ViaPad*%
%ADD12R,1.500000X2.000000*%
%TD*%
%TA.AperFunction,ViaPad*%
%ADD13O,1.500000X2.000000*%
%TD*%
%TA.AperFunction,ViaPad*%
%ADD14O,1.500000X2.500000*%
%TD*%
%TA.AperFunction,ViaPad*%
%ADD15R,1.500000X2.500000*%
%TD*%
%TA.AperFunction,ViaPad*%
%ADD16O,1.727200X2.032000*%
%TD*%
%TA.AperFunction,ViaPad*%
%ADD17C,4.064000*%
%TD*%
%TA.AperFunction,ViaPad*%
%ADD18C,0.900000*%
%TD*%
%TA.AperFunction,Conductor*%
%ADD19C,0.800000*%
%TD*%
%TA.AperFunction,Conductor*%
%ADD20C,0.300000*%
%TD*%
G04 APERTURE END LIST*
D10*
%TO.N,GNDD*%
%TO.C,J8*%
X134955000Y-123875000D03*
%TO.N,Net-(J8-Pad2)*%
X132415000Y-123875000D03*
D11*
%TO.N,Net-(D1-Pad2)*%
X129875000Y-123875000D03*
%TD*%
D10*
%TO.N,GNDD*%
%TO.C,J7*%
X134955000Y-117602000D03*
%TO.N,/B*%
X132415000Y-117602000D03*
D11*
%TO.N,/A*%
X129875000Y-117602000D03*
%TD*%
D10*
%TO.N,GNDA*%
%TO.C,J6*%
X113920000Y-84250000D03*
%TO.N,/RVCC*%
X116460000Y-84250000D03*
D11*
%TO.N,Net-(J6-Pad1)*%
X119000000Y-84250000D03*
%TD*%
D10*
%TO.N,GNDA*%
%TO.C,J5*%
X113920000Y-78125000D03*
%TO.N,/RVCC*%
X116460000Y-78125000D03*
D11*
%TO.N,Net-(J5-Pad1)*%
X119000000Y-78125000D03*
%TD*%
D10*
%TO.N,/nEX*%
%TO.C,J3*%
X177038000Y-102735000D03*
%TO.N,Net-(D4-Pad1)*%
X174498000Y-102735000D03*
D11*
%TO.N,/EX*%
X171958000Y-102735000D03*
%TD*%
D10*
%TO.N,/nEX*%
%TO.C,J2*%
X177038000Y-107815000D03*
%TO.N,Net-(D3-Pad1)*%
X174498000Y-107815000D03*
D11*
%TO.N,/EX*%
X171958000Y-107815000D03*
%TD*%
D10*
%TO.N,/nEX*%
%TO.C,J1*%
X177038000Y-112895000D03*
%TO.N,Net-(D2-Pad1)*%
X174498000Y-112895000D03*
D11*
%TO.N,/EX*%
X171958000Y-112895000D03*
%TD*%
D12*
%TO.N,GNDD*%
%TO.C,U10*%
X113788000Y-102085000D03*
D13*
%TO.N,+5VD*%
X116328000Y-102085000D03*
%TO.N,GND*%
X118868000Y-102085000D03*
%TO.N,+5V*%
X121408000Y-102085000D03*
%TD*%
D12*
%TO.N,GNDD*%
%TO.C,U9*%
X113788000Y-94865000D03*
D13*
%TO.N,+5VD*%
X116328000Y-94865000D03*
%TO.N,GNDA*%
X118868000Y-94865000D03*
%TO.N,/RVCC*%
X121408000Y-94865000D03*
%TD*%
D14*
%TO.N,+5VD*%
%TO.C,U6*%
X120328000Y-110235000D03*
%TO.N,GNDD*%
X117788000Y-110235000D03*
D15*
%TO.N,Net-(C7-Pad1)*%
X115248000Y-110235000D03*
%TD*%
D16*
%TO.N,Net-(P1-Pad1)*%
%TO.C,P1*%
X138938000Y-123825000D03*
%TO.N,/IOREF*%
X141478000Y-123825000D03*
%TO.N,/Reset*%
X144018000Y-123825000D03*
%TO.N,+3V3*%
X146558000Y-123825000D03*
%TO.N,+5V*%
X149098000Y-123825000D03*
%TO.N,GND*%
X151638000Y-123825000D03*
X154178000Y-123825000D03*
%TO.N,/Vin*%
X156718000Y-123825000D03*
%TD*%
%TO.N,/A0*%
%TO.C,P2*%
X161798000Y-123825000D03*
%TO.N,/A1*%
X164338000Y-123825000D03*
%TO.N,/A2(SS)*%
X166878000Y-123825000D03*
%TO.N,/A3*%
X169418000Y-123825000D03*
%TO.N,/A4*%
X171958000Y-123825000D03*
%TO.N,/A5*%
X174498000Y-123825000D03*
%TD*%
%TO.N,/A5(SCL)*%
%TO.C,P3*%
X129794000Y-75565000D03*
%TO.N,/A4(SDA)*%
X132334000Y-75565000D03*
%TO.N,/AREF*%
X134874000Y-75565000D03*
%TO.N,GND*%
X137414000Y-75565000D03*
%TO.N,/13(SCK)*%
X139954000Y-75565000D03*
%TO.N,/12(MISO)*%
X142494000Y-75565000D03*
%TO.N,/11(\u002A\u002A/MOSI)*%
X145034000Y-75565000D03*
%TO.N,/10(\u002A\u002A/SS)*%
X147574000Y-75565000D03*
%TO.N,/9(RPM2)*%
X150114000Y-75565000D03*
%TO.N,/8(TX)*%
X152654000Y-75565000D03*
%TD*%
%TO.N,/7(DE)*%
%TO.C,P4*%
X156718000Y-75565000D03*
%TO.N,/6(RPM1)*%
X159258000Y-75565000D03*
%TO.N,/5(MISO)*%
X161798000Y-75565000D03*
%TO.N,/4(MOSI)*%
X164338000Y-75565000D03*
%TO.N,/3(SCK)*%
X166878000Y-75565000D03*
%TO.N,/2(RX)*%
X169418000Y-75565000D03*
%TO.N,/1(Tx)*%
X171958000Y-75565000D03*
%TO.N,/0(Rx)*%
X174498000Y-75565000D03*
%TD*%
D17*
%TO.N,Net-(P5-Pad1)*%
%TO.C,P5*%
X124968000Y-123825000D03*
%TD*%
%TO.N,Net-(P6-Pad1)*%
%TO.C,P6*%
X177038000Y-118745000D03*
%TD*%
%TO.N,Net-(P7-Pad1)*%
%TO.C,P7*%
X126238000Y-75565000D03*
%TD*%
%TO.N,Net-(P8-Pad1)*%
%TO.C,P8*%
X177038000Y-90805000D03*
%TD*%
D18*
%TO.N,/IOREF*%
X171250000Y-79750000D03*
X169750000Y-79750000D03*
%TO.N,/Reset*%
X156337030Y-80772000D03*
X146250000Y-109940000D03*
%TO.N,+5V*%
X160250000Y-98125000D03*
X158875000Y-98125000D03*
X158875000Y-96750000D03*
X136150000Y-93025000D03*
X134500000Y-93000000D03*
X134500000Y-94250000D03*
%TO.N,GND*%
X175375012Y-98875000D03*
X141998000Y-85615000D03*
X151748000Y-99855702D03*
X143198000Y-117565000D03*
X145598000Y-117765000D03*
X153998000Y-120765000D03*
X146250000Y-96500000D03*
X157000000Y-107500000D03*
X177248000Y-98875000D03*
X178500000Y-98875000D03*
X168000000Y-82500000D03*
X164592000Y-84582000D03*
X164592000Y-83312000D03*
X166006000Y-118000000D03*
X169418000Y-116218000D03*
X163198000Y-96302000D03*
X126500000Y-99500000D03*
X139650000Y-95300000D03*
X139650000Y-97125000D03*
X137250000Y-97150000D03*
X144942847Y-110994847D03*
X145598000Y-119097992D03*
X138750000Y-84205000D03*
X140250000Y-85625000D03*
X139055000Y-90555000D03*
X134112000Y-99568000D03*
X134112000Y-103505000D03*
X150114000Y-91694000D03*
X156591000Y-87122000D03*
X151003000Y-90787500D03*
X164900000Y-113865000D03*
X164623000Y-110205000D03*
X161575000Y-110205000D03*
X165862000Y-105664000D03*
X155375000Y-112000000D03*
X158500000Y-118750000D03*
X148093554Y-89985258D03*
X146500001Y-99874999D03*
X173375000Y-98875000D03*
X173875000Y-86500000D03*
X154250000Y-112000000D03*
X172625000Y-86500000D03*
X168000000Y-79625000D03*
X170750000Y-85874994D03*
X168375000Y-95375000D03*
X168375000Y-97875000D03*
X126500000Y-103375000D03*
X154375000Y-104500000D03*
X154375000Y-105625000D03*
X144942847Y-109942847D03*
X141940000Y-117565000D03*
%TO.N,/A0*%
X158875000Y-116500000D03*
%TO.N,/A1*%
X160750000Y-116500002D03*
%TO.N,/A3*%
X157046004Y-109600000D03*
%TO.N,/AREF*%
X173375000Y-89750000D03*
%TO.N,/10(\u002A\u002A/SS)*%
X156210000Y-108573002D03*
X146176027Y-104823973D03*
%TO.N,+3V3*%
X143250000Y-113000000D03*
X148898000Y-115865000D03*
X147500000Y-112035000D03*
X162348000Y-87027000D03*
X154525000Y-85625000D03*
X152375000Y-82875000D03*
X128250000Y-98750000D03*
X148000000Y-81125000D03*
X149375000Y-81125000D03*
X136730000Y-101522000D03*
X135382000Y-99568000D03*
X152873000Y-87849004D03*
X150500000Y-99875002D03*
X147125000Y-89125000D03*
X151000000Y-96750000D03*
X144998000Y-96501998D03*
X129250000Y-97750000D03*
X143625000Y-96500000D03*
X143625000Y-97750000D03*
X144124996Y-90625000D03*
X144125000Y-92125000D03*
X153875000Y-110625000D03*
X155125000Y-110625000D03*
X142125000Y-113000000D03*
X155375000Y-102250000D03*
X154500000Y-103000000D03*
%TO.N,VDDA*%
X171704000Y-95250000D03*
X171704000Y-94234000D03*
X162553000Y-114815000D03*
X162553000Y-113926000D03*
X157400000Y-120850000D03*
X158600000Y-120850000D03*
X164898000Y-120125000D03*
X166125000Y-120125000D03*
X169500000Y-83000000D03*
X170875000Y-83000000D03*
%TO.N,/A2(SS)*%
X157000012Y-96500000D03*
%TO.N,/9(RPM2)*%
X150999992Y-88375000D03*
%TO.N,/8(TX)*%
X145875000Y-103000010D03*
%TO.N,/7(DE)*%
X131572000Y-99580000D03*
X130302000Y-99580000D03*
X141535000Y-100584000D03*
X140773000Y-99822000D03*
X147125000Y-102125000D03*
%TO.N,/5(MISO)*%
X165750000Y-81750000D03*
%TO.N,/4(MOSI)*%
X166875000Y-81000000D03*
%TO.N,/3(SCK)*%
X173874995Y-80500007D03*
%TO.N,/2(RX)*%
X155448000Y-82042000D03*
X148250000Y-103000000D03*
%TO.N,/EX*%
X175500000Y-94125000D03*
X174125000Y-94125000D03*
%TO.N,Net-(C17-Pad1)*%
X156750000Y-103875000D03*
X156750000Y-105000000D03*
X172000000Y-92875000D03*
X173375000Y-91125000D03*
X173125000Y-92375000D03*
X156750000Y-106125000D03*
%TO.N,/SensorBoardCPU/SWCLK*%
X156418006Y-84582000D03*
X150000000Y-102874998D03*
%TO.N,/SensorBoardCPU/SWDIO*%
X156375000Y-85852000D03*
X150000000Y-101625000D03*
%TD*%
D19*
%TO.N,GND*%
X154178000Y-120945000D02*
X153998000Y-120765000D01*
X154178000Y-123825000D02*
X154178000Y-120945000D01*
X151638000Y-123825000D02*
X151638000Y-120737000D01*
X151666000Y-120765000D02*
X153998000Y-120765000D01*
X151638000Y-120737000D02*
X151666000Y-120765000D01*
X137414000Y-75565000D02*
X137414000Y-78289000D01*
%TD*%
D20*
%TO.N,GND*%
G36*
X176350000Y-87187868D02*
G01*
X174268934Y-89268934D01*
X174261753Y-89277684D01*
X174261189Y-89276322D01*
X174151751Y-89112537D01*
X174012463Y-88973249D01*
X173848678Y-88863811D01*
X173666689Y-88788429D01*
X173473491Y-88750000D01*
X173276509Y-88750000D01*
X173083311Y-88788429D01*
X172901322Y-88863811D01*
X172737537Y-88973249D01*
X172598249Y-89112537D01*
X172488811Y-89276322D01*
X172413429Y-89458311D01*
X172375000Y-89651509D01*
X172375000Y-89848491D01*
X172413429Y-90041689D01*
X172488811Y-90223678D01*
X172598249Y-90387463D01*
X172648286Y-90437500D01*
X172598249Y-90487537D01*
X172488811Y-90651322D01*
X172413429Y-90833311D01*
X172375000Y-91026509D01*
X172375000Y-91223491D01*
X172413429Y-91416689D01*
X172488396Y-91597675D01*
X172487537Y-91598249D01*
X172348249Y-91737537D01*
X172238811Y-91901322D01*
X172238203Y-91902790D01*
X172098491Y-91875000D01*
X171901509Y-91875000D01*
X171708311Y-91913429D01*
X171526322Y-91988811D01*
X171362537Y-92098249D01*
X171223249Y-92237537D01*
X171113811Y-92401322D01*
X171038429Y-92583311D01*
X171000000Y-92776509D01*
X171000000Y-92973491D01*
X171038429Y-93166689D01*
X171113811Y-93348678D01*
X171149373Y-93401900D01*
X171066537Y-93457249D01*
X170927249Y-93596537D01*
X170817811Y-93760322D01*
X170742429Y-93942311D01*
X170704000Y-94135509D01*
X170704000Y-94332491D01*
X170742429Y-94525689D01*
X170817811Y-94707678D01*
X170840744Y-94742000D01*
X170817811Y-94776322D01*
X170742429Y-94958311D01*
X170704000Y-95151509D01*
X170704000Y-95348491D01*
X170742429Y-95541689D01*
X170817811Y-95723678D01*
X170927249Y-95887463D01*
X171066537Y-96026751D01*
X171230322Y-96136189D01*
X171412311Y-96211571D01*
X171605509Y-96250000D01*
X171802491Y-96250000D01*
X171995689Y-96211571D01*
X172177678Y-96136189D01*
X172341463Y-96026751D01*
X172480751Y-95887463D01*
X172590189Y-95723678D01*
X172665571Y-95541689D01*
X172704000Y-95348491D01*
X172704000Y-95151509D01*
X172665571Y-94958311D01*
X172590189Y-94776322D01*
X172567256Y-94742000D01*
X172590189Y-94707678D01*
X172665571Y-94525689D01*
X172704000Y-94332491D01*
X172704000Y-94135509D01*
X172665571Y-93942311D01*
X172590189Y-93760322D01*
X172554627Y-93707100D01*
X172637463Y-93651751D01*
X172776751Y-93512463D01*
X172886189Y-93348678D01*
X172886797Y-93347210D01*
X173026509Y-93375000D01*
X173223491Y-93375000D01*
X173416689Y-93336571D01*
X173598678Y-93261189D01*
X173762463Y-93151751D01*
X173901751Y-93012463D01*
X174011189Y-92848678D01*
X174086571Y-92666689D01*
X174125000Y-92473491D01*
X174125000Y-92276509D01*
X174086571Y-92083311D01*
X174011604Y-91902325D01*
X174012463Y-91901751D01*
X174151751Y-91762463D01*
X174225000Y-91652838D01*
X174225000Y-93125300D01*
X174223491Y-93125000D01*
X174026509Y-93125000D01*
X173833311Y-93163429D01*
X173651322Y-93238811D01*
X173487537Y-93348249D01*
X173348249Y-93487537D01*
X173238811Y-93651322D01*
X173163429Y-93833311D01*
X173125000Y-94026509D01*
X173125000Y-94223491D01*
X173163429Y-94416689D01*
X173238811Y-94598678D01*
X173348249Y-94762463D01*
X173487537Y-94901751D01*
X173651322Y-95011189D01*
X173833311Y-95086571D01*
X174026509Y-95125000D01*
X174223491Y-95125000D01*
X174416689Y-95086571D01*
X174598678Y-95011189D01*
X174762463Y-94901751D01*
X174812500Y-94851714D01*
X174862537Y-94901751D01*
X175026322Y-95011189D01*
X175208311Y-95086571D01*
X175401509Y-95125000D01*
X175598491Y-95125000D01*
X175791689Y-95086571D01*
X175973678Y-95011189D01*
X176137463Y-94901751D01*
X176276751Y-94762463D01*
X176386189Y-94598678D01*
X176461571Y-94416689D01*
X176500000Y-94223491D01*
X176500000Y-94026509D01*
X176461571Y-93833311D01*
X176386189Y-93651322D01*
X176301783Y-93525000D01*
X178725000Y-93525000D01*
X178725000Y-100597902D01*
X169877083Y-100475014D01*
X169847782Y-100477490D01*
X169819528Y-100485634D01*
X169793405Y-100499134D01*
X169770417Y-100517471D01*
X169751449Y-100539940D01*
X169737229Y-100565678D01*
X169728303Y-100593696D01*
X169725000Y-100625000D01*
X169725000Y-115125000D01*
X169727882Y-115154264D01*
X169736418Y-115182403D01*
X169750280Y-115208336D01*
X169768934Y-115231066D01*
X169791664Y-115249720D01*
X169817597Y-115263582D01*
X169845736Y-115272118D01*
X169875000Y-115275000D01*
X173350000Y-115275000D01*
X173350000Y-121350000D01*
X159468601Y-121350000D01*
X159486189Y-121323678D01*
X159561571Y-121141689D01*
X159600000Y-120948491D01*
X159600000Y-120751509D01*
X159561571Y-120558311D01*
X159486189Y-120376322D01*
X159376751Y-120212537D01*
X159237463Y-120073249D01*
X159167512Y-120026509D01*
X163898000Y-120026509D01*
X163898000Y-120223491D01*
X163936429Y-120416689D01*
X164011811Y-120598678D01*
X164121249Y-120762463D01*
X164260537Y-120901751D01*
X164424322Y-121011189D01*
X164606311Y-121086571D01*
X164799509Y-121125000D01*
X164996491Y-121125000D01*
X165189689Y-121086571D01*
X165371678Y-121011189D01*
X165511500Y-120917763D01*
X165651322Y-121011189D01*
X165833311Y-121086571D01*
X166026509Y-121125000D01*
X166223491Y-121125000D01*
X166416689Y-121086571D01*
X166598678Y-121011189D01*
X166762463Y-120901751D01*
X166901751Y-120762463D01*
X167011189Y-120598678D01*
X167086571Y-120416689D01*
X167125000Y-120223491D01*
X167125000Y-120026509D01*
X167086571Y-119833311D01*
X167011189Y-119651322D01*
X166901751Y-119487537D01*
X166762463Y-119348249D01*
X166598678Y-119238811D01*
X166416689Y-119163429D01*
X166223491Y-119125000D01*
X166026509Y-119125000D01*
X165833311Y-119163429D01*
X165651322Y-119238811D01*
X165511500Y-119332237D01*
X165371678Y-119238811D01*
X165189689Y-119163429D01*
X164996491Y-119125000D01*
X164799509Y-119125000D01*
X164606311Y-119163429D01*
X164424322Y-119238811D01*
X164260537Y-119348249D01*
X164121249Y-119487537D01*
X164011811Y-119651322D01*
X163936429Y-119833311D01*
X163898000Y-120026509D01*
X159167512Y-120026509D01*
X159073678Y-119963811D01*
X158891689Y-119888429D01*
X158698491Y-119850000D01*
X158501509Y-119850000D01*
X158308311Y-119888429D01*
X158126322Y-119963811D01*
X158000000Y-120048217D01*
X157873678Y-119963811D01*
X157691689Y-119888429D01*
X157498491Y-119850000D01*
X157301509Y-119850000D01*
X157108311Y-119888429D01*
X156926322Y-119963811D01*
X156762537Y-120073249D01*
X156650000Y-120185786D01*
X156650000Y-116401509D01*
X157875000Y-116401509D01*
X157875000Y-116598491D01*
X157913429Y-116791689D01*
X157988811Y-116973678D01*
X158098249Y-117137463D01*
X158237537Y-117276751D01*
X158401322Y-117386189D01*
X158583311Y-117461571D01*
X158776509Y-117500000D01*
X158973491Y-117500000D01*
X159166689Y-117461571D01*
X159348678Y-117386189D01*
X159512463Y-117276751D01*
X159651751Y-117137463D01*
X159761189Y-116973678D01*
X159812500Y-116849803D01*
X159863811Y-116973680D01*
X159973249Y-117137465D01*
X160112537Y-117276753D01*
X160276322Y-117386191D01*
X160458311Y-117461573D01*
X160651509Y-117500002D01*
X160848491Y-117500002D01*
X161041689Y-117461573D01*
X161223678Y-117386191D01*
X161387463Y-117276753D01*
X161526751Y-117137465D01*
X161636189Y-116973680D01*
X161711571Y-116791691D01*
X161750000Y-116598493D01*
X161750000Y-116401511D01*
X161711571Y-116208313D01*
X161636189Y-116026324D01*
X161526751Y-115862539D01*
X161387463Y-115723251D01*
X161223678Y-115613813D01*
X161041689Y-115538431D01*
X160848491Y-115500002D01*
X160651509Y-115500002D01*
X160458311Y-115538431D01*
X160276322Y-115613813D01*
X160112537Y-115723251D01*
X159973249Y-115862539D01*
X159863811Y-116026324D01*
X159812500Y-116150199D01*
X159761189Y-116026322D01*
X159651751Y-115862537D01*
X159512463Y-115723249D01*
X159348678Y-115613811D01*
X159166689Y-115538429D01*
X158973491Y-115500000D01*
X158776509Y-115500000D01*
X158583311Y-115538429D01*
X158401322Y-115613811D01*
X158237537Y-115723249D01*
X158098249Y-115862537D01*
X157988811Y-116026322D01*
X157913429Y-116208311D01*
X157875000Y-116401509D01*
X156650000Y-116401509D01*
X156650000Y-113827509D01*
X161553000Y-113827509D01*
X161553000Y-114024491D01*
X161591429Y-114217689D01*
X161654725Y-114370500D01*
X161591429Y-114523311D01*
X161553000Y-114716509D01*
X161553000Y-114913491D01*
X161591429Y-115106689D01*
X161666811Y-115288678D01*
X161776249Y-115452463D01*
X161915537Y-115591751D01*
X162079322Y-115701189D01*
X162261311Y-115776571D01*
X162454509Y-115815000D01*
X162651491Y-115815000D01*
X162844689Y-115776571D01*
X163026678Y-115701189D01*
X163190463Y-115591751D01*
X163329751Y-115452463D01*
X163439189Y-115288678D01*
X163514571Y-115106689D01*
X163553000Y-114913491D01*
X163553000Y-114716509D01*
X163514571Y-114523311D01*
X163451275Y-114370500D01*
X163514571Y-114217689D01*
X163553000Y-114024491D01*
X163553000Y-113827509D01*
X163514571Y-113634311D01*
X163439189Y-113452322D01*
X163329751Y-113288537D01*
X163190463Y-113149249D01*
X163026678Y-113039811D01*
X162844689Y-112964429D01*
X162651491Y-112926000D01*
X162454509Y-112926000D01*
X162261311Y-112964429D01*
X162079322Y-113039811D01*
X161915537Y-113149249D01*
X161776249Y-113288537D01*
X161666811Y-113452322D01*
X161591429Y-113634311D01*
X161553000Y-113827509D01*
X156650000Y-113827509D01*
X156650000Y-110518362D01*
X156754315Y-110561571D01*
X156947513Y-110600000D01*
X157144495Y-110600000D01*
X157337693Y-110561571D01*
X157519682Y-110486189D01*
X157683467Y-110376751D01*
X157822755Y-110237463D01*
X157932193Y-110073678D01*
X158007575Y-109891689D01*
X158046004Y-109698491D01*
X158046004Y-109501509D01*
X158007575Y-109308311D01*
X157932193Y-109126322D01*
X157822755Y-108962537D01*
X157683467Y-108823249D01*
X157519682Y-108713811D01*
X157337693Y-108638429D01*
X157210000Y-108613030D01*
X157210000Y-108474511D01*
X157171571Y-108281313D01*
X157096189Y-108099324D01*
X156986751Y-107935539D01*
X156847463Y-107796251D01*
X156683678Y-107686813D01*
X156650000Y-107672863D01*
X156650000Y-107124700D01*
X156651509Y-107125000D01*
X156848491Y-107125000D01*
X157041689Y-107086571D01*
X157223678Y-107011189D01*
X157387463Y-106901751D01*
X157526751Y-106762463D01*
X157636189Y-106598678D01*
X157711571Y-106416689D01*
X157750000Y-106223491D01*
X157750000Y-106026509D01*
X157711571Y-105833311D01*
X157636189Y-105651322D01*
X157576840Y-105562500D01*
X157636189Y-105473678D01*
X157711571Y-105291689D01*
X157750000Y-105098491D01*
X157750000Y-104901509D01*
X157711571Y-104708311D01*
X157636189Y-104526322D01*
X157576840Y-104437500D01*
X157636189Y-104348678D01*
X157711571Y-104166689D01*
X157750000Y-103973491D01*
X157750000Y-103776509D01*
X157711571Y-103583311D01*
X157636189Y-103401322D01*
X157526751Y-103237537D01*
X157387463Y-103098249D01*
X157223678Y-102988811D01*
X157041689Y-102913429D01*
X156848491Y-102875000D01*
X156651509Y-102875000D01*
X156458311Y-102913429D01*
X156276322Y-102988811D01*
X156112537Y-103098249D01*
X156110786Y-103100000D01*
X155902838Y-103100000D01*
X156012463Y-103026751D01*
X156151751Y-102887463D01*
X156261189Y-102723678D01*
X156336571Y-102541689D01*
X156375000Y-102348491D01*
X156375000Y-102151509D01*
X156336571Y-101958311D01*
X156261189Y-101776322D01*
X156151751Y-101612537D01*
X156012463Y-101473249D01*
X155848678Y-101363811D01*
X155666689Y-101288429D01*
X155473491Y-101250000D01*
X155276509Y-101250000D01*
X155083311Y-101288429D01*
X154901322Y-101363811D01*
X154737537Y-101473249D01*
X154598249Y-101612537D01*
X154488811Y-101776322D01*
X154413429Y-101958311D01*
X154405137Y-102000000D01*
X154401509Y-102000000D01*
X154208311Y-102038429D01*
X154026322Y-102113811D01*
X153862537Y-102223249D01*
X153723249Y-102362537D01*
X153613811Y-102526322D01*
X153538429Y-102708311D01*
X153500000Y-102901509D01*
X153500000Y-103098491D01*
X153538429Y-103291689D01*
X153613811Y-103473678D01*
X153723249Y-103637463D01*
X153862537Y-103776751D01*
X154026322Y-103886189D01*
X154208311Y-103961571D01*
X154401509Y-104000000D01*
X154598491Y-104000000D01*
X154791689Y-103961571D01*
X154973678Y-103886189D01*
X155137463Y-103776751D01*
X155276751Y-103637463D01*
X155386189Y-103473678D01*
X155461571Y-103291689D01*
X155469863Y-103250000D01*
X155473491Y-103250000D01*
X155666689Y-103211571D01*
X155743221Y-103179871D01*
X155736418Y-103192597D01*
X155727882Y-103220736D01*
X155725000Y-103250000D01*
X155725000Y-107694378D01*
X155572537Y-107796251D01*
X155433249Y-107935539D01*
X155323811Y-108099324D01*
X155248429Y-108281313D01*
X155210000Y-108474511D01*
X155210000Y-108671493D01*
X155248429Y-108864691D01*
X155323811Y-109046680D01*
X155433249Y-109210465D01*
X155572537Y-109349753D01*
X155725000Y-109451626D01*
X155725000Y-109823217D01*
X155598678Y-109738811D01*
X155416689Y-109663429D01*
X155223491Y-109625000D01*
X155026509Y-109625000D01*
X154833311Y-109663429D01*
X154651322Y-109738811D01*
X154500000Y-109839921D01*
X154348678Y-109738811D01*
X154166689Y-109663429D01*
X153973491Y-109625000D01*
X153776509Y-109625000D01*
X153583311Y-109663429D01*
X153401322Y-109738811D01*
X153237537Y-109848249D01*
X153098249Y-109987537D01*
X152988811Y-110151322D01*
X152913429Y-110333311D01*
X152875000Y-110526509D01*
X152875000Y-110723491D01*
X152913429Y-110916689D01*
X152988811Y-111098678D01*
X153098249Y-111262463D01*
X153237537Y-111401751D01*
X153401322Y-111511189D01*
X153583311Y-111586571D01*
X153776509Y-111625000D01*
X153973491Y-111625000D01*
X154166689Y-111586571D01*
X154348678Y-111511189D01*
X154500000Y-111410079D01*
X154651322Y-111511189D01*
X154833311Y-111586571D01*
X155026509Y-111625000D01*
X155223491Y-111625000D01*
X155416689Y-111586571D01*
X155598678Y-111511189D01*
X155725000Y-111426783D01*
X155725000Y-121350000D01*
X140276159Y-121350000D01*
X140319108Y-115766509D01*
X147898000Y-115766509D01*
X147898000Y-115963491D01*
X147936429Y-116156689D01*
X148011811Y-116338678D01*
X148121249Y-116502463D01*
X148260537Y-116641751D01*
X148424322Y-116751189D01*
X148606311Y-116826571D01*
X148799509Y-116865000D01*
X148996491Y-116865000D01*
X149189689Y-116826571D01*
X149371678Y-116751189D01*
X149535463Y-116641751D01*
X149674751Y-116502463D01*
X149784189Y-116338678D01*
X149859571Y-116156689D01*
X149898000Y-115963491D01*
X149898000Y-115766509D01*
X149859571Y-115573311D01*
X149784189Y-115391322D01*
X149674751Y-115227537D01*
X149535463Y-115088249D01*
X149371678Y-114978811D01*
X149189689Y-114903429D01*
X148996491Y-114865000D01*
X148799509Y-114865000D01*
X148606311Y-114903429D01*
X148424322Y-114978811D01*
X148260537Y-115088249D01*
X148121249Y-115227537D01*
X148011811Y-115391322D01*
X147936429Y-115573311D01*
X147898000Y-115766509D01*
X140319108Y-115766509D01*
X140341147Y-112901509D01*
X141125000Y-112901509D01*
X141125000Y-113098491D01*
X141163429Y-113291689D01*
X141238811Y-113473678D01*
X141348249Y-113637463D01*
X141487537Y-113776751D01*
X141651322Y-113886189D01*
X141833311Y-113961571D01*
X142026509Y-114000000D01*
X142223491Y-114000000D01*
X142416689Y-113961571D01*
X142598678Y-113886189D01*
X142687500Y-113826840D01*
X142776322Y-113886189D01*
X142958311Y-113961571D01*
X143151509Y-114000000D01*
X143348491Y-114000000D01*
X143541689Y-113961571D01*
X143723678Y-113886189D01*
X143887463Y-113776751D01*
X144026751Y-113637463D01*
X144136189Y-113473678D01*
X144211571Y-113291689D01*
X144250000Y-113098491D01*
X144250000Y-112901509D01*
X144211571Y-112708311D01*
X144136189Y-112526322D01*
X144026751Y-112362537D01*
X143887463Y-112223249D01*
X143723678Y-112113811D01*
X143541689Y-112038429D01*
X143348491Y-112000000D01*
X143151509Y-112000000D01*
X142958311Y-112038429D01*
X142776322Y-112113811D01*
X142687500Y-112173160D01*
X142598678Y-112113811D01*
X142416689Y-112038429D01*
X142223491Y-112000000D01*
X142026509Y-112000000D01*
X141833311Y-112038429D01*
X141651322Y-112113811D01*
X141487537Y-112223249D01*
X141348249Y-112362537D01*
X141238811Y-112526322D01*
X141163429Y-112708311D01*
X141125000Y-112901509D01*
X140341147Y-112901509D01*
X140348569Y-111936509D01*
X146500000Y-111936509D01*
X146500000Y-112133491D01*
X146538429Y-112326689D01*
X146613811Y-112508678D01*
X146723249Y-112672463D01*
X146862537Y-112811751D01*
X147026322Y-112921189D01*
X147208311Y-112996571D01*
X147401509Y-113035000D01*
X147598491Y-113035000D01*
X147791689Y-112996571D01*
X147973678Y-112921189D01*
X148137463Y-112811751D01*
X148276751Y-112672463D01*
X148386189Y-112508678D01*
X148461571Y-112326689D01*
X148500000Y-112133491D01*
X148500000Y-111936509D01*
X148461571Y-111743311D01*
X148386189Y-111561322D01*
X148276751Y-111397537D01*
X148137463Y-111258249D01*
X147973678Y-111148811D01*
X147791689Y-111073429D01*
X147598491Y-111035000D01*
X147401509Y-111035000D01*
X147208311Y-111073429D01*
X147026322Y-111148811D01*
X146862537Y-111258249D01*
X146723249Y-111397537D01*
X146613811Y-111561322D01*
X146538429Y-111743311D01*
X146500000Y-111936509D01*
X140348569Y-111936509D01*
X140364685Y-109841509D01*
X145250000Y-109841509D01*
X145250000Y-110038491D01*
X145288429Y-110231689D01*
X145363811Y-110413678D01*
X145473249Y-110577463D01*
X145612537Y-110716751D01*
X145776322Y-110826189D01*
X145958311Y-110901571D01*
X146151509Y-110940000D01*
X146348491Y-110940000D01*
X146541689Y-110901571D01*
X146723678Y-110826189D01*
X146887463Y-110716751D01*
X147026751Y-110577463D01*
X147136189Y-110413678D01*
X147211571Y-110231689D01*
X147250000Y-110038491D01*
X147250000Y-109841509D01*
X147211571Y-109648311D01*
X147136189Y-109466322D01*
X147026751Y-109302537D01*
X146887463Y-109163249D01*
X146723678Y-109053811D01*
X146541689Y-108978429D01*
X146348491Y-108940000D01*
X146151509Y-108940000D01*
X145958311Y-108978429D01*
X145776322Y-109053811D01*
X145612537Y-109163249D01*
X145473249Y-109302537D01*
X145363811Y-109466322D01*
X145288429Y-109648311D01*
X145250000Y-109841509D01*
X140364685Y-109841509D01*
X140399996Y-105251154D01*
X140397339Y-105221869D01*
X140389019Y-105193665D01*
X140375358Y-105167626D01*
X140356879Y-105144753D01*
X140334292Y-105125924D01*
X140308467Y-105111864D01*
X140280394Y-105103112D01*
X140250000Y-105100000D01*
X118025000Y-105100000D01*
X118025000Y-103110464D01*
X118072506Y-103165850D01*
X118249882Y-103305079D01*
X118451012Y-103407028D01*
X118663451Y-103466662D01*
X118843000Y-103384702D01*
X118843000Y-102110000D01*
X118893000Y-102110000D01*
X118893000Y-103384702D01*
X119072549Y-103466662D01*
X119284988Y-103407028D01*
X119486118Y-103305079D01*
X119663494Y-103165850D01*
X119810300Y-102994692D01*
X119920894Y-102798183D01*
X119991026Y-102583874D01*
X120018000Y-102360000D01*
X120018000Y-102110000D01*
X118893000Y-102110000D01*
X118843000Y-102110000D01*
X118823000Y-102110000D01*
X118823000Y-102060000D01*
X118843000Y-102060000D01*
X118843000Y-100785298D01*
X118893000Y-100785298D01*
X118893000Y-102060000D01*
X120018000Y-102060000D01*
X120018000Y-101810000D01*
X120013318Y-101771137D01*
X120108000Y-101771137D01*
X120108000Y-102398864D01*
X120126810Y-102589845D01*
X120201145Y-102834896D01*
X120321860Y-103060736D01*
X120484314Y-103258687D01*
X120682265Y-103421140D01*
X120908105Y-103541855D01*
X121153156Y-103616190D01*
X121408000Y-103641290D01*
X121662845Y-103616190D01*
X121907896Y-103541855D01*
X122133736Y-103421140D01*
X122331687Y-103258687D01*
X122494140Y-103060736D01*
X122579243Y-102901519D01*
X144875000Y-102901519D01*
X144875000Y-103098501D01*
X144913429Y-103291699D01*
X144988811Y-103473688D01*
X145098249Y-103637473D01*
X145237537Y-103776761D01*
X145401322Y-103886199D01*
X145583311Y-103961581D01*
X145647597Y-103974368D01*
X145538564Y-104047222D01*
X145399276Y-104186510D01*
X145289838Y-104350295D01*
X145214456Y-104532284D01*
X145176027Y-104725482D01*
X145176027Y-104922464D01*
X145214456Y-105115662D01*
X145289838Y-105297651D01*
X145399276Y-105461436D01*
X145538564Y-105600724D01*
X145702349Y-105710162D01*
X145884338Y-105785544D01*
X146077536Y-105823973D01*
X146274518Y-105823973D01*
X146467716Y-105785544D01*
X146649705Y-105710162D01*
X146813490Y-105600724D01*
X146952778Y-105461436D01*
X147062216Y-105297651D01*
X147137598Y-105115662D01*
X147176027Y-104922464D01*
X147176027Y-104725482D01*
X147137598Y-104532284D01*
X147062216Y-104350295D01*
X146952778Y-104186510D01*
X146813490Y-104047222D01*
X146649705Y-103937784D01*
X146467716Y-103862402D01*
X146403430Y-103849615D01*
X146512463Y-103776761D01*
X146651751Y-103637473D01*
X146761189Y-103473688D01*
X146836571Y-103291699D01*
X146875000Y-103098501D01*
X146875000Y-103094863D01*
X147026509Y-103125000D01*
X147223491Y-103125000D01*
X147254063Y-103118919D01*
X147288429Y-103291689D01*
X147363811Y-103473678D01*
X147473249Y-103637463D01*
X147612537Y-103776751D01*
X147776322Y-103886189D01*
X147958311Y-103961571D01*
X148151509Y-104000000D01*
X148348491Y-104000000D01*
X148541689Y-103961571D01*
X148723678Y-103886189D01*
X148887463Y-103776751D01*
X149026751Y-103637463D01*
X149136189Y-103473678D01*
X149159588Y-103417187D01*
X149223249Y-103512461D01*
X149362537Y-103651749D01*
X149526322Y-103761187D01*
X149708311Y-103836569D01*
X149901509Y-103874998D01*
X150098491Y-103874998D01*
X150291689Y-103836569D01*
X150473678Y-103761187D01*
X150637463Y-103651749D01*
X150776751Y-103512461D01*
X150886189Y-103348676D01*
X150961571Y-103166687D01*
X151000000Y-102973489D01*
X151000000Y-102776507D01*
X150961571Y-102583309D01*
X150886189Y-102401320D01*
X150785079Y-102249999D01*
X150886189Y-102098678D01*
X150961571Y-101916689D01*
X151000000Y-101723491D01*
X151000000Y-101526509D01*
X150961571Y-101333311D01*
X150886189Y-101151322D01*
X150776751Y-100987537D01*
X150653312Y-100864098D01*
X150791689Y-100836573D01*
X150973678Y-100761191D01*
X151137463Y-100651753D01*
X151276751Y-100512465D01*
X151386189Y-100348680D01*
X151461571Y-100166691D01*
X151500000Y-99973493D01*
X151500000Y-99776511D01*
X151461571Y-99583313D01*
X151386189Y-99401324D01*
X151276751Y-99237539D01*
X151137463Y-99098251D01*
X150973678Y-98988813D01*
X150791689Y-98913431D01*
X150598491Y-98875002D01*
X150401509Y-98875002D01*
X150208311Y-98913431D01*
X150026322Y-98988813D01*
X149862537Y-99098251D01*
X149723249Y-99237539D01*
X149613811Y-99401324D01*
X149538429Y-99583313D01*
X149500000Y-99776511D01*
X149500000Y-99973493D01*
X149538429Y-100166691D01*
X149613811Y-100348680D01*
X149723249Y-100512465D01*
X149846688Y-100635904D01*
X149708311Y-100663429D01*
X149526322Y-100738811D01*
X149362537Y-100848249D01*
X149223249Y-100987537D01*
X149113811Y-101151322D01*
X149038429Y-101333311D01*
X149000000Y-101526509D01*
X149000000Y-101723491D01*
X149038429Y-101916689D01*
X149113811Y-102098678D01*
X149214921Y-102249999D01*
X149113811Y-102401320D01*
X149090412Y-102457811D01*
X149026751Y-102362537D01*
X148887463Y-102223249D01*
X148723678Y-102113811D01*
X148541689Y-102038429D01*
X148348491Y-102000000D01*
X148151509Y-102000000D01*
X148120937Y-102006081D01*
X148086571Y-101833311D01*
X148011189Y-101651322D01*
X147901751Y-101487537D01*
X147762463Y-101348249D01*
X147598678Y-101238811D01*
X147416689Y-101163429D01*
X147223491Y-101125000D01*
X147026509Y-101125000D01*
X146833311Y-101163429D01*
X146651322Y-101238811D01*
X146487537Y-101348249D01*
X146348249Y-101487537D01*
X146238811Y-101651322D01*
X146163429Y-101833311D01*
X146125000Y-102026509D01*
X146125000Y-102030147D01*
X145973491Y-102000010D01*
X145776509Y-102000010D01*
X145583311Y-102038439D01*
X145401322Y-102113821D01*
X145237537Y-102223259D01*
X145098249Y-102362547D01*
X144988811Y-102526332D01*
X144913429Y-102708321D01*
X144875000Y-102901519D01*
X122579243Y-102901519D01*
X122614855Y-102834895D01*
X122689190Y-102589844D01*
X122708000Y-102398863D01*
X122708000Y-101771136D01*
X122689190Y-101580155D01*
X122641673Y-101423509D01*
X135730000Y-101423509D01*
X135730000Y-101620491D01*
X135768429Y-101813689D01*
X135843811Y-101995678D01*
X135953249Y-102159463D01*
X136092537Y-102298751D01*
X136256322Y-102408189D01*
X136438311Y-102483571D01*
X136631509Y-102522000D01*
X136828491Y-102522000D01*
X137021689Y-102483571D01*
X137203678Y-102408189D01*
X137367463Y-102298751D01*
X137506751Y-102159463D01*
X137616189Y-101995678D01*
X137691571Y-101813689D01*
X137730000Y-101620491D01*
X137730000Y-101423509D01*
X137691571Y-101230311D01*
X137616189Y-101048322D01*
X137506751Y-100884537D01*
X137367463Y-100745249D01*
X137203678Y-100635811D01*
X137021689Y-100560429D01*
X136828491Y-100522000D01*
X136631509Y-100522000D01*
X136438311Y-100560429D01*
X136256322Y-100635811D01*
X136092537Y-100745249D01*
X135953249Y-100884537D01*
X135843811Y-101048322D01*
X135768429Y-101230311D01*
X135730000Y-101423509D01*
X122641673Y-101423509D01*
X122614855Y-101335104D01*
X122494140Y-101109264D01*
X122331687Y-100911313D01*
X122133735Y-100748860D01*
X121907895Y-100628145D01*
X121662844Y-100553810D01*
X121408000Y-100528710D01*
X121153155Y-100553810D01*
X120908104Y-100628145D01*
X120682264Y-100748860D01*
X120484313Y-100911313D01*
X120321860Y-101109265D01*
X120201145Y-101335105D01*
X120126810Y-101580156D01*
X120108000Y-101771137D01*
X120013318Y-101771137D01*
X119991026Y-101586126D01*
X119920894Y-101371817D01*
X119810300Y-101175308D01*
X119663494Y-101004150D01*
X119486118Y-100864921D01*
X119284988Y-100762972D01*
X119072549Y-100703338D01*
X118893000Y-100785298D01*
X118843000Y-100785298D01*
X118663451Y-100703338D01*
X118451012Y-100762972D01*
X118249882Y-100864921D01*
X118072506Y-101004150D01*
X118025000Y-101059536D01*
X118025000Y-99400000D01*
X120500000Y-99400000D01*
X120529264Y-99397118D01*
X120557403Y-99388582D01*
X120583336Y-99374720D01*
X120596197Y-99365092D01*
X121449948Y-98651509D01*
X127250000Y-98651509D01*
X127250000Y-98848491D01*
X127288429Y-99041689D01*
X127363811Y-99223678D01*
X127473249Y-99387463D01*
X127612537Y-99526751D01*
X127776322Y-99636189D01*
X127958311Y-99711571D01*
X128151509Y-99750000D01*
X128348491Y-99750000D01*
X128541689Y-99711571D01*
X128723678Y-99636189D01*
X128887463Y-99526751D01*
X128932705Y-99481509D01*
X129302000Y-99481509D01*
X129302000Y-99678491D01*
X129340429Y-99871689D01*
X129415811Y-100053678D01*
X129525249Y-100217463D01*
X129664537Y-100356751D01*
X129828322Y-100466189D01*
X130010311Y-100541571D01*
X130203509Y-100580000D01*
X130400491Y-100580000D01*
X130593689Y-100541571D01*
X130775678Y-100466189D01*
X130937000Y-100358397D01*
X131098322Y-100466189D01*
X131280311Y-100541571D01*
X131473509Y-100580000D01*
X131670491Y-100580000D01*
X131863689Y-100541571D01*
X132045678Y-100466189D01*
X132209463Y-100356751D01*
X132348751Y-100217463D01*
X132458189Y-100053678D01*
X132533571Y-99871689D01*
X132572000Y-99678491D01*
X132572000Y-99481509D01*
X132569614Y-99469509D01*
X134382000Y-99469509D01*
X134382000Y-99666491D01*
X134420429Y-99859689D01*
X134495811Y-100041678D01*
X134605249Y-100205463D01*
X134744537Y-100344751D01*
X134908322Y-100454189D01*
X135090311Y-100529571D01*
X135283509Y-100568000D01*
X135480491Y-100568000D01*
X135673689Y-100529571D01*
X135855678Y-100454189D01*
X136019463Y-100344751D01*
X136158751Y-100205463D01*
X136268189Y-100041678D01*
X136343571Y-99859689D01*
X136370658Y-99723509D01*
X139773000Y-99723509D01*
X139773000Y-99920491D01*
X139811429Y-100113689D01*
X139886811Y-100295678D01*
X139996249Y-100459463D01*
X140135537Y-100598751D01*
X140299322Y-100708189D01*
X140481311Y-100783571D01*
X140558146Y-100798854D01*
X140573429Y-100875689D01*
X140648811Y-101057678D01*
X140758249Y-101221463D01*
X140897537Y-101360751D01*
X141061322Y-101470189D01*
X141243311Y-101545571D01*
X141436509Y-101584000D01*
X141633491Y-101584000D01*
X141826689Y-101545571D01*
X142008678Y-101470189D01*
X142172463Y-101360751D01*
X142311751Y-101221463D01*
X142421189Y-101057678D01*
X142496571Y-100875689D01*
X142535000Y-100682491D01*
X142535000Y-100485509D01*
X142496571Y-100292311D01*
X142421189Y-100110322D01*
X142311751Y-99946537D01*
X142172463Y-99807249D01*
X142008678Y-99697811D01*
X141826689Y-99622429D01*
X141749854Y-99607146D01*
X141734571Y-99530311D01*
X141659189Y-99348322D01*
X141549751Y-99184537D01*
X141410463Y-99045249D01*
X141246678Y-98935811D01*
X141064689Y-98860429D01*
X140871491Y-98822000D01*
X140674509Y-98822000D01*
X140481311Y-98860429D01*
X140299322Y-98935811D01*
X140135537Y-99045249D01*
X139996249Y-99184537D01*
X139886811Y-99348322D01*
X139811429Y-99530311D01*
X139773000Y-99723509D01*
X136370658Y-99723509D01*
X136382000Y-99666491D01*
X136382000Y-99469509D01*
X136343571Y-99276311D01*
X136268189Y-99094322D01*
X136158751Y-98930537D01*
X136019463Y-98791249D01*
X135855678Y-98681811D01*
X135673689Y-98606429D01*
X135480491Y-98568000D01*
X135283509Y-98568000D01*
X135090311Y-98606429D01*
X134908322Y-98681811D01*
X134744537Y-98791249D01*
X134605249Y-98930537D01*
X134495811Y-99094322D01*
X134420429Y-99276311D01*
X134382000Y-99469509D01*
X132569614Y-99469509D01*
X132533571Y-99288311D01*
X132458189Y-99106322D01*
X132348751Y-98942537D01*
X132209463Y-98803249D01*
X132045678Y-98693811D01*
X131863689Y-98618429D01*
X131670491Y-98580000D01*
X131473509Y-98580000D01*
X131280311Y-98618429D01*
X131098322Y-98693811D01*
X130937000Y-98801603D01*
X130775678Y-98693811D01*
X130593689Y-98618429D01*
X130400491Y-98580000D01*
X130203509Y-98580000D01*
X130010311Y-98618429D01*
X129828322Y-98693811D01*
X129664537Y-98803249D01*
X129525249Y-98942537D01*
X129415811Y-99106322D01*
X129340429Y-99288311D01*
X129302000Y-99481509D01*
X128932705Y-99481509D01*
X129026751Y-99387463D01*
X129136189Y-99223678D01*
X129211571Y-99041689D01*
X129250000Y-98848491D01*
X129250000Y-98750000D01*
X129348491Y-98750000D01*
X129541689Y-98711571D01*
X129723678Y-98636189D01*
X129887463Y-98526751D01*
X130026751Y-98387463D01*
X130136189Y-98223678D01*
X130211571Y-98041689D01*
X130250000Y-97848491D01*
X130250000Y-97651509D01*
X130211571Y-97458311D01*
X130136189Y-97276322D01*
X130026751Y-97112537D01*
X129887463Y-96973249D01*
X129723678Y-96863811D01*
X129541689Y-96788429D01*
X129348491Y-96750000D01*
X129151509Y-96750000D01*
X128958311Y-96788429D01*
X128776322Y-96863811D01*
X128612537Y-96973249D01*
X128473249Y-97112537D01*
X128363811Y-97276322D01*
X128288429Y-97458311D01*
X128250000Y-97651509D01*
X128250000Y-97750000D01*
X128151509Y-97750000D01*
X127958311Y-97788429D01*
X127776322Y-97863811D01*
X127612537Y-97973249D01*
X127473249Y-98112537D01*
X127363811Y-98276322D01*
X127288429Y-98458311D01*
X127250000Y-98651509D01*
X121449948Y-98651509D01*
X124141912Y-96401509D01*
X142625000Y-96401509D01*
X142625000Y-96598491D01*
X142663429Y-96791689D01*
X142738811Y-96973678D01*
X142839921Y-97125000D01*
X142738811Y-97276322D01*
X142663429Y-97458311D01*
X142625000Y-97651509D01*
X142625000Y-97848491D01*
X142663429Y-98041689D01*
X142738811Y-98223678D01*
X142848249Y-98387463D01*
X142987537Y-98526751D01*
X143151322Y-98636189D01*
X143333311Y-98711571D01*
X143526509Y-98750000D01*
X143723491Y-98750000D01*
X143916689Y-98711571D01*
X144098678Y-98636189D01*
X144262463Y-98526751D01*
X144401751Y-98387463D01*
X144511189Y-98223678D01*
X144586571Y-98041689D01*
X144625000Y-97848491D01*
X144625000Y-97651509D01*
X144586571Y-97458311D01*
X144564401Y-97404788D01*
X144706311Y-97463569D01*
X144899509Y-97501998D01*
X145096491Y-97501998D01*
X145289689Y-97463569D01*
X145471678Y-97388187D01*
X145635463Y-97278749D01*
X145774751Y-97139461D01*
X145884189Y-96975676D01*
X145959571Y-96793687D01*
X145987851Y-96651509D01*
X150000000Y-96651509D01*
X150000000Y-96848491D01*
X150038429Y-97041689D01*
X150113811Y-97223678D01*
X150223249Y-97387463D01*
X150362537Y-97526751D01*
X150526322Y-97636189D01*
X150708311Y-97711571D01*
X150901509Y-97750000D01*
X151098491Y-97750000D01*
X151291689Y-97711571D01*
X151473678Y-97636189D01*
X151637463Y-97526751D01*
X151776751Y-97387463D01*
X151886189Y-97223678D01*
X151961571Y-97041689D01*
X152000000Y-96848491D01*
X152000000Y-96651509D01*
X151961571Y-96458311D01*
X151938043Y-96401509D01*
X156000012Y-96401509D01*
X156000012Y-96598491D01*
X156038441Y-96791689D01*
X156113823Y-96973678D01*
X156223261Y-97137463D01*
X156362549Y-97276751D01*
X156526334Y-97386189D01*
X156708323Y-97461571D01*
X156901521Y-97500000D01*
X157098503Y-97500000D01*
X157291701Y-97461571D01*
X157473690Y-97386189D01*
X157637475Y-97276751D01*
X157776763Y-97137463D01*
X157886201Y-96973678D01*
X157895456Y-96951333D01*
X157913429Y-97041689D01*
X157988811Y-97223678D01*
X158098249Y-97387463D01*
X158148286Y-97437500D01*
X158098249Y-97487537D01*
X157988811Y-97651322D01*
X157913429Y-97833311D01*
X157875000Y-98026509D01*
X157875000Y-98223491D01*
X157913429Y-98416689D01*
X157988811Y-98598678D01*
X158098249Y-98762463D01*
X158237537Y-98901751D01*
X158401322Y-99011189D01*
X158583311Y-99086571D01*
X158776509Y-99125000D01*
X158973491Y-99125000D01*
X159166689Y-99086571D01*
X159348678Y-99011189D01*
X159512463Y-98901751D01*
X159562500Y-98851714D01*
X159612537Y-98901751D01*
X159776322Y-99011189D01*
X159958311Y-99086571D01*
X160151509Y-99125000D01*
X160348491Y-99125000D01*
X160541689Y-99086571D01*
X160723678Y-99011189D01*
X160887463Y-98901751D01*
X161026751Y-98762463D01*
X161136189Y-98598678D01*
X161211571Y-98416689D01*
X161250000Y-98223491D01*
X161250000Y-98026509D01*
X161211571Y-97833311D01*
X161136189Y-97651322D01*
X161026751Y-97487537D01*
X160887463Y-97348249D01*
X160723678Y-97238811D01*
X160541689Y-97163429D01*
X160348491Y-97125000D01*
X160151509Y-97125000D01*
X159958311Y-97163429D01*
X159776322Y-97238811D01*
X159730716Y-97269284D01*
X159761189Y-97223678D01*
X159836571Y-97041689D01*
X159875000Y-96848491D01*
X159875000Y-96651509D01*
X159836571Y-96458311D01*
X159761189Y-96276322D01*
X159651751Y-96112537D01*
X159512463Y-95973249D01*
X159348678Y-95863811D01*
X159166689Y-95788429D01*
X158973491Y-95750000D01*
X158776509Y-95750000D01*
X158583311Y-95788429D01*
X158401322Y-95863811D01*
X158237537Y-95973249D01*
X158098249Y-96112537D01*
X157988811Y-96276322D01*
X157979556Y-96298667D01*
X157961583Y-96208311D01*
X157886201Y-96026322D01*
X157776763Y-95862537D01*
X157637475Y-95723249D01*
X157473690Y-95613811D01*
X157291701Y-95538429D01*
X157098503Y-95500000D01*
X156901521Y-95500000D01*
X156708323Y-95538429D01*
X156526334Y-95613811D01*
X156362549Y-95723249D01*
X156223261Y-95862537D01*
X156113823Y-96026322D01*
X156038441Y-96208311D01*
X156000012Y-96401509D01*
X151938043Y-96401509D01*
X151886189Y-96276322D01*
X151776751Y-96112537D01*
X151637463Y-95973249D01*
X151473678Y-95863811D01*
X151291689Y-95788429D01*
X151098491Y-95750000D01*
X150901509Y-95750000D01*
X150708311Y-95788429D01*
X150526322Y-95863811D01*
X150362537Y-95973249D01*
X150223249Y-96112537D01*
X150113811Y-96276322D01*
X150038429Y-96458311D01*
X150000000Y-96651509D01*
X145987851Y-96651509D01*
X145998000Y-96600489D01*
X145998000Y-96403507D01*
X145959571Y-96210309D01*
X145884189Y-96028320D01*
X145774751Y-95864535D01*
X145635463Y-95725247D01*
X145471678Y-95615809D01*
X145289689Y-95540427D01*
X145096491Y-95501998D01*
X144899509Y-95501998D01*
X144706311Y-95540427D01*
X144524322Y-95615809D01*
X144360537Y-95725247D01*
X144312499Y-95773285D01*
X144262463Y-95723249D01*
X144098678Y-95613811D01*
X143916689Y-95538429D01*
X143723491Y-95500000D01*
X143526509Y-95500000D01*
X143333311Y-95538429D01*
X143151322Y-95613811D01*
X142987537Y-95723249D01*
X142848249Y-95862537D01*
X142738811Y-96026322D01*
X142663429Y-96208311D01*
X142625000Y-96401509D01*
X124141912Y-96401509D01*
X128929432Y-92400000D01*
X133698217Y-92400000D01*
X133613811Y-92526322D01*
X133538429Y-92708311D01*
X133500000Y-92901509D01*
X133500000Y-93098491D01*
X133538429Y-93291689D01*
X133613811Y-93473678D01*
X133714921Y-93625000D01*
X133613811Y-93776322D01*
X133538429Y-93958311D01*
X133500000Y-94151509D01*
X133500000Y-94348491D01*
X133538429Y-94541689D01*
X133613811Y-94723678D01*
X133723249Y-94887463D01*
X133862537Y-95026751D01*
X134026322Y-95136189D01*
X134208311Y-95211571D01*
X134401509Y-95250000D01*
X134598491Y-95250000D01*
X134791689Y-95211571D01*
X134973678Y-95136189D01*
X135137463Y-95026751D01*
X135276751Y-94887463D01*
X135386189Y-94723678D01*
X135461571Y-94541689D01*
X135500000Y-94348491D01*
X135500000Y-94151509D01*
X135461571Y-93958311D01*
X135386189Y-93776322D01*
X135285079Y-93625000D01*
X135316648Y-93577754D01*
X135373249Y-93662463D01*
X135512537Y-93801751D01*
X135676322Y-93911189D01*
X135858311Y-93986571D01*
X136051509Y-94025000D01*
X136248491Y-94025000D01*
X136441689Y-93986571D01*
X136623678Y-93911189D01*
X136787463Y-93801751D01*
X136926751Y-93662463D01*
X137036189Y-93498678D01*
X137111571Y-93316689D01*
X137150000Y-93123491D01*
X137150000Y-92926509D01*
X137111571Y-92733311D01*
X137036189Y-92551322D01*
X136926751Y-92387537D01*
X136787463Y-92248249D01*
X136623678Y-92138811D01*
X136441689Y-92063429D01*
X136248491Y-92025000D01*
X136051509Y-92025000D01*
X135858311Y-92063429D01*
X135713877Y-92123255D01*
X135731066Y-92106066D01*
X135749720Y-92083336D01*
X135763582Y-92057403D01*
X135772118Y-92029264D01*
X135775000Y-92000000D01*
X135775000Y-90526509D01*
X143124996Y-90526509D01*
X143124996Y-90723491D01*
X143163425Y-90916689D01*
X143238807Y-91098678D01*
X143348245Y-91262463D01*
X143460784Y-91375002D01*
X143348249Y-91487537D01*
X143238811Y-91651322D01*
X143163429Y-91833311D01*
X143125000Y-92026509D01*
X143125000Y-92223491D01*
X143163429Y-92416689D01*
X143238811Y-92598678D01*
X143348249Y-92762463D01*
X143487537Y-92901751D01*
X143651322Y-93011189D01*
X143833311Y-93086571D01*
X144026509Y-93125000D01*
X144223491Y-93125000D01*
X144416689Y-93086571D01*
X144598678Y-93011189D01*
X144762463Y-92901751D01*
X144901751Y-92762463D01*
X145011189Y-92598678D01*
X145086571Y-92416689D01*
X145125000Y-92223491D01*
X145125000Y-92026509D01*
X145086571Y-91833311D01*
X145011189Y-91651322D01*
X144901751Y-91487537D01*
X144789212Y-91374998D01*
X144901747Y-91262463D01*
X145011185Y-91098678D01*
X145086567Y-90916689D01*
X145124996Y-90723491D01*
X145124996Y-90526509D01*
X145086567Y-90333311D01*
X145011185Y-90151322D01*
X144901747Y-89987537D01*
X144762459Y-89848249D01*
X144598674Y-89738811D01*
X144416685Y-89663429D01*
X144223487Y-89625000D01*
X144026505Y-89625000D01*
X143833307Y-89663429D01*
X143651318Y-89738811D01*
X143487533Y-89848249D01*
X143348245Y-89987537D01*
X143238807Y-90151322D01*
X143163425Y-90333311D01*
X143124996Y-90526509D01*
X135775000Y-90526509D01*
X135775000Y-89026509D01*
X146125000Y-89026509D01*
X146125000Y-89223491D01*
X146163429Y-89416689D01*
X146238811Y-89598678D01*
X146348249Y-89762463D01*
X146487537Y-89901751D01*
X146651322Y-90011189D01*
X146833311Y-90086571D01*
X147026509Y-90125000D01*
X147223491Y-90125000D01*
X147416689Y-90086571D01*
X147598678Y-90011189D01*
X147762463Y-89901751D01*
X147901751Y-89762463D01*
X148011189Y-89598678D01*
X148086571Y-89416689D01*
X148125000Y-89223491D01*
X148125000Y-89026509D01*
X148086571Y-88833311D01*
X148011189Y-88651322D01*
X147901751Y-88487537D01*
X147762463Y-88348249D01*
X147655097Y-88276509D01*
X149999992Y-88276509D01*
X149999992Y-88473491D01*
X150038421Y-88666689D01*
X150113803Y-88848678D01*
X150223241Y-89012463D01*
X150362529Y-89151751D01*
X150526314Y-89261189D01*
X150708303Y-89336571D01*
X150901501Y-89375000D01*
X151098483Y-89375000D01*
X151291681Y-89336571D01*
X151473670Y-89261189D01*
X151637455Y-89151751D01*
X151776743Y-89012463D01*
X151886181Y-88848678D01*
X151961563Y-88666689D01*
X151999992Y-88473491D01*
X151999992Y-88342409D01*
X152096249Y-88486467D01*
X152235537Y-88625755D01*
X152399322Y-88735193D01*
X152581311Y-88810575D01*
X152774509Y-88849004D01*
X152971491Y-88849004D01*
X153164689Y-88810575D01*
X153346678Y-88735193D01*
X153510463Y-88625755D01*
X153649751Y-88486467D01*
X153759189Y-88322682D01*
X153834571Y-88140693D01*
X153873000Y-87947495D01*
X153873000Y-87750513D01*
X153834571Y-87557315D01*
X153759189Y-87375326D01*
X153649751Y-87211541D01*
X153510463Y-87072253D01*
X153346678Y-86962815D01*
X153263856Y-86928509D01*
X161348000Y-86928509D01*
X161348000Y-87125491D01*
X161386429Y-87318689D01*
X161461811Y-87500678D01*
X161571249Y-87664463D01*
X161710537Y-87803751D01*
X161874322Y-87913189D01*
X162056311Y-87988571D01*
X162249509Y-88027000D01*
X162446491Y-88027000D01*
X162639689Y-87988571D01*
X162821678Y-87913189D01*
X162985463Y-87803751D01*
X163124751Y-87664463D01*
X163234189Y-87500678D01*
X163309571Y-87318689D01*
X163348000Y-87125491D01*
X163348000Y-86928509D01*
X163309571Y-86735311D01*
X163234189Y-86553322D01*
X163124751Y-86389537D01*
X162985463Y-86250249D01*
X162821678Y-86140811D01*
X162639689Y-86065429D01*
X162446491Y-86027000D01*
X162249509Y-86027000D01*
X162056311Y-86065429D01*
X161874322Y-86140811D01*
X161710537Y-86250249D01*
X161571249Y-86389537D01*
X161461811Y-86553322D01*
X161386429Y-86735311D01*
X161348000Y-86928509D01*
X153263856Y-86928509D01*
X153164689Y-86887433D01*
X152971491Y-86849004D01*
X152774509Y-86849004D01*
X152581311Y-86887433D01*
X152399322Y-86962815D01*
X152235537Y-87072253D01*
X152096249Y-87211541D01*
X151986811Y-87375326D01*
X151911429Y-87557315D01*
X151873000Y-87750513D01*
X151873000Y-87881595D01*
X151776743Y-87737537D01*
X151637455Y-87598249D01*
X151473670Y-87488811D01*
X151291681Y-87413429D01*
X151098483Y-87375000D01*
X150901501Y-87375000D01*
X150708303Y-87413429D01*
X150526314Y-87488811D01*
X150362529Y-87598249D01*
X150223241Y-87737537D01*
X150113803Y-87901322D01*
X150038421Y-88083311D01*
X149999992Y-88276509D01*
X147655097Y-88276509D01*
X147598678Y-88238811D01*
X147416689Y-88163429D01*
X147223491Y-88125000D01*
X147026509Y-88125000D01*
X146833311Y-88163429D01*
X146651322Y-88238811D01*
X146487537Y-88348249D01*
X146348249Y-88487537D01*
X146238811Y-88651322D01*
X146163429Y-88833311D01*
X146125000Y-89026509D01*
X135775000Y-89026509D01*
X135775000Y-85526509D01*
X153525000Y-85526509D01*
X153525000Y-85723491D01*
X153563429Y-85916689D01*
X153638811Y-86098678D01*
X153748249Y-86262463D01*
X153887537Y-86401751D01*
X154051322Y-86511189D01*
X154233311Y-86586571D01*
X154426509Y-86625000D01*
X154623491Y-86625000D01*
X154816689Y-86586571D01*
X154998678Y-86511189D01*
X155162463Y-86401751D01*
X155301751Y-86262463D01*
X155406016Y-86106420D01*
X155413429Y-86143689D01*
X155488811Y-86325678D01*
X155598249Y-86489463D01*
X155737537Y-86628751D01*
X155901322Y-86738189D01*
X156083311Y-86813571D01*
X156276509Y-86852000D01*
X156473491Y-86852000D01*
X156666689Y-86813571D01*
X156848678Y-86738189D01*
X157012463Y-86628751D01*
X157151751Y-86489463D01*
X157261189Y-86325678D01*
X157336571Y-86143689D01*
X157375000Y-85950491D01*
X157375000Y-85753509D01*
X157336571Y-85560311D01*
X157261189Y-85378322D01*
X157170950Y-85243270D01*
X157194757Y-85219463D01*
X157304195Y-85055678D01*
X157379577Y-84873689D01*
X157418006Y-84680491D01*
X157418006Y-84483509D01*
X157379577Y-84290311D01*
X157304195Y-84108322D01*
X157194757Y-83944537D01*
X157055469Y-83805249D01*
X156891684Y-83695811D01*
X156709695Y-83620429D01*
X156516497Y-83582000D01*
X156319515Y-83582000D01*
X156126317Y-83620429D01*
X155944328Y-83695811D01*
X155780543Y-83805249D01*
X155641255Y-83944537D01*
X155531817Y-84108322D01*
X155456435Y-84290311D01*
X155418006Y-84483509D01*
X155418006Y-84680491D01*
X155456435Y-84873689D01*
X155531817Y-85055678D01*
X155622056Y-85190730D01*
X155598249Y-85214537D01*
X155493984Y-85370580D01*
X155486571Y-85333311D01*
X155411189Y-85151322D01*
X155301751Y-84987537D01*
X155162463Y-84848249D01*
X154998678Y-84738811D01*
X154816689Y-84663429D01*
X154623491Y-84625000D01*
X154426509Y-84625000D01*
X154233311Y-84663429D01*
X154051322Y-84738811D01*
X153887537Y-84848249D01*
X153748249Y-84987537D01*
X153638811Y-85151322D01*
X153563429Y-85333311D01*
X153525000Y-85526509D01*
X135775000Y-85526509D01*
X135775000Y-82776509D01*
X151375000Y-82776509D01*
X151375000Y-82973491D01*
X151413429Y-83166689D01*
X151488811Y-83348678D01*
X151598249Y-83512463D01*
X151737537Y-83651751D01*
X151901322Y-83761189D01*
X152083311Y-83836571D01*
X152276509Y-83875000D01*
X152473491Y-83875000D01*
X152666689Y-83836571D01*
X152848678Y-83761189D01*
X153012463Y-83651751D01*
X153151751Y-83512463D01*
X153261189Y-83348678D01*
X153336571Y-83166689D01*
X153375000Y-82973491D01*
X153375000Y-82776509D01*
X153336571Y-82583311D01*
X153261189Y-82401322D01*
X153151751Y-82237537D01*
X153012463Y-82098249D01*
X152848678Y-81988811D01*
X152666689Y-81913429D01*
X152473491Y-81875000D01*
X152276509Y-81875000D01*
X152083311Y-81913429D01*
X151901322Y-81988811D01*
X151737537Y-82098249D01*
X151598249Y-82237537D01*
X151488811Y-82401322D01*
X151413429Y-82583311D01*
X151375000Y-82776509D01*
X135775000Y-82776509D01*
X135775000Y-80648729D01*
X147180402Y-80551662D01*
X147113811Y-80651322D01*
X147038429Y-80833311D01*
X147000000Y-81026509D01*
X147000000Y-81223491D01*
X147038429Y-81416689D01*
X147113811Y-81598678D01*
X147223249Y-81762463D01*
X147362537Y-81901751D01*
X147526322Y-82011189D01*
X147708311Y-82086571D01*
X147901509Y-82125000D01*
X148098491Y-82125000D01*
X148291689Y-82086571D01*
X148473678Y-82011189D01*
X148637463Y-81901751D01*
X148687500Y-81851714D01*
X148737537Y-81901751D01*
X148901322Y-82011189D01*
X149083311Y-82086571D01*
X149276509Y-82125000D01*
X149473491Y-82125000D01*
X149666689Y-82086571D01*
X149848678Y-82011189D01*
X150012463Y-81901751D01*
X150151751Y-81762463D01*
X150261189Y-81598678D01*
X150336571Y-81416689D01*
X150375000Y-81223491D01*
X150375000Y-81026509D01*
X150336571Y-80833311D01*
X150261189Y-80651322D01*
X150177554Y-80526154D01*
X155375139Y-80481919D01*
X155337030Y-80673509D01*
X155337030Y-80870491D01*
X155371145Y-81042000D01*
X155349509Y-81042000D01*
X155156311Y-81080429D01*
X154974322Y-81155811D01*
X154810537Y-81265249D01*
X154671249Y-81404537D01*
X154561811Y-81568322D01*
X154486429Y-81750311D01*
X154448000Y-81943509D01*
X154448000Y-82140491D01*
X154486429Y-82333689D01*
X154561811Y-82515678D01*
X154671249Y-82679463D01*
X154810537Y-82818751D01*
X154974322Y-82928189D01*
X155156311Y-83003571D01*
X155349509Y-83042000D01*
X155546491Y-83042000D01*
X155739689Y-83003571D01*
X155921678Y-82928189D01*
X156085463Y-82818751D01*
X156224751Y-82679463D01*
X156334189Y-82515678D01*
X156409571Y-82333689D01*
X156448000Y-82140491D01*
X156448000Y-81943509D01*
X156413885Y-81772000D01*
X156435521Y-81772000D01*
X156628719Y-81733571D01*
X156810708Y-81658189D01*
X156974493Y-81548751D01*
X157113781Y-81409463D01*
X157223219Y-81245678D01*
X157298601Y-81063689D01*
X157337030Y-80870491D01*
X157337030Y-80673509D01*
X157298601Y-80480311D01*
X157292508Y-80465601D01*
X164850000Y-80401282D01*
X164850000Y-81309665D01*
X164788429Y-81458311D01*
X164750000Y-81651509D01*
X164750000Y-81848491D01*
X164788429Y-82041689D01*
X164850000Y-82190335D01*
X164850000Y-86312868D01*
X162312868Y-88850000D01*
X158750000Y-88850000D01*
X158720736Y-88852882D01*
X158692597Y-88861418D01*
X158666664Y-88875280D01*
X158642210Y-88895687D01*
X154892210Y-92770687D01*
X154873930Y-92793720D01*
X154860496Y-92819877D01*
X154852422Y-92848152D01*
X154850020Y-92877459D01*
X154853382Y-92906671D01*
X154862378Y-92934666D01*
X154884767Y-92971028D01*
X155509767Y-93721028D01*
X155530715Y-93741663D01*
X155555287Y-93757816D01*
X155582537Y-93768864D01*
X155611420Y-93774384D01*
X155640824Y-93774163D01*
X155669620Y-93768210D01*
X155696702Y-93756753D01*
X155731066Y-93731066D01*
X159562132Y-89900000D01*
X162750000Y-89900000D01*
X162779264Y-89897118D01*
X162807403Y-89888582D01*
X162833336Y-89874720D01*
X162856066Y-89856066D01*
X166231066Y-86481066D01*
X166249720Y-86458336D01*
X166263582Y-86432403D01*
X166272118Y-86404264D01*
X166274961Y-86371592D01*
X166196096Y-82901509D01*
X168500000Y-82901509D01*
X168500000Y-83098491D01*
X168538429Y-83291689D01*
X168613811Y-83473678D01*
X168723249Y-83637463D01*
X168862537Y-83776751D01*
X169026322Y-83886189D01*
X169208311Y-83961571D01*
X169401509Y-84000000D01*
X169598491Y-84000000D01*
X169791689Y-83961571D01*
X169973678Y-83886189D01*
X170137463Y-83776751D01*
X170187500Y-83726714D01*
X170237537Y-83776751D01*
X170401322Y-83886189D01*
X170583311Y-83961571D01*
X170776509Y-84000000D01*
X170973491Y-84000000D01*
X171166689Y-83961571D01*
X171348678Y-83886189D01*
X171512463Y-83776751D01*
X171651751Y-83637463D01*
X171761189Y-83473678D01*
X171836571Y-83291689D01*
X171875000Y-83098491D01*
X171875000Y-82901509D01*
X171836571Y-82708311D01*
X171761189Y-82526322D01*
X171651751Y-82362537D01*
X171512463Y-82223249D01*
X171348678Y-82113811D01*
X171166689Y-82038429D01*
X170973491Y-82000000D01*
X170776509Y-82000000D01*
X170583311Y-82038429D01*
X170401322Y-82113811D01*
X170237537Y-82223249D01*
X170187500Y-82273286D01*
X170137463Y-82223249D01*
X169973678Y-82113811D01*
X169791689Y-82038429D01*
X169598491Y-82000000D01*
X169401509Y-82000000D01*
X169208311Y-82038429D01*
X169026322Y-82113811D01*
X168862537Y-82223249D01*
X168723249Y-82362537D01*
X168613811Y-82526322D01*
X168538429Y-82708311D01*
X168500000Y-82901509D01*
X166196096Y-82901509D01*
X166190379Y-82649982D01*
X166223678Y-82636189D01*
X166387463Y-82526751D01*
X166526751Y-82387463D01*
X166636189Y-82223678D01*
X166711571Y-82041689D01*
X166722019Y-81989161D01*
X166776509Y-82000000D01*
X166973491Y-82000000D01*
X167166689Y-81961571D01*
X167348678Y-81886189D01*
X167512463Y-81776751D01*
X167651751Y-81637463D01*
X167761189Y-81473678D01*
X167836571Y-81291689D01*
X167875000Y-81098491D01*
X167875000Y-80901509D01*
X167836571Y-80708311D01*
X167761189Y-80526322D01*
X167651751Y-80362537D01*
X167512463Y-80223249D01*
X167348678Y-80113811D01*
X167179475Y-80043725D01*
X167930488Y-79400000D01*
X168812582Y-79400000D01*
X168788429Y-79458311D01*
X168750000Y-79651509D01*
X168750000Y-79848491D01*
X168788429Y-80041689D01*
X168863811Y-80223678D01*
X168973249Y-80387463D01*
X169112537Y-80526751D01*
X169276322Y-80636189D01*
X169458311Y-80711571D01*
X169651509Y-80750000D01*
X169848491Y-80750000D01*
X170041689Y-80711571D01*
X170223678Y-80636189D01*
X170387463Y-80526751D01*
X170500000Y-80414214D01*
X170612537Y-80526751D01*
X170776322Y-80636189D01*
X170958311Y-80711571D01*
X171151509Y-80750000D01*
X171348491Y-80750000D01*
X171541689Y-80711571D01*
X171723678Y-80636189D01*
X171887463Y-80526751D01*
X172026751Y-80387463D01*
X172136189Y-80223678D01*
X172211571Y-80041689D01*
X172250000Y-79848491D01*
X172250000Y-79651509D01*
X172211571Y-79458311D01*
X172187418Y-79400000D01*
X173937868Y-79400000D01*
X174053863Y-79515995D01*
X173973486Y-79500007D01*
X173776504Y-79500007D01*
X173583306Y-79538436D01*
X173401317Y-79613818D01*
X173237532Y-79723256D01*
X173098244Y-79862544D01*
X172988806Y-80026329D01*
X172913424Y-80208318D01*
X172874995Y-80401516D01*
X172874995Y-80598498D01*
X172913424Y-80791696D01*
X172988806Y-80973685D01*
X173098244Y-81137470D01*
X173237532Y-81276758D01*
X173401317Y-81386196D01*
X173583306Y-81461578D01*
X173776504Y-81500007D01*
X173973486Y-81500007D01*
X174166684Y-81461578D01*
X174348673Y-81386196D01*
X174512458Y-81276758D01*
X174651746Y-81137470D01*
X174761184Y-80973685D01*
X174836566Y-80791696D01*
X174850000Y-80724158D01*
X174850000Y-86806010D01*
X174069512Y-87475000D01*
X167625000Y-87475000D01*
X167595736Y-87477882D01*
X167567597Y-87486418D01*
X167541664Y-87500280D01*
X167518934Y-87518934D01*
X163437868Y-91600000D01*
X161125000Y-91600000D01*
X161095736Y-91602882D01*
X161067597Y-91611418D01*
X161041664Y-91625280D01*
X161018934Y-91643934D01*
X160268934Y-92393934D01*
X160250280Y-92416664D01*
X160236418Y-92442597D01*
X160227882Y-92470736D01*
X160225000Y-92500000D01*
X160227882Y-92529264D01*
X160236418Y-92557403D01*
X160257870Y-92593704D01*
X160757870Y-93218704D01*
X160778401Y-93239755D01*
X160802645Y-93256395D01*
X160829669Y-93267986D01*
X160858435Y-93274083D01*
X160875000Y-93275000D01*
X163750000Y-93275000D01*
X163779264Y-93272118D01*
X163807403Y-93263582D01*
X163833336Y-93249720D01*
X163860449Y-93226494D01*
X168065876Y-88650000D01*
X174000000Y-88650000D01*
X174029264Y-88647118D01*
X174057403Y-88638582D01*
X174083336Y-88624720D01*
X174106066Y-88606066D01*
X175606066Y-87106066D01*
X175624720Y-87083336D01*
X175638582Y-87057403D01*
X175647118Y-87029264D01*
X175650000Y-87000000D01*
X175650000Y-79625000D01*
X175647118Y-79595736D01*
X175638582Y-79567597D01*
X175624720Y-79541664D01*
X175606066Y-79518934D01*
X174481066Y-78393934D01*
X174458336Y-78375280D01*
X174432403Y-78361418D01*
X174404264Y-78352882D01*
X174375000Y-78350000D01*
X167250000Y-78350000D01*
X167220736Y-78352882D01*
X167192597Y-78361418D01*
X167166664Y-78375280D01*
X167143934Y-78393934D01*
X166438112Y-79099756D01*
X134775000Y-78975587D01*
X134775000Y-77650000D01*
X176350000Y-77650000D01*
X176350000Y-87187868D01*
G37*
X176350000Y-87187868D02*
X174268934Y-89268934D01*
X174261753Y-89277684D01*
X174261189Y-89276322D01*
X174151751Y-89112537D01*
X174012463Y-88973249D01*
X173848678Y-88863811D01*
X173666689Y-88788429D01*
X173473491Y-88750000D01*
X173276509Y-88750000D01*
X173083311Y-88788429D01*
X172901322Y-88863811D01*
X172737537Y-88973249D01*
X172598249Y-89112537D01*
X172488811Y-89276322D01*
X172413429Y-89458311D01*
X172375000Y-89651509D01*
X172375000Y-89848491D01*
X172413429Y-90041689D01*
X172488811Y-90223678D01*
X172598249Y-90387463D01*
X172648286Y-90437500D01*
X172598249Y-90487537D01*
X172488811Y-90651322D01*
X172413429Y-90833311D01*
X172375000Y-91026509D01*
X172375000Y-91223491D01*
X172413429Y-91416689D01*
X172488396Y-91597675D01*
X172487537Y-91598249D01*
X172348249Y-91737537D01*
X172238811Y-91901322D01*
X172238203Y-91902790D01*
X172098491Y-91875000D01*
X171901509Y-91875000D01*
X171708311Y-91913429D01*
X171526322Y-91988811D01*
X171362537Y-92098249D01*
X171223249Y-92237537D01*
X171113811Y-92401322D01*
X171038429Y-92583311D01*
X171000000Y-92776509D01*
X171000000Y-92973491D01*
X171038429Y-93166689D01*
X171113811Y-93348678D01*
X171149373Y-93401900D01*
X171066537Y-93457249D01*
X170927249Y-93596537D01*
X170817811Y-93760322D01*
X170742429Y-93942311D01*
X170704000Y-94135509D01*
X170704000Y-94332491D01*
X170742429Y-94525689D01*
X170817811Y-94707678D01*
X170840744Y-94742000D01*
X170817811Y-94776322D01*
X170742429Y-94958311D01*
X170704000Y-95151509D01*
X170704000Y-95348491D01*
X170742429Y-95541689D01*
X170817811Y-95723678D01*
X170927249Y-95887463D01*
X171066537Y-96026751D01*
X171230322Y-96136189D01*
X171412311Y-96211571D01*
X171605509Y-96250000D01*
X171802491Y-96250000D01*
X171995689Y-96211571D01*
X172177678Y-96136189D01*
X172341463Y-96026751D01*
X172480751Y-95887463D01*
X172590189Y-95723678D01*
X172665571Y-95541689D01*
X172704000Y-95348491D01*
X172704000Y-95151509D01*
X172665571Y-94958311D01*
X172590189Y-94776322D01*
X172567256Y-94742000D01*
X172590189Y-94707678D01*
X172665571Y-94525689D01*
X172704000Y-94332491D01*
X172704000Y-94135509D01*
X172665571Y-93942311D01*
X172590189Y-93760322D01*
X172554627Y-93707100D01*
X172637463Y-93651751D01*
X172776751Y-93512463D01*
X172886189Y-93348678D01*
X172886797Y-93347210D01*
X173026509Y-93375000D01*
X173223491Y-93375000D01*
X173416689Y-93336571D01*
X173598678Y-93261189D01*
X173762463Y-93151751D01*
X173901751Y-93012463D01*
X174011189Y-92848678D01*
X174086571Y-92666689D01*
X174125000Y-92473491D01*
X174125000Y-92276509D01*
X174086571Y-92083311D01*
X174011604Y-91902325D01*
X174012463Y-91901751D01*
X174151751Y-91762463D01*
X174225000Y-91652838D01*
X174225000Y-93125300D01*
X174223491Y-93125000D01*
X174026509Y-93125000D01*
X173833311Y-93163429D01*
X173651322Y-93238811D01*
X173487537Y-93348249D01*
X173348249Y-93487537D01*
X173238811Y-93651322D01*
X173163429Y-93833311D01*
X173125000Y-94026509D01*
X173125000Y-94223491D01*
X173163429Y-94416689D01*
X173238811Y-94598678D01*
X173348249Y-94762463D01*
X173487537Y-94901751D01*
X173651322Y-95011189D01*
X173833311Y-95086571D01*
X174026509Y-95125000D01*
X174223491Y-95125000D01*
X174416689Y-95086571D01*
X174598678Y-95011189D01*
X174762463Y-94901751D01*
X174812500Y-94851714D01*
X174862537Y-94901751D01*
X175026322Y-95011189D01*
X175208311Y-95086571D01*
X175401509Y-95125000D01*
X175598491Y-95125000D01*
X175791689Y-95086571D01*
X175973678Y-95011189D01*
X176137463Y-94901751D01*
X176276751Y-94762463D01*
X176386189Y-94598678D01*
X176461571Y-94416689D01*
X176500000Y-94223491D01*
X176500000Y-94026509D01*
X176461571Y-93833311D01*
X176386189Y-93651322D01*
X176301783Y-93525000D01*
X178725000Y-93525000D01*
X178725000Y-100597902D01*
X169877083Y-100475014D01*
X169847782Y-100477490D01*
X169819528Y-100485634D01*
X169793405Y-100499134D01*
X169770417Y-100517471D01*
X169751449Y-100539940D01*
X169737229Y-100565678D01*
X169728303Y-100593696D01*
X169725000Y-100625000D01*
X169725000Y-115125000D01*
X169727882Y-115154264D01*
X169736418Y-115182403D01*
X169750280Y-115208336D01*
X169768934Y-115231066D01*
X169791664Y-115249720D01*
X169817597Y-115263582D01*
X169845736Y-115272118D01*
X169875000Y-115275000D01*
X173350000Y-115275000D01*
X173350000Y-121350000D01*
X159468601Y-121350000D01*
X159486189Y-121323678D01*
X159561571Y-121141689D01*
X159600000Y-120948491D01*
X159600000Y-120751509D01*
X159561571Y-120558311D01*
X159486189Y-120376322D01*
X159376751Y-120212537D01*
X159237463Y-120073249D01*
X159167512Y-120026509D01*
X163898000Y-120026509D01*
X163898000Y-120223491D01*
X163936429Y-120416689D01*
X164011811Y-120598678D01*
X164121249Y-120762463D01*
X164260537Y-120901751D01*
X164424322Y-121011189D01*
X164606311Y-121086571D01*
X164799509Y-121125000D01*
X164996491Y-121125000D01*
X165189689Y-121086571D01*
X165371678Y-121011189D01*
X165511500Y-120917763D01*
X165651322Y-121011189D01*
X165833311Y-121086571D01*
X166026509Y-121125000D01*
X166223491Y-121125000D01*
X166416689Y-121086571D01*
X166598678Y-121011189D01*
X166762463Y-120901751D01*
X166901751Y-120762463D01*
X167011189Y-120598678D01*
X167086571Y-120416689D01*
X167125000Y-120223491D01*
X167125000Y-120026509D01*
X167086571Y-119833311D01*
X167011189Y-119651322D01*
X166901751Y-119487537D01*
X166762463Y-119348249D01*
X166598678Y-119238811D01*
X166416689Y-119163429D01*
X166223491Y-119125000D01*
X166026509Y-119125000D01*
X165833311Y-119163429D01*
X165651322Y-119238811D01*
X165511500Y-119332237D01*
X165371678Y-119238811D01*
X165189689Y-119163429D01*
X164996491Y-119125000D01*
X164799509Y-119125000D01*
X164606311Y-119163429D01*
X164424322Y-119238811D01*
X164260537Y-119348249D01*
X164121249Y-119487537D01*
X164011811Y-119651322D01*
X163936429Y-119833311D01*
X163898000Y-120026509D01*
X159167512Y-120026509D01*
X159073678Y-119963811D01*
X158891689Y-119888429D01*
X158698491Y-119850000D01*
X158501509Y-119850000D01*
X158308311Y-119888429D01*
X158126322Y-119963811D01*
X158000000Y-120048217D01*
X157873678Y-119963811D01*
X157691689Y-119888429D01*
X157498491Y-119850000D01*
X157301509Y-119850000D01*
X157108311Y-119888429D01*
X156926322Y-119963811D01*
X156762537Y-120073249D01*
X156650000Y-120185786D01*
X156650000Y-116401509D01*
X157875000Y-116401509D01*
X157875000Y-116598491D01*
X157913429Y-116791689D01*
X157988811Y-116973678D01*
X158098249Y-117137463D01*
X158237537Y-117276751D01*
X158401322Y-117386189D01*
X158583311Y-117461571D01*
X158776509Y-117500000D01*
X158973491Y-117500000D01*
X159166689Y-117461571D01*
X159348678Y-117386189D01*
X159512463Y-117276751D01*
X159651751Y-117137463D01*
X159761189Y-116973678D01*
X159812500Y-116849803D01*
X159863811Y-116973680D01*
X159973249Y-117137465D01*
X160112537Y-117276753D01*
X160276322Y-117386191D01*
X160458311Y-117461573D01*
X160651509Y-117500002D01*
X160848491Y-117500002D01*
X161041689Y-117461573D01*
X161223678Y-117386191D01*
X161387463Y-117276753D01*
X161526751Y-117137465D01*
X161636189Y-116973680D01*
X161711571Y-116791691D01*
X161750000Y-116598493D01*
X161750000Y-116401511D01*
X161711571Y-116208313D01*
X161636189Y-116026324D01*
X161526751Y-115862539D01*
X161387463Y-115723251D01*
X161223678Y-115613813D01*
X161041689Y-115538431D01*
X160848491Y-115500002D01*
X160651509Y-115500002D01*
X160458311Y-115538431D01*
X160276322Y-115613813D01*
X160112537Y-115723251D01*
X159973249Y-115862539D01*
X159863811Y-116026324D01*
X159812500Y-116150199D01*
X159761189Y-116026322D01*
X159651751Y-115862537D01*
X159512463Y-115723249D01*
X159348678Y-115613811D01*
X159166689Y-115538429D01*
X158973491Y-115500000D01*
X158776509Y-115500000D01*
X158583311Y-115538429D01*
X158401322Y-115613811D01*
X158237537Y-115723249D01*
X158098249Y-115862537D01*
X157988811Y-116026322D01*
X157913429Y-116208311D01*
X157875000Y-116401509D01*
X156650000Y-116401509D01*
X156650000Y-113827509D01*
X161553000Y-113827509D01*
X161553000Y-114024491D01*
X161591429Y-114217689D01*
X161654725Y-114370500D01*
X161591429Y-114523311D01*
X161553000Y-114716509D01*
X161553000Y-114913491D01*
X161591429Y-115106689D01*
X161666811Y-115288678D01*
X161776249Y-115452463D01*
X161915537Y-115591751D01*
X162079322Y-115701189D01*
X162261311Y-115776571D01*
X162454509Y-115815000D01*
X162651491Y-115815000D01*
X162844689Y-115776571D01*
X163026678Y-115701189D01*
X163190463Y-115591751D01*
X163329751Y-115452463D01*
X163439189Y-115288678D01*
X163514571Y-115106689D01*
X163553000Y-114913491D01*
X163553000Y-114716509D01*
X163514571Y-114523311D01*
X163451275Y-114370500D01*
X163514571Y-114217689D01*
X163553000Y-114024491D01*
X163553000Y-113827509D01*
X163514571Y-113634311D01*
X163439189Y-113452322D01*
X163329751Y-113288537D01*
X163190463Y-113149249D01*
X163026678Y-113039811D01*
X162844689Y-112964429D01*
X162651491Y-112926000D01*
X162454509Y-112926000D01*
X162261311Y-112964429D01*
X162079322Y-113039811D01*
X161915537Y-113149249D01*
X161776249Y-113288537D01*
X161666811Y-113452322D01*
X161591429Y-113634311D01*
X161553000Y-113827509D01*
X156650000Y-113827509D01*
X156650000Y-110518362D01*
X156754315Y-110561571D01*
X156947513Y-110600000D01*
X157144495Y-110600000D01*
X157337693Y-110561571D01*
X157519682Y-110486189D01*
X157683467Y-110376751D01*
X157822755Y-110237463D01*
X157932193Y-110073678D01*
X158007575Y-109891689D01*
X158046004Y-109698491D01*
X158046004Y-109501509D01*
X158007575Y-109308311D01*
X157932193Y-109126322D01*
X157822755Y-108962537D01*
X157683467Y-108823249D01*
X157519682Y-108713811D01*
X157337693Y-108638429D01*
X157210000Y-108613030D01*
X157210000Y-108474511D01*
X157171571Y-108281313D01*
X157096189Y-108099324D01*
X156986751Y-107935539D01*
X156847463Y-107796251D01*
X156683678Y-107686813D01*
X156650000Y-107672863D01*
X156650000Y-107124700D01*
X156651509Y-107125000D01*
X156848491Y-107125000D01*
X157041689Y-107086571D01*
X157223678Y-107011189D01*
X157387463Y-106901751D01*
X157526751Y-106762463D01*
X157636189Y-106598678D01*
X157711571Y-106416689D01*
X157750000Y-106223491D01*
X157750000Y-106026509D01*
X157711571Y-105833311D01*
X157636189Y-105651322D01*
X157576840Y-105562500D01*
X157636189Y-105473678D01*
X157711571Y-105291689D01*
X157750000Y-105098491D01*
X157750000Y-104901509D01*
X157711571Y-104708311D01*
X157636189Y-104526322D01*
X157576840Y-104437500D01*
X157636189Y-104348678D01*
X157711571Y-104166689D01*
X157750000Y-103973491D01*
X157750000Y-103776509D01*
X157711571Y-103583311D01*
X157636189Y-103401322D01*
X157526751Y-103237537D01*
X157387463Y-103098249D01*
X157223678Y-102988811D01*
X157041689Y-102913429D01*
X156848491Y-102875000D01*
X156651509Y-102875000D01*
X156458311Y-102913429D01*
X156276322Y-102988811D01*
X156112537Y-103098249D01*
X156110786Y-103100000D01*
X155902838Y-103100000D01*
X156012463Y-103026751D01*
X156151751Y-102887463D01*
X156261189Y-102723678D01*
X156336571Y-102541689D01*
X156375000Y-102348491D01*
X156375000Y-102151509D01*
X156336571Y-101958311D01*
X156261189Y-101776322D01*
X156151751Y-101612537D01*
X156012463Y-101473249D01*
X155848678Y-101363811D01*
X155666689Y-101288429D01*
X155473491Y-101250000D01*
X155276509Y-101250000D01*
X155083311Y-101288429D01*
X154901322Y-101363811D01*
X154737537Y-101473249D01*
X154598249Y-101612537D01*
X154488811Y-101776322D01*
X154413429Y-101958311D01*
X154405137Y-102000000D01*
X154401509Y-102000000D01*
X154208311Y-102038429D01*
X154026322Y-102113811D01*
X153862537Y-102223249D01*
X153723249Y-102362537D01*
X153613811Y-102526322D01*
X153538429Y-102708311D01*
X153500000Y-102901509D01*
X153500000Y-103098491D01*
X153538429Y-103291689D01*
X153613811Y-103473678D01*
X153723249Y-103637463D01*
X153862537Y-103776751D01*
X154026322Y-103886189D01*
X154208311Y-103961571D01*
X154401509Y-104000000D01*
X154598491Y-104000000D01*
X154791689Y-103961571D01*
X154973678Y-103886189D01*
X155137463Y-103776751D01*
X155276751Y-103637463D01*
X155386189Y-103473678D01*
X155461571Y-103291689D01*
X155469863Y-103250000D01*
X155473491Y-103250000D01*
X155666689Y-103211571D01*
X155743221Y-103179871D01*
X155736418Y-103192597D01*
X155727882Y-103220736D01*
X155725000Y-103250000D01*
X155725000Y-107694378D01*
X155572537Y-107796251D01*
X155433249Y-107935539D01*
X155323811Y-108099324D01*
X155248429Y-108281313D01*
X155210000Y-108474511D01*
X155210000Y-108671493D01*
X155248429Y-108864691D01*
X155323811Y-109046680D01*
X155433249Y-109210465D01*
X155572537Y-109349753D01*
X155725000Y-109451626D01*
X155725000Y-109823217D01*
X155598678Y-109738811D01*
X155416689Y-109663429D01*
X155223491Y-109625000D01*
X155026509Y-109625000D01*
X154833311Y-109663429D01*
X154651322Y-109738811D01*
X154500000Y-109839921D01*
X154348678Y-109738811D01*
X154166689Y-109663429D01*
X153973491Y-109625000D01*
X153776509Y-109625000D01*
X153583311Y-109663429D01*
X153401322Y-109738811D01*
X153237537Y-109848249D01*
X153098249Y-109987537D01*
X152988811Y-110151322D01*
X152913429Y-110333311D01*
X152875000Y-110526509D01*
X152875000Y-110723491D01*
X152913429Y-110916689D01*
X152988811Y-111098678D01*
X153098249Y-111262463D01*
X153237537Y-111401751D01*
X153401322Y-111511189D01*
X153583311Y-111586571D01*
X153776509Y-111625000D01*
X153973491Y-111625000D01*
X154166689Y-111586571D01*
X154348678Y-111511189D01*
X154500000Y-111410079D01*
X154651322Y-111511189D01*
X154833311Y-111586571D01*
X155026509Y-111625000D01*
X155223491Y-111625000D01*
X155416689Y-111586571D01*
X155598678Y-111511189D01*
X155725000Y-111426783D01*
X155725000Y-121350000D01*
X140276159Y-121350000D01*
X140319108Y-115766509D01*
X147898000Y-115766509D01*
X147898000Y-115963491D01*
X147936429Y-116156689D01*
X148011811Y-116338678D01*
X148121249Y-116502463D01*
X148260537Y-116641751D01*
X148424322Y-116751189D01*
X148606311Y-116826571D01*
X148799509Y-116865000D01*
X148996491Y-116865000D01*
X149189689Y-116826571D01*
X149371678Y-116751189D01*
X149535463Y-116641751D01*
X149674751Y-116502463D01*
X149784189Y-116338678D01*
X149859571Y-116156689D01*
X149898000Y-115963491D01*
X149898000Y-115766509D01*
X149859571Y-115573311D01*
X149784189Y-115391322D01*
X149674751Y-115227537D01*
X149535463Y-115088249D01*
X149371678Y-114978811D01*
X149189689Y-114903429D01*
X148996491Y-114865000D01*
X148799509Y-114865000D01*
X148606311Y-114903429D01*
X148424322Y-114978811D01*
X148260537Y-115088249D01*
X148121249Y-115227537D01*
X148011811Y-115391322D01*
X147936429Y-115573311D01*
X147898000Y-115766509D01*
X140319108Y-115766509D01*
X140341147Y-112901509D01*
X141125000Y-112901509D01*
X141125000Y-113098491D01*
X141163429Y-113291689D01*
X141238811Y-113473678D01*
X141348249Y-113637463D01*
X141487537Y-113776751D01*
X141651322Y-113886189D01*
X141833311Y-113961571D01*
X142026509Y-114000000D01*
X142223491Y-114000000D01*
X142416689Y-113961571D01*
X142598678Y-113886189D01*
X142687500Y-113826840D01*
X142776322Y-113886189D01*
X142958311Y-113961571D01*
X143151509Y-114000000D01*
X143348491Y-114000000D01*
X143541689Y-113961571D01*
X143723678Y-113886189D01*
X143887463Y-113776751D01*
X144026751Y-113637463D01*
X144136189Y-113473678D01*
X144211571Y-113291689D01*
X144250000Y-113098491D01*
X144250000Y-112901509D01*
X144211571Y-112708311D01*
X144136189Y-112526322D01*
X144026751Y-112362537D01*
X143887463Y-112223249D01*
X143723678Y-112113811D01*
X143541689Y-112038429D01*
X143348491Y-112000000D01*
X143151509Y-112000000D01*
X142958311Y-112038429D01*
X142776322Y-112113811D01*
X142687500Y-112173160D01*
X142598678Y-112113811D01*
X142416689Y-112038429D01*
X142223491Y-112000000D01*
X142026509Y-112000000D01*
X141833311Y-112038429D01*
X141651322Y-112113811D01*
X141487537Y-112223249D01*
X141348249Y-112362537D01*
X141238811Y-112526322D01*
X141163429Y-112708311D01*
X141125000Y-112901509D01*
X140341147Y-112901509D01*
X140348569Y-111936509D01*
X146500000Y-111936509D01*
X146500000Y-112133491D01*
X146538429Y-112326689D01*
X146613811Y-112508678D01*
X146723249Y-112672463D01*
X146862537Y-112811751D01*
X147026322Y-112921189D01*
X147208311Y-112996571D01*
X147401509Y-113035000D01*
X147598491Y-113035000D01*
X147791689Y-112996571D01*
X147973678Y-112921189D01*
X148137463Y-112811751D01*
X148276751Y-112672463D01*
X148386189Y-112508678D01*
X148461571Y-112326689D01*
X148500000Y-112133491D01*
X148500000Y-111936509D01*
X148461571Y-111743311D01*
X148386189Y-111561322D01*
X148276751Y-111397537D01*
X148137463Y-111258249D01*
X147973678Y-111148811D01*
X147791689Y-111073429D01*
X147598491Y-111035000D01*
X147401509Y-111035000D01*
X147208311Y-111073429D01*
X147026322Y-111148811D01*
X146862537Y-111258249D01*
X146723249Y-111397537D01*
X146613811Y-111561322D01*
X146538429Y-111743311D01*
X146500000Y-111936509D01*
X140348569Y-111936509D01*
X140364685Y-109841509D01*
X145250000Y-109841509D01*
X145250000Y-110038491D01*
X145288429Y-110231689D01*
X145363811Y-110413678D01*
X145473249Y-110577463D01*
X145612537Y-110716751D01*
X145776322Y-110826189D01*
X145958311Y-110901571D01*
X146151509Y-110940000D01*
X146348491Y-110940000D01*
X146541689Y-110901571D01*
X146723678Y-110826189D01*
X146887463Y-110716751D01*
X147026751Y-110577463D01*
X147136189Y-110413678D01*
X147211571Y-110231689D01*
X147250000Y-110038491D01*
X147250000Y-109841509D01*
X147211571Y-109648311D01*
X147136189Y-109466322D01*
X147026751Y-109302537D01*
X146887463Y-109163249D01*
X146723678Y-109053811D01*
X146541689Y-108978429D01*
X146348491Y-108940000D01*
X146151509Y-108940000D01*
X145958311Y-108978429D01*
X145776322Y-109053811D01*
X145612537Y-109163249D01*
X145473249Y-109302537D01*
X145363811Y-109466322D01*
X145288429Y-109648311D01*
X145250000Y-109841509D01*
X140364685Y-109841509D01*
X140399996Y-105251154D01*
X140397339Y-105221869D01*
X140389019Y-105193665D01*
X140375358Y-105167626D01*
X140356879Y-105144753D01*
X140334292Y-105125924D01*
X140308467Y-105111864D01*
X140280394Y-105103112D01*
X140250000Y-105100000D01*
X118025000Y-105100000D01*
X118025000Y-103110464D01*
X118072506Y-103165850D01*
X118249882Y-103305079D01*
X118451012Y-103407028D01*
X118663451Y-103466662D01*
X118843000Y-103384702D01*
X118843000Y-102110000D01*
X118893000Y-102110000D01*
X118893000Y-103384702D01*
X119072549Y-103466662D01*
X119284988Y-103407028D01*
X119486118Y-103305079D01*
X119663494Y-103165850D01*
X119810300Y-102994692D01*
X119920894Y-102798183D01*
X119991026Y-102583874D01*
X120018000Y-102360000D01*
X120018000Y-102110000D01*
X118893000Y-102110000D01*
X118843000Y-102110000D01*
X118823000Y-102110000D01*
X118823000Y-102060000D01*
X118843000Y-102060000D01*
X118843000Y-100785298D01*
X118893000Y-100785298D01*
X118893000Y-102060000D01*
X120018000Y-102060000D01*
X120018000Y-101810000D01*
X120013318Y-101771137D01*
X120108000Y-101771137D01*
X120108000Y-102398864D01*
X120126810Y-102589845D01*
X120201145Y-102834896D01*
X120321860Y-103060736D01*
X120484314Y-103258687D01*
X120682265Y-103421140D01*
X120908105Y-103541855D01*
X121153156Y-103616190D01*
X121408000Y-103641290D01*
X121662845Y-103616190D01*
X121907896Y-103541855D01*
X122133736Y-103421140D01*
X122331687Y-103258687D01*
X122494140Y-103060736D01*
X122579243Y-102901519D01*
X144875000Y-102901519D01*
X144875000Y-103098501D01*
X144913429Y-103291699D01*
X144988811Y-103473688D01*
X145098249Y-103637473D01*
X145237537Y-103776761D01*
X145401322Y-103886199D01*
X145583311Y-103961581D01*
X145647597Y-103974368D01*
X145538564Y-104047222D01*
X145399276Y-104186510D01*
X145289838Y-104350295D01*
X145214456Y-104532284D01*
X145176027Y-104725482D01*
X145176027Y-104922464D01*
X145214456Y-105115662D01*
X145289838Y-105297651D01*
X145399276Y-105461436D01*
X145538564Y-105600724D01*
X145702349Y-105710162D01*
X145884338Y-105785544D01*
X146077536Y-105823973D01*
X146274518Y-105823973D01*
X146467716Y-105785544D01*
X146649705Y-105710162D01*
X146813490Y-105600724D01*
X146952778Y-105461436D01*
X147062216Y-105297651D01*
X147137598Y-105115662D01*
X147176027Y-104922464D01*
X147176027Y-104725482D01*
X147137598Y-104532284D01*
X147062216Y-104350295D01*
X146952778Y-104186510D01*
X146813490Y-104047222D01*
X146649705Y-103937784D01*
X146467716Y-103862402D01*
X146403430Y-103849615D01*
X146512463Y-103776761D01*
X146651751Y-103637473D01*
X146761189Y-103473688D01*
X146836571Y-103291699D01*
X146875000Y-103098501D01*
X146875000Y-103094863D01*
X147026509Y-103125000D01*
X147223491Y-103125000D01*
X147254063Y-103118919D01*
X147288429Y-103291689D01*
X147363811Y-103473678D01*
X147473249Y-103637463D01*
X147612537Y-103776751D01*
X147776322Y-103886189D01*
X147958311Y-103961571D01*
X148151509Y-104000000D01*
X148348491Y-104000000D01*
X148541689Y-103961571D01*
X148723678Y-103886189D01*
X148887463Y-103776751D01*
X149026751Y-103637463D01*
X149136189Y-103473678D01*
X149159588Y-103417187D01*
X149223249Y-103512461D01*
X149362537Y-103651749D01*
X149526322Y-103761187D01*
X149708311Y-103836569D01*
X149901509Y-103874998D01*
X150098491Y-103874998D01*
X150291689Y-103836569D01*
X150473678Y-103761187D01*
X150637463Y-103651749D01*
X150776751Y-103512461D01*
X150886189Y-103348676D01*
X150961571Y-103166687D01*
X151000000Y-102973489D01*
X151000000Y-102776507D01*
X150961571Y-102583309D01*
X150886189Y-102401320D01*
X150785079Y-102249999D01*
X150886189Y-102098678D01*
X150961571Y-101916689D01*
X151000000Y-101723491D01*
X151000000Y-101526509D01*
X150961571Y-101333311D01*
X150886189Y-101151322D01*
X150776751Y-100987537D01*
X150653312Y-100864098D01*
X150791689Y-100836573D01*
X150973678Y-100761191D01*
X151137463Y-100651753D01*
X151276751Y-100512465D01*
X151386189Y-100348680D01*
X151461571Y-100166691D01*
X151500000Y-99973493D01*
X151500000Y-99776511D01*
X151461571Y-99583313D01*
X151386189Y-99401324D01*
X151276751Y-99237539D01*
X151137463Y-99098251D01*
X150973678Y-98988813D01*
X150791689Y-98913431D01*
X150598491Y-98875002D01*
X150401509Y-98875002D01*
X150208311Y-98913431D01*
X150026322Y-98988813D01*
X149862537Y-99098251D01*
X149723249Y-99237539D01*
X149613811Y-99401324D01*
X149538429Y-99583313D01*
X149500000Y-99776511D01*
X149500000Y-99973493D01*
X149538429Y-100166691D01*
X149613811Y-100348680D01*
X149723249Y-100512465D01*
X149846688Y-100635904D01*
X149708311Y-100663429D01*
X149526322Y-100738811D01*
X149362537Y-100848249D01*
X149223249Y-100987537D01*
X149113811Y-101151322D01*
X149038429Y-101333311D01*
X149000000Y-101526509D01*
X149000000Y-101723491D01*
X149038429Y-101916689D01*
X149113811Y-102098678D01*
X149214921Y-102249999D01*
X149113811Y-102401320D01*
X149090412Y-102457811D01*
X149026751Y-102362537D01*
X148887463Y-102223249D01*
X148723678Y-102113811D01*
X148541689Y-102038429D01*
X148348491Y-102000000D01*
X148151509Y-102000000D01*
X148120937Y-102006081D01*
X148086571Y-101833311D01*
X148011189Y-101651322D01*
X147901751Y-101487537D01*
X147762463Y-101348249D01*
X147598678Y-101238811D01*
X147416689Y-101163429D01*
X147223491Y-101125000D01*
X147026509Y-101125000D01*
X146833311Y-101163429D01*
X146651322Y-101238811D01*
X146487537Y-101348249D01*
X146348249Y-101487537D01*
X146238811Y-101651322D01*
X146163429Y-101833311D01*
X146125000Y-102026509D01*
X146125000Y-102030147D01*
X145973491Y-102000010D01*
X145776509Y-102000010D01*
X145583311Y-102038439D01*
X145401322Y-102113821D01*
X145237537Y-102223259D01*
X145098249Y-102362547D01*
X144988811Y-102526332D01*
X144913429Y-102708321D01*
X144875000Y-102901519D01*
X122579243Y-102901519D01*
X122614855Y-102834895D01*
X122689190Y-102589844D01*
X122708000Y-102398863D01*
X122708000Y-101771136D01*
X122689190Y-101580155D01*
X122641673Y-101423509D01*
X135730000Y-101423509D01*
X135730000Y-101620491D01*
X135768429Y-101813689D01*
X135843811Y-101995678D01*
X135953249Y-102159463D01*
X136092537Y-102298751D01*
X136256322Y-102408189D01*
X136438311Y-102483571D01*
X136631509Y-102522000D01*
X136828491Y-102522000D01*
X137021689Y-102483571D01*
X137203678Y-102408189D01*
X137367463Y-102298751D01*
X137506751Y-102159463D01*
X137616189Y-101995678D01*
X137691571Y-101813689D01*
X137730000Y-101620491D01*
X137730000Y-101423509D01*
X137691571Y-101230311D01*
X137616189Y-101048322D01*
X137506751Y-100884537D01*
X137367463Y-100745249D01*
X137203678Y-100635811D01*
X137021689Y-100560429D01*
X136828491Y-100522000D01*
X136631509Y-100522000D01*
X136438311Y-100560429D01*
X136256322Y-100635811D01*
X136092537Y-100745249D01*
X135953249Y-100884537D01*
X135843811Y-101048322D01*
X135768429Y-101230311D01*
X135730000Y-101423509D01*
X122641673Y-101423509D01*
X122614855Y-101335104D01*
X122494140Y-101109264D01*
X122331687Y-100911313D01*
X122133735Y-100748860D01*
X121907895Y-100628145D01*
X121662844Y-100553810D01*
X121408000Y-100528710D01*
X121153155Y-100553810D01*
X120908104Y-100628145D01*
X120682264Y-100748860D01*
X120484313Y-100911313D01*
X120321860Y-101109265D01*
X120201145Y-101335105D01*
X120126810Y-101580156D01*
X120108000Y-101771137D01*
X120013318Y-101771137D01*
X119991026Y-101586126D01*
X119920894Y-101371817D01*
X119810300Y-101175308D01*
X119663494Y-101004150D01*
X119486118Y-100864921D01*
X119284988Y-100762972D01*
X119072549Y-100703338D01*
X118893000Y-100785298D01*
X118843000Y-100785298D01*
X118663451Y-100703338D01*
X118451012Y-100762972D01*
X118249882Y-100864921D01*
X118072506Y-101004150D01*
X118025000Y-101059536D01*
X118025000Y-99400000D01*
X120500000Y-99400000D01*
X120529264Y-99397118D01*
X120557403Y-99388582D01*
X120583336Y-99374720D01*
X120596197Y-99365092D01*
X121449948Y-98651509D01*
X127250000Y-98651509D01*
X127250000Y-98848491D01*
X127288429Y-99041689D01*
X127363811Y-99223678D01*
X127473249Y-99387463D01*
X127612537Y-99526751D01*
X127776322Y-99636189D01*
X127958311Y-99711571D01*
X128151509Y-99750000D01*
X128348491Y-99750000D01*
X128541689Y-99711571D01*
X128723678Y-99636189D01*
X128887463Y-99526751D01*
X128932705Y-99481509D01*
X129302000Y-99481509D01*
X129302000Y-99678491D01*
X129340429Y-99871689D01*
X129415811Y-100053678D01*
X129525249Y-100217463D01*
X129664537Y-100356751D01*
X129828322Y-100466189D01*
X130010311Y-100541571D01*
X130203509Y-100580000D01*
X130400491Y-100580000D01*
X130593689Y-100541571D01*
X130775678Y-100466189D01*
X130937000Y-100358397D01*
X131098322Y-100466189D01*
X131280311Y-100541571D01*
X131473509Y-100580000D01*
X131670491Y-100580000D01*
X131863689Y-100541571D01*
X132045678Y-100466189D01*
X132209463Y-100356751D01*
X132348751Y-100217463D01*
X132458189Y-100053678D01*
X132533571Y-99871689D01*
X132572000Y-99678491D01*
X132572000Y-99481509D01*
X132569614Y-99469509D01*
X134382000Y-99469509D01*
X134382000Y-99666491D01*
X134420429Y-99859689D01*
X134495811Y-100041678D01*
X134605249Y-100205463D01*
X134744537Y-100344751D01*
X134908322Y-100454189D01*
X135090311Y-100529571D01*
X135283509Y-100568000D01*
X135480491Y-100568000D01*
X135673689Y-100529571D01*
X135855678Y-100454189D01*
X136019463Y-100344751D01*
X136158751Y-100205463D01*
X136268189Y-100041678D01*
X136343571Y-99859689D01*
X136370658Y-99723509D01*
X139773000Y-99723509D01*
X139773000Y-99920491D01*
X139811429Y-100113689D01*
X139886811Y-100295678D01*
X139996249Y-100459463D01*
X140135537Y-100598751D01*
X140299322Y-100708189D01*
X140481311Y-100783571D01*
X140558146Y-100798854D01*
X140573429Y-100875689D01*
X140648811Y-101057678D01*
X140758249Y-101221463D01*
X140897537Y-101360751D01*
X141061322Y-101470189D01*
X141243311Y-101545571D01*
X141436509Y-101584000D01*
X141633491Y-101584000D01*
X141826689Y-101545571D01*
X142008678Y-101470189D01*
X142172463Y-101360751D01*
X142311751Y-101221463D01*
X142421189Y-101057678D01*
X142496571Y-100875689D01*
X142535000Y-100682491D01*
X142535000Y-100485509D01*
X142496571Y-100292311D01*
X142421189Y-100110322D01*
X142311751Y-99946537D01*
X142172463Y-99807249D01*
X142008678Y-99697811D01*
X141826689Y-99622429D01*
X141749854Y-99607146D01*
X141734571Y-99530311D01*
X141659189Y-99348322D01*
X141549751Y-99184537D01*
X141410463Y-99045249D01*
X141246678Y-98935811D01*
X141064689Y-98860429D01*
X140871491Y-98822000D01*
X140674509Y-98822000D01*
X140481311Y-98860429D01*
X140299322Y-98935811D01*
X140135537Y-99045249D01*
X139996249Y-99184537D01*
X139886811Y-99348322D01*
X139811429Y-99530311D01*
X139773000Y-99723509D01*
X136370658Y-99723509D01*
X136382000Y-99666491D01*
X136382000Y-99469509D01*
X136343571Y-99276311D01*
X136268189Y-99094322D01*
X136158751Y-98930537D01*
X136019463Y-98791249D01*
X135855678Y-98681811D01*
X135673689Y-98606429D01*
X135480491Y-98568000D01*
X135283509Y-98568000D01*
X135090311Y-98606429D01*
X134908322Y-98681811D01*
X134744537Y-98791249D01*
X134605249Y-98930537D01*
X134495811Y-99094322D01*
X134420429Y-99276311D01*
X134382000Y-99469509D01*
X132569614Y-99469509D01*
X132533571Y-99288311D01*
X132458189Y-99106322D01*
X132348751Y-98942537D01*
X132209463Y-98803249D01*
X132045678Y-98693811D01*
X131863689Y-98618429D01*
X131670491Y-98580000D01*
X131473509Y-98580000D01*
X131280311Y-98618429D01*
X131098322Y-98693811D01*
X130937000Y-98801603D01*
X130775678Y-98693811D01*
X130593689Y-98618429D01*
X130400491Y-98580000D01*
X130203509Y-98580000D01*
X130010311Y-98618429D01*
X129828322Y-98693811D01*
X129664537Y-98803249D01*
X129525249Y-98942537D01*
X129415811Y-99106322D01*
X129340429Y-99288311D01*
X129302000Y-99481509D01*
X128932705Y-99481509D01*
X129026751Y-99387463D01*
X129136189Y-99223678D01*
X129211571Y-99041689D01*
X129250000Y-98848491D01*
X129250000Y-98750000D01*
X129348491Y-98750000D01*
X129541689Y-98711571D01*
X129723678Y-98636189D01*
X129887463Y-98526751D01*
X130026751Y-98387463D01*
X130136189Y-98223678D01*
X130211571Y-98041689D01*
X130250000Y-97848491D01*
X130250000Y-97651509D01*
X130211571Y-97458311D01*
X130136189Y-97276322D01*
X130026751Y-97112537D01*
X129887463Y-96973249D01*
X129723678Y-96863811D01*
X129541689Y-96788429D01*
X129348491Y-96750000D01*
X129151509Y-96750000D01*
X128958311Y-96788429D01*
X128776322Y-96863811D01*
X128612537Y-96973249D01*
X128473249Y-97112537D01*
X128363811Y-97276322D01*
X128288429Y-97458311D01*
X128250000Y-97651509D01*
X128250000Y-97750000D01*
X128151509Y-97750000D01*
X127958311Y-97788429D01*
X127776322Y-97863811D01*
X127612537Y-97973249D01*
X127473249Y-98112537D01*
X127363811Y-98276322D01*
X127288429Y-98458311D01*
X127250000Y-98651509D01*
X121449948Y-98651509D01*
X124141912Y-96401509D01*
X142625000Y-96401509D01*
X142625000Y-96598491D01*
X142663429Y-96791689D01*
X142738811Y-96973678D01*
X142839921Y-97125000D01*
X142738811Y-97276322D01*
X142663429Y-97458311D01*
X142625000Y-97651509D01*
X142625000Y-97848491D01*
X142663429Y-98041689D01*
X142738811Y-98223678D01*
X142848249Y-98387463D01*
X142987537Y-98526751D01*
X143151322Y-98636189D01*
X143333311Y-98711571D01*
X143526509Y-98750000D01*
X143723491Y-98750000D01*
X143916689Y-98711571D01*
X144098678Y-98636189D01*
X144262463Y-98526751D01*
X144401751Y-98387463D01*
X144511189Y-98223678D01*
X144586571Y-98041689D01*
X144625000Y-97848491D01*
X144625000Y-97651509D01*
X144586571Y-97458311D01*
X144564401Y-97404788D01*
X144706311Y-97463569D01*
X144899509Y-97501998D01*
X145096491Y-97501998D01*
X145289689Y-97463569D01*
X145471678Y-97388187D01*
X145635463Y-97278749D01*
X145774751Y-97139461D01*
X145884189Y-96975676D01*
X145959571Y-96793687D01*
X145987851Y-96651509D01*
X150000000Y-96651509D01*
X150000000Y-96848491D01*
X150038429Y-97041689D01*
X150113811Y-97223678D01*
X150223249Y-97387463D01*
X150362537Y-97526751D01*
X150526322Y-97636189D01*
X150708311Y-97711571D01*
X150901509Y-97750000D01*
X151098491Y-97750000D01*
X151291689Y-97711571D01*
X151473678Y-97636189D01*
X151637463Y-97526751D01*
X151776751Y-97387463D01*
X151886189Y-97223678D01*
X151961571Y-97041689D01*
X152000000Y-96848491D01*
X152000000Y-96651509D01*
X151961571Y-96458311D01*
X151938043Y-96401509D01*
X156000012Y-96401509D01*
X156000012Y-96598491D01*
X156038441Y-96791689D01*
X156113823Y-96973678D01*
X156223261Y-97137463D01*
X156362549Y-97276751D01*
X156526334Y-97386189D01*
X156708323Y-97461571D01*
X156901521Y-97500000D01*
X157098503Y-97500000D01*
X157291701Y-97461571D01*
X157473690Y-97386189D01*
X157637475Y-97276751D01*
X157776763Y-97137463D01*
X157886201Y-96973678D01*
X157895456Y-96951333D01*
X157913429Y-97041689D01*
X157988811Y-97223678D01*
X158098249Y-97387463D01*
X158148286Y-97437500D01*
X158098249Y-97487537D01*
X157988811Y-97651322D01*
X157913429Y-97833311D01*
X157875000Y-98026509D01*
X157875000Y-98223491D01*
X157913429Y-98416689D01*
X157988811Y-98598678D01*
X158098249Y-98762463D01*
X158237537Y-98901751D01*
X158401322Y-99011189D01*
X158583311Y-99086571D01*
X158776509Y-99125000D01*
X158973491Y-99125000D01*
X159166689Y-99086571D01*
X159348678Y-99011189D01*
X159512463Y-98901751D01*
X159562500Y-98851714D01*
X159612537Y-98901751D01*
X159776322Y-99011189D01*
X159958311Y-99086571D01*
X160151509Y-99125000D01*
X160348491Y-99125000D01*
X160541689Y-99086571D01*
X160723678Y-99011189D01*
X160887463Y-98901751D01*
X161026751Y-98762463D01*
X161136189Y-98598678D01*
X161211571Y-98416689D01*
X161250000Y-98223491D01*
X161250000Y-98026509D01*
X161211571Y-97833311D01*
X161136189Y-97651322D01*
X161026751Y-97487537D01*
X160887463Y-97348249D01*
X160723678Y-97238811D01*
X160541689Y-97163429D01*
X160348491Y-97125000D01*
X160151509Y-97125000D01*
X159958311Y-97163429D01*
X159776322Y-97238811D01*
X159730716Y-97269284D01*
X159761189Y-97223678D01*
X159836571Y-97041689D01*
X159875000Y-96848491D01*
X159875000Y-96651509D01*
X159836571Y-96458311D01*
X159761189Y-96276322D01*
X159651751Y-96112537D01*
X159512463Y-95973249D01*
X159348678Y-95863811D01*
X159166689Y-95788429D01*
X158973491Y-95750000D01*
X158776509Y-95750000D01*
X158583311Y-95788429D01*
X158401322Y-95863811D01*
X158237537Y-95973249D01*
X158098249Y-96112537D01*
X157988811Y-96276322D01*
X157979556Y-96298667D01*
X157961583Y-96208311D01*
X157886201Y-96026322D01*
X157776763Y-95862537D01*
X157637475Y-95723249D01*
X157473690Y-95613811D01*
X157291701Y-95538429D01*
X157098503Y-95500000D01*
X156901521Y-95500000D01*
X156708323Y-95538429D01*
X156526334Y-95613811D01*
X156362549Y-95723249D01*
X156223261Y-95862537D01*
X156113823Y-96026322D01*
X156038441Y-96208311D01*
X156000012Y-96401509D01*
X151938043Y-96401509D01*
X151886189Y-96276322D01*
X151776751Y-96112537D01*
X151637463Y-95973249D01*
X151473678Y-95863811D01*
X151291689Y-95788429D01*
X151098491Y-95750000D01*
X150901509Y-95750000D01*
X150708311Y-95788429D01*
X150526322Y-95863811D01*
X150362537Y-95973249D01*
X150223249Y-96112537D01*
X150113811Y-96276322D01*
X150038429Y-96458311D01*
X150000000Y-96651509D01*
X145987851Y-96651509D01*
X145998000Y-96600489D01*
X145998000Y-96403507D01*
X145959571Y-96210309D01*
X145884189Y-96028320D01*
X145774751Y-95864535D01*
X145635463Y-95725247D01*
X145471678Y-95615809D01*
X145289689Y-95540427D01*
X145096491Y-95501998D01*
X144899509Y-95501998D01*
X144706311Y-95540427D01*
X144524322Y-95615809D01*
X144360537Y-95725247D01*
X144312499Y-95773285D01*
X144262463Y-95723249D01*
X144098678Y-95613811D01*
X143916689Y-95538429D01*
X143723491Y-95500000D01*
X143526509Y-95500000D01*
X143333311Y-95538429D01*
X143151322Y-95613811D01*
X142987537Y-95723249D01*
X142848249Y-95862537D01*
X142738811Y-96026322D01*
X142663429Y-96208311D01*
X142625000Y-96401509D01*
X124141912Y-96401509D01*
X128929432Y-92400000D01*
X133698217Y-92400000D01*
X133613811Y-92526322D01*
X133538429Y-92708311D01*
X133500000Y-92901509D01*
X133500000Y-93098491D01*
X133538429Y-93291689D01*
X133613811Y-93473678D01*
X133714921Y-93625000D01*
X133613811Y-93776322D01*
X133538429Y-93958311D01*
X133500000Y-94151509D01*
X133500000Y-94348491D01*
X133538429Y-94541689D01*
X133613811Y-94723678D01*
X133723249Y-94887463D01*
X133862537Y-95026751D01*
X134026322Y-95136189D01*
X134208311Y-95211571D01*
X134401509Y-95250000D01*
X134598491Y-95250000D01*
X134791689Y-95211571D01*
X134973678Y-95136189D01*
X135137463Y-95026751D01*
X135276751Y-94887463D01*
X135386189Y-94723678D01*
X135461571Y-94541689D01*
X135500000Y-94348491D01*
X135500000Y-94151509D01*
X135461571Y-93958311D01*
X135386189Y-93776322D01*
X135285079Y-93625000D01*
X135316648Y-93577754D01*
X135373249Y-93662463D01*
X135512537Y-93801751D01*
X135676322Y-93911189D01*
X135858311Y-93986571D01*
X136051509Y-94025000D01*
X136248491Y-94025000D01*
X136441689Y-93986571D01*
X136623678Y-93911189D01*
X136787463Y-93801751D01*
X136926751Y-93662463D01*
X137036189Y-93498678D01*
X137111571Y-93316689D01*
X137150000Y-93123491D01*
X137150000Y-92926509D01*
X137111571Y-92733311D01*
X137036189Y-92551322D01*
X136926751Y-92387537D01*
X136787463Y-92248249D01*
X136623678Y-92138811D01*
X136441689Y-92063429D01*
X136248491Y-92025000D01*
X136051509Y-92025000D01*
X135858311Y-92063429D01*
X135713877Y-92123255D01*
X135731066Y-92106066D01*
X135749720Y-92083336D01*
X135763582Y-92057403D01*
X135772118Y-92029264D01*
X135775000Y-92000000D01*
X135775000Y-90526509D01*
X143124996Y-90526509D01*
X143124996Y-90723491D01*
X143163425Y-90916689D01*
X143238807Y-91098678D01*
X143348245Y-91262463D01*
X143460784Y-91375002D01*
X143348249Y-91487537D01*
X143238811Y-91651322D01*
X143163429Y-91833311D01*
X143125000Y-92026509D01*
X143125000Y-92223491D01*
X143163429Y-92416689D01*
X143238811Y-92598678D01*
X143348249Y-92762463D01*
X143487537Y-92901751D01*
X143651322Y-93011189D01*
X143833311Y-93086571D01*
X144026509Y-93125000D01*
X144223491Y-93125000D01*
X144416689Y-93086571D01*
X144598678Y-93011189D01*
X144762463Y-92901751D01*
X144901751Y-92762463D01*
X145011189Y-92598678D01*
X145086571Y-92416689D01*
X145125000Y-92223491D01*
X145125000Y-92026509D01*
X145086571Y-91833311D01*
X145011189Y-91651322D01*
X144901751Y-91487537D01*
X144789212Y-91374998D01*
X144901747Y-91262463D01*
X145011185Y-91098678D01*
X145086567Y-90916689D01*
X145124996Y-90723491D01*
X145124996Y-90526509D01*
X145086567Y-90333311D01*
X145011185Y-90151322D01*
X144901747Y-89987537D01*
X144762459Y-89848249D01*
X144598674Y-89738811D01*
X144416685Y-89663429D01*
X144223487Y-89625000D01*
X144026505Y-89625000D01*
X143833307Y-89663429D01*
X143651318Y-89738811D01*
X143487533Y-89848249D01*
X143348245Y-89987537D01*
X143238807Y-90151322D01*
X143163425Y-90333311D01*
X143124996Y-90526509D01*
X135775000Y-90526509D01*
X135775000Y-89026509D01*
X146125000Y-89026509D01*
X146125000Y-89223491D01*
X146163429Y-89416689D01*
X146238811Y-89598678D01*
X146348249Y-89762463D01*
X146487537Y-89901751D01*
X146651322Y-90011189D01*
X146833311Y-90086571D01*
X147026509Y-90125000D01*
X147223491Y-90125000D01*
X147416689Y-90086571D01*
X147598678Y-90011189D01*
X147762463Y-89901751D01*
X147901751Y-89762463D01*
X148011189Y-89598678D01*
X148086571Y-89416689D01*
X148125000Y-89223491D01*
X148125000Y-89026509D01*
X148086571Y-88833311D01*
X148011189Y-88651322D01*
X147901751Y-88487537D01*
X147762463Y-88348249D01*
X147655097Y-88276509D01*
X149999992Y-88276509D01*
X149999992Y-88473491D01*
X150038421Y-88666689D01*
X150113803Y-88848678D01*
X150223241Y-89012463D01*
X150362529Y-89151751D01*
X150526314Y-89261189D01*
X150708303Y-89336571D01*
X150901501Y-89375000D01*
X151098483Y-89375000D01*
X151291681Y-89336571D01*
X151473670Y-89261189D01*
X151637455Y-89151751D01*
X151776743Y-89012463D01*
X151886181Y-88848678D01*
X151961563Y-88666689D01*
X151999992Y-88473491D01*
X151999992Y-88342409D01*
X152096249Y-88486467D01*
X152235537Y-88625755D01*
X152399322Y-88735193D01*
X152581311Y-88810575D01*
X152774509Y-88849004D01*
X152971491Y-88849004D01*
X153164689Y-88810575D01*
X153346678Y-88735193D01*
X153510463Y-88625755D01*
X153649751Y-88486467D01*
X153759189Y-88322682D01*
X153834571Y-88140693D01*
X153873000Y-87947495D01*
X153873000Y-87750513D01*
X153834571Y-87557315D01*
X153759189Y-87375326D01*
X153649751Y-87211541D01*
X153510463Y-87072253D01*
X153346678Y-86962815D01*
X153263856Y-86928509D01*
X161348000Y-86928509D01*
X161348000Y-87125491D01*
X161386429Y-87318689D01*
X161461811Y-87500678D01*
X161571249Y-87664463D01*
X161710537Y-87803751D01*
X161874322Y-87913189D01*
X162056311Y-87988571D01*
X162249509Y-88027000D01*
X162446491Y-88027000D01*
X162639689Y-87988571D01*
X162821678Y-87913189D01*
X162985463Y-87803751D01*
X163124751Y-87664463D01*
X163234189Y-87500678D01*
X163309571Y-87318689D01*
X163348000Y-87125491D01*
X163348000Y-86928509D01*
X163309571Y-86735311D01*
X163234189Y-86553322D01*
X163124751Y-86389537D01*
X162985463Y-86250249D01*
X162821678Y-86140811D01*
X162639689Y-86065429D01*
X162446491Y-86027000D01*
X162249509Y-86027000D01*
X162056311Y-86065429D01*
X161874322Y-86140811D01*
X161710537Y-86250249D01*
X161571249Y-86389537D01*
X161461811Y-86553322D01*
X161386429Y-86735311D01*
X161348000Y-86928509D01*
X153263856Y-86928509D01*
X153164689Y-86887433D01*
X152971491Y-86849004D01*
X152774509Y-86849004D01*
X152581311Y-86887433D01*
X152399322Y-86962815D01*
X152235537Y-87072253D01*
X152096249Y-87211541D01*
X151986811Y-87375326D01*
X151911429Y-87557315D01*
X151873000Y-87750513D01*
X151873000Y-87881595D01*
X151776743Y-87737537D01*
X151637455Y-87598249D01*
X151473670Y-87488811D01*
X151291681Y-87413429D01*
X151098483Y-87375000D01*
X150901501Y-87375000D01*
X150708303Y-87413429D01*
X150526314Y-87488811D01*
X150362529Y-87598249D01*
X150223241Y-87737537D01*
X150113803Y-87901322D01*
X150038421Y-88083311D01*
X149999992Y-88276509D01*
X147655097Y-88276509D01*
X147598678Y-88238811D01*
X147416689Y-88163429D01*
X147223491Y-88125000D01*
X147026509Y-88125000D01*
X146833311Y-88163429D01*
X146651322Y-88238811D01*
X146487537Y-88348249D01*
X146348249Y-88487537D01*
X146238811Y-88651322D01*
X146163429Y-88833311D01*
X146125000Y-89026509D01*
X135775000Y-89026509D01*
X135775000Y-85526509D01*
X153525000Y-85526509D01*
X153525000Y-85723491D01*
X153563429Y-85916689D01*
X153638811Y-86098678D01*
X153748249Y-86262463D01*
X153887537Y-86401751D01*
X154051322Y-86511189D01*
X154233311Y-86586571D01*
X154426509Y-86625000D01*
X154623491Y-86625000D01*
X154816689Y-86586571D01*
X154998678Y-86511189D01*
X155162463Y-86401751D01*
X155301751Y-86262463D01*
X155406016Y-86106420D01*
X155413429Y-86143689D01*
X155488811Y-86325678D01*
X155598249Y-86489463D01*
X155737537Y-86628751D01*
X155901322Y-86738189D01*
X156083311Y-86813571D01*
X156276509Y-86852000D01*
X156473491Y-86852000D01*
X156666689Y-86813571D01*
X156848678Y-86738189D01*
X157012463Y-86628751D01*
X157151751Y-86489463D01*
X157261189Y-86325678D01*
X157336571Y-86143689D01*
X157375000Y-85950491D01*
X157375000Y-85753509D01*
X157336571Y-85560311D01*
X157261189Y-85378322D01*
X157170950Y-85243270D01*
X157194757Y-85219463D01*
X157304195Y-85055678D01*
X157379577Y-84873689D01*
X157418006Y-84680491D01*
X157418006Y-84483509D01*
X157379577Y-84290311D01*
X157304195Y-84108322D01*
X157194757Y-83944537D01*
X157055469Y-83805249D01*
X156891684Y-83695811D01*
X156709695Y-83620429D01*
X156516497Y-83582000D01*
X156319515Y-83582000D01*
X156126317Y-83620429D01*
X155944328Y-83695811D01*
X155780543Y-83805249D01*
X155641255Y-83944537D01*
X155531817Y-84108322D01*
X155456435Y-84290311D01*
X155418006Y-84483509D01*
X155418006Y-84680491D01*
X155456435Y-84873689D01*
X155531817Y-85055678D01*
X155622056Y-85190730D01*
X155598249Y-85214537D01*
X155493984Y-85370580D01*
X155486571Y-85333311D01*
X155411189Y-85151322D01*
X155301751Y-84987537D01*
X155162463Y-84848249D01*
X154998678Y-84738811D01*
X154816689Y-84663429D01*
X154623491Y-84625000D01*
X154426509Y-84625000D01*
X154233311Y-84663429D01*
X154051322Y-84738811D01*
X153887537Y-84848249D01*
X153748249Y-84987537D01*
X153638811Y-85151322D01*
X153563429Y-85333311D01*
X153525000Y-85526509D01*
X135775000Y-85526509D01*
X135775000Y-82776509D01*
X151375000Y-82776509D01*
X151375000Y-82973491D01*
X151413429Y-83166689D01*
X151488811Y-83348678D01*
X151598249Y-83512463D01*
X151737537Y-83651751D01*
X151901322Y-83761189D01*
X152083311Y-83836571D01*
X152276509Y-83875000D01*
X152473491Y-83875000D01*
X152666689Y-83836571D01*
X152848678Y-83761189D01*
X153012463Y-83651751D01*
X153151751Y-83512463D01*
X153261189Y-83348678D01*
X153336571Y-83166689D01*
X153375000Y-82973491D01*
X153375000Y-82776509D01*
X153336571Y-82583311D01*
X153261189Y-82401322D01*
X153151751Y-82237537D01*
X153012463Y-82098249D01*
X152848678Y-81988811D01*
X152666689Y-81913429D01*
X152473491Y-81875000D01*
X152276509Y-81875000D01*
X152083311Y-81913429D01*
X151901322Y-81988811D01*
X151737537Y-82098249D01*
X151598249Y-82237537D01*
X151488811Y-82401322D01*
X151413429Y-82583311D01*
X151375000Y-82776509D01*
X135775000Y-82776509D01*
X135775000Y-80648729D01*
X147180402Y-80551662D01*
X147113811Y-80651322D01*
X147038429Y-80833311D01*
X147000000Y-81026509D01*
X147000000Y-81223491D01*
X147038429Y-81416689D01*
X147113811Y-81598678D01*
X147223249Y-81762463D01*
X147362537Y-81901751D01*
X147526322Y-82011189D01*
X147708311Y-82086571D01*
X147901509Y-82125000D01*
X148098491Y-82125000D01*
X148291689Y-82086571D01*
X148473678Y-82011189D01*
X148637463Y-81901751D01*
X148687500Y-81851714D01*
X148737537Y-81901751D01*
X148901322Y-82011189D01*
X149083311Y-82086571D01*
X149276509Y-82125000D01*
X149473491Y-82125000D01*
X149666689Y-82086571D01*
X149848678Y-82011189D01*
X150012463Y-81901751D01*
X150151751Y-81762463D01*
X150261189Y-81598678D01*
X150336571Y-81416689D01*
X150375000Y-81223491D01*
X150375000Y-81026509D01*
X150336571Y-80833311D01*
X150261189Y-80651322D01*
X150177554Y-80526154D01*
X155375139Y-80481919D01*
X155337030Y-80673509D01*
X155337030Y-80870491D01*
X155371145Y-81042000D01*
X155349509Y-81042000D01*
X155156311Y-81080429D01*
X154974322Y-81155811D01*
X154810537Y-81265249D01*
X154671249Y-81404537D01*
X154561811Y-81568322D01*
X154486429Y-81750311D01*
X154448000Y-81943509D01*
X154448000Y-82140491D01*
X154486429Y-82333689D01*
X154561811Y-82515678D01*
X154671249Y-82679463D01*
X154810537Y-82818751D01*
X154974322Y-82928189D01*
X155156311Y-83003571D01*
X155349509Y-83042000D01*
X155546491Y-83042000D01*
X155739689Y-83003571D01*
X155921678Y-82928189D01*
X156085463Y-82818751D01*
X156224751Y-82679463D01*
X156334189Y-82515678D01*
X156409571Y-82333689D01*
X156448000Y-82140491D01*
X156448000Y-81943509D01*
X156413885Y-81772000D01*
X156435521Y-81772000D01*
X156628719Y-81733571D01*
X156810708Y-81658189D01*
X156974493Y-81548751D01*
X157113781Y-81409463D01*
X157223219Y-81245678D01*
X157298601Y-81063689D01*
X157337030Y-80870491D01*
X157337030Y-80673509D01*
X157298601Y-80480311D01*
X157292508Y-80465601D01*
X164850000Y-80401282D01*
X164850000Y-81309665D01*
X164788429Y-81458311D01*
X164750000Y-81651509D01*
X164750000Y-81848491D01*
X164788429Y-82041689D01*
X164850000Y-82190335D01*
X164850000Y-86312868D01*
X162312868Y-88850000D01*
X158750000Y-88850000D01*
X158720736Y-88852882D01*
X158692597Y-88861418D01*
X158666664Y-88875280D01*
X158642210Y-88895687D01*
X154892210Y-92770687D01*
X154873930Y-92793720D01*
X154860496Y-92819877D01*
X154852422Y-92848152D01*
X154850020Y-92877459D01*
X154853382Y-92906671D01*
X154862378Y-92934666D01*
X154884767Y-92971028D01*
X155509767Y-93721028D01*
X155530715Y-93741663D01*
X155555287Y-93757816D01*
X155582537Y-93768864D01*
X155611420Y-93774384D01*
X155640824Y-93774163D01*
X155669620Y-93768210D01*
X155696702Y-93756753D01*
X155731066Y-93731066D01*
X159562132Y-89900000D01*
X162750000Y-89900000D01*
X162779264Y-89897118D01*
X162807403Y-89888582D01*
X162833336Y-89874720D01*
X162856066Y-89856066D01*
X166231066Y-86481066D01*
X166249720Y-86458336D01*
X166263582Y-86432403D01*
X166272118Y-86404264D01*
X166274961Y-86371592D01*
X166196096Y-82901509D01*
X168500000Y-82901509D01*
X168500000Y-83098491D01*
X168538429Y-83291689D01*
X168613811Y-83473678D01*
X168723249Y-83637463D01*
X168862537Y-83776751D01*
X169026322Y-83886189D01*
X169208311Y-83961571D01*
X169401509Y-84000000D01*
X169598491Y-84000000D01*
X169791689Y-83961571D01*
X169973678Y-83886189D01*
X170137463Y-83776751D01*
X170187500Y-83726714D01*
X170237537Y-83776751D01*
X170401322Y-83886189D01*
X170583311Y-83961571D01*
X170776509Y-84000000D01*
X170973491Y-84000000D01*
X171166689Y-83961571D01*
X171348678Y-83886189D01*
X171512463Y-83776751D01*
X171651751Y-83637463D01*
X171761189Y-83473678D01*
X171836571Y-83291689D01*
X171875000Y-83098491D01*
X171875000Y-82901509D01*
X171836571Y-82708311D01*
X171761189Y-82526322D01*
X171651751Y-82362537D01*
X171512463Y-82223249D01*
X171348678Y-82113811D01*
X171166689Y-82038429D01*
X170973491Y-82000000D01*
X170776509Y-82000000D01*
X170583311Y-82038429D01*
X170401322Y-82113811D01*
X170237537Y-82223249D01*
X170187500Y-82273286D01*
X170137463Y-82223249D01*
X169973678Y-82113811D01*
X169791689Y-82038429D01*
X169598491Y-82000000D01*
X169401509Y-82000000D01*
X169208311Y-82038429D01*
X169026322Y-82113811D01*
X168862537Y-82223249D01*
X168723249Y-82362537D01*
X168613811Y-82526322D01*
X168538429Y-82708311D01*
X168500000Y-82901509D01*
X166196096Y-82901509D01*
X166190379Y-82649982D01*
X166223678Y-82636189D01*
X166387463Y-82526751D01*
X166526751Y-82387463D01*
X166636189Y-82223678D01*
X166711571Y-82041689D01*
X166722019Y-81989161D01*
X166776509Y-82000000D01*
X166973491Y-82000000D01*
X167166689Y-81961571D01*
X167348678Y-81886189D01*
X167512463Y-81776751D01*
X167651751Y-81637463D01*
X167761189Y-81473678D01*
X167836571Y-81291689D01*
X167875000Y-81098491D01*
X167875000Y-80901509D01*
X167836571Y-80708311D01*
X167761189Y-80526322D01*
X167651751Y-80362537D01*
X167512463Y-80223249D01*
X167348678Y-80113811D01*
X167179475Y-80043725D01*
X167930488Y-79400000D01*
X168812582Y-79400000D01*
X168788429Y-79458311D01*
X168750000Y-79651509D01*
X168750000Y-79848491D01*
X168788429Y-80041689D01*
X168863811Y-80223678D01*
X168973249Y-80387463D01*
X169112537Y-80526751D01*
X169276322Y-80636189D01*
X169458311Y-80711571D01*
X169651509Y-80750000D01*
X169848491Y-80750000D01*
X170041689Y-80711571D01*
X170223678Y-80636189D01*
X170387463Y-80526751D01*
X170500000Y-80414214D01*
X170612537Y-80526751D01*
X170776322Y-80636189D01*
X170958311Y-80711571D01*
X171151509Y-80750000D01*
X171348491Y-80750000D01*
X171541689Y-80711571D01*
X171723678Y-80636189D01*
X171887463Y-80526751D01*
X172026751Y-80387463D01*
X172136189Y-80223678D01*
X172211571Y-80041689D01*
X172250000Y-79848491D01*
X172250000Y-79651509D01*
X172211571Y-79458311D01*
X172187418Y-79400000D01*
X173937868Y-79400000D01*
X174053863Y-79515995D01*
X173973486Y-79500007D01*
X173776504Y-79500007D01*
X173583306Y-79538436D01*
X173401317Y-79613818D01*
X173237532Y-79723256D01*
X173098244Y-79862544D01*
X172988806Y-80026329D01*
X172913424Y-80208318D01*
X172874995Y-80401516D01*
X172874995Y-80598498D01*
X172913424Y-80791696D01*
X172988806Y-80973685D01*
X173098244Y-81137470D01*
X173237532Y-81276758D01*
X173401317Y-81386196D01*
X173583306Y-81461578D01*
X173776504Y-81500007D01*
X173973486Y-81500007D01*
X174166684Y-81461578D01*
X174348673Y-81386196D01*
X174512458Y-81276758D01*
X174651746Y-81137470D01*
X174761184Y-80973685D01*
X174836566Y-80791696D01*
X174850000Y-80724158D01*
X174850000Y-86806010D01*
X174069512Y-87475000D01*
X167625000Y-87475000D01*
X167595736Y-87477882D01*
X167567597Y-87486418D01*
X167541664Y-87500280D01*
X167518934Y-87518934D01*
X163437868Y-91600000D01*
X161125000Y-91600000D01*
X161095736Y-91602882D01*
X161067597Y-91611418D01*
X161041664Y-91625280D01*
X161018934Y-91643934D01*
X160268934Y-92393934D01*
X160250280Y-92416664D01*
X160236418Y-92442597D01*
X160227882Y-92470736D01*
X160225000Y-92500000D01*
X160227882Y-92529264D01*
X160236418Y-92557403D01*
X160257870Y-92593704D01*
X160757870Y-93218704D01*
X160778401Y-93239755D01*
X160802645Y-93256395D01*
X160829669Y-93267986D01*
X160858435Y-93274083D01*
X160875000Y-93275000D01*
X163750000Y-93275000D01*
X163779264Y-93272118D01*
X163807403Y-93263582D01*
X163833336Y-93249720D01*
X163860449Y-93226494D01*
X168065876Y-88650000D01*
X174000000Y-88650000D01*
X174029264Y-88647118D01*
X174057403Y-88638582D01*
X174083336Y-88624720D01*
X174106066Y-88606066D01*
X175606066Y-87106066D01*
X175624720Y-87083336D01*
X175638582Y-87057403D01*
X175647118Y-87029264D01*
X175650000Y-87000000D01*
X175650000Y-79625000D01*
X175647118Y-79595736D01*
X175638582Y-79567597D01*
X175624720Y-79541664D01*
X175606066Y-79518934D01*
X174481066Y-78393934D01*
X174458336Y-78375280D01*
X174432403Y-78361418D01*
X174404264Y-78352882D01*
X174375000Y-78350000D01*
X167250000Y-78350000D01*
X167220736Y-78352882D01*
X167192597Y-78361418D01*
X167166664Y-78375280D01*
X167143934Y-78393934D01*
X166438112Y-79099756D01*
X134775000Y-78975587D01*
X134775000Y-77650000D01*
X176350000Y-77650000D01*
X176350000Y-87187868D01*
%TD*%
M02*
