%TF.GenerationSoftware,KiCad,Pcbnew,(5.1.6)-1*%
%TF.CreationDate,2020-11-16T12:45:36+03:00*%
%TF.ProjectId,SensorBoard,53656e73-6f72-4426-9f61-72642e6b6963,rev?*%
%TF.SameCoordinates,Original*%
%TF.FileFunction,Soldermask,Bot*%
%TF.FilePolarity,Negative*%
%FSLAX46Y46*%
G04 Gerber Fmt 4.6, Leading zero omitted, Abs format (unit mm)*
G04 Created by KiCad (PCBNEW (5.1.6)-1) date 2020-11-16 12:45:36*
%MOMM*%
%LPD*%
G01*
G04 APERTURE LIST*
%ADD10C,0.100000*%
%ADD11O,1.700000X1.700000*%
%ADD12R,1.700000X1.700000*%
%ADD13R,0.800000X0.900000*%
%ADD14R,1.500000X2.000000*%
%ADD15O,1.500000X2.000000*%
%ADD16R,3.500000X1.800000*%
%ADD17O,1.500000X2.500000*%
%ADD18R,1.500000X2.500000*%
%ADD19O,1.727200X2.032000*%
%ADD20C,4.064000*%
G04 APERTURE END LIST*
D10*
%TO.C,JP1*%
G36*
X151375000Y-108650000D02*
G01*
X150625000Y-108150000D01*
X150625000Y-107150000D01*
X152125000Y-107150000D01*
X152125000Y-108150000D01*
X151375000Y-108650000D01*
G37*
G36*
X150625000Y-109600000D02*
G01*
X150625000Y-108450000D01*
X151375000Y-108950000D01*
X152125000Y-108450000D01*
X152125000Y-109600000D01*
X150625000Y-109600000D01*
G37*
%TD*%
D11*
%TO.C,J8*%
X134955000Y-123875000D03*
X132415000Y-123875000D03*
D12*
X129875000Y-123875000D03*
%TD*%
D11*
%TO.C,J7*%
X134955000Y-117602000D03*
X132415000Y-117602000D03*
D12*
X129875000Y-117602000D03*
%TD*%
D11*
%TO.C,J6*%
X113920000Y-84250000D03*
X116460000Y-84250000D03*
D12*
X119000000Y-84250000D03*
%TD*%
D11*
%TO.C,J5*%
X113920000Y-78125000D03*
X116460000Y-78125000D03*
D12*
X119000000Y-78125000D03*
%TD*%
D13*
%TO.C,D5*%
X130937000Y-112538000D03*
X129987000Y-114538000D03*
X131887000Y-114538000D03*
%TD*%
D11*
%TO.C,J3*%
X177038000Y-102735000D03*
X174498000Y-102735000D03*
D12*
X171958000Y-102735000D03*
%TD*%
D11*
%TO.C,J2*%
X177038000Y-107815000D03*
X174498000Y-107815000D03*
D12*
X171958000Y-107815000D03*
%TD*%
D11*
%TO.C,J1*%
X177038000Y-112895000D03*
X174498000Y-112895000D03*
D12*
X171958000Y-112895000D03*
%TD*%
D14*
%TO.C,U10*%
X113788000Y-102085000D03*
D15*
X116328000Y-102085000D03*
X118868000Y-102085000D03*
X121408000Y-102085000D03*
%TD*%
D14*
%TO.C,U9*%
X113788000Y-94865000D03*
D15*
X116328000Y-94865000D03*
X118868000Y-94865000D03*
X121408000Y-94865000D03*
%TD*%
D16*
%TO.C,D4*%
X162250000Y-103250000D03*
X167250000Y-103250000D03*
%TD*%
%TO.C,D3*%
X162250000Y-107750000D03*
X167250000Y-107750000D03*
%TD*%
%TO.C,D2*%
X162250000Y-112000000D03*
X167250000Y-112000000D03*
%TD*%
D17*
%TO.C,U6*%
X120328000Y-110235000D03*
X117788000Y-110235000D03*
D18*
X115248000Y-110235000D03*
%TD*%
D19*
%TO.C,P1*%
X138938000Y-123825000D03*
X141478000Y-123825000D03*
X144018000Y-123825000D03*
X146558000Y-123825000D03*
X149098000Y-123825000D03*
X151638000Y-123825000D03*
X154178000Y-123825000D03*
X156718000Y-123825000D03*
%TD*%
%TO.C,P2*%
X161798000Y-123825000D03*
X164338000Y-123825000D03*
X166878000Y-123825000D03*
X169418000Y-123825000D03*
X171958000Y-123825000D03*
X174498000Y-123825000D03*
%TD*%
%TO.C,P3*%
X129794000Y-75565000D03*
X132334000Y-75565000D03*
X134874000Y-75565000D03*
X137414000Y-75565000D03*
X139954000Y-75565000D03*
X142494000Y-75565000D03*
X145034000Y-75565000D03*
X147574000Y-75565000D03*
X150114000Y-75565000D03*
X152654000Y-75565000D03*
%TD*%
%TO.C,P4*%
X156718000Y-75565000D03*
X159258000Y-75565000D03*
X161798000Y-75565000D03*
X164338000Y-75565000D03*
X166878000Y-75565000D03*
X169418000Y-75565000D03*
X171958000Y-75565000D03*
X174498000Y-75565000D03*
%TD*%
D20*
%TO.C,P5*%
X124968000Y-123825000D03*
%TD*%
%TO.C,P6*%
X177038000Y-118745000D03*
%TD*%
%TO.C,P7*%
X126238000Y-75565000D03*
%TD*%
%TO.C,P8*%
X177038000Y-90805000D03*
%TD*%
M02*
