%TF.GenerationSoftware,KiCad,Pcbnew,(5.1.6)-1*%
%TF.CreationDate,2020-11-16T12:45:36+03:00*%
%TF.ProjectId,SensorBoard,53656e73-6f72-4426-9f61-72642e6b6963,rev?*%
%TF.SameCoordinates,Original*%
%TF.FileFunction,Legend,Bot*%
%TF.FilePolarity,Positive*%
%FSLAX46Y46*%
G04 Gerber Fmt 4.6, Leading zero omitted, Abs format (unit mm)*
G04 Created by KiCad (PCBNEW (5.1.6)-1) date 2020-11-16 12:45:36*
%MOMM*%
%LPD*%
G01*
G04 APERTURE LIST*
%ADD10C,0.400000*%
%ADD11C,0.002540*%
%ADD12C,0.120000*%
%ADD13C,0.150000*%
G04 APERTURE END LIST*
D10*
X123214285Y-89842857D02*
X122928571Y-89985714D01*
X122785714Y-90128571D01*
X122642857Y-90414285D01*
X122642857Y-91271428D01*
X122785714Y-91557142D01*
X122928571Y-91700000D01*
X123214285Y-91842857D01*
X123642857Y-91842857D01*
X123928571Y-91700000D01*
X124071428Y-91557142D01*
X124214285Y-91271428D01*
X124214285Y-90414285D01*
X124071428Y-90128571D01*
X123928571Y-89985714D01*
X123642857Y-89842857D01*
X123214285Y-89842857D01*
X125500000Y-91842857D02*
X125500000Y-88842857D01*
X125500000Y-91700000D02*
X125785714Y-91842857D01*
X126357142Y-91842857D01*
X126642857Y-91700000D01*
X126785714Y-91557142D01*
X126928571Y-91271428D01*
X126928571Y-90414285D01*
X126785714Y-90128571D01*
X126642857Y-89985714D01*
X126357142Y-89842857D01*
X125785714Y-89842857D01*
X125500000Y-89985714D01*
X129357142Y-89985714D02*
X129071428Y-89842857D01*
X128500000Y-89842857D01*
X128214285Y-89985714D01*
X128071428Y-90271428D01*
X128071428Y-91414285D01*
X128214285Y-91700000D01*
X128500000Y-91842857D01*
X129071428Y-91842857D01*
X129357142Y-91700000D01*
X129500000Y-91414285D01*
X129500000Y-91128571D01*
X128071428Y-90842857D01*
X130785714Y-91842857D02*
X130785714Y-89842857D01*
X130785714Y-91557142D02*
X130928571Y-91700000D01*
X131214285Y-91842857D01*
X131642857Y-91842857D01*
X131928571Y-91700000D01*
X132071428Y-91414285D01*
X132071428Y-89842857D01*
X135642857Y-89985714D02*
X135928571Y-89842857D01*
X136500000Y-89842857D01*
X136785714Y-89985714D01*
X136928571Y-90271428D01*
X136928571Y-90414285D01*
X136785714Y-90700000D01*
X136500000Y-90842857D01*
X136071428Y-90842857D01*
X135785714Y-90985714D01*
X135642857Y-91271428D01*
X135642857Y-91414285D01*
X135785714Y-91700000D01*
X136071428Y-91842857D01*
X136500000Y-91842857D01*
X136785714Y-91700000D01*
X138642857Y-89842857D02*
X138357142Y-89985714D01*
X138214285Y-90128571D01*
X138071428Y-90414285D01*
X138071428Y-91271428D01*
X138214285Y-91557142D01*
X138357142Y-91700000D01*
X138642857Y-91842857D01*
X139071428Y-91842857D01*
X139357142Y-91700000D01*
X139500000Y-91557142D01*
X139642857Y-91271428D01*
X139642857Y-90414285D01*
X139500000Y-90128571D01*
X139357142Y-89985714D01*
X139071428Y-89842857D01*
X138642857Y-89842857D01*
X142214285Y-91842857D02*
X142214285Y-89842857D01*
X140928571Y-91842857D02*
X140928571Y-90271428D01*
X141071428Y-89985714D01*
X141357142Y-89842857D01*
X141785714Y-89842857D01*
X142071428Y-89985714D01*
X142214285Y-90128571D01*
X143642857Y-89842857D02*
X143642857Y-91842857D01*
X143642857Y-91271428D02*
X143785714Y-91557142D01*
X143928571Y-91700000D01*
X144214285Y-91842857D01*
X144500000Y-91842857D01*
X146785714Y-89985714D02*
X146500000Y-89842857D01*
X145928571Y-89842857D01*
X145642857Y-89985714D01*
X145500000Y-90128571D01*
X145357142Y-90414285D01*
X145357142Y-91271428D01*
X145500000Y-91557142D01*
X145642857Y-91700000D01*
X145928571Y-91842857D01*
X146500000Y-91842857D01*
X146785714Y-91700000D01*
X149214285Y-89985714D02*
X148928571Y-89842857D01*
X148357142Y-89842857D01*
X148071428Y-89985714D01*
X147928571Y-90271428D01*
X147928571Y-91414285D01*
X148071428Y-91700000D01*
X148357142Y-91842857D01*
X148928571Y-91842857D01*
X149214285Y-91700000D01*
X149357142Y-91414285D01*
X149357142Y-91128571D01*
X147928571Y-90842857D01*
X126571428Y-84942857D02*
X126571428Y-87942857D01*
X127857142Y-84942857D02*
X127857142Y-86514285D01*
X127714285Y-86800000D01*
X127428571Y-86942857D01*
X127000000Y-86942857D01*
X126714285Y-86800000D01*
X126571428Y-86657142D01*
X130571428Y-84942857D02*
X130571428Y-86514285D01*
X130428571Y-86800000D01*
X130142857Y-86942857D01*
X129571428Y-86942857D01*
X129285714Y-86800000D01*
X130571428Y-85085714D02*
X130285714Y-84942857D01*
X129571428Y-84942857D01*
X129285714Y-85085714D01*
X129142857Y-85371428D01*
X129142857Y-85657142D01*
X129285714Y-85942857D01*
X129571428Y-86085714D01*
X130285714Y-86085714D01*
X130571428Y-86228571D01*
X132000000Y-84942857D02*
X132000000Y-86942857D01*
X132000000Y-86371428D02*
X132142857Y-86657142D01*
X132285714Y-86800000D01*
X132571428Y-86942857D01*
X132857142Y-86942857D01*
X135142857Y-84942857D02*
X135142857Y-87942857D01*
X135142857Y-85085714D02*
X134857142Y-84942857D01*
X134285714Y-84942857D01*
X134000000Y-85085714D01*
X133857142Y-85228571D01*
X133714285Y-85514285D01*
X133714285Y-86371428D01*
X133857142Y-86657142D01*
X134000000Y-86800000D01*
X134285714Y-86942857D01*
X134857142Y-86942857D01*
X135142857Y-86800000D01*
X136285714Y-86942857D02*
X136857142Y-84942857D01*
X137428571Y-86371428D01*
X138000000Y-84942857D01*
X138571428Y-86942857D01*
X141000000Y-84942857D02*
X141000000Y-86514285D01*
X140857142Y-86800000D01*
X140571428Y-86942857D01*
X140000000Y-86942857D01*
X139714285Y-86800000D01*
X141000000Y-85085714D02*
X140714285Y-84942857D01*
X140000000Y-84942857D01*
X139714285Y-85085714D01*
X139571428Y-85371428D01*
X139571428Y-85657142D01*
X139714285Y-85942857D01*
X140000000Y-86085714D01*
X140714285Y-86085714D01*
X141000000Y-86228571D01*
X142428571Y-84942857D02*
X142428571Y-86942857D01*
X142428571Y-86371428D02*
X142571428Y-86657142D01*
X142714285Y-86800000D01*
X143000000Y-86942857D01*
X143285714Y-86942857D01*
X145428571Y-85085714D02*
X145142857Y-84942857D01*
X144571428Y-84942857D01*
X144285714Y-85085714D01*
X144142857Y-85371428D01*
X144142857Y-86514285D01*
X144285714Y-86800000D01*
X144571428Y-86942857D01*
X145142857Y-86942857D01*
X145428571Y-86800000D01*
X145571428Y-86514285D01*
X145571428Y-86228571D01*
X144142857Y-85942857D01*
D11*
%TO.C,G\u002A\u002A\u002A*%
G36*
X129937020Y-94391020D02*
G01*
X130041160Y-94446900D01*
X130277380Y-94594220D01*
X130610120Y-94812660D01*
X131003820Y-95076820D01*
X131400060Y-95343520D01*
X131727720Y-95561960D01*
X131953780Y-95709280D01*
X132050300Y-95762620D01*
X132101100Y-95744840D01*
X132289060Y-95653400D01*
X132563380Y-95511160D01*
X132720860Y-95427340D01*
X132972320Y-95320660D01*
X133096780Y-95297800D01*
X133117100Y-95333360D01*
X133208540Y-95523860D01*
X133353320Y-95851520D01*
X133541280Y-96285860D01*
X133757180Y-96793860D01*
X133988320Y-97339960D01*
X134222000Y-97898760D01*
X134442980Y-98432160D01*
X134638560Y-98909680D01*
X134796040Y-99298300D01*
X134897640Y-99570080D01*
X134935740Y-99686920D01*
X134925580Y-99709780D01*
X134798580Y-99831700D01*
X134580140Y-99996800D01*
X134107700Y-100380340D01*
X133640340Y-100964540D01*
X133355860Y-101627480D01*
X133261880Y-102361540D01*
X133343160Y-103044800D01*
X133609860Y-103702660D01*
X134067060Y-104291940D01*
X134620780Y-104731360D01*
X135271020Y-105008220D01*
X135997460Y-105097120D01*
X136698500Y-105018380D01*
X137369060Y-104754220D01*
X137958340Y-104304640D01*
X138204720Y-104017620D01*
X138550160Y-103420720D01*
X138745740Y-102778100D01*
X138766060Y-102615540D01*
X138738120Y-101914500D01*
X138529840Y-101241400D01*
X138159000Y-100636880D01*
X137643380Y-100144120D01*
X137579880Y-100098400D01*
X137341120Y-99920600D01*
X137181100Y-99798680D01*
X137056640Y-99694540D01*
X137950720Y-97543160D01*
X138092960Y-97200260D01*
X138336800Y-96610980D01*
X138555240Y-96105520D01*
X138725420Y-95701660D01*
X138844800Y-95432420D01*
X138898140Y-95323200D01*
X138903220Y-95318120D01*
X138981960Y-95302880D01*
X139147060Y-95363840D01*
X139446780Y-95508620D01*
X139644900Y-95610220D01*
X139873500Y-95721980D01*
X139977640Y-95762620D01*
X140064000Y-95714360D01*
X140284980Y-95572120D01*
X140605020Y-95358760D01*
X140988560Y-95097140D01*
X141354320Y-94848220D01*
X141692140Y-94624700D01*
X141938520Y-94467220D01*
X142057900Y-94403720D01*
X142075680Y-94403720D01*
X142182360Y-94462140D01*
X142375400Y-94624700D01*
X142670040Y-94901560D01*
X143084060Y-95310500D01*
X143147560Y-95374000D01*
X143487920Y-95721980D01*
X143764780Y-96011540D01*
X143950200Y-96219820D01*
X144018780Y-96313800D01*
X143957820Y-96430640D01*
X143802880Y-96674480D01*
X143579360Y-97017380D01*
X143305040Y-97416160D01*
X142593840Y-98452480D01*
X142985000Y-99430380D01*
X143104380Y-99730100D01*
X143256780Y-100093320D01*
X143371080Y-100352400D01*
X143429500Y-100464160D01*
X143536180Y-100502260D01*
X143802880Y-100565760D01*
X144191500Y-100647040D01*
X144653780Y-100733400D01*
X145093200Y-100814680D01*
X145491980Y-100888340D01*
X145779000Y-100946760D01*
X145908540Y-100972160D01*
X145939020Y-100989940D01*
X145966960Y-101053440D01*
X145982200Y-101188060D01*
X145992360Y-101429360D01*
X145997440Y-101810360D01*
X145997440Y-102361540D01*
X145997440Y-102422500D01*
X145992360Y-102948280D01*
X145984740Y-103367380D01*
X145969500Y-103644240D01*
X145951720Y-103750920D01*
X145949180Y-103753460D01*
X145824720Y-103783940D01*
X145545320Y-103842360D01*
X145146540Y-103921100D01*
X144671560Y-104010000D01*
X144643620Y-104017620D01*
X144168640Y-104106520D01*
X143772400Y-104190340D01*
X143495540Y-104253840D01*
X143378700Y-104289400D01*
X143353300Y-104324960D01*
X143259320Y-104507840D01*
X143122160Y-104802480D01*
X142964680Y-105160620D01*
X142812280Y-105531460D01*
X142677660Y-105864200D01*
X142588760Y-106115660D01*
X142560820Y-106227420D01*
X142563360Y-106229960D01*
X142634480Y-106344260D01*
X142797040Y-106588100D01*
X143025640Y-106928460D01*
X143302500Y-107332320D01*
X143322820Y-107362800D01*
X143594600Y-107761580D01*
X143815580Y-108099400D01*
X143962900Y-108340700D01*
X144018780Y-108449920D01*
X144016240Y-108457540D01*
X143927340Y-108576920D01*
X143721600Y-108802980D01*
X143432040Y-109107780D01*
X143081520Y-109460840D01*
X142969760Y-109570060D01*
X142581140Y-109948520D01*
X142311900Y-110197440D01*
X142144260Y-110329520D01*
X142062980Y-110360000D01*
X142060440Y-110357460D01*
X141938520Y-110283800D01*
X141687060Y-110121240D01*
X141344160Y-109887560D01*
X140937760Y-109613240D01*
X140909820Y-109592920D01*
X140511040Y-109321140D01*
X140178300Y-109097620D01*
X139942080Y-108940140D01*
X139837940Y-108876640D01*
X139820160Y-108876640D01*
X139657600Y-108924900D01*
X139373120Y-109023960D01*
X139022600Y-109161120D01*
X138654300Y-109308440D01*
X138319020Y-109450680D01*
X138065020Y-109564980D01*
X137945640Y-109633560D01*
X137943100Y-109638640D01*
X137899920Y-109780880D01*
X137831340Y-110080600D01*
X137747520Y-110492080D01*
X137653540Y-110982300D01*
X137638300Y-111061040D01*
X137549400Y-111538560D01*
X137473200Y-111929720D01*
X137417320Y-112204040D01*
X137389380Y-112315800D01*
X137323340Y-112331040D01*
X137087120Y-112348820D01*
X136731520Y-112356440D01*
X136302260Y-112361520D01*
X135847600Y-112358980D01*
X135405640Y-112348820D01*
X135027180Y-112336120D01*
X134757940Y-112318340D01*
X134646180Y-112295480D01*
X134641100Y-112287860D01*
X134600460Y-112140540D01*
X134534420Y-111840820D01*
X134450600Y-111426800D01*
X134356620Y-110936580D01*
X134338840Y-110850220D01*
X134249940Y-110375240D01*
X134171200Y-109984080D01*
X134112780Y-109717380D01*
X134082300Y-109610700D01*
X134039120Y-109587840D01*
X133843540Y-109504020D01*
X133526040Y-109371940D01*
X133129800Y-109211920D01*
X132212860Y-108841080D01*
X131092720Y-109610700D01*
X130988580Y-109679280D01*
X130584720Y-109953600D01*
X130254520Y-110174580D01*
X130023380Y-110324440D01*
X129926860Y-110377780D01*
X129919240Y-110375240D01*
X129807480Y-110276180D01*
X129586500Y-110067900D01*
X129281700Y-109773260D01*
X128928640Y-109420200D01*
X128667020Y-109158580D01*
X128357140Y-108843620D01*
X128161560Y-108632800D01*
X128054880Y-108495640D01*
X128016780Y-108414360D01*
X128026940Y-108358480D01*
X128098060Y-108244180D01*
X128263160Y-107997800D01*
X128494300Y-107657440D01*
X128768620Y-107261200D01*
X128992140Y-106928460D01*
X129235980Y-106552540D01*
X129396000Y-106283300D01*
X129449340Y-106151220D01*
X129436640Y-106097880D01*
X129357900Y-105876900D01*
X129223280Y-105544160D01*
X129055640Y-105150460D01*
X128664480Y-104261460D01*
X128082820Y-104149700D01*
X127729760Y-104081120D01*
X127237000Y-103987140D01*
X126764560Y-103895700D01*
X126025420Y-103753460D01*
X126000020Y-101040740D01*
X126114320Y-100992480D01*
X126223540Y-100962000D01*
X126497860Y-100901040D01*
X126886480Y-100824840D01*
X127346220Y-100735940D01*
X127739920Y-100664820D01*
X128133620Y-100588620D01*
X128418100Y-100535280D01*
X128542560Y-100507340D01*
X128575580Y-100464160D01*
X128674640Y-100273660D01*
X128814340Y-99968860D01*
X128971820Y-99603100D01*
X129129300Y-99224640D01*
X129269000Y-98874120D01*
X129365520Y-98607420D01*
X129403620Y-98470260D01*
X129347740Y-98366120D01*
X129200420Y-98132440D01*
X128981980Y-97802240D01*
X128712740Y-97408540D01*
X128443500Y-97017380D01*
X128217440Y-96682100D01*
X128059960Y-96440800D01*
X127993920Y-96329040D01*
X128026940Y-96255380D01*
X128184420Y-96064880D01*
X128479060Y-95757540D01*
X128921020Y-95320660D01*
X128992140Y-95252080D01*
X129342660Y-94914260D01*
X129639840Y-94642480D01*
X129845580Y-94457060D01*
X129937020Y-94391020D01*
G37*
X129937020Y-94391020D02*
X130041160Y-94446900D01*
X130277380Y-94594220D01*
X130610120Y-94812660D01*
X131003820Y-95076820D01*
X131400060Y-95343520D01*
X131727720Y-95561960D01*
X131953780Y-95709280D01*
X132050300Y-95762620D01*
X132101100Y-95744840D01*
X132289060Y-95653400D01*
X132563380Y-95511160D01*
X132720860Y-95427340D01*
X132972320Y-95320660D01*
X133096780Y-95297800D01*
X133117100Y-95333360D01*
X133208540Y-95523860D01*
X133353320Y-95851520D01*
X133541280Y-96285860D01*
X133757180Y-96793860D01*
X133988320Y-97339960D01*
X134222000Y-97898760D01*
X134442980Y-98432160D01*
X134638560Y-98909680D01*
X134796040Y-99298300D01*
X134897640Y-99570080D01*
X134935740Y-99686920D01*
X134925580Y-99709780D01*
X134798580Y-99831700D01*
X134580140Y-99996800D01*
X134107700Y-100380340D01*
X133640340Y-100964540D01*
X133355860Y-101627480D01*
X133261880Y-102361540D01*
X133343160Y-103044800D01*
X133609860Y-103702660D01*
X134067060Y-104291940D01*
X134620780Y-104731360D01*
X135271020Y-105008220D01*
X135997460Y-105097120D01*
X136698500Y-105018380D01*
X137369060Y-104754220D01*
X137958340Y-104304640D01*
X138204720Y-104017620D01*
X138550160Y-103420720D01*
X138745740Y-102778100D01*
X138766060Y-102615540D01*
X138738120Y-101914500D01*
X138529840Y-101241400D01*
X138159000Y-100636880D01*
X137643380Y-100144120D01*
X137579880Y-100098400D01*
X137341120Y-99920600D01*
X137181100Y-99798680D01*
X137056640Y-99694540D01*
X137950720Y-97543160D01*
X138092960Y-97200260D01*
X138336800Y-96610980D01*
X138555240Y-96105520D01*
X138725420Y-95701660D01*
X138844800Y-95432420D01*
X138898140Y-95323200D01*
X138903220Y-95318120D01*
X138981960Y-95302880D01*
X139147060Y-95363840D01*
X139446780Y-95508620D01*
X139644900Y-95610220D01*
X139873500Y-95721980D01*
X139977640Y-95762620D01*
X140064000Y-95714360D01*
X140284980Y-95572120D01*
X140605020Y-95358760D01*
X140988560Y-95097140D01*
X141354320Y-94848220D01*
X141692140Y-94624700D01*
X141938520Y-94467220D01*
X142057900Y-94403720D01*
X142075680Y-94403720D01*
X142182360Y-94462140D01*
X142375400Y-94624700D01*
X142670040Y-94901560D01*
X143084060Y-95310500D01*
X143147560Y-95374000D01*
X143487920Y-95721980D01*
X143764780Y-96011540D01*
X143950200Y-96219820D01*
X144018780Y-96313800D01*
X143957820Y-96430640D01*
X143802880Y-96674480D01*
X143579360Y-97017380D01*
X143305040Y-97416160D01*
X142593840Y-98452480D01*
X142985000Y-99430380D01*
X143104380Y-99730100D01*
X143256780Y-100093320D01*
X143371080Y-100352400D01*
X143429500Y-100464160D01*
X143536180Y-100502260D01*
X143802880Y-100565760D01*
X144191500Y-100647040D01*
X144653780Y-100733400D01*
X145093200Y-100814680D01*
X145491980Y-100888340D01*
X145779000Y-100946760D01*
X145908540Y-100972160D01*
X145939020Y-100989940D01*
X145966960Y-101053440D01*
X145982200Y-101188060D01*
X145992360Y-101429360D01*
X145997440Y-101810360D01*
X145997440Y-102361540D01*
X145997440Y-102422500D01*
X145992360Y-102948280D01*
X145984740Y-103367380D01*
X145969500Y-103644240D01*
X145951720Y-103750920D01*
X145949180Y-103753460D01*
X145824720Y-103783940D01*
X145545320Y-103842360D01*
X145146540Y-103921100D01*
X144671560Y-104010000D01*
X144643620Y-104017620D01*
X144168640Y-104106520D01*
X143772400Y-104190340D01*
X143495540Y-104253840D01*
X143378700Y-104289400D01*
X143353300Y-104324960D01*
X143259320Y-104507840D01*
X143122160Y-104802480D01*
X142964680Y-105160620D01*
X142812280Y-105531460D01*
X142677660Y-105864200D01*
X142588760Y-106115660D01*
X142560820Y-106227420D01*
X142563360Y-106229960D01*
X142634480Y-106344260D01*
X142797040Y-106588100D01*
X143025640Y-106928460D01*
X143302500Y-107332320D01*
X143322820Y-107362800D01*
X143594600Y-107761580D01*
X143815580Y-108099400D01*
X143962900Y-108340700D01*
X144018780Y-108449920D01*
X144016240Y-108457540D01*
X143927340Y-108576920D01*
X143721600Y-108802980D01*
X143432040Y-109107780D01*
X143081520Y-109460840D01*
X142969760Y-109570060D01*
X142581140Y-109948520D01*
X142311900Y-110197440D01*
X142144260Y-110329520D01*
X142062980Y-110360000D01*
X142060440Y-110357460D01*
X141938520Y-110283800D01*
X141687060Y-110121240D01*
X141344160Y-109887560D01*
X140937760Y-109613240D01*
X140909820Y-109592920D01*
X140511040Y-109321140D01*
X140178300Y-109097620D01*
X139942080Y-108940140D01*
X139837940Y-108876640D01*
X139820160Y-108876640D01*
X139657600Y-108924900D01*
X139373120Y-109023960D01*
X139022600Y-109161120D01*
X138654300Y-109308440D01*
X138319020Y-109450680D01*
X138065020Y-109564980D01*
X137945640Y-109633560D01*
X137943100Y-109638640D01*
X137899920Y-109780880D01*
X137831340Y-110080600D01*
X137747520Y-110492080D01*
X137653540Y-110982300D01*
X137638300Y-111061040D01*
X137549400Y-111538560D01*
X137473200Y-111929720D01*
X137417320Y-112204040D01*
X137389380Y-112315800D01*
X137323340Y-112331040D01*
X137087120Y-112348820D01*
X136731520Y-112356440D01*
X136302260Y-112361520D01*
X135847600Y-112358980D01*
X135405640Y-112348820D01*
X135027180Y-112336120D01*
X134757940Y-112318340D01*
X134646180Y-112295480D01*
X134641100Y-112287860D01*
X134600460Y-112140540D01*
X134534420Y-111840820D01*
X134450600Y-111426800D01*
X134356620Y-110936580D01*
X134338840Y-110850220D01*
X134249940Y-110375240D01*
X134171200Y-109984080D01*
X134112780Y-109717380D01*
X134082300Y-109610700D01*
X134039120Y-109587840D01*
X133843540Y-109504020D01*
X133526040Y-109371940D01*
X133129800Y-109211920D01*
X132212860Y-108841080D01*
X131092720Y-109610700D01*
X130988580Y-109679280D01*
X130584720Y-109953600D01*
X130254520Y-110174580D01*
X130023380Y-110324440D01*
X129926860Y-110377780D01*
X129919240Y-110375240D01*
X129807480Y-110276180D01*
X129586500Y-110067900D01*
X129281700Y-109773260D01*
X128928640Y-109420200D01*
X128667020Y-109158580D01*
X128357140Y-108843620D01*
X128161560Y-108632800D01*
X128054880Y-108495640D01*
X128016780Y-108414360D01*
X128026940Y-108358480D01*
X128098060Y-108244180D01*
X128263160Y-107997800D01*
X128494300Y-107657440D01*
X128768620Y-107261200D01*
X128992140Y-106928460D01*
X129235980Y-106552540D01*
X129396000Y-106283300D01*
X129449340Y-106151220D01*
X129436640Y-106097880D01*
X129357900Y-105876900D01*
X129223280Y-105544160D01*
X129055640Y-105150460D01*
X128664480Y-104261460D01*
X128082820Y-104149700D01*
X127729760Y-104081120D01*
X127237000Y-103987140D01*
X126764560Y-103895700D01*
X126025420Y-103753460D01*
X126000020Y-101040740D01*
X126114320Y-100992480D01*
X126223540Y-100962000D01*
X126497860Y-100901040D01*
X126886480Y-100824840D01*
X127346220Y-100735940D01*
X127739920Y-100664820D01*
X128133620Y-100588620D01*
X128418100Y-100535280D01*
X128542560Y-100507340D01*
X128575580Y-100464160D01*
X128674640Y-100273660D01*
X128814340Y-99968860D01*
X128971820Y-99603100D01*
X129129300Y-99224640D01*
X129269000Y-98874120D01*
X129365520Y-98607420D01*
X129403620Y-98470260D01*
X129347740Y-98366120D01*
X129200420Y-98132440D01*
X128981980Y-97802240D01*
X128712740Y-97408540D01*
X128443500Y-97017380D01*
X128217440Y-96682100D01*
X128059960Y-96440800D01*
X127993920Y-96329040D01*
X128026940Y-96255380D01*
X128184420Y-96064880D01*
X128479060Y-95757540D01*
X128921020Y-95320660D01*
X128992140Y-95252080D01*
X129342660Y-94914260D01*
X129639840Y-94642480D01*
X129845580Y-94457060D01*
X129937020Y-94391020D01*
D12*
%TO.C,JP1*%
X152375000Y-106975000D02*
X150375000Y-106975000D01*
X152375000Y-109775000D02*
X152375000Y-106975000D01*
X150375000Y-109775000D02*
X152375000Y-109775000D01*
X150375000Y-106975000D02*
X150375000Y-109775000D01*
%TO.C,D5*%
X129357000Y-112778000D02*
X129357000Y-114238000D01*
X132517000Y-112778000D02*
X132517000Y-114938000D01*
X132517000Y-112778000D02*
X131587000Y-112778000D01*
X129357000Y-112778000D02*
X130287000Y-112778000D01*
%TO.C,D4*%
X169150000Y-101600000D02*
X169150000Y-104900000D01*
X169150000Y-104900000D02*
X162250000Y-104900000D01*
X169150000Y-101600000D02*
X162250000Y-101600000D01*
%TO.C,D3*%
X169150000Y-106100000D02*
X169150000Y-109400000D01*
X169150000Y-109400000D02*
X162250000Y-109400000D01*
X169150000Y-106100000D02*
X162250000Y-106100000D01*
%TO.C,D2*%
X169150000Y-110350000D02*
X169150000Y-113650000D01*
X169150000Y-113650000D02*
X162250000Y-113650000D01*
X169150000Y-110350000D02*
X162250000Y-110350000D01*
%TO.C,JP1*%
D13*
X149027380Y-107541666D02*
X149741666Y-107541666D01*
X149884523Y-107494047D01*
X149979761Y-107398809D01*
X150027380Y-107255952D01*
X150027380Y-107160714D01*
X150027380Y-108017857D02*
X149027380Y-108017857D01*
X149027380Y-108398809D01*
X149075000Y-108494047D01*
X149122619Y-108541666D01*
X149217857Y-108589285D01*
X149360714Y-108589285D01*
X149455952Y-108541666D01*
X149503571Y-108494047D01*
X149551190Y-108398809D01*
X149551190Y-108017857D01*
X150027380Y-109541666D02*
X150027380Y-108970238D01*
X150027380Y-109255952D02*
X149027380Y-109255952D01*
X149170238Y-109160714D01*
X149265476Y-109065476D01*
X149313095Y-108970238D01*
%TO.C,D5*%
X133889380Y-112799904D02*
X132889380Y-112799904D01*
X132889380Y-113038000D01*
X132937000Y-113180857D01*
X133032238Y-113276095D01*
X133127476Y-113323714D01*
X133317952Y-113371333D01*
X133460809Y-113371333D01*
X133651285Y-113323714D01*
X133746523Y-113276095D01*
X133841761Y-113180857D01*
X133889380Y-113038000D01*
X133889380Y-112799904D01*
X132889380Y-114276095D02*
X132889380Y-113799904D01*
X133365571Y-113752285D01*
X133317952Y-113799904D01*
X133270333Y-113895142D01*
X133270333Y-114133238D01*
X133317952Y-114228476D01*
X133365571Y-114276095D01*
X133460809Y-114323714D01*
X133698904Y-114323714D01*
X133794142Y-114276095D01*
X133841761Y-114228476D01*
X133889380Y-114133238D01*
X133889380Y-113895142D01*
X133841761Y-113799904D01*
X133794142Y-113752285D01*
%TO.C,D4*%
X165488095Y-101202380D02*
X165488095Y-100202380D01*
X165250000Y-100202380D01*
X165107142Y-100250000D01*
X165011904Y-100345238D01*
X164964285Y-100440476D01*
X164916666Y-100630952D01*
X164916666Y-100773809D01*
X164964285Y-100964285D01*
X165011904Y-101059523D01*
X165107142Y-101154761D01*
X165250000Y-101202380D01*
X165488095Y-101202380D01*
X164059523Y-100535714D02*
X164059523Y-101202380D01*
X164297619Y-100154761D02*
X164535714Y-100869047D01*
X163916666Y-100869047D01*
%TO.C,D3*%
X165488095Y-105702380D02*
X165488095Y-104702380D01*
X165250000Y-104702380D01*
X165107142Y-104750000D01*
X165011904Y-104845238D01*
X164964285Y-104940476D01*
X164916666Y-105130952D01*
X164916666Y-105273809D01*
X164964285Y-105464285D01*
X165011904Y-105559523D01*
X165107142Y-105654761D01*
X165250000Y-105702380D01*
X165488095Y-105702380D01*
X164583333Y-104702380D02*
X163964285Y-104702380D01*
X164297619Y-105083333D01*
X164154761Y-105083333D01*
X164059523Y-105130952D01*
X164011904Y-105178571D01*
X163964285Y-105273809D01*
X163964285Y-105511904D01*
X164011904Y-105607142D01*
X164059523Y-105654761D01*
X164154761Y-105702380D01*
X164440476Y-105702380D01*
X164535714Y-105654761D01*
X164583333Y-105607142D01*
%TO.C,D2*%
X165488095Y-109952380D02*
X165488095Y-108952380D01*
X165250000Y-108952380D01*
X165107142Y-109000000D01*
X165011904Y-109095238D01*
X164964285Y-109190476D01*
X164916666Y-109380952D01*
X164916666Y-109523809D01*
X164964285Y-109714285D01*
X165011904Y-109809523D01*
X165107142Y-109904761D01*
X165250000Y-109952380D01*
X165488095Y-109952380D01*
X164535714Y-109047619D02*
X164488095Y-109000000D01*
X164392857Y-108952380D01*
X164154761Y-108952380D01*
X164059523Y-109000000D01*
X164011904Y-109047619D01*
X163964285Y-109142857D01*
X163964285Y-109238095D01*
X164011904Y-109380952D01*
X164583333Y-109952380D01*
X163964285Y-109952380D01*
%TD*%
M02*
