%TF.GenerationSoftware,KiCad,Pcbnew,(5.1.6)-1*%
%TF.CreationDate,2020-11-16T12:45:35+03:00*%
%TF.ProjectId,SensorBoard,53656e73-6f72-4426-9f61-72642e6b6963,rev?*%
%TF.SameCoordinates,Original*%
%TF.FileFunction,Copper,L1,Top*%
%TF.FilePolarity,Positive*%
%FSLAX46Y46*%
G04 Gerber Fmt 4.6, Leading zero omitted, Abs format (unit mm)*
G04 Created by KiCad (PCBNEW (5.1.6)-1) date 2020-11-16 12:45:35*
%MOMM*%
%LPD*%
G01*
G04 APERTURE LIST*
%TA.AperFunction,EtchedComponent*%
%ADD10C,0.002540*%
%TD*%
%TA.AperFunction,ComponentPad*%
%ADD11O,1.700000X1.700000*%
%TD*%
%TA.AperFunction,ComponentPad*%
%ADD12R,1.700000X1.700000*%
%TD*%
%TA.AperFunction,SMDPad,CuDef*%
%ADD13C,0.100000*%
%TD*%
%TA.AperFunction,SMDPad,CuDef*%
%ADD14R,1.100000X0.250000*%
%TD*%
%TA.AperFunction,SMDPad,CuDef*%
%ADD15R,1.060000X0.650000*%
%TD*%
%TA.AperFunction,SMDPad,CuDef*%
%ADD16R,0.650000X1.060000*%
%TD*%
%TA.AperFunction,SMDPad,CuDef*%
%ADD17R,2.400000X0.740000*%
%TD*%
%TA.AperFunction,SMDPad,CuDef*%
%ADD18R,1.400000X1.200000*%
%TD*%
%TA.AperFunction,SMDPad,CuDef*%
%ADD19R,2.000000X1.780000*%
%TD*%
%TA.AperFunction,ComponentPad*%
%ADD20R,1.500000X2.000000*%
%TD*%
%TA.AperFunction,ComponentPad*%
%ADD21O,1.500000X2.000000*%
%TD*%
%TA.AperFunction,SMDPad,CuDef*%
%ADD22R,1.000000X1.600000*%
%TD*%
%TA.AperFunction,SMDPad,CuDef*%
%ADD23R,2.500000X2.300000*%
%TD*%
%TA.AperFunction,ComponentPad*%
%ADD24O,1.500000X2.500000*%
%TD*%
%TA.AperFunction,ComponentPad*%
%ADD25R,1.500000X2.500000*%
%TD*%
%TA.AperFunction,SMDPad,CuDef*%
%ADD26R,0.900000X0.800000*%
%TD*%
%TA.AperFunction,SMDPad,CuDef*%
%ADD27R,0.375000X0.350000*%
%TD*%
%TA.AperFunction,SMDPad,CuDef*%
%ADD28R,0.350000X0.375000*%
%TD*%
%TA.AperFunction,ComponentPad*%
%ADD29O,1.727200X2.032000*%
%TD*%
%TA.AperFunction,ComponentPad*%
%ADD30C,4.064000*%
%TD*%
%TA.AperFunction,ViaPad*%
%ADD31C,0.900000*%
%TD*%
%TA.AperFunction,Conductor*%
%ADD32C,0.250000*%
%TD*%
%TA.AperFunction,Conductor*%
%ADD33C,0.800000*%
%TD*%
%TA.AperFunction,Conductor*%
%ADD34C,0.600000*%
%TD*%
%TA.AperFunction,Conductor*%
%ADD35C,0.200000*%
%TD*%
G04 APERTURE END LIST*
D10*
%TO.C,G\u002A\u002A\u002A*%
G36*
X131340680Y-97346200D02*
G01*
X131358460Y-97338580D01*
X131391480Y-97315720D01*
X131442280Y-97282700D01*
X131500700Y-97244600D01*
X131561660Y-97203960D01*
X131609920Y-97170940D01*
X131645480Y-97148080D01*
X131658180Y-97140460D01*
X131665800Y-97143000D01*
X131693740Y-97158240D01*
X131734380Y-97178560D01*
X131759780Y-97191260D01*
X131797880Y-97206500D01*
X131815660Y-97211580D01*
X131818200Y-97206500D01*
X131833440Y-97176020D01*
X131853760Y-97127760D01*
X131881700Y-97061720D01*
X131914720Y-96985520D01*
X131950280Y-96904240D01*
X131983300Y-96820420D01*
X132016320Y-96741680D01*
X132046800Y-96668020D01*
X132069660Y-96609600D01*
X132084900Y-96568960D01*
X132092520Y-96551180D01*
X132089980Y-96548640D01*
X132072200Y-96530860D01*
X132039180Y-96505460D01*
X131968060Y-96447040D01*
X131896940Y-96360680D01*
X131853760Y-96261620D01*
X131841060Y-96149860D01*
X131851220Y-96048260D01*
X131891860Y-95951740D01*
X131960440Y-95862840D01*
X132044260Y-95796800D01*
X132140780Y-95756160D01*
X132250000Y-95743460D01*
X132354140Y-95753620D01*
X132453200Y-95794260D01*
X132542100Y-95860300D01*
X132580200Y-95903480D01*
X132631000Y-95994920D01*
X132661480Y-96088900D01*
X132664020Y-96111760D01*
X132658940Y-96218440D01*
X132628460Y-96320040D01*
X132572580Y-96408940D01*
X132496380Y-96482600D01*
X132486220Y-96490220D01*
X132450660Y-96518160D01*
X132425260Y-96535940D01*
X132407480Y-96551180D01*
X132542100Y-96873760D01*
X132562420Y-96924560D01*
X132600520Y-97013460D01*
X132631000Y-97089660D01*
X132658940Y-97150620D01*
X132676720Y-97191260D01*
X132684340Y-97206500D01*
X132697040Y-97209040D01*
X132719900Y-97201420D01*
X132765620Y-97178560D01*
X132796100Y-97163320D01*
X132829120Y-97148080D01*
X132844360Y-97140460D01*
X132859600Y-97148080D01*
X132892620Y-97168400D01*
X132938340Y-97201420D01*
X132996760Y-97239520D01*
X133052640Y-97277620D01*
X133103440Y-97310640D01*
X133139000Y-97336040D01*
X133156780Y-97343660D01*
X133159320Y-97343660D01*
X133177100Y-97336040D01*
X133205040Y-97310640D01*
X133248220Y-97270000D01*
X133311720Y-97209040D01*
X133321880Y-97198880D01*
X133372680Y-97148080D01*
X133413320Y-97102360D01*
X133441260Y-97071880D01*
X133451420Y-97059180D01*
X133441260Y-97041400D01*
X133418400Y-97003300D01*
X133385380Y-96952500D01*
X133344740Y-96891540D01*
X133238060Y-96736600D01*
X133296480Y-96591820D01*
X133314260Y-96546100D01*
X133337120Y-96490220D01*
X133354900Y-96452120D01*
X133362520Y-96434340D01*
X133380300Y-96429260D01*
X133418400Y-96419100D01*
X133476820Y-96408940D01*
X133547940Y-96396240D01*
X133613980Y-96383540D01*
X133672400Y-96370840D01*
X133715580Y-96363220D01*
X133735900Y-96360680D01*
X133740980Y-96355600D01*
X133743520Y-96347980D01*
X133746060Y-96327660D01*
X133748600Y-96289560D01*
X133748600Y-96233680D01*
X133748600Y-96149860D01*
X133748600Y-96142240D01*
X133748600Y-96063500D01*
X133746060Y-96000000D01*
X133743520Y-95961900D01*
X133740980Y-95944120D01*
X133723200Y-95939040D01*
X133680020Y-95931420D01*
X133621600Y-95918720D01*
X133550480Y-95906020D01*
X133545400Y-95906020D01*
X133474280Y-95890780D01*
X133415860Y-95878080D01*
X133372680Y-95870460D01*
X133354900Y-95862840D01*
X133352360Y-95857760D01*
X133337120Y-95829820D01*
X133316800Y-95786640D01*
X133293940Y-95733300D01*
X133271080Y-95677420D01*
X133250760Y-95626620D01*
X133238060Y-95591060D01*
X133232980Y-95573280D01*
X133243140Y-95555500D01*
X133268540Y-95519940D01*
X133304100Y-95469140D01*
X133344740Y-95408180D01*
X133347280Y-95403100D01*
X133387920Y-95342140D01*
X133420940Y-95291340D01*
X133443800Y-95255780D01*
X133451420Y-95240540D01*
X133451420Y-95238000D01*
X133438720Y-95220220D01*
X133408240Y-95187200D01*
X133362520Y-95141480D01*
X133311720Y-95088140D01*
X133293940Y-95072900D01*
X133235520Y-95014480D01*
X133194880Y-94978920D01*
X133169480Y-94958600D01*
X133159320Y-94953520D01*
X133156780Y-94953520D01*
X133139000Y-94963680D01*
X133100900Y-94989080D01*
X133050100Y-95024640D01*
X132989140Y-95065280D01*
X132986600Y-95067820D01*
X132925640Y-95108460D01*
X132874840Y-95144020D01*
X132839280Y-95166880D01*
X132824040Y-95174500D01*
X132821500Y-95174500D01*
X132798640Y-95169420D01*
X132755460Y-95154180D01*
X132702120Y-95133860D01*
X132646240Y-95111000D01*
X132595440Y-95090680D01*
X132559880Y-95072900D01*
X132542100Y-95062740D01*
X132539560Y-95062740D01*
X132534480Y-95039880D01*
X132524320Y-94994160D01*
X132511620Y-94933200D01*
X132496380Y-94859540D01*
X132493840Y-94849380D01*
X132481140Y-94775720D01*
X132470980Y-94717300D01*
X132460820Y-94676660D01*
X132458280Y-94658880D01*
X132448120Y-94658880D01*
X132412560Y-94656340D01*
X132359220Y-94653800D01*
X132293180Y-94653800D01*
X132227140Y-94653800D01*
X132161100Y-94653800D01*
X132105220Y-94656340D01*
X132064580Y-94658880D01*
X132046800Y-94663960D01*
X132041720Y-94686820D01*
X132031560Y-94730000D01*
X132018860Y-94793500D01*
X132003620Y-94867160D01*
X132001080Y-94879860D01*
X131988380Y-94950980D01*
X131975680Y-95009400D01*
X131968060Y-95050040D01*
X131962980Y-95065280D01*
X131957900Y-95067820D01*
X131927420Y-95083060D01*
X131879160Y-95100840D01*
X131820740Y-95126240D01*
X131683580Y-95182120D01*
X131515940Y-95065280D01*
X131500700Y-95055120D01*
X131439740Y-95014480D01*
X131388940Y-94981460D01*
X131353380Y-94958600D01*
X131340680Y-94950980D01*
X131338140Y-94950980D01*
X131322900Y-94966220D01*
X131289880Y-94996700D01*
X131244160Y-95042420D01*
X131190820Y-95093220D01*
X131150180Y-95133860D01*
X131104460Y-95179580D01*
X131076520Y-95212600D01*
X131058740Y-95232920D01*
X131053660Y-95245620D01*
X131056200Y-95253240D01*
X131066360Y-95271020D01*
X131091760Y-95306580D01*
X131124780Y-95359920D01*
X131165420Y-95418340D01*
X131200980Y-95469140D01*
X131236540Y-95525020D01*
X131259400Y-95565660D01*
X131269560Y-95583440D01*
X131267020Y-95593600D01*
X131254320Y-95626620D01*
X131234000Y-95674880D01*
X131208600Y-95735840D01*
X131150180Y-95867920D01*
X131063820Y-95885700D01*
X131010480Y-95895860D01*
X130936820Y-95908560D01*
X130865700Y-95923800D01*
X130753940Y-95944120D01*
X130751400Y-96347980D01*
X130769180Y-96355600D01*
X130784420Y-96360680D01*
X130825060Y-96370840D01*
X130883480Y-96381000D01*
X130952060Y-96393700D01*
X131013020Y-96406400D01*
X131071440Y-96416560D01*
X131114620Y-96424180D01*
X131132400Y-96429260D01*
X131137480Y-96434340D01*
X131152720Y-96464820D01*
X131173040Y-96510540D01*
X131195900Y-96563880D01*
X131221300Y-96622300D01*
X131241620Y-96673100D01*
X131256860Y-96713740D01*
X131261940Y-96734060D01*
X131254320Y-96749300D01*
X131231460Y-96784860D01*
X131198440Y-96835660D01*
X131157800Y-96894080D01*
X131117160Y-96952500D01*
X131084140Y-97003300D01*
X131058740Y-97038860D01*
X131051120Y-97056640D01*
X131056200Y-97066800D01*
X131079060Y-97094740D01*
X131122240Y-97140460D01*
X131188280Y-97206500D01*
X131200980Y-97216660D01*
X131251780Y-97267460D01*
X131297500Y-97308100D01*
X131327980Y-97336040D01*
X131340680Y-97346200D01*
G37*
X131340680Y-97346200D02*
X131358460Y-97338580D01*
X131391480Y-97315720D01*
X131442280Y-97282700D01*
X131500700Y-97244600D01*
X131561660Y-97203960D01*
X131609920Y-97170940D01*
X131645480Y-97148080D01*
X131658180Y-97140460D01*
X131665800Y-97143000D01*
X131693740Y-97158240D01*
X131734380Y-97178560D01*
X131759780Y-97191260D01*
X131797880Y-97206500D01*
X131815660Y-97211580D01*
X131818200Y-97206500D01*
X131833440Y-97176020D01*
X131853760Y-97127760D01*
X131881700Y-97061720D01*
X131914720Y-96985520D01*
X131950280Y-96904240D01*
X131983300Y-96820420D01*
X132016320Y-96741680D01*
X132046800Y-96668020D01*
X132069660Y-96609600D01*
X132084900Y-96568960D01*
X132092520Y-96551180D01*
X132089980Y-96548640D01*
X132072200Y-96530860D01*
X132039180Y-96505460D01*
X131968060Y-96447040D01*
X131896940Y-96360680D01*
X131853760Y-96261620D01*
X131841060Y-96149860D01*
X131851220Y-96048260D01*
X131891860Y-95951740D01*
X131960440Y-95862840D01*
X132044260Y-95796800D01*
X132140780Y-95756160D01*
X132250000Y-95743460D01*
X132354140Y-95753620D01*
X132453200Y-95794260D01*
X132542100Y-95860300D01*
X132580200Y-95903480D01*
X132631000Y-95994920D01*
X132661480Y-96088900D01*
X132664020Y-96111760D01*
X132658940Y-96218440D01*
X132628460Y-96320040D01*
X132572580Y-96408940D01*
X132496380Y-96482600D01*
X132486220Y-96490220D01*
X132450660Y-96518160D01*
X132425260Y-96535940D01*
X132407480Y-96551180D01*
X132542100Y-96873760D01*
X132562420Y-96924560D01*
X132600520Y-97013460D01*
X132631000Y-97089660D01*
X132658940Y-97150620D01*
X132676720Y-97191260D01*
X132684340Y-97206500D01*
X132697040Y-97209040D01*
X132719900Y-97201420D01*
X132765620Y-97178560D01*
X132796100Y-97163320D01*
X132829120Y-97148080D01*
X132844360Y-97140460D01*
X132859600Y-97148080D01*
X132892620Y-97168400D01*
X132938340Y-97201420D01*
X132996760Y-97239520D01*
X133052640Y-97277620D01*
X133103440Y-97310640D01*
X133139000Y-97336040D01*
X133156780Y-97343660D01*
X133159320Y-97343660D01*
X133177100Y-97336040D01*
X133205040Y-97310640D01*
X133248220Y-97270000D01*
X133311720Y-97209040D01*
X133321880Y-97198880D01*
X133372680Y-97148080D01*
X133413320Y-97102360D01*
X133441260Y-97071880D01*
X133451420Y-97059180D01*
X133441260Y-97041400D01*
X133418400Y-97003300D01*
X133385380Y-96952500D01*
X133344740Y-96891540D01*
X133238060Y-96736600D01*
X133296480Y-96591820D01*
X133314260Y-96546100D01*
X133337120Y-96490220D01*
X133354900Y-96452120D01*
X133362520Y-96434340D01*
X133380300Y-96429260D01*
X133418400Y-96419100D01*
X133476820Y-96408940D01*
X133547940Y-96396240D01*
X133613980Y-96383540D01*
X133672400Y-96370840D01*
X133715580Y-96363220D01*
X133735900Y-96360680D01*
X133740980Y-96355600D01*
X133743520Y-96347980D01*
X133746060Y-96327660D01*
X133748600Y-96289560D01*
X133748600Y-96233680D01*
X133748600Y-96149860D01*
X133748600Y-96142240D01*
X133748600Y-96063500D01*
X133746060Y-96000000D01*
X133743520Y-95961900D01*
X133740980Y-95944120D01*
X133723200Y-95939040D01*
X133680020Y-95931420D01*
X133621600Y-95918720D01*
X133550480Y-95906020D01*
X133545400Y-95906020D01*
X133474280Y-95890780D01*
X133415860Y-95878080D01*
X133372680Y-95870460D01*
X133354900Y-95862840D01*
X133352360Y-95857760D01*
X133337120Y-95829820D01*
X133316800Y-95786640D01*
X133293940Y-95733300D01*
X133271080Y-95677420D01*
X133250760Y-95626620D01*
X133238060Y-95591060D01*
X133232980Y-95573280D01*
X133243140Y-95555500D01*
X133268540Y-95519940D01*
X133304100Y-95469140D01*
X133344740Y-95408180D01*
X133347280Y-95403100D01*
X133387920Y-95342140D01*
X133420940Y-95291340D01*
X133443800Y-95255780D01*
X133451420Y-95240540D01*
X133451420Y-95238000D01*
X133438720Y-95220220D01*
X133408240Y-95187200D01*
X133362520Y-95141480D01*
X133311720Y-95088140D01*
X133293940Y-95072900D01*
X133235520Y-95014480D01*
X133194880Y-94978920D01*
X133169480Y-94958600D01*
X133159320Y-94953520D01*
X133156780Y-94953520D01*
X133139000Y-94963680D01*
X133100900Y-94989080D01*
X133050100Y-95024640D01*
X132989140Y-95065280D01*
X132986600Y-95067820D01*
X132925640Y-95108460D01*
X132874840Y-95144020D01*
X132839280Y-95166880D01*
X132824040Y-95174500D01*
X132821500Y-95174500D01*
X132798640Y-95169420D01*
X132755460Y-95154180D01*
X132702120Y-95133860D01*
X132646240Y-95111000D01*
X132595440Y-95090680D01*
X132559880Y-95072900D01*
X132542100Y-95062740D01*
X132539560Y-95062740D01*
X132534480Y-95039880D01*
X132524320Y-94994160D01*
X132511620Y-94933200D01*
X132496380Y-94859540D01*
X132493840Y-94849380D01*
X132481140Y-94775720D01*
X132470980Y-94717300D01*
X132460820Y-94676660D01*
X132458280Y-94658880D01*
X132448120Y-94658880D01*
X132412560Y-94656340D01*
X132359220Y-94653800D01*
X132293180Y-94653800D01*
X132227140Y-94653800D01*
X132161100Y-94653800D01*
X132105220Y-94656340D01*
X132064580Y-94658880D01*
X132046800Y-94663960D01*
X132041720Y-94686820D01*
X132031560Y-94730000D01*
X132018860Y-94793500D01*
X132003620Y-94867160D01*
X132001080Y-94879860D01*
X131988380Y-94950980D01*
X131975680Y-95009400D01*
X131968060Y-95050040D01*
X131962980Y-95065280D01*
X131957900Y-95067820D01*
X131927420Y-95083060D01*
X131879160Y-95100840D01*
X131820740Y-95126240D01*
X131683580Y-95182120D01*
X131515940Y-95065280D01*
X131500700Y-95055120D01*
X131439740Y-95014480D01*
X131388940Y-94981460D01*
X131353380Y-94958600D01*
X131340680Y-94950980D01*
X131338140Y-94950980D01*
X131322900Y-94966220D01*
X131289880Y-94996700D01*
X131244160Y-95042420D01*
X131190820Y-95093220D01*
X131150180Y-95133860D01*
X131104460Y-95179580D01*
X131076520Y-95212600D01*
X131058740Y-95232920D01*
X131053660Y-95245620D01*
X131056200Y-95253240D01*
X131066360Y-95271020D01*
X131091760Y-95306580D01*
X131124780Y-95359920D01*
X131165420Y-95418340D01*
X131200980Y-95469140D01*
X131236540Y-95525020D01*
X131259400Y-95565660D01*
X131269560Y-95583440D01*
X131267020Y-95593600D01*
X131254320Y-95626620D01*
X131234000Y-95674880D01*
X131208600Y-95735840D01*
X131150180Y-95867920D01*
X131063820Y-95885700D01*
X131010480Y-95895860D01*
X130936820Y-95908560D01*
X130865700Y-95923800D01*
X130753940Y-95944120D01*
X130751400Y-96347980D01*
X130769180Y-96355600D01*
X130784420Y-96360680D01*
X130825060Y-96370840D01*
X130883480Y-96381000D01*
X130952060Y-96393700D01*
X131013020Y-96406400D01*
X131071440Y-96416560D01*
X131114620Y-96424180D01*
X131132400Y-96429260D01*
X131137480Y-96434340D01*
X131152720Y-96464820D01*
X131173040Y-96510540D01*
X131195900Y-96563880D01*
X131221300Y-96622300D01*
X131241620Y-96673100D01*
X131256860Y-96713740D01*
X131261940Y-96734060D01*
X131254320Y-96749300D01*
X131231460Y-96784860D01*
X131198440Y-96835660D01*
X131157800Y-96894080D01*
X131117160Y-96952500D01*
X131084140Y-97003300D01*
X131058740Y-97038860D01*
X131051120Y-97056640D01*
X131056200Y-97066800D01*
X131079060Y-97094740D01*
X131122240Y-97140460D01*
X131188280Y-97206500D01*
X131200980Y-97216660D01*
X131251780Y-97267460D01*
X131297500Y-97308100D01*
X131327980Y-97336040D01*
X131340680Y-97346200D01*
%TD*%
%TO.P,R19,2*%
%TO.N,Net-(R19-Pad2)*%
%TA.AperFunction,SMDPad,CuDef*%
G36*
G01*
X141506250Y-110150000D02*
X140993750Y-110150000D01*
G75*
G02*
X140775000Y-109931250I0J218750D01*
G01*
X140775000Y-109493750D01*
G75*
G02*
X140993750Y-109275000I218750J0D01*
G01*
X141506250Y-109275000D01*
G75*
G02*
X141725000Y-109493750I0J-218750D01*
G01*
X141725000Y-109931250D01*
G75*
G02*
X141506250Y-110150000I-218750J0D01*
G01*
G37*
%TD.AperFunction*%
%TO.P,R19,1*%
%TO.N,GND*%
%TA.AperFunction,SMDPad,CuDef*%
G36*
G01*
X141506250Y-111725000D02*
X140993750Y-111725000D01*
G75*
G02*
X140775000Y-111506250I0J218750D01*
G01*
X140775000Y-111068750D01*
G75*
G02*
X140993750Y-110850000I218750J0D01*
G01*
X141506250Y-110850000D01*
G75*
G02*
X141725000Y-111068750I0J-218750D01*
G01*
X141725000Y-111506250D01*
G75*
G02*
X141506250Y-111725000I-218750J0D01*
G01*
G37*
%TD.AperFunction*%
%TD*%
D11*
%TO.P,J8,3*%
%TO.N,GNDD*%
X134955000Y-123875000D03*
%TO.P,J8,2*%
%TO.N,Net-(J8-Pad2)*%
X132415000Y-123875000D03*
D12*
%TO.P,J8,1*%
%TO.N,Net-(D1-Pad2)*%
X129875000Y-123875000D03*
%TD*%
%TO.P,C27,2*%
%TO.N,GND*%
%TA.AperFunction,SMDPad,CuDef*%
G36*
G01*
X160417500Y-114269000D02*
X160892500Y-114269000D01*
G75*
G02*
X161130000Y-114506500I0J-237500D01*
G01*
X161130000Y-115081500D01*
G75*
G02*
X160892500Y-115319000I-237500J0D01*
G01*
X160417500Y-115319000D01*
G75*
G02*
X160180000Y-115081500I0J237500D01*
G01*
X160180000Y-114506500D01*
G75*
G02*
X160417500Y-114269000I237500J0D01*
G01*
G37*
%TD.AperFunction*%
%TO.P,C27,1*%
%TO.N,+3V3*%
%TA.AperFunction,SMDPad,CuDef*%
G36*
G01*
X160417500Y-112519000D02*
X160892500Y-112519000D01*
G75*
G02*
X161130000Y-112756500I0J-237500D01*
G01*
X161130000Y-113331500D01*
G75*
G02*
X160892500Y-113569000I-237500J0D01*
G01*
X160417500Y-113569000D01*
G75*
G02*
X160180000Y-113331500I0J237500D01*
G01*
X160180000Y-112756500D01*
G75*
G02*
X160417500Y-112519000I237500J0D01*
G01*
G37*
%TD.AperFunction*%
%TD*%
%TO.P,R18,2*%
%TO.N,/SensorBoardCPU/R*%
%TA.AperFunction,SMDPad,CuDef*%
G36*
G01*
X151381750Y-94711000D02*
X151894250Y-94711000D01*
G75*
G02*
X152113000Y-94929750I0J-218750D01*
G01*
X152113000Y-95367250D01*
G75*
G02*
X151894250Y-95586000I-218750J0D01*
G01*
X151381750Y-95586000D01*
G75*
G02*
X151163000Y-95367250I0J218750D01*
G01*
X151163000Y-94929750D01*
G75*
G02*
X151381750Y-94711000I218750J0D01*
G01*
G37*
%TD.AperFunction*%
%TO.P,R18,1*%
%TO.N,Net-(D6-Pad1)*%
%TA.AperFunction,SMDPad,CuDef*%
G36*
G01*
X151381750Y-93136000D02*
X151894250Y-93136000D01*
G75*
G02*
X152113000Y-93354750I0J-218750D01*
G01*
X152113000Y-93792250D01*
G75*
G02*
X151894250Y-94011000I-218750J0D01*
G01*
X151381750Y-94011000D01*
G75*
G02*
X151163000Y-93792250I0J218750D01*
G01*
X151163000Y-93354750D01*
G75*
G02*
X151381750Y-93136000I218750J0D01*
G01*
G37*
%TD.AperFunction*%
%TD*%
%TO.P,R17,2*%
%TO.N,/SensorBoardCPU/G*%
%TA.AperFunction,SMDPad,CuDef*%
G36*
G01*
X152905750Y-94711000D02*
X153418250Y-94711000D01*
G75*
G02*
X153637000Y-94929750I0J-218750D01*
G01*
X153637000Y-95367250D01*
G75*
G02*
X153418250Y-95586000I-218750J0D01*
G01*
X152905750Y-95586000D01*
G75*
G02*
X152687000Y-95367250I0J218750D01*
G01*
X152687000Y-94929750D01*
G75*
G02*
X152905750Y-94711000I218750J0D01*
G01*
G37*
%TD.AperFunction*%
%TO.P,R17,1*%
%TO.N,Net-(D6-Pad2)*%
%TA.AperFunction,SMDPad,CuDef*%
G36*
G01*
X152905750Y-93136000D02*
X153418250Y-93136000D01*
G75*
G02*
X153637000Y-93354750I0J-218750D01*
G01*
X153637000Y-93792250D01*
G75*
G02*
X153418250Y-94011000I-218750J0D01*
G01*
X152905750Y-94011000D01*
G75*
G02*
X152687000Y-93792250I0J218750D01*
G01*
X152687000Y-93354750D01*
G75*
G02*
X152905750Y-93136000I218750J0D01*
G01*
G37*
%TD.AperFunction*%
%TD*%
%TO.P,R16,2*%
%TO.N,/SensorBoardCPU/B*%
%TA.AperFunction,SMDPad,CuDef*%
G36*
G01*
X160370000Y-88394250D02*
X160370000Y-87881750D01*
G75*
G02*
X160588750Y-87663000I218750J0D01*
G01*
X161026250Y-87663000D01*
G75*
G02*
X161245000Y-87881750I0J-218750D01*
G01*
X161245000Y-88394250D01*
G75*
G02*
X161026250Y-88613000I-218750J0D01*
G01*
X160588750Y-88613000D01*
G75*
G02*
X160370000Y-88394250I0J218750D01*
G01*
G37*
%TD.AperFunction*%
%TO.P,R16,1*%
%TO.N,Net-(D6-Pad3)*%
%TA.AperFunction,SMDPad,CuDef*%
G36*
G01*
X158795000Y-88394250D02*
X158795000Y-87881750D01*
G75*
G02*
X159013750Y-87663000I218750J0D01*
G01*
X159451250Y-87663000D01*
G75*
G02*
X159670000Y-87881750I0J-218750D01*
G01*
X159670000Y-88394250D01*
G75*
G02*
X159451250Y-88613000I-218750J0D01*
G01*
X159013750Y-88613000D01*
G75*
G02*
X158795000Y-88394250I0J218750D01*
G01*
G37*
%TD.AperFunction*%
%TD*%
%TA.AperFunction,SMDPad,CuDef*%
D13*
%TO.P,D6,3*%
%TO.N,Net-(D6-Pad3)*%
G36*
X156741727Y-88244067D02*
G01*
X157448833Y-88951173D01*
X156388173Y-90011833D01*
X155681067Y-89304727D01*
X156741727Y-88244067D01*
G37*
%TD.AperFunction*%
%TA.AperFunction,SMDPad,CuDef*%
%TO.P,D6,4*%
%TO.N,GND*%
G36*
X155751777Y-87254117D02*
G01*
X156458883Y-87961223D01*
X155398223Y-89021883D01*
X154691117Y-88314777D01*
X155751777Y-87254117D01*
G37*
%TD.AperFunction*%
%TA.AperFunction,SMDPad,CuDef*%
%TO.P,D6,2*%
%TO.N,Net-(D6-Pad2)*%
G36*
X154266853Y-90718941D02*
G01*
X154973959Y-91426047D01*
X153913299Y-92486707D01*
X153206193Y-91779601D01*
X154266853Y-90718941D01*
G37*
%TD.AperFunction*%
%TA.AperFunction,SMDPad,CuDef*%
%TO.P,D6,1*%
%TO.N,Net-(D6-Pad1)*%
G36*
X153276903Y-89728991D02*
G01*
X153984009Y-90436097D01*
X152923349Y-91496757D01*
X152216243Y-90789651D01*
X153276903Y-89728991D01*
G37*
%TD.AperFunction*%
%TD*%
%TO.P,R15,2*%
%TO.N,/B*%
%TA.AperFunction,SMDPad,CuDef*%
G36*
G01*
X131494500Y-114451000D02*
X131969500Y-114451000D01*
G75*
G02*
X132207000Y-114688500I0J-237500D01*
G01*
X132207000Y-115263500D01*
G75*
G02*
X131969500Y-115501000I-237500J0D01*
G01*
X131494500Y-115501000D01*
G75*
G02*
X131257000Y-115263500I0J237500D01*
G01*
X131257000Y-114688500D01*
G75*
G02*
X131494500Y-114451000I237500J0D01*
G01*
G37*
%TD.AperFunction*%
%TO.P,R15,1*%
%TO.N,Net-(R15-Pad1)*%
%TA.AperFunction,SMDPad,CuDef*%
G36*
G01*
X131494500Y-112701000D02*
X131969500Y-112701000D01*
G75*
G02*
X132207000Y-112938500I0J-237500D01*
G01*
X132207000Y-113513500D01*
G75*
G02*
X131969500Y-113751000I-237500J0D01*
G01*
X131494500Y-113751000D01*
G75*
G02*
X131257000Y-113513500I0J237500D01*
G01*
X131257000Y-112938500D01*
G75*
G02*
X131494500Y-112701000I237500J0D01*
G01*
G37*
%TD.AperFunction*%
%TD*%
%TO.P,R1,2*%
%TO.N,/A*%
%TA.AperFunction,SMDPad,CuDef*%
G36*
G01*
X129869500Y-114451000D02*
X130344500Y-114451000D01*
G75*
G02*
X130582000Y-114688500I0J-237500D01*
G01*
X130582000Y-115263500D01*
G75*
G02*
X130344500Y-115501000I-237500J0D01*
G01*
X129869500Y-115501000D01*
G75*
G02*
X129632000Y-115263500I0J237500D01*
G01*
X129632000Y-114688500D01*
G75*
G02*
X129869500Y-114451000I237500J0D01*
G01*
G37*
%TD.AperFunction*%
%TO.P,R1,1*%
%TO.N,Net-(R1-Pad1)*%
%TA.AperFunction,SMDPad,CuDef*%
G36*
G01*
X129869500Y-112701000D02*
X130344500Y-112701000D01*
G75*
G02*
X130582000Y-112938500I0J-237500D01*
G01*
X130582000Y-113513500D01*
G75*
G02*
X130344500Y-113751000I-237500J0D01*
G01*
X129869500Y-113751000D01*
G75*
G02*
X129632000Y-113513500I0J237500D01*
G01*
X129632000Y-112938500D01*
G75*
G02*
X129869500Y-112701000I237500J0D01*
G01*
G37*
%TD.AperFunction*%
%TD*%
D11*
%TO.P,J7,3*%
%TO.N,GNDD*%
X134955000Y-117602000D03*
%TO.P,J7,2*%
%TO.N,/B*%
X132415000Y-117602000D03*
D12*
%TO.P,J7,1*%
%TO.N,/A*%
X129875000Y-117602000D03*
%TD*%
D11*
%TO.P,J6,3*%
%TO.N,GNDA*%
X113920000Y-84250000D03*
%TO.P,J6,2*%
%TO.N,/RVCC*%
X116460000Y-84250000D03*
D12*
%TO.P,J6,1*%
%TO.N,Net-(J6-Pad1)*%
X119000000Y-84250000D03*
%TD*%
D11*
%TO.P,J5,3*%
%TO.N,GNDA*%
X113920000Y-78125000D03*
%TO.P,J5,2*%
%TO.N,/RVCC*%
X116460000Y-78125000D03*
D12*
%TO.P,J5,1*%
%TO.N,Net-(J5-Pad1)*%
X119000000Y-78125000D03*
%TD*%
%TO.P,L3,2*%
%TO.N,+5V*%
%TA.AperFunction,SMDPad,CuDef*%
G36*
G01*
X160012500Y-96225000D02*
X160487500Y-96225000D01*
G75*
G02*
X160725000Y-96462500I0J-237500D01*
G01*
X160725000Y-97037500D01*
G75*
G02*
X160487500Y-97275000I-237500J0D01*
G01*
X160012500Y-97275000D01*
G75*
G02*
X159775000Y-97037500I0J237500D01*
G01*
X159775000Y-96462500D01*
G75*
G02*
X160012500Y-96225000I237500J0D01*
G01*
G37*
%TD.AperFunction*%
%TO.P,L3,1*%
%TO.N,Net-(C2-Pad1)*%
%TA.AperFunction,SMDPad,CuDef*%
G36*
G01*
X160012500Y-94475000D02*
X160487500Y-94475000D01*
G75*
G02*
X160725000Y-94712500I0J-237500D01*
G01*
X160725000Y-95287500D01*
G75*
G02*
X160487500Y-95525000I-237500J0D01*
G01*
X160012500Y-95525000D01*
G75*
G02*
X159775000Y-95287500I0J237500D01*
G01*
X159775000Y-94712500D01*
G75*
G02*
X160012500Y-94475000I237500J0D01*
G01*
G37*
%TD.AperFunction*%
%TD*%
%TO.P,U15,100*%
%TO.N,+3V3*%
%TA.AperFunction,SMDPad,CuDef*%
G36*
G01*
X144050000Y-112150000D02*
X142600000Y-112150000D01*
G75*
G02*
X142525000Y-112075000I0J75000D01*
G01*
X142525000Y-111925000D01*
G75*
G02*
X142600000Y-111850000I75000J0D01*
G01*
X144050000Y-111850000D01*
G75*
G02*
X144125000Y-111925000I0J-75000D01*
G01*
X144125000Y-112075000D01*
G75*
G02*
X144050000Y-112150000I-75000J0D01*
G01*
G37*
%TD.AperFunction*%
%TO.P,U15,99*%
%TO.N,GND*%
%TA.AperFunction,SMDPad,CuDef*%
G36*
G01*
X144050000Y-111650000D02*
X142600000Y-111650000D01*
G75*
G02*
X142525000Y-111575000I0J75000D01*
G01*
X142525000Y-111425000D01*
G75*
G02*
X142600000Y-111350000I75000J0D01*
G01*
X144050000Y-111350000D01*
G75*
G02*
X144125000Y-111425000I0J-75000D01*
G01*
X144125000Y-111575000D01*
G75*
G02*
X144050000Y-111650000I-75000J0D01*
G01*
G37*
%TD.AperFunction*%
%TO.P,U15,98*%
%TO.N,Net-(U15-Pad98)*%
%TA.AperFunction,SMDPad,CuDef*%
G36*
G01*
X144050000Y-111150000D02*
X142600000Y-111150000D01*
G75*
G02*
X142525000Y-111075000I0J75000D01*
G01*
X142525000Y-110925000D01*
G75*
G02*
X142600000Y-110850000I75000J0D01*
G01*
X144050000Y-110850000D01*
G75*
G02*
X144125000Y-110925000I0J-75000D01*
G01*
X144125000Y-111075000D01*
G75*
G02*
X144050000Y-111150000I-75000J0D01*
G01*
G37*
%TD.AperFunction*%
%TO.P,U15,97*%
%TO.N,Net-(U15-Pad97)*%
%TA.AperFunction,SMDPad,CuDef*%
G36*
G01*
X144050000Y-110650000D02*
X142600000Y-110650000D01*
G75*
G02*
X142525000Y-110575000I0J75000D01*
G01*
X142525000Y-110425000D01*
G75*
G02*
X142600000Y-110350000I75000J0D01*
G01*
X144050000Y-110350000D01*
G75*
G02*
X144125000Y-110425000I0J-75000D01*
G01*
X144125000Y-110575000D01*
G75*
G02*
X144050000Y-110650000I-75000J0D01*
G01*
G37*
%TD.AperFunction*%
%TO.P,U15,96*%
%TO.N,Net-(U15-Pad96)*%
%TA.AperFunction,SMDPad,CuDef*%
G36*
G01*
X144050000Y-110150000D02*
X142600000Y-110150000D01*
G75*
G02*
X142525000Y-110075000I0J75000D01*
G01*
X142525000Y-109925000D01*
G75*
G02*
X142600000Y-109850000I75000J0D01*
G01*
X144050000Y-109850000D01*
G75*
G02*
X144125000Y-109925000I0J-75000D01*
G01*
X144125000Y-110075000D01*
G75*
G02*
X144050000Y-110150000I-75000J0D01*
G01*
G37*
%TD.AperFunction*%
%TO.P,U15,95*%
%TO.N,Net-(R19-Pad2)*%
%TA.AperFunction,SMDPad,CuDef*%
G36*
G01*
X144050000Y-109650000D02*
X142600000Y-109650000D01*
G75*
G02*
X142525000Y-109575000I0J75000D01*
G01*
X142525000Y-109425000D01*
G75*
G02*
X142600000Y-109350000I75000J0D01*
G01*
X144050000Y-109350000D01*
G75*
G02*
X144125000Y-109425000I0J-75000D01*
G01*
X144125000Y-109575000D01*
G75*
G02*
X144050000Y-109650000I-75000J0D01*
G01*
G37*
%TD.AperFunction*%
%TO.P,U15,94*%
%TO.N,Net-(U15-Pad94)*%
%TA.AperFunction,SMDPad,CuDef*%
G36*
G01*
X144050000Y-109150000D02*
X142600000Y-109150000D01*
G75*
G02*
X142525000Y-109075000I0J75000D01*
G01*
X142525000Y-108925000D01*
G75*
G02*
X142600000Y-108850000I75000J0D01*
G01*
X144050000Y-108850000D01*
G75*
G02*
X144125000Y-108925000I0J-75000D01*
G01*
X144125000Y-109075000D01*
G75*
G02*
X144050000Y-109150000I-75000J0D01*
G01*
G37*
%TD.AperFunction*%
%TO.P,U15,93*%
%TO.N,Net-(U15-Pad93)*%
%TA.AperFunction,SMDPad,CuDef*%
G36*
G01*
X144050000Y-108650000D02*
X142600000Y-108650000D01*
G75*
G02*
X142525000Y-108575000I0J75000D01*
G01*
X142525000Y-108425000D01*
G75*
G02*
X142600000Y-108350000I75000J0D01*
G01*
X144050000Y-108350000D01*
G75*
G02*
X144125000Y-108425000I0J-75000D01*
G01*
X144125000Y-108575000D01*
G75*
G02*
X144050000Y-108650000I-75000J0D01*
G01*
G37*
%TD.AperFunction*%
%TO.P,U15,92*%
%TO.N,Net-(U15-Pad92)*%
%TA.AperFunction,SMDPad,CuDef*%
G36*
G01*
X144050000Y-108150000D02*
X142600000Y-108150000D01*
G75*
G02*
X142525000Y-108075000I0J75000D01*
G01*
X142525000Y-107925000D01*
G75*
G02*
X142600000Y-107850000I75000J0D01*
G01*
X144050000Y-107850000D01*
G75*
G02*
X144125000Y-107925000I0J-75000D01*
G01*
X144125000Y-108075000D01*
G75*
G02*
X144050000Y-108150000I-75000J0D01*
G01*
G37*
%TD.AperFunction*%
%TO.P,U15,91*%
%TO.N,Net-(U15-Pad91)*%
%TA.AperFunction,SMDPad,CuDef*%
G36*
G01*
X144050000Y-107650000D02*
X142600000Y-107650000D01*
G75*
G02*
X142525000Y-107575000I0J75000D01*
G01*
X142525000Y-107425000D01*
G75*
G02*
X142600000Y-107350000I75000J0D01*
G01*
X144050000Y-107350000D01*
G75*
G02*
X144125000Y-107425000I0J-75000D01*
G01*
X144125000Y-107575000D01*
G75*
G02*
X144050000Y-107650000I-75000J0D01*
G01*
G37*
%TD.AperFunction*%
%TO.P,U15,90*%
%TO.N,Net-(U15-Pad90)*%
%TA.AperFunction,SMDPad,CuDef*%
G36*
G01*
X144050000Y-107150000D02*
X142600000Y-107150000D01*
G75*
G02*
X142525000Y-107075000I0J75000D01*
G01*
X142525000Y-106925000D01*
G75*
G02*
X142600000Y-106850000I75000J0D01*
G01*
X144050000Y-106850000D01*
G75*
G02*
X144125000Y-106925000I0J-75000D01*
G01*
X144125000Y-107075000D01*
G75*
G02*
X144050000Y-107150000I-75000J0D01*
G01*
G37*
%TD.AperFunction*%
%TO.P,U15,89*%
%TO.N,Net-(U15-Pad89)*%
%TA.AperFunction,SMDPad,CuDef*%
G36*
G01*
X144050000Y-106650000D02*
X142600000Y-106650000D01*
G75*
G02*
X142525000Y-106575000I0J75000D01*
G01*
X142525000Y-106425000D01*
G75*
G02*
X142600000Y-106350000I75000J0D01*
G01*
X144050000Y-106350000D01*
G75*
G02*
X144125000Y-106425000I0J-75000D01*
G01*
X144125000Y-106575000D01*
G75*
G02*
X144050000Y-106650000I-75000J0D01*
G01*
G37*
%TD.AperFunction*%
%TO.P,U15,88*%
%TO.N,Net-(U15-Pad88)*%
%TA.AperFunction,SMDPad,CuDef*%
G36*
G01*
X144050000Y-106150000D02*
X142600000Y-106150000D01*
G75*
G02*
X142525000Y-106075000I0J75000D01*
G01*
X142525000Y-105925000D01*
G75*
G02*
X142600000Y-105850000I75000J0D01*
G01*
X144050000Y-105850000D01*
G75*
G02*
X144125000Y-105925000I0J-75000D01*
G01*
X144125000Y-106075000D01*
G75*
G02*
X144050000Y-106150000I-75000J0D01*
G01*
G37*
%TD.AperFunction*%
%TO.P,U15,87*%
%TO.N,Net-(U15-Pad87)*%
%TA.AperFunction,SMDPad,CuDef*%
G36*
G01*
X144050000Y-105650000D02*
X142600000Y-105650000D01*
G75*
G02*
X142525000Y-105575000I0J75000D01*
G01*
X142525000Y-105425000D01*
G75*
G02*
X142600000Y-105350000I75000J0D01*
G01*
X144050000Y-105350000D01*
G75*
G02*
X144125000Y-105425000I0J-75000D01*
G01*
X144125000Y-105575000D01*
G75*
G02*
X144050000Y-105650000I-75000J0D01*
G01*
G37*
%TD.AperFunction*%
%TO.P,U15,86*%
%TO.N,Net-(U15-Pad86)*%
%TA.AperFunction,SMDPad,CuDef*%
G36*
G01*
X144050000Y-105150000D02*
X142600000Y-105150000D01*
G75*
G02*
X142525000Y-105075000I0J75000D01*
G01*
X142525000Y-104925000D01*
G75*
G02*
X142600000Y-104850000I75000J0D01*
G01*
X144050000Y-104850000D01*
G75*
G02*
X144125000Y-104925000I0J-75000D01*
G01*
X144125000Y-105075000D01*
G75*
G02*
X144050000Y-105150000I-75000J0D01*
G01*
G37*
%TD.AperFunction*%
%TO.P,U15,85*%
%TO.N,Net-(U15-Pad85)*%
%TA.AperFunction,SMDPad,CuDef*%
G36*
G01*
X144050000Y-104650000D02*
X142600000Y-104650000D01*
G75*
G02*
X142525000Y-104575000I0J75000D01*
G01*
X142525000Y-104425000D01*
G75*
G02*
X142600000Y-104350000I75000J0D01*
G01*
X144050000Y-104350000D01*
G75*
G02*
X144125000Y-104425000I0J-75000D01*
G01*
X144125000Y-104575000D01*
G75*
G02*
X144050000Y-104650000I-75000J0D01*
G01*
G37*
%TD.AperFunction*%
%TO.P,U15,84*%
%TO.N,Net-(U15-Pad84)*%
%TA.AperFunction,SMDPad,CuDef*%
G36*
G01*
X144050000Y-104150000D02*
X142600000Y-104150000D01*
G75*
G02*
X142525000Y-104075000I0J75000D01*
G01*
X142525000Y-103925000D01*
G75*
G02*
X142600000Y-103850000I75000J0D01*
G01*
X144050000Y-103850000D01*
G75*
G02*
X144125000Y-103925000I0J-75000D01*
G01*
X144125000Y-104075000D01*
G75*
G02*
X144050000Y-104150000I-75000J0D01*
G01*
G37*
%TD.AperFunction*%
%TO.P,U15,83*%
%TO.N,Net-(U15-Pad83)*%
%TA.AperFunction,SMDPad,CuDef*%
G36*
G01*
X144050000Y-103650000D02*
X142600000Y-103650000D01*
G75*
G02*
X142525000Y-103575000I0J75000D01*
G01*
X142525000Y-103425000D01*
G75*
G02*
X142600000Y-103350000I75000J0D01*
G01*
X144050000Y-103350000D01*
G75*
G02*
X144125000Y-103425000I0J-75000D01*
G01*
X144125000Y-103575000D01*
G75*
G02*
X144050000Y-103650000I-75000J0D01*
G01*
G37*
%TD.AperFunction*%
%TO.P,U15,82*%
%TO.N,Net-(U15-Pad82)*%
%TA.AperFunction,SMDPad,CuDef*%
G36*
G01*
X144050000Y-103150000D02*
X142600000Y-103150000D01*
G75*
G02*
X142525000Y-103075000I0J75000D01*
G01*
X142525000Y-102925000D01*
G75*
G02*
X142600000Y-102850000I75000J0D01*
G01*
X144050000Y-102850000D01*
G75*
G02*
X144125000Y-102925000I0J-75000D01*
G01*
X144125000Y-103075000D01*
G75*
G02*
X144050000Y-103150000I-75000J0D01*
G01*
G37*
%TD.AperFunction*%
%TO.P,U15,81*%
%TO.N,Net-(U15-Pad81)*%
%TA.AperFunction,SMDPad,CuDef*%
G36*
G01*
X144050000Y-102650000D02*
X142600000Y-102650000D01*
G75*
G02*
X142525000Y-102575000I0J75000D01*
G01*
X142525000Y-102425000D01*
G75*
G02*
X142600000Y-102350000I75000J0D01*
G01*
X144050000Y-102350000D01*
G75*
G02*
X144125000Y-102425000I0J-75000D01*
G01*
X144125000Y-102575000D01*
G75*
G02*
X144050000Y-102650000I-75000J0D01*
G01*
G37*
%TD.AperFunction*%
%TO.P,U15,80*%
%TO.N,/2(RX)*%
%TA.AperFunction,SMDPad,CuDef*%
G36*
G01*
X144050000Y-102150000D02*
X142600000Y-102150000D01*
G75*
G02*
X142525000Y-102075000I0J75000D01*
G01*
X142525000Y-101925000D01*
G75*
G02*
X142600000Y-101850000I75000J0D01*
G01*
X144050000Y-101850000D01*
G75*
G02*
X144125000Y-101925000I0J-75000D01*
G01*
X144125000Y-102075000D01*
G75*
G02*
X144050000Y-102150000I-75000J0D01*
G01*
G37*
%TD.AperFunction*%
%TO.P,U15,79*%
%TO.N,/8(TX)*%
%TA.AperFunction,SMDPad,CuDef*%
G36*
G01*
X144050000Y-101650000D02*
X142600000Y-101650000D01*
G75*
G02*
X142525000Y-101575000I0J75000D01*
G01*
X142525000Y-101425000D01*
G75*
G02*
X142600000Y-101350000I75000J0D01*
G01*
X144050000Y-101350000D01*
G75*
G02*
X144125000Y-101425000I0J-75000D01*
G01*
X144125000Y-101575000D01*
G75*
G02*
X144050000Y-101650000I-75000J0D01*
G01*
G37*
%TD.AperFunction*%
%TO.P,U15,78*%
%TO.N,/7(DE)*%
%TA.AperFunction,SMDPad,CuDef*%
G36*
G01*
X144050000Y-101150000D02*
X142600000Y-101150000D01*
G75*
G02*
X142525000Y-101075000I0J75000D01*
G01*
X142525000Y-100925000D01*
G75*
G02*
X142600000Y-100850000I75000J0D01*
G01*
X144050000Y-100850000D01*
G75*
G02*
X144125000Y-100925000I0J-75000D01*
G01*
X144125000Y-101075000D01*
G75*
G02*
X144050000Y-101150000I-75000J0D01*
G01*
G37*
%TD.AperFunction*%
%TO.P,U15,77*%
%TO.N,/SensorBoardCPU/SWCLK*%
%TA.AperFunction,SMDPad,CuDef*%
G36*
G01*
X144050000Y-100650000D02*
X142600000Y-100650000D01*
G75*
G02*
X142525000Y-100575000I0J75000D01*
G01*
X142525000Y-100425000D01*
G75*
G02*
X142600000Y-100350000I75000J0D01*
G01*
X144050000Y-100350000D01*
G75*
G02*
X144125000Y-100425000I0J-75000D01*
G01*
X144125000Y-100575000D01*
G75*
G02*
X144050000Y-100650000I-75000J0D01*
G01*
G37*
%TD.AperFunction*%
%TO.P,U15,76*%
%TO.N,/SensorBoardCPU/SWDIO*%
%TA.AperFunction,SMDPad,CuDef*%
G36*
G01*
X144050000Y-100150000D02*
X142600000Y-100150000D01*
G75*
G02*
X142525000Y-100075000I0J75000D01*
G01*
X142525000Y-99925000D01*
G75*
G02*
X142600000Y-99850000I75000J0D01*
G01*
X144050000Y-99850000D01*
G75*
G02*
X144125000Y-99925000I0J-75000D01*
G01*
X144125000Y-100075000D01*
G75*
G02*
X144050000Y-100150000I-75000J0D01*
G01*
G37*
%TD.AperFunction*%
%TO.P,U15,75*%
%TO.N,+3V3*%
%TA.AperFunction,SMDPad,CuDef*%
G36*
G01*
X145075000Y-99125000D02*
X144925000Y-99125000D01*
G75*
G02*
X144850000Y-99050000I0J75000D01*
G01*
X144850000Y-97600000D01*
G75*
G02*
X144925000Y-97525000I75000J0D01*
G01*
X145075000Y-97525000D01*
G75*
G02*
X145150000Y-97600000I0J-75000D01*
G01*
X145150000Y-99050000D01*
G75*
G02*
X145075000Y-99125000I-75000J0D01*
G01*
G37*
%TD.AperFunction*%
%TO.P,U15,74*%
%TO.N,GND*%
%TA.AperFunction,SMDPad,CuDef*%
G36*
G01*
X145575000Y-99125000D02*
X145425000Y-99125000D01*
G75*
G02*
X145350000Y-99050000I0J75000D01*
G01*
X145350000Y-97600000D01*
G75*
G02*
X145425000Y-97525000I75000J0D01*
G01*
X145575000Y-97525000D01*
G75*
G02*
X145650000Y-97600000I0J-75000D01*
G01*
X145650000Y-99050000D01*
G75*
G02*
X145575000Y-99125000I-75000J0D01*
G01*
G37*
%TD.AperFunction*%
%TO.P,U15,73*%
%TO.N,Net-(U15-Pad73)*%
%TA.AperFunction,SMDPad,CuDef*%
G36*
G01*
X146075000Y-99125000D02*
X145925000Y-99125000D01*
G75*
G02*
X145850000Y-99050000I0J75000D01*
G01*
X145850000Y-97600000D01*
G75*
G02*
X145925000Y-97525000I75000J0D01*
G01*
X146075000Y-97525000D01*
G75*
G02*
X146150000Y-97600000I0J-75000D01*
G01*
X146150000Y-99050000D01*
G75*
G02*
X146075000Y-99125000I-75000J0D01*
G01*
G37*
%TD.AperFunction*%
%TO.P,U15,72*%
%TO.N,Net-(U15-Pad72)*%
%TA.AperFunction,SMDPad,CuDef*%
G36*
G01*
X146575000Y-99125000D02*
X146425000Y-99125000D01*
G75*
G02*
X146350000Y-99050000I0J75000D01*
G01*
X146350000Y-97600000D01*
G75*
G02*
X146425000Y-97525000I75000J0D01*
G01*
X146575000Y-97525000D01*
G75*
G02*
X146650000Y-97600000I0J-75000D01*
G01*
X146650000Y-99050000D01*
G75*
G02*
X146575000Y-99125000I-75000J0D01*
G01*
G37*
%TD.AperFunction*%
%TO.P,U15,71*%
%TO.N,Net-(U15-Pad71)*%
%TA.AperFunction,SMDPad,CuDef*%
G36*
G01*
X147075000Y-99125000D02*
X146925000Y-99125000D01*
G75*
G02*
X146850000Y-99050000I0J75000D01*
G01*
X146850000Y-97600000D01*
G75*
G02*
X146925000Y-97525000I75000J0D01*
G01*
X147075000Y-97525000D01*
G75*
G02*
X147150000Y-97600000I0J-75000D01*
G01*
X147150000Y-99050000D01*
G75*
G02*
X147075000Y-99125000I-75000J0D01*
G01*
G37*
%TD.AperFunction*%
%TO.P,U15,70*%
%TO.N,Net-(U15-Pad70)*%
%TA.AperFunction,SMDPad,CuDef*%
G36*
G01*
X147575000Y-99125000D02*
X147425000Y-99125000D01*
G75*
G02*
X147350000Y-99050000I0J75000D01*
G01*
X147350000Y-97600000D01*
G75*
G02*
X147425000Y-97525000I75000J0D01*
G01*
X147575000Y-97525000D01*
G75*
G02*
X147650000Y-97600000I0J-75000D01*
G01*
X147650000Y-99050000D01*
G75*
G02*
X147575000Y-99125000I-75000J0D01*
G01*
G37*
%TD.AperFunction*%
%TO.P,U15,69*%
%TO.N,Net-(U15-Pad69)*%
%TA.AperFunction,SMDPad,CuDef*%
G36*
G01*
X148075000Y-99125000D02*
X147925000Y-99125000D01*
G75*
G02*
X147850000Y-99050000I0J75000D01*
G01*
X147850000Y-97600000D01*
G75*
G02*
X147925000Y-97525000I75000J0D01*
G01*
X148075000Y-97525000D01*
G75*
G02*
X148150000Y-97600000I0J-75000D01*
G01*
X148150000Y-99050000D01*
G75*
G02*
X148075000Y-99125000I-75000J0D01*
G01*
G37*
%TD.AperFunction*%
%TO.P,U15,68*%
%TO.N,Net-(U15-Pad68)*%
%TA.AperFunction,SMDPad,CuDef*%
G36*
G01*
X148575000Y-99125000D02*
X148425000Y-99125000D01*
G75*
G02*
X148350000Y-99050000I0J75000D01*
G01*
X148350000Y-97600000D01*
G75*
G02*
X148425000Y-97525000I75000J0D01*
G01*
X148575000Y-97525000D01*
G75*
G02*
X148650000Y-97600000I0J-75000D01*
G01*
X148650000Y-99050000D01*
G75*
G02*
X148575000Y-99125000I-75000J0D01*
G01*
G37*
%TD.AperFunction*%
%TO.P,U15,67*%
%TO.N,Net-(U15-Pad67)*%
%TA.AperFunction,SMDPad,CuDef*%
G36*
G01*
X149075000Y-99125000D02*
X148925000Y-99125000D01*
G75*
G02*
X148850000Y-99050000I0J75000D01*
G01*
X148850000Y-97600000D01*
G75*
G02*
X148925000Y-97525000I75000J0D01*
G01*
X149075000Y-97525000D01*
G75*
G02*
X149150000Y-97600000I0J-75000D01*
G01*
X149150000Y-99050000D01*
G75*
G02*
X149075000Y-99125000I-75000J0D01*
G01*
G37*
%TD.AperFunction*%
%TO.P,U15,66*%
%TO.N,/9(RPM2)*%
%TA.AperFunction,SMDPad,CuDef*%
G36*
G01*
X149575000Y-99125000D02*
X149425000Y-99125000D01*
G75*
G02*
X149350000Y-99050000I0J75000D01*
G01*
X149350000Y-97600000D01*
G75*
G02*
X149425000Y-97525000I75000J0D01*
G01*
X149575000Y-97525000D01*
G75*
G02*
X149650000Y-97600000I0J-75000D01*
G01*
X149650000Y-99050000D01*
G75*
G02*
X149575000Y-99125000I-75000J0D01*
G01*
G37*
%TD.AperFunction*%
%TO.P,U15,65*%
%TO.N,/6(RPM1)*%
%TA.AperFunction,SMDPad,CuDef*%
G36*
G01*
X150075000Y-99125000D02*
X149925000Y-99125000D01*
G75*
G02*
X149850000Y-99050000I0J75000D01*
G01*
X149850000Y-97600000D01*
G75*
G02*
X149925000Y-97525000I75000J0D01*
G01*
X150075000Y-97525000D01*
G75*
G02*
X150150000Y-97600000I0J-75000D01*
G01*
X150150000Y-99050000D01*
G75*
G02*
X150075000Y-99125000I-75000J0D01*
G01*
G37*
%TD.AperFunction*%
%TO.P,U15,64*%
%TO.N,+3V3*%
%TA.AperFunction,SMDPad,CuDef*%
G36*
G01*
X150575000Y-99125000D02*
X150425000Y-99125000D01*
G75*
G02*
X150350000Y-99050000I0J75000D01*
G01*
X150350000Y-97600000D01*
G75*
G02*
X150425000Y-97525000I75000J0D01*
G01*
X150575000Y-97525000D01*
G75*
G02*
X150650000Y-97600000I0J-75000D01*
G01*
X150650000Y-99050000D01*
G75*
G02*
X150575000Y-99125000I-75000J0D01*
G01*
G37*
%TD.AperFunction*%
%TO.P,U15,63*%
%TO.N,GND*%
%TA.AperFunction,SMDPad,CuDef*%
G36*
G01*
X151075000Y-99125000D02*
X150925000Y-99125000D01*
G75*
G02*
X150850000Y-99050000I0J75000D01*
G01*
X150850000Y-97600000D01*
G75*
G02*
X150925000Y-97525000I75000J0D01*
G01*
X151075000Y-97525000D01*
G75*
G02*
X151150000Y-97600000I0J-75000D01*
G01*
X151150000Y-99050000D01*
G75*
G02*
X151075000Y-99125000I-75000J0D01*
G01*
G37*
%TD.AperFunction*%
%TO.P,U15,62*%
%TO.N,Net-(U15-Pad62)*%
%TA.AperFunction,SMDPad,CuDef*%
G36*
G01*
X151575000Y-99125000D02*
X151425000Y-99125000D01*
G75*
G02*
X151350000Y-99050000I0J75000D01*
G01*
X151350000Y-97600000D01*
G75*
G02*
X151425000Y-97525000I75000J0D01*
G01*
X151575000Y-97525000D01*
G75*
G02*
X151650000Y-97600000I0J-75000D01*
G01*
X151650000Y-99050000D01*
G75*
G02*
X151575000Y-99125000I-75000J0D01*
G01*
G37*
%TD.AperFunction*%
%TO.P,U15,61*%
%TO.N,/SensorBoardCPU/R*%
%TA.AperFunction,SMDPad,CuDef*%
G36*
G01*
X152075000Y-99125000D02*
X151925000Y-99125000D01*
G75*
G02*
X151850000Y-99050000I0J75000D01*
G01*
X151850000Y-97600000D01*
G75*
G02*
X151925000Y-97525000I75000J0D01*
G01*
X152075000Y-97525000D01*
G75*
G02*
X152150000Y-97600000I0J-75000D01*
G01*
X152150000Y-99050000D01*
G75*
G02*
X152075000Y-99125000I-75000J0D01*
G01*
G37*
%TD.AperFunction*%
%TO.P,U15,60*%
%TO.N,/SensorBoardCPU/G*%
%TA.AperFunction,SMDPad,CuDef*%
G36*
G01*
X152575000Y-99125000D02*
X152425000Y-99125000D01*
G75*
G02*
X152350000Y-99050000I0J75000D01*
G01*
X152350000Y-97600000D01*
G75*
G02*
X152425000Y-97525000I75000J0D01*
G01*
X152575000Y-97525000D01*
G75*
G02*
X152650000Y-97600000I0J-75000D01*
G01*
X152650000Y-99050000D01*
G75*
G02*
X152575000Y-99125000I-75000J0D01*
G01*
G37*
%TD.AperFunction*%
%TO.P,U15,59*%
%TO.N,/SensorBoardCPU/B*%
%TA.AperFunction,SMDPad,CuDef*%
G36*
G01*
X153075000Y-99125000D02*
X152925000Y-99125000D01*
G75*
G02*
X152850000Y-99050000I0J75000D01*
G01*
X152850000Y-97600000D01*
G75*
G02*
X152925000Y-97525000I75000J0D01*
G01*
X153075000Y-97525000D01*
G75*
G02*
X153150000Y-97600000I0J-75000D01*
G01*
X153150000Y-99050000D01*
G75*
G02*
X153075000Y-99125000I-75000J0D01*
G01*
G37*
%TD.AperFunction*%
%TO.P,U15,58*%
%TO.N,Net-(U15-Pad58)*%
%TA.AperFunction,SMDPad,CuDef*%
G36*
G01*
X153575000Y-99125000D02*
X153425000Y-99125000D01*
G75*
G02*
X153350000Y-99050000I0J75000D01*
G01*
X153350000Y-97600000D01*
G75*
G02*
X153425000Y-97525000I75000J0D01*
G01*
X153575000Y-97525000D01*
G75*
G02*
X153650000Y-97600000I0J-75000D01*
G01*
X153650000Y-99050000D01*
G75*
G02*
X153575000Y-99125000I-75000J0D01*
G01*
G37*
%TD.AperFunction*%
%TO.P,U15,57*%
%TO.N,Net-(U15-Pad57)*%
%TA.AperFunction,SMDPad,CuDef*%
G36*
G01*
X154075000Y-99125000D02*
X153925000Y-99125000D01*
G75*
G02*
X153850000Y-99050000I0J75000D01*
G01*
X153850000Y-97600000D01*
G75*
G02*
X153925000Y-97525000I75000J0D01*
G01*
X154075000Y-97525000D01*
G75*
G02*
X154150000Y-97600000I0J-75000D01*
G01*
X154150000Y-99050000D01*
G75*
G02*
X154075000Y-99125000I-75000J0D01*
G01*
G37*
%TD.AperFunction*%
%TO.P,U15,56*%
%TO.N,Net-(U15-Pad56)*%
%TA.AperFunction,SMDPad,CuDef*%
G36*
G01*
X154575000Y-99125000D02*
X154425000Y-99125000D01*
G75*
G02*
X154350000Y-99050000I0J75000D01*
G01*
X154350000Y-97600000D01*
G75*
G02*
X154425000Y-97525000I75000J0D01*
G01*
X154575000Y-97525000D01*
G75*
G02*
X154650000Y-97600000I0J-75000D01*
G01*
X154650000Y-99050000D01*
G75*
G02*
X154575000Y-99125000I-75000J0D01*
G01*
G37*
%TD.AperFunction*%
%TO.P,U15,55*%
%TO.N,/5(MISO)*%
%TA.AperFunction,SMDPad,CuDef*%
G36*
G01*
X155075000Y-99125000D02*
X154925000Y-99125000D01*
G75*
G02*
X154850000Y-99050000I0J75000D01*
G01*
X154850000Y-97600000D01*
G75*
G02*
X154925000Y-97525000I75000J0D01*
G01*
X155075000Y-97525000D01*
G75*
G02*
X155150000Y-97600000I0J-75000D01*
G01*
X155150000Y-99050000D01*
G75*
G02*
X155075000Y-99125000I-75000J0D01*
G01*
G37*
%TD.AperFunction*%
%TO.P,U15,54*%
%TO.N,/4(MOSI)*%
%TA.AperFunction,SMDPad,CuDef*%
G36*
G01*
X155575000Y-99125000D02*
X155425000Y-99125000D01*
G75*
G02*
X155350000Y-99050000I0J75000D01*
G01*
X155350000Y-97600000D01*
G75*
G02*
X155425000Y-97525000I75000J0D01*
G01*
X155575000Y-97525000D01*
G75*
G02*
X155650000Y-97600000I0J-75000D01*
G01*
X155650000Y-99050000D01*
G75*
G02*
X155575000Y-99125000I-75000J0D01*
G01*
G37*
%TD.AperFunction*%
%TO.P,U15,53*%
%TO.N,/5(MISO)*%
%TA.AperFunction,SMDPad,CuDef*%
G36*
G01*
X156075000Y-99125000D02*
X155925000Y-99125000D01*
G75*
G02*
X155850000Y-99050000I0J75000D01*
G01*
X155850000Y-97600000D01*
G75*
G02*
X155925000Y-97525000I75000J0D01*
G01*
X156075000Y-97525000D01*
G75*
G02*
X156150000Y-97600000I0J-75000D01*
G01*
X156150000Y-99050000D01*
G75*
G02*
X156075000Y-99125000I-75000J0D01*
G01*
G37*
%TD.AperFunction*%
%TO.P,U15,52*%
%TO.N,/3(SCK)*%
%TA.AperFunction,SMDPad,CuDef*%
G36*
G01*
X156575000Y-99125000D02*
X156425000Y-99125000D01*
G75*
G02*
X156350000Y-99050000I0J75000D01*
G01*
X156350000Y-97600000D01*
G75*
G02*
X156425000Y-97525000I75000J0D01*
G01*
X156575000Y-97525000D01*
G75*
G02*
X156650000Y-97600000I0J-75000D01*
G01*
X156650000Y-99050000D01*
G75*
G02*
X156575000Y-99125000I-75000J0D01*
G01*
G37*
%TD.AperFunction*%
%TO.P,U15,51*%
%TO.N,/A2(SS)*%
%TA.AperFunction,SMDPad,CuDef*%
G36*
G01*
X157075000Y-99125000D02*
X156925000Y-99125000D01*
G75*
G02*
X156850000Y-99050000I0J75000D01*
G01*
X156850000Y-97600000D01*
G75*
G02*
X156925000Y-97525000I75000J0D01*
G01*
X157075000Y-97525000D01*
G75*
G02*
X157150000Y-97600000I0J-75000D01*
G01*
X157150000Y-99050000D01*
G75*
G02*
X157075000Y-99125000I-75000J0D01*
G01*
G37*
%TD.AperFunction*%
%TO.P,U15,50*%
%TO.N,Net-(U15-Pad50)*%
%TA.AperFunction,SMDPad,CuDef*%
G36*
G01*
X159400000Y-100150000D02*
X157950000Y-100150000D01*
G75*
G02*
X157875000Y-100075000I0J75000D01*
G01*
X157875000Y-99925000D01*
G75*
G02*
X157950000Y-99850000I75000J0D01*
G01*
X159400000Y-99850000D01*
G75*
G02*
X159475000Y-99925000I0J-75000D01*
G01*
X159475000Y-100075000D01*
G75*
G02*
X159400000Y-100150000I-75000J0D01*
G01*
G37*
%TD.AperFunction*%
%TO.P,U15,49*%
%TO.N,+3V3*%
%TA.AperFunction,SMDPad,CuDef*%
G36*
G01*
X159400000Y-100650000D02*
X157950000Y-100650000D01*
G75*
G02*
X157875000Y-100575000I0J75000D01*
G01*
X157875000Y-100425000D01*
G75*
G02*
X157950000Y-100350000I75000J0D01*
G01*
X159400000Y-100350000D01*
G75*
G02*
X159475000Y-100425000I0J-75000D01*
G01*
X159475000Y-100575000D01*
G75*
G02*
X159400000Y-100650000I-75000J0D01*
G01*
G37*
%TD.AperFunction*%
%TO.P,U15,48*%
%TO.N,GND*%
%TA.AperFunction,SMDPad,CuDef*%
G36*
G01*
X159400000Y-101150000D02*
X157950000Y-101150000D01*
G75*
G02*
X157875000Y-101075000I0J75000D01*
G01*
X157875000Y-100925000D01*
G75*
G02*
X157950000Y-100850000I75000J0D01*
G01*
X159400000Y-100850000D01*
G75*
G02*
X159475000Y-100925000I0J-75000D01*
G01*
X159475000Y-101075000D01*
G75*
G02*
X159400000Y-101150000I-75000J0D01*
G01*
G37*
%TD.AperFunction*%
%TO.P,U15,47*%
%TO.N,Net-(U15-Pad47)*%
%TA.AperFunction,SMDPad,CuDef*%
G36*
G01*
X159400000Y-101650000D02*
X157950000Y-101650000D01*
G75*
G02*
X157875000Y-101575000I0J75000D01*
G01*
X157875000Y-101425000D01*
G75*
G02*
X157950000Y-101350000I75000J0D01*
G01*
X159400000Y-101350000D01*
G75*
G02*
X159475000Y-101425000I0J-75000D01*
G01*
X159475000Y-101575000D01*
G75*
G02*
X159400000Y-101650000I-75000J0D01*
G01*
G37*
%TD.AperFunction*%
%TO.P,U15,46*%
%TO.N,Net-(U15-Pad46)*%
%TA.AperFunction,SMDPad,CuDef*%
G36*
G01*
X159400000Y-102150000D02*
X157950000Y-102150000D01*
G75*
G02*
X157875000Y-102075000I0J75000D01*
G01*
X157875000Y-101925000D01*
G75*
G02*
X157950000Y-101850000I75000J0D01*
G01*
X159400000Y-101850000D01*
G75*
G02*
X159475000Y-101925000I0J-75000D01*
G01*
X159475000Y-102075000D01*
G75*
G02*
X159400000Y-102150000I-75000J0D01*
G01*
G37*
%TD.AperFunction*%
%TO.P,U15,45*%
%TO.N,Net-(U15-Pad45)*%
%TA.AperFunction,SMDPad,CuDef*%
G36*
G01*
X159400000Y-102650000D02*
X157950000Y-102650000D01*
G75*
G02*
X157875000Y-102575000I0J75000D01*
G01*
X157875000Y-102425000D01*
G75*
G02*
X157950000Y-102350000I75000J0D01*
G01*
X159400000Y-102350000D01*
G75*
G02*
X159475000Y-102425000I0J-75000D01*
G01*
X159475000Y-102575000D01*
G75*
G02*
X159400000Y-102650000I-75000J0D01*
G01*
G37*
%TD.AperFunction*%
%TO.P,U15,44*%
%TO.N,Net-(U15-Pad44)*%
%TA.AperFunction,SMDPad,CuDef*%
G36*
G01*
X159400000Y-103150000D02*
X157950000Y-103150000D01*
G75*
G02*
X157875000Y-103075000I0J75000D01*
G01*
X157875000Y-102925000D01*
G75*
G02*
X157950000Y-102850000I75000J0D01*
G01*
X159400000Y-102850000D01*
G75*
G02*
X159475000Y-102925000I0J-75000D01*
G01*
X159475000Y-103075000D01*
G75*
G02*
X159400000Y-103150000I-75000J0D01*
G01*
G37*
%TD.AperFunction*%
%TO.P,U15,43*%
%TO.N,Net-(U15-Pad43)*%
%TA.AperFunction,SMDPad,CuDef*%
G36*
G01*
X159400000Y-103650000D02*
X157950000Y-103650000D01*
G75*
G02*
X157875000Y-103575000I0J75000D01*
G01*
X157875000Y-103425000D01*
G75*
G02*
X157950000Y-103350000I75000J0D01*
G01*
X159400000Y-103350000D01*
G75*
G02*
X159475000Y-103425000I0J-75000D01*
G01*
X159475000Y-103575000D01*
G75*
G02*
X159400000Y-103650000I-75000J0D01*
G01*
G37*
%TD.AperFunction*%
%TO.P,U15,42*%
%TO.N,Net-(U15-Pad42)*%
%TA.AperFunction,SMDPad,CuDef*%
G36*
G01*
X159400000Y-104150000D02*
X157950000Y-104150000D01*
G75*
G02*
X157875000Y-104075000I0J75000D01*
G01*
X157875000Y-103925000D01*
G75*
G02*
X157950000Y-103850000I75000J0D01*
G01*
X159400000Y-103850000D01*
G75*
G02*
X159475000Y-103925000I0J-75000D01*
G01*
X159475000Y-104075000D01*
G75*
G02*
X159400000Y-104150000I-75000J0D01*
G01*
G37*
%TD.AperFunction*%
%TO.P,U15,41*%
%TO.N,Net-(U15-Pad41)*%
%TA.AperFunction,SMDPad,CuDef*%
G36*
G01*
X159400000Y-104650000D02*
X157950000Y-104650000D01*
G75*
G02*
X157875000Y-104575000I0J75000D01*
G01*
X157875000Y-104425000D01*
G75*
G02*
X157950000Y-104350000I75000J0D01*
G01*
X159400000Y-104350000D01*
G75*
G02*
X159475000Y-104425000I0J-75000D01*
G01*
X159475000Y-104575000D01*
G75*
G02*
X159400000Y-104650000I-75000J0D01*
G01*
G37*
%TD.AperFunction*%
%TO.P,U15,40*%
%TO.N,Net-(U15-Pad40)*%
%TA.AperFunction,SMDPad,CuDef*%
G36*
G01*
X159400000Y-105150000D02*
X157950000Y-105150000D01*
G75*
G02*
X157875000Y-105075000I0J75000D01*
G01*
X157875000Y-104925000D01*
G75*
G02*
X157950000Y-104850000I75000J0D01*
G01*
X159400000Y-104850000D01*
G75*
G02*
X159475000Y-104925000I0J-75000D01*
G01*
X159475000Y-105075000D01*
G75*
G02*
X159400000Y-105150000I-75000J0D01*
G01*
G37*
%TD.AperFunction*%
%TO.P,U15,39*%
%TO.N,Net-(U15-Pad39)*%
%TA.AperFunction,SMDPad,CuDef*%
G36*
G01*
X159400000Y-105650000D02*
X157950000Y-105650000D01*
G75*
G02*
X157875000Y-105575000I0J75000D01*
G01*
X157875000Y-105425000D01*
G75*
G02*
X157950000Y-105350000I75000J0D01*
G01*
X159400000Y-105350000D01*
G75*
G02*
X159475000Y-105425000I0J-75000D01*
G01*
X159475000Y-105575000D01*
G75*
G02*
X159400000Y-105650000I-75000J0D01*
G01*
G37*
%TD.AperFunction*%
%TO.P,U15,38*%
%TO.N,Net-(U15-Pad38)*%
%TA.AperFunction,SMDPad,CuDef*%
G36*
G01*
X159400000Y-106150000D02*
X157950000Y-106150000D01*
G75*
G02*
X157875000Y-106075000I0J75000D01*
G01*
X157875000Y-105925000D01*
G75*
G02*
X157950000Y-105850000I75000J0D01*
G01*
X159400000Y-105850000D01*
G75*
G02*
X159475000Y-105925000I0J-75000D01*
G01*
X159475000Y-106075000D01*
G75*
G02*
X159400000Y-106150000I-75000J0D01*
G01*
G37*
%TD.AperFunction*%
%TO.P,U15,37*%
%TO.N,Net-(C20-Pad1)*%
%TA.AperFunction,SMDPad,CuDef*%
G36*
G01*
X159400000Y-106650000D02*
X157950000Y-106650000D01*
G75*
G02*
X157875000Y-106575000I0J75000D01*
G01*
X157875000Y-106425000D01*
G75*
G02*
X157950000Y-106350000I75000J0D01*
G01*
X159400000Y-106350000D01*
G75*
G02*
X159475000Y-106425000I0J-75000D01*
G01*
X159475000Y-106575000D01*
G75*
G02*
X159400000Y-106650000I-75000J0D01*
G01*
G37*
%TD.AperFunction*%
%TO.P,U15,36*%
%TO.N,Net-(C17-Pad1)*%
%TA.AperFunction,SMDPad,CuDef*%
G36*
G01*
X159400000Y-107150000D02*
X157950000Y-107150000D01*
G75*
G02*
X157875000Y-107075000I0J75000D01*
G01*
X157875000Y-106925000D01*
G75*
G02*
X157950000Y-106850000I75000J0D01*
G01*
X159400000Y-106850000D01*
G75*
G02*
X159475000Y-106925000I0J-75000D01*
G01*
X159475000Y-107075000D01*
G75*
G02*
X159400000Y-107150000I-75000J0D01*
G01*
G37*
%TD.AperFunction*%
%TO.P,U15,35*%
%TO.N,GND*%
%TA.AperFunction,SMDPad,CuDef*%
G36*
G01*
X159400000Y-107650000D02*
X157950000Y-107650000D01*
G75*
G02*
X157875000Y-107575000I0J75000D01*
G01*
X157875000Y-107425000D01*
G75*
G02*
X157950000Y-107350000I75000J0D01*
G01*
X159400000Y-107350000D01*
G75*
G02*
X159475000Y-107425000I0J-75000D01*
G01*
X159475000Y-107575000D01*
G75*
G02*
X159400000Y-107650000I-75000J0D01*
G01*
G37*
%TD.AperFunction*%
%TO.P,U15,34*%
%TO.N,/10(\u002A\u002A/SS)*%
%TA.AperFunction,SMDPad,CuDef*%
G36*
G01*
X159400000Y-108150000D02*
X157950000Y-108150000D01*
G75*
G02*
X157875000Y-108075000I0J75000D01*
G01*
X157875000Y-107925000D01*
G75*
G02*
X157950000Y-107850000I75000J0D01*
G01*
X159400000Y-107850000D01*
G75*
G02*
X159475000Y-107925000I0J-75000D01*
G01*
X159475000Y-108075000D01*
G75*
G02*
X159400000Y-108150000I-75000J0D01*
G01*
G37*
%TD.AperFunction*%
%TO.P,U15,33*%
%TO.N,Net-(U15-Pad33)*%
%TA.AperFunction,SMDPad,CuDef*%
G36*
G01*
X159400000Y-108650000D02*
X157950000Y-108650000D01*
G75*
G02*
X157875000Y-108575000I0J75000D01*
G01*
X157875000Y-108425000D01*
G75*
G02*
X157950000Y-108350000I75000J0D01*
G01*
X159400000Y-108350000D01*
G75*
G02*
X159475000Y-108425000I0J-75000D01*
G01*
X159475000Y-108575000D01*
G75*
G02*
X159400000Y-108650000I-75000J0D01*
G01*
G37*
%TD.AperFunction*%
%TO.P,U15,32*%
%TO.N,/A3*%
%TA.AperFunction,SMDPad,CuDef*%
G36*
G01*
X159400000Y-109150000D02*
X157950000Y-109150000D01*
G75*
G02*
X157875000Y-109075000I0J75000D01*
G01*
X157875000Y-108925000D01*
G75*
G02*
X157950000Y-108850000I75000J0D01*
G01*
X159400000Y-108850000D01*
G75*
G02*
X159475000Y-108925000I0J-75000D01*
G01*
X159475000Y-109075000D01*
G75*
G02*
X159400000Y-109150000I-75000J0D01*
G01*
G37*
%TD.AperFunction*%
%TO.P,U15,31*%
%TO.N,Net-(U15-Pad31)*%
%TA.AperFunction,SMDPad,CuDef*%
G36*
G01*
X159400000Y-109650000D02*
X157950000Y-109650000D01*
G75*
G02*
X157875000Y-109575000I0J75000D01*
G01*
X157875000Y-109425000D01*
G75*
G02*
X157950000Y-109350000I75000J0D01*
G01*
X159400000Y-109350000D01*
G75*
G02*
X159475000Y-109425000I0J-75000D01*
G01*
X159475000Y-109575000D01*
G75*
G02*
X159400000Y-109650000I-75000J0D01*
G01*
G37*
%TD.AperFunction*%
%TO.P,U15,30*%
%TO.N,Net-(U15-Pad30)*%
%TA.AperFunction,SMDPad,CuDef*%
G36*
G01*
X159400000Y-110150000D02*
X157950000Y-110150000D01*
G75*
G02*
X157875000Y-110075000I0J75000D01*
G01*
X157875000Y-109925000D01*
G75*
G02*
X157950000Y-109850000I75000J0D01*
G01*
X159400000Y-109850000D01*
G75*
G02*
X159475000Y-109925000I0J-75000D01*
G01*
X159475000Y-110075000D01*
G75*
G02*
X159400000Y-110150000I-75000J0D01*
G01*
G37*
%TD.AperFunction*%
%TO.P,U15,29*%
%TO.N,Net-(U15-Pad29)*%
%TA.AperFunction,SMDPad,CuDef*%
G36*
G01*
X159400000Y-110650000D02*
X157950000Y-110650000D01*
G75*
G02*
X157875000Y-110575000I0J75000D01*
G01*
X157875000Y-110425000D01*
G75*
G02*
X157950000Y-110350000I75000J0D01*
G01*
X159400000Y-110350000D01*
G75*
G02*
X159475000Y-110425000I0J-75000D01*
G01*
X159475000Y-110575000D01*
G75*
G02*
X159400000Y-110650000I-75000J0D01*
G01*
G37*
%TD.AperFunction*%
%TO.P,U15,28*%
%TO.N,Net-(U15-Pad28)*%
%TA.AperFunction,SMDPad,CuDef*%
G36*
G01*
X159400000Y-111150000D02*
X157950000Y-111150000D01*
G75*
G02*
X157875000Y-111075000I0J75000D01*
G01*
X157875000Y-110925000D01*
G75*
G02*
X157950000Y-110850000I75000J0D01*
G01*
X159400000Y-110850000D01*
G75*
G02*
X159475000Y-110925000I0J-75000D01*
G01*
X159475000Y-111075000D01*
G75*
G02*
X159400000Y-111150000I-75000J0D01*
G01*
G37*
%TD.AperFunction*%
%TO.P,U15,27*%
%TO.N,Net-(U15-Pad27)*%
%TA.AperFunction,SMDPad,CuDef*%
G36*
G01*
X159400000Y-111650000D02*
X157950000Y-111650000D01*
G75*
G02*
X157875000Y-111575000I0J75000D01*
G01*
X157875000Y-111425000D01*
G75*
G02*
X157950000Y-111350000I75000J0D01*
G01*
X159400000Y-111350000D01*
G75*
G02*
X159475000Y-111425000I0J-75000D01*
G01*
X159475000Y-111575000D01*
G75*
G02*
X159400000Y-111650000I-75000J0D01*
G01*
G37*
%TD.AperFunction*%
%TO.P,U15,26*%
%TO.N,Net-(U15-Pad26)*%
%TA.AperFunction,SMDPad,CuDef*%
G36*
G01*
X159400000Y-112150000D02*
X157950000Y-112150000D01*
G75*
G02*
X157875000Y-112075000I0J75000D01*
G01*
X157875000Y-111925000D01*
G75*
G02*
X157950000Y-111850000I75000J0D01*
G01*
X159400000Y-111850000D01*
G75*
G02*
X159475000Y-111925000I0J-75000D01*
G01*
X159475000Y-112075000D01*
G75*
G02*
X159400000Y-112150000I-75000J0D01*
G01*
G37*
%TD.AperFunction*%
%TO.P,U15,25*%
%TO.N,Net-(U15-Pad25)*%
%TA.AperFunction,SMDPad,CuDef*%
G36*
G01*
X157075000Y-114475000D02*
X156925000Y-114475000D01*
G75*
G02*
X156850000Y-114400000I0J75000D01*
G01*
X156850000Y-112950000D01*
G75*
G02*
X156925000Y-112875000I75000J0D01*
G01*
X157075000Y-112875000D01*
G75*
G02*
X157150000Y-112950000I0J-75000D01*
G01*
X157150000Y-114400000D01*
G75*
G02*
X157075000Y-114475000I-75000J0D01*
G01*
G37*
%TD.AperFunction*%
%TO.P,U15,24*%
%TO.N,+3V3*%
%TA.AperFunction,SMDPad,CuDef*%
G36*
G01*
X156575000Y-114475000D02*
X156425000Y-114475000D01*
G75*
G02*
X156350000Y-114400000I0J75000D01*
G01*
X156350000Y-112950000D01*
G75*
G02*
X156425000Y-112875000I75000J0D01*
G01*
X156575000Y-112875000D01*
G75*
G02*
X156650000Y-112950000I0J-75000D01*
G01*
X156650000Y-114400000D01*
G75*
G02*
X156575000Y-114475000I-75000J0D01*
G01*
G37*
%TD.AperFunction*%
%TO.P,U15,23*%
%TO.N,GND*%
%TA.AperFunction,SMDPad,CuDef*%
G36*
G01*
X156075000Y-114475000D02*
X155925000Y-114475000D01*
G75*
G02*
X155850000Y-114400000I0J75000D01*
G01*
X155850000Y-112950000D01*
G75*
G02*
X155925000Y-112875000I75000J0D01*
G01*
X156075000Y-112875000D01*
G75*
G02*
X156150000Y-112950000I0J-75000D01*
G01*
X156150000Y-114400000D01*
G75*
G02*
X156075000Y-114475000I-75000J0D01*
G01*
G37*
%TD.AperFunction*%
%TO.P,U15,22*%
%TO.N,Net-(U15-Pad22)*%
%TA.AperFunction,SMDPad,CuDef*%
G36*
G01*
X155575000Y-114475000D02*
X155425000Y-114475000D01*
G75*
G02*
X155350000Y-114400000I0J75000D01*
G01*
X155350000Y-112950000D01*
G75*
G02*
X155425000Y-112875000I75000J0D01*
G01*
X155575000Y-112875000D01*
G75*
G02*
X155650000Y-112950000I0J-75000D01*
G01*
X155650000Y-114400000D01*
G75*
G02*
X155575000Y-114475000I-75000J0D01*
G01*
G37*
%TD.AperFunction*%
%TO.P,U15,21*%
%TO.N,/A1*%
%TA.AperFunction,SMDPad,CuDef*%
G36*
G01*
X155075000Y-114475000D02*
X154925000Y-114475000D01*
G75*
G02*
X154850000Y-114400000I0J75000D01*
G01*
X154850000Y-112950000D01*
G75*
G02*
X154925000Y-112875000I75000J0D01*
G01*
X155075000Y-112875000D01*
G75*
G02*
X155150000Y-112950000I0J-75000D01*
G01*
X155150000Y-114400000D01*
G75*
G02*
X155075000Y-114475000I-75000J0D01*
G01*
G37*
%TD.AperFunction*%
%TO.P,U15,20*%
%TO.N,/A0*%
%TA.AperFunction,SMDPad,CuDef*%
G36*
G01*
X154575000Y-114475000D02*
X154425000Y-114475000D01*
G75*
G02*
X154350000Y-114400000I0J75000D01*
G01*
X154350000Y-112950000D01*
G75*
G02*
X154425000Y-112875000I75000J0D01*
G01*
X154575000Y-112875000D01*
G75*
G02*
X154650000Y-112950000I0J-75000D01*
G01*
X154650000Y-114400000D01*
G75*
G02*
X154575000Y-114475000I-75000J0D01*
G01*
G37*
%TD.AperFunction*%
%TO.P,U15,19*%
%TO.N,N/C*%
%TA.AperFunction,SMDPad,CuDef*%
G36*
G01*
X154075000Y-114475000D02*
X153925000Y-114475000D01*
G75*
G02*
X153850000Y-114400000I0J75000D01*
G01*
X153850000Y-112950000D01*
G75*
G02*
X153925000Y-112875000I75000J0D01*
G01*
X154075000Y-112875000D01*
G75*
G02*
X154150000Y-112950000I0J-75000D01*
G01*
X154150000Y-114400000D01*
G75*
G02*
X154075000Y-114475000I-75000J0D01*
G01*
G37*
%TD.AperFunction*%
%TO.P,U15,18*%
%TO.N,Net-(U15-Pad18)*%
%TA.AperFunction,SMDPad,CuDef*%
G36*
G01*
X153575000Y-114475000D02*
X153425000Y-114475000D01*
G75*
G02*
X153350000Y-114400000I0J75000D01*
G01*
X153350000Y-112950000D01*
G75*
G02*
X153425000Y-112875000I75000J0D01*
G01*
X153575000Y-112875000D01*
G75*
G02*
X153650000Y-112950000I0J-75000D01*
G01*
X153650000Y-114400000D01*
G75*
G02*
X153575000Y-114475000I-75000J0D01*
G01*
G37*
%TD.AperFunction*%
%TO.P,U15,17*%
%TO.N,Net-(U15-Pad17)*%
%TA.AperFunction,SMDPad,CuDef*%
G36*
G01*
X153075000Y-114475000D02*
X152925000Y-114475000D01*
G75*
G02*
X152850000Y-114400000I0J75000D01*
G01*
X152850000Y-112950000D01*
G75*
G02*
X152925000Y-112875000I75000J0D01*
G01*
X153075000Y-112875000D01*
G75*
G02*
X153150000Y-112950000I0J-75000D01*
G01*
X153150000Y-114400000D01*
G75*
G02*
X153075000Y-114475000I-75000J0D01*
G01*
G37*
%TD.AperFunction*%
%TO.P,U15,16*%
%TO.N,Net-(U15-Pad16)*%
%TA.AperFunction,SMDPad,CuDef*%
G36*
G01*
X152575000Y-114475000D02*
X152425000Y-114475000D01*
G75*
G02*
X152350000Y-114400000I0J75000D01*
G01*
X152350000Y-112950000D01*
G75*
G02*
X152425000Y-112875000I75000J0D01*
G01*
X152575000Y-112875000D01*
G75*
G02*
X152650000Y-112950000I0J-75000D01*
G01*
X152650000Y-114400000D01*
G75*
G02*
X152575000Y-114475000I-75000J0D01*
G01*
G37*
%TD.AperFunction*%
%TO.P,U15,15*%
%TO.N,Net-(U15-Pad15)*%
%TA.AperFunction,SMDPad,CuDef*%
G36*
G01*
X152075000Y-114475000D02*
X151925000Y-114475000D01*
G75*
G02*
X151850000Y-114400000I0J75000D01*
G01*
X151850000Y-112950000D01*
G75*
G02*
X151925000Y-112875000I75000J0D01*
G01*
X152075000Y-112875000D01*
G75*
G02*
X152150000Y-112950000I0J-75000D01*
G01*
X152150000Y-114400000D01*
G75*
G02*
X152075000Y-114475000I-75000J0D01*
G01*
G37*
%TD.AperFunction*%
%TO.P,U15,14*%
%TO.N,/Reset*%
%TA.AperFunction,SMDPad,CuDef*%
G36*
G01*
X151575000Y-114475000D02*
X151425000Y-114475000D01*
G75*
G02*
X151350000Y-114400000I0J75000D01*
G01*
X151350000Y-112950000D01*
G75*
G02*
X151425000Y-112875000I75000J0D01*
G01*
X151575000Y-112875000D01*
G75*
G02*
X151650000Y-112950000I0J-75000D01*
G01*
X151650000Y-114400000D01*
G75*
G02*
X151575000Y-114475000I-75000J0D01*
G01*
G37*
%TD.AperFunction*%
%TO.P,U15,13*%
%TO.N,Net-(C16-Pad2)*%
%TA.AperFunction,SMDPad,CuDef*%
G36*
G01*
X151075000Y-114475000D02*
X150925000Y-114475000D01*
G75*
G02*
X150850000Y-114400000I0J75000D01*
G01*
X150850000Y-112950000D01*
G75*
G02*
X150925000Y-112875000I75000J0D01*
G01*
X151075000Y-112875000D01*
G75*
G02*
X151150000Y-112950000I0J-75000D01*
G01*
X151150000Y-114400000D01*
G75*
G02*
X151075000Y-114475000I-75000J0D01*
G01*
G37*
%TD.AperFunction*%
%TO.P,U15,12*%
%TO.N,Net-(C15-Pad2)*%
%TA.AperFunction,SMDPad,CuDef*%
G36*
G01*
X150575000Y-114475000D02*
X150425000Y-114475000D01*
G75*
G02*
X150350000Y-114400000I0J75000D01*
G01*
X150350000Y-112950000D01*
G75*
G02*
X150425000Y-112875000I75000J0D01*
G01*
X150575000Y-112875000D01*
G75*
G02*
X150650000Y-112950000I0J-75000D01*
G01*
X150650000Y-114400000D01*
G75*
G02*
X150575000Y-114475000I-75000J0D01*
G01*
G37*
%TD.AperFunction*%
%TO.P,U15,11*%
%TO.N,Net-(U15-Pad11)*%
%TA.AperFunction,SMDPad,CuDef*%
G36*
G01*
X150075000Y-114475000D02*
X149925000Y-114475000D01*
G75*
G02*
X149850000Y-114400000I0J75000D01*
G01*
X149850000Y-112950000D01*
G75*
G02*
X149925000Y-112875000I75000J0D01*
G01*
X150075000Y-112875000D01*
G75*
G02*
X150150000Y-112950000I0J-75000D01*
G01*
X150150000Y-114400000D01*
G75*
G02*
X150075000Y-114475000I-75000J0D01*
G01*
G37*
%TD.AperFunction*%
%TO.P,U15,10*%
%TO.N,Net-(U15-Pad10)*%
%TA.AperFunction,SMDPad,CuDef*%
G36*
G01*
X149575000Y-114475000D02*
X149425000Y-114475000D01*
G75*
G02*
X149350000Y-114400000I0J75000D01*
G01*
X149350000Y-112950000D01*
G75*
G02*
X149425000Y-112875000I75000J0D01*
G01*
X149575000Y-112875000D01*
G75*
G02*
X149650000Y-112950000I0J-75000D01*
G01*
X149650000Y-114400000D01*
G75*
G02*
X149575000Y-114475000I-75000J0D01*
G01*
G37*
%TD.AperFunction*%
%TO.P,U15,9*%
%TO.N,Net-(U15-Pad9)*%
%TA.AperFunction,SMDPad,CuDef*%
G36*
G01*
X149075000Y-114475000D02*
X148925000Y-114475000D01*
G75*
G02*
X148850000Y-114400000I0J75000D01*
G01*
X148850000Y-112950000D01*
G75*
G02*
X148925000Y-112875000I75000J0D01*
G01*
X149075000Y-112875000D01*
G75*
G02*
X149150000Y-112950000I0J-75000D01*
G01*
X149150000Y-114400000D01*
G75*
G02*
X149075000Y-114475000I-75000J0D01*
G01*
G37*
%TD.AperFunction*%
%TO.P,U15,8*%
%TO.N,Net-(U15-Pad8)*%
%TA.AperFunction,SMDPad,CuDef*%
G36*
G01*
X148575000Y-114475000D02*
X148425000Y-114475000D01*
G75*
G02*
X148350000Y-114400000I0J75000D01*
G01*
X148350000Y-112950000D01*
G75*
G02*
X148425000Y-112875000I75000J0D01*
G01*
X148575000Y-112875000D01*
G75*
G02*
X148650000Y-112950000I0J-75000D01*
G01*
X148650000Y-114400000D01*
G75*
G02*
X148575000Y-114475000I-75000J0D01*
G01*
G37*
%TD.AperFunction*%
%TO.P,U15,7*%
%TO.N,Net-(U15-Pad7)*%
%TA.AperFunction,SMDPad,CuDef*%
G36*
G01*
X148075000Y-114475000D02*
X147925000Y-114475000D01*
G75*
G02*
X147850000Y-114400000I0J75000D01*
G01*
X147850000Y-112950000D01*
G75*
G02*
X147925000Y-112875000I75000J0D01*
G01*
X148075000Y-112875000D01*
G75*
G02*
X148150000Y-112950000I0J-75000D01*
G01*
X148150000Y-114400000D01*
G75*
G02*
X148075000Y-114475000I-75000J0D01*
G01*
G37*
%TD.AperFunction*%
%TO.P,U15,6*%
%TO.N,+3V3*%
%TA.AperFunction,SMDPad,CuDef*%
G36*
G01*
X147575000Y-114475000D02*
X147425000Y-114475000D01*
G75*
G02*
X147350000Y-114400000I0J75000D01*
G01*
X147350000Y-112950000D01*
G75*
G02*
X147425000Y-112875000I75000J0D01*
G01*
X147575000Y-112875000D01*
G75*
G02*
X147650000Y-112950000I0J-75000D01*
G01*
X147650000Y-114400000D01*
G75*
G02*
X147575000Y-114475000I-75000J0D01*
G01*
G37*
%TD.AperFunction*%
%TO.P,U15,5*%
%TO.N,Net-(U15-Pad5)*%
%TA.AperFunction,SMDPad,CuDef*%
G36*
G01*
X147075000Y-114475000D02*
X146925000Y-114475000D01*
G75*
G02*
X146850000Y-114400000I0J75000D01*
G01*
X146850000Y-112950000D01*
G75*
G02*
X146925000Y-112875000I75000J0D01*
G01*
X147075000Y-112875000D01*
G75*
G02*
X147150000Y-112950000I0J-75000D01*
G01*
X147150000Y-114400000D01*
G75*
G02*
X147075000Y-114475000I-75000J0D01*
G01*
G37*
%TD.AperFunction*%
%TO.P,U15,4*%
%TO.N,Net-(U15-Pad4)*%
%TA.AperFunction,SMDPad,CuDef*%
G36*
G01*
X146575000Y-114475000D02*
X146425000Y-114475000D01*
G75*
G02*
X146350000Y-114400000I0J75000D01*
G01*
X146350000Y-112950000D01*
G75*
G02*
X146425000Y-112875000I75000J0D01*
G01*
X146575000Y-112875000D01*
G75*
G02*
X146650000Y-112950000I0J-75000D01*
G01*
X146650000Y-114400000D01*
G75*
G02*
X146575000Y-114475000I-75000J0D01*
G01*
G37*
%TD.AperFunction*%
%TO.P,U15,3*%
%TO.N,Net-(U15-Pad3)*%
%TA.AperFunction,SMDPad,CuDef*%
G36*
G01*
X146075000Y-114475000D02*
X145925000Y-114475000D01*
G75*
G02*
X145850000Y-114400000I0J75000D01*
G01*
X145850000Y-112950000D01*
G75*
G02*
X145925000Y-112875000I75000J0D01*
G01*
X146075000Y-112875000D01*
G75*
G02*
X146150000Y-112950000I0J-75000D01*
G01*
X146150000Y-114400000D01*
G75*
G02*
X146075000Y-114475000I-75000J0D01*
G01*
G37*
%TD.AperFunction*%
%TO.P,U15,2*%
%TO.N,Net-(U15-Pad2)*%
%TA.AperFunction,SMDPad,CuDef*%
G36*
G01*
X145575000Y-114475000D02*
X145425000Y-114475000D01*
G75*
G02*
X145350000Y-114400000I0J75000D01*
G01*
X145350000Y-112950000D01*
G75*
G02*
X145425000Y-112875000I75000J0D01*
G01*
X145575000Y-112875000D01*
G75*
G02*
X145650000Y-112950000I0J-75000D01*
G01*
X145650000Y-114400000D01*
G75*
G02*
X145575000Y-114475000I-75000J0D01*
G01*
G37*
%TD.AperFunction*%
%TO.P,U15,1*%
%TO.N,Net-(U15-Pad1)*%
%TA.AperFunction,SMDPad,CuDef*%
G36*
G01*
X145075000Y-114475000D02*
X144925000Y-114475000D01*
G75*
G02*
X144850000Y-114400000I0J75000D01*
G01*
X144850000Y-112950000D01*
G75*
G02*
X144925000Y-112875000I75000J0D01*
G01*
X145075000Y-112875000D01*
G75*
G02*
X145150000Y-112950000I0J-75000D01*
G01*
X145150000Y-114400000D01*
G75*
G02*
X145075000Y-114475000I-75000J0D01*
G01*
G37*
%TD.AperFunction*%
%TD*%
%TO.P,C19,2*%
%TO.N,GND*%
%TA.AperFunction,SMDPad,CuDef*%
G36*
G01*
X143435500Y-119215000D02*
X142960500Y-119215000D01*
G75*
G02*
X142723000Y-118977500I0J237500D01*
G01*
X142723000Y-118402500D01*
G75*
G02*
X142960500Y-118165000I237500J0D01*
G01*
X143435500Y-118165000D01*
G75*
G02*
X143673000Y-118402500I0J-237500D01*
G01*
X143673000Y-118977500D01*
G75*
G02*
X143435500Y-119215000I-237500J0D01*
G01*
G37*
%TD.AperFunction*%
%TO.P,C19,1*%
%TO.N,/Reset*%
%TA.AperFunction,SMDPad,CuDef*%
G36*
G01*
X143435500Y-120965000D02*
X142960500Y-120965000D01*
G75*
G02*
X142723000Y-120727500I0J237500D01*
G01*
X142723000Y-120152500D01*
G75*
G02*
X142960500Y-119915000I237500J0D01*
G01*
X143435500Y-119915000D01*
G75*
G02*
X143673000Y-120152500I0J-237500D01*
G01*
X143673000Y-120727500D01*
G75*
G02*
X143435500Y-120965000I-237500J0D01*
G01*
G37*
%TD.AperFunction*%
%TD*%
%TO.P,C26,2*%
%TO.N,GND*%
%TA.AperFunction,SMDPad,CuDef*%
G36*
G01*
X142960500Y-115915000D02*
X143435500Y-115915000D01*
G75*
G02*
X143673000Y-116152500I0J-237500D01*
G01*
X143673000Y-116727500D01*
G75*
G02*
X143435500Y-116965000I-237500J0D01*
G01*
X142960500Y-116965000D01*
G75*
G02*
X142723000Y-116727500I0J237500D01*
G01*
X142723000Y-116152500D01*
G75*
G02*
X142960500Y-115915000I237500J0D01*
G01*
G37*
%TD.AperFunction*%
%TO.P,C26,1*%
%TO.N,+3V3*%
%TA.AperFunction,SMDPad,CuDef*%
G36*
G01*
X142960500Y-114165000D02*
X143435500Y-114165000D01*
G75*
G02*
X143673000Y-114402500I0J-237500D01*
G01*
X143673000Y-114977500D01*
G75*
G02*
X143435500Y-115215000I-237500J0D01*
G01*
X142960500Y-115215000D01*
G75*
G02*
X142723000Y-114977500I0J237500D01*
G01*
X142723000Y-114402500D01*
G75*
G02*
X142960500Y-114165000I237500J0D01*
G01*
G37*
%TD.AperFunction*%
%TD*%
%TO.P,C25,2*%
%TO.N,GND*%
%TA.AperFunction,SMDPad,CuDef*%
G36*
G01*
X161012500Y-101100000D02*
X161487500Y-101100000D01*
G75*
G02*
X161725000Y-101337500I0J-237500D01*
G01*
X161725000Y-101912500D01*
G75*
G02*
X161487500Y-102150000I-237500J0D01*
G01*
X161012500Y-102150000D01*
G75*
G02*
X160775000Y-101912500I0J237500D01*
G01*
X160775000Y-101337500D01*
G75*
G02*
X161012500Y-101100000I237500J0D01*
G01*
G37*
%TD.AperFunction*%
%TO.P,C25,1*%
%TO.N,+3V3*%
%TA.AperFunction,SMDPad,CuDef*%
G36*
G01*
X161012500Y-99350000D02*
X161487500Y-99350000D01*
G75*
G02*
X161725000Y-99587500I0J-237500D01*
G01*
X161725000Y-100162500D01*
G75*
G02*
X161487500Y-100400000I-237500J0D01*
G01*
X161012500Y-100400000D01*
G75*
G02*
X160775000Y-100162500I0J237500D01*
G01*
X160775000Y-99587500D01*
G75*
G02*
X161012500Y-99350000I237500J0D01*
G01*
G37*
%TD.AperFunction*%
%TD*%
%TO.P,C24,2*%
%TO.N,GND*%
%TA.AperFunction,SMDPad,CuDef*%
G36*
G01*
X150351500Y-94011000D02*
X149876500Y-94011000D01*
G75*
G02*
X149639000Y-93773500I0J237500D01*
G01*
X149639000Y-93198500D01*
G75*
G02*
X149876500Y-92961000I237500J0D01*
G01*
X150351500Y-92961000D01*
G75*
G02*
X150589000Y-93198500I0J-237500D01*
G01*
X150589000Y-93773500D01*
G75*
G02*
X150351500Y-94011000I-237500J0D01*
G01*
G37*
%TD.AperFunction*%
%TO.P,C24,1*%
%TO.N,+3V3*%
%TA.AperFunction,SMDPad,CuDef*%
G36*
G01*
X150351500Y-95761000D02*
X149876500Y-95761000D01*
G75*
G02*
X149639000Y-95523500I0J237500D01*
G01*
X149639000Y-94948500D01*
G75*
G02*
X149876500Y-94711000I237500J0D01*
G01*
X150351500Y-94711000D01*
G75*
G02*
X150589000Y-94948500I0J-237500D01*
G01*
X150589000Y-95523500D01*
G75*
G02*
X150351500Y-95761000I-237500J0D01*
G01*
G37*
%TD.AperFunction*%
%TD*%
%TO.P,C23,2*%
%TO.N,GND*%
%TA.AperFunction,SMDPad,CuDef*%
G36*
G01*
X145235500Y-94015000D02*
X144760500Y-94015000D01*
G75*
G02*
X144523000Y-93777500I0J237500D01*
G01*
X144523000Y-93202500D01*
G75*
G02*
X144760500Y-92965000I237500J0D01*
G01*
X145235500Y-92965000D01*
G75*
G02*
X145473000Y-93202500I0J-237500D01*
G01*
X145473000Y-93777500D01*
G75*
G02*
X145235500Y-94015000I-237500J0D01*
G01*
G37*
%TD.AperFunction*%
%TO.P,C23,1*%
%TO.N,+3V3*%
%TA.AperFunction,SMDPad,CuDef*%
G36*
G01*
X145235500Y-95765000D02*
X144760500Y-95765000D01*
G75*
G02*
X144523000Y-95527500I0J237500D01*
G01*
X144523000Y-94952500D01*
G75*
G02*
X144760500Y-94715000I237500J0D01*
G01*
X145235500Y-94715000D01*
G75*
G02*
X145473000Y-94952500I0J-237500D01*
G01*
X145473000Y-95527500D01*
G75*
G02*
X145235500Y-95765000I-237500J0D01*
G01*
G37*
%TD.AperFunction*%
%TD*%
%TO.P,C22,2*%
%TO.N,GND*%
%TA.AperFunction,SMDPad,CuDef*%
G36*
G01*
X146248000Y-115627500D02*
X146248000Y-116102500D01*
G75*
G02*
X146010500Y-116340000I-237500J0D01*
G01*
X145435500Y-116340000D01*
G75*
G02*
X145198000Y-116102500I0J237500D01*
G01*
X145198000Y-115627500D01*
G75*
G02*
X145435500Y-115390000I237500J0D01*
G01*
X146010500Y-115390000D01*
G75*
G02*
X146248000Y-115627500I0J-237500D01*
G01*
G37*
%TD.AperFunction*%
%TO.P,C22,1*%
%TO.N,+3V3*%
%TA.AperFunction,SMDPad,CuDef*%
G36*
G01*
X147998000Y-115627500D02*
X147998000Y-116102500D01*
G75*
G02*
X147760500Y-116340000I-237500J0D01*
G01*
X147185500Y-116340000D01*
G75*
G02*
X146948000Y-116102500I0J237500D01*
G01*
X146948000Y-115627500D01*
G75*
G02*
X147185500Y-115390000I237500J0D01*
G01*
X147760500Y-115390000D01*
G75*
G02*
X147998000Y-115627500I0J-237500D01*
G01*
G37*
%TD.AperFunction*%
%TD*%
%TO.P,C20,2*%
%TO.N,GND*%
%TA.AperFunction,SMDPad,CuDef*%
G36*
G01*
X164098000Y-106102500D02*
X164098000Y-105627500D01*
G75*
G02*
X164335500Y-105390000I237500J0D01*
G01*
X164910500Y-105390000D01*
G75*
G02*
X165148000Y-105627500I0J-237500D01*
G01*
X165148000Y-106102500D01*
G75*
G02*
X164910500Y-106340000I-237500J0D01*
G01*
X164335500Y-106340000D01*
G75*
G02*
X164098000Y-106102500I0J237500D01*
G01*
G37*
%TD.AperFunction*%
%TO.P,C20,1*%
%TO.N,Net-(C20-Pad1)*%
%TA.AperFunction,SMDPad,CuDef*%
G36*
G01*
X162348000Y-106102500D02*
X162348000Y-105627500D01*
G75*
G02*
X162585500Y-105390000I237500J0D01*
G01*
X163160500Y-105390000D01*
G75*
G02*
X163398000Y-105627500I0J-237500D01*
G01*
X163398000Y-106102500D01*
G75*
G02*
X163160500Y-106340000I-237500J0D01*
G01*
X162585500Y-106340000D01*
G75*
G02*
X162348000Y-106102500I0J237500D01*
G01*
G37*
%TD.AperFunction*%
%TD*%
%TO.P,C17,2*%
%TO.N,GND*%
%TA.AperFunction,SMDPad,CuDef*%
G36*
G01*
X164098000Y-107852500D02*
X164098000Y-107377500D01*
G75*
G02*
X164335500Y-107140000I237500J0D01*
G01*
X164910500Y-107140000D01*
G75*
G02*
X165148000Y-107377500I0J-237500D01*
G01*
X165148000Y-107852500D01*
G75*
G02*
X164910500Y-108090000I-237500J0D01*
G01*
X164335500Y-108090000D01*
G75*
G02*
X164098000Y-107852500I0J237500D01*
G01*
G37*
%TD.AperFunction*%
%TO.P,C17,1*%
%TO.N,Net-(C17-Pad1)*%
%TA.AperFunction,SMDPad,CuDef*%
G36*
G01*
X162348000Y-107852500D02*
X162348000Y-107377500D01*
G75*
G02*
X162585500Y-107140000I237500J0D01*
G01*
X163160500Y-107140000D01*
G75*
G02*
X163398000Y-107377500I0J-237500D01*
G01*
X163398000Y-107852500D01*
G75*
G02*
X163160500Y-108090000I-237500J0D01*
G01*
X162585500Y-108090000D01*
G75*
G02*
X162348000Y-107852500I0J237500D01*
G01*
G37*
%TD.AperFunction*%
%TD*%
D14*
%TO.P,U11,10*%
%TO.N,GND*%
X177248000Y-95615000D03*
%TO.P,U11,9*%
%TO.N,/nEX*%
X177248000Y-96115000D03*
%TO.P,U11,8*%
%TO.N,/10(\u002A\u002A/SS)*%
X177248000Y-96615000D03*
%TO.P,U11,7*%
%TO.N,Net-(U11-Pad2)*%
X177248000Y-97115000D03*
%TO.P,U11,6*%
%TO.N,GND*%
X177248000Y-97615000D03*
%TO.P,U11,5*%
X172948000Y-97615000D03*
%TO.P,U11,4*%
%TO.N,/10(\u002A\u002A/SS)*%
X172948000Y-97115000D03*
%TO.P,U11,3*%
%TO.N,/EX*%
X172948000Y-96615000D03*
%TO.P,U11,2*%
%TO.N,Net-(U11-Pad2)*%
X172948000Y-96115000D03*
%TO.P,U11,1*%
%TO.N,VDDA*%
X172948000Y-95615000D03*
%TD*%
D15*
%TO.P,U19,5*%
%TO.N,VDDA*%
X163898000Y-114815000D03*
%TO.P,U19,4*%
%TO.N,/A3*%
X163898000Y-112915000D03*
%TO.P,U19,3*%
X166098000Y-112915000D03*
%TO.P,U19,2*%
%TO.N,GND*%
X166098000Y-113865000D03*
%TO.P,U19,1*%
%TO.N,Net-(C10-Pad1)*%
X166098000Y-114815000D03*
%TD*%
%TO.P,U18,5*%
%TO.N,VDDA*%
X157400000Y-119700000D03*
%TO.P,U18,4*%
%TO.N,/A0*%
X157400000Y-117800000D03*
%TO.P,U18,3*%
X159600000Y-117800000D03*
%TO.P,U18,2*%
%TO.N,GND*%
X159600000Y-118750000D03*
%TO.P,U18,1*%
%TO.N,Net-(C8-Pad1)*%
X159600000Y-119700000D03*
%TD*%
%TO.P,U17,5*%
%TO.N,VDDA*%
X164898000Y-118950000D03*
%TO.P,U17,4*%
%TO.N,/A1*%
X164898000Y-117050000D03*
%TO.P,U17,3*%
X167098000Y-117050000D03*
%TO.P,U17,2*%
%TO.N,GND*%
X167098000Y-118000000D03*
%TO.P,U17,1*%
%TO.N,Net-(C9-Pad1)*%
X167098000Y-118950000D03*
%TD*%
D16*
%TO.P,U16,5*%
%TO.N,VDDA*%
X170325000Y-91975000D03*
%TO.P,U16,4*%
%TO.N,Net-(U11-Pad2)*%
X168425000Y-91975000D03*
%TO.P,U16,3*%
X168425000Y-89775000D03*
%TO.P,U16,2*%
%TO.N,GND*%
X169375000Y-89775000D03*
%TO.P,U16,1*%
%TO.N,/AREF*%
X170325000Y-89775000D03*
%TD*%
D17*
%TO.P,J4,10*%
%TO.N,/Reset*%
X158448000Y-80772000D03*
%TO.P,J4,9*%
%TO.N,Net-(J4-Pad9)*%
X162348000Y-80772000D03*
%TO.P,J4,8*%
%TO.N,Net-(J4-Pad8)*%
X158448000Y-82042000D03*
%TO.P,J4,7*%
%TO.N,Net-(J4-Pad7)*%
X162348000Y-82042000D03*
%TO.P,J4,6*%
%TO.N,/SensorBoardCPU/SWO*%
X158448000Y-83312000D03*
%TO.P,J4,5*%
%TO.N,GND*%
X162348000Y-83312000D03*
%TO.P,J4,4*%
%TO.N,/SensorBoardCPU/SWCLK*%
X158448000Y-84582000D03*
%TO.P,J4,3*%
%TO.N,GND*%
X162348000Y-84582000D03*
%TO.P,J4,2*%
%TO.N,/SensorBoardCPU/SWDIO*%
X158448000Y-85852000D03*
%TO.P,J4,1*%
%TO.N,+3V3*%
X162348000Y-85852000D03*
%TD*%
D18*
%TO.P,Y1,4*%
%TO.N,Net-(Y1-Pad4)*%
X149348000Y-117765000D03*
%TO.P,Y1,3*%
%TO.N,Net-(C16-Pad2)*%
X151548000Y-117765000D03*
%TO.P,Y1,2*%
%TO.N,Net-(Y1-Pad2)*%
X151548000Y-119465000D03*
%TO.P,Y1,1*%
%TO.N,Net-(C15-Pad2)*%
X149348000Y-119465000D03*
%TD*%
%TO.P,L2,2*%
%TO.N,VDDA*%
%TA.AperFunction,SMDPad,CuDef*%
G36*
G01*
X164098000Y-103102500D02*
X164098000Y-102627500D01*
G75*
G02*
X164335500Y-102390000I237500J0D01*
G01*
X164910500Y-102390000D01*
G75*
G02*
X165148000Y-102627500I0J-237500D01*
G01*
X165148000Y-103102500D01*
G75*
G02*
X164910500Y-103340000I-237500J0D01*
G01*
X164335500Y-103340000D01*
G75*
G02*
X164098000Y-103102500I0J237500D01*
G01*
G37*
%TD.AperFunction*%
%TO.P,L2,1*%
%TO.N,Net-(C20-Pad1)*%
%TA.AperFunction,SMDPad,CuDef*%
G36*
G01*
X162348000Y-103102500D02*
X162348000Y-102627500D01*
G75*
G02*
X162585500Y-102390000I237500J0D01*
G01*
X163160500Y-102390000D01*
G75*
G02*
X163398000Y-102627500I0J-237500D01*
G01*
X163398000Y-103102500D01*
G75*
G02*
X163160500Y-103340000I-237500J0D01*
G01*
X162585500Y-103340000D01*
G75*
G02*
X162348000Y-103102500I0J237500D01*
G01*
G37*
%TD.AperFunction*%
%TD*%
%TO.P,L1,2*%
%TO.N,Net-(C17-Pad1)*%
%TA.AperFunction,SMDPad,CuDef*%
G36*
G01*
X171762500Y-90975000D02*
X172237500Y-90975000D01*
G75*
G02*
X172475000Y-91212500I0J-237500D01*
G01*
X172475000Y-91787500D01*
G75*
G02*
X172237500Y-92025000I-237500J0D01*
G01*
X171762500Y-92025000D01*
G75*
G02*
X171525000Y-91787500I0J237500D01*
G01*
X171525000Y-91212500D01*
G75*
G02*
X171762500Y-90975000I237500J0D01*
G01*
G37*
%TD.AperFunction*%
%TO.P,L1,1*%
%TO.N,/AREF*%
%TA.AperFunction,SMDPad,CuDef*%
G36*
G01*
X171762500Y-89225000D02*
X172237500Y-89225000D01*
G75*
G02*
X172475000Y-89462500I0J-237500D01*
G01*
X172475000Y-90037500D01*
G75*
G02*
X172237500Y-90275000I-237500J0D01*
G01*
X171762500Y-90275000D01*
G75*
G02*
X171525000Y-90037500I0J237500D01*
G01*
X171525000Y-89462500D01*
G75*
G02*
X171762500Y-89225000I237500J0D01*
G01*
G37*
%TD.AperFunction*%
%TD*%
%TO.P,C28,2*%
%TO.N,GND*%
%TA.AperFunction,SMDPad,CuDef*%
G36*
G01*
X141424999Y-95700000D02*
X142325001Y-95700000D01*
G75*
G02*
X142575000Y-95949999I0J-249999D01*
G01*
X142575000Y-96600001D01*
G75*
G02*
X142325001Y-96850000I-249999J0D01*
G01*
X141424999Y-96850000D01*
G75*
G02*
X141175000Y-96600001I0J249999D01*
G01*
X141175000Y-95949999D01*
G75*
G02*
X141424999Y-95700000I249999J0D01*
G01*
G37*
%TD.AperFunction*%
%TO.P,C28,1*%
%TO.N,+3V3*%
%TA.AperFunction,SMDPad,CuDef*%
G36*
G01*
X141424999Y-93650000D02*
X142325001Y-93650000D01*
G75*
G02*
X142575000Y-93899999I0J-249999D01*
G01*
X142575000Y-94550001D01*
G75*
G02*
X142325001Y-94800000I-249999J0D01*
G01*
X141424999Y-94800000D01*
G75*
G02*
X141175000Y-94550001I0J249999D01*
G01*
X141175000Y-93899999D01*
G75*
G02*
X141424999Y-93650000I249999J0D01*
G01*
G37*
%TD.AperFunction*%
%TD*%
%TO.P,C21,2*%
%TO.N,GND*%
%TA.AperFunction,SMDPad,CuDef*%
G36*
G01*
X164098000Y-104602500D02*
X164098000Y-104127500D01*
G75*
G02*
X164335500Y-103890000I237500J0D01*
G01*
X164910500Y-103890000D01*
G75*
G02*
X165148000Y-104127500I0J-237500D01*
G01*
X165148000Y-104602500D01*
G75*
G02*
X164910500Y-104840000I-237500J0D01*
G01*
X164335500Y-104840000D01*
G75*
G02*
X164098000Y-104602500I0J237500D01*
G01*
G37*
%TD.AperFunction*%
%TO.P,C21,1*%
%TO.N,Net-(C20-Pad1)*%
%TA.AperFunction,SMDPad,CuDef*%
G36*
G01*
X162348000Y-104602500D02*
X162348000Y-104127500D01*
G75*
G02*
X162585500Y-103890000I237500J0D01*
G01*
X163160500Y-103890000D01*
G75*
G02*
X163398000Y-104127500I0J-237500D01*
G01*
X163398000Y-104602500D01*
G75*
G02*
X163160500Y-104840000I-237500J0D01*
G01*
X162585500Y-104840000D01*
G75*
G02*
X162348000Y-104602500I0J237500D01*
G01*
G37*
%TD.AperFunction*%
%TD*%
%TO.P,C18,2*%
%TO.N,GND*%
%TA.AperFunction,SMDPad,CuDef*%
G36*
G01*
X164098000Y-109352500D02*
X164098000Y-108877500D01*
G75*
G02*
X164335500Y-108640000I237500J0D01*
G01*
X164910500Y-108640000D01*
G75*
G02*
X165148000Y-108877500I0J-237500D01*
G01*
X165148000Y-109352500D01*
G75*
G02*
X164910500Y-109590000I-237500J0D01*
G01*
X164335500Y-109590000D01*
G75*
G02*
X164098000Y-109352500I0J237500D01*
G01*
G37*
%TD.AperFunction*%
%TO.P,C18,1*%
%TO.N,Net-(C17-Pad1)*%
%TA.AperFunction,SMDPad,CuDef*%
G36*
G01*
X162348000Y-109352500D02*
X162348000Y-108877500D01*
G75*
G02*
X162585500Y-108640000I237500J0D01*
G01*
X163160500Y-108640000D01*
G75*
G02*
X163398000Y-108877500I0J-237500D01*
G01*
X163398000Y-109352500D01*
G75*
G02*
X163160500Y-109590000I-237500J0D01*
G01*
X162585500Y-109590000D01*
G75*
G02*
X162348000Y-109352500I0J237500D01*
G01*
G37*
%TD.AperFunction*%
%TD*%
%TO.P,C16,2*%
%TO.N,Net-(C16-Pad2)*%
%TA.AperFunction,SMDPad,CuDef*%
G36*
G01*
X154235500Y-118265000D02*
X153760500Y-118265000D01*
G75*
G02*
X153523000Y-118027500I0J237500D01*
G01*
X153523000Y-117452500D01*
G75*
G02*
X153760500Y-117215000I237500J0D01*
G01*
X154235500Y-117215000D01*
G75*
G02*
X154473000Y-117452500I0J-237500D01*
G01*
X154473000Y-118027500D01*
G75*
G02*
X154235500Y-118265000I-237500J0D01*
G01*
G37*
%TD.AperFunction*%
%TO.P,C16,1*%
%TO.N,GND*%
%TA.AperFunction,SMDPad,CuDef*%
G36*
G01*
X154235500Y-120015000D02*
X153760500Y-120015000D01*
G75*
G02*
X153523000Y-119777500I0J237500D01*
G01*
X153523000Y-119202500D01*
G75*
G02*
X153760500Y-118965000I237500J0D01*
G01*
X154235500Y-118965000D01*
G75*
G02*
X154473000Y-119202500I0J-237500D01*
G01*
X154473000Y-119777500D01*
G75*
G02*
X154235500Y-120015000I-237500J0D01*
G01*
G37*
%TD.AperFunction*%
%TD*%
%TO.P,C15,2*%
%TO.N,Net-(C15-Pad2)*%
%TA.AperFunction,SMDPad,CuDef*%
G36*
G01*
X146760500Y-118965000D02*
X147235500Y-118965000D01*
G75*
G02*
X147473000Y-119202500I0J-237500D01*
G01*
X147473000Y-119777500D01*
G75*
G02*
X147235500Y-120015000I-237500J0D01*
G01*
X146760500Y-120015000D01*
G75*
G02*
X146523000Y-119777500I0J237500D01*
G01*
X146523000Y-119202500D01*
G75*
G02*
X146760500Y-118965000I237500J0D01*
G01*
G37*
%TD.AperFunction*%
%TO.P,C15,1*%
%TO.N,GND*%
%TA.AperFunction,SMDPad,CuDef*%
G36*
G01*
X146760500Y-117215000D02*
X147235500Y-117215000D01*
G75*
G02*
X147473000Y-117452500I0J-237500D01*
G01*
X147473000Y-118027500D01*
G75*
G02*
X147235500Y-118265000I-237500J0D01*
G01*
X146760500Y-118265000D01*
G75*
G02*
X146523000Y-118027500I0J237500D01*
G01*
X146523000Y-117452500D01*
G75*
G02*
X146760500Y-117215000I237500J0D01*
G01*
G37*
%TD.AperFunction*%
%TD*%
D11*
%TO.P,J3,3*%
%TO.N,/nEX*%
X177038000Y-102735000D03*
%TO.P,J3,2*%
%TO.N,Net-(D4-Pad1)*%
X174498000Y-102735000D03*
D12*
%TO.P,J3,1*%
%TO.N,/EX*%
X171958000Y-102735000D03*
%TD*%
D11*
%TO.P,J2,3*%
%TO.N,/nEX*%
X177038000Y-107815000D03*
%TO.P,J2,2*%
%TO.N,Net-(D3-Pad1)*%
X174498000Y-107815000D03*
D12*
%TO.P,J2,1*%
%TO.N,/EX*%
X171958000Y-107815000D03*
%TD*%
D11*
%TO.P,J1,3*%
%TO.N,/nEX*%
X177038000Y-112895000D03*
%TO.P,J1,2*%
%TO.N,Net-(D2-Pad1)*%
X174498000Y-112895000D03*
D12*
%TO.P,J1,1*%
%TO.N,/EX*%
X171958000Y-112895000D03*
%TD*%
D19*
%TO.P,U14,4*%
%TO.N,Net-(R8-Pad1)*%
X137063000Y-88015000D03*
%TO.P,U14,2*%
%TO.N,Net-(R6-Pad2)*%
X127533000Y-90555000D03*
%TO.P,U14,3*%
%TO.N,GND*%
X137063000Y-90555000D03*
%TO.P,U14,1*%
%TO.N,/RVCC*%
X127533000Y-88015000D03*
%TD*%
%TO.P,U13,4*%
%TO.N,Net-(R7-Pad2)*%
X137063000Y-81665000D03*
%TO.P,U13,2*%
%TO.N,Net-(R5-Pad2)*%
X127533000Y-84205000D03*
%TO.P,U13,3*%
%TO.N,GND*%
X137063000Y-84205000D03*
%TO.P,U13,1*%
%TO.N,/RVCC*%
X127533000Y-81665000D03*
%TD*%
%TO.P,U12,16*%
%TO.N,+5VD*%
%TA.AperFunction,SMDPad,CuDef*%
G36*
G01*
X135232000Y-109797000D02*
X135532000Y-109797000D01*
G75*
G02*
X135682000Y-109947000I0J-150000D01*
G01*
X135682000Y-111697000D01*
G75*
G02*
X135532000Y-111847000I-150000J0D01*
G01*
X135232000Y-111847000D01*
G75*
G02*
X135082000Y-111697000I0J150000D01*
G01*
X135082000Y-109947000D01*
G75*
G02*
X135232000Y-109797000I150000J0D01*
G01*
G37*
%TD.AperFunction*%
%TO.P,U12,15*%
%TO.N,GNDD*%
%TA.AperFunction,SMDPad,CuDef*%
G36*
G01*
X133962000Y-109797000D02*
X134262000Y-109797000D01*
G75*
G02*
X134412000Y-109947000I0J-150000D01*
G01*
X134412000Y-111697000D01*
G75*
G02*
X134262000Y-111847000I-150000J0D01*
G01*
X133962000Y-111847000D01*
G75*
G02*
X133812000Y-111697000I0J150000D01*
G01*
X133812000Y-109947000D01*
G75*
G02*
X133962000Y-109797000I150000J0D01*
G01*
G37*
%TD.AperFunction*%
%TO.P,U12,14*%
%TO.N,Net-(U12-Pad14)*%
%TA.AperFunction,SMDPad,CuDef*%
G36*
G01*
X132692000Y-109797000D02*
X132992000Y-109797000D01*
G75*
G02*
X133142000Y-109947000I0J-150000D01*
G01*
X133142000Y-111697000D01*
G75*
G02*
X132992000Y-111847000I-150000J0D01*
G01*
X132692000Y-111847000D01*
G75*
G02*
X132542000Y-111697000I0J150000D01*
G01*
X132542000Y-109947000D01*
G75*
G02*
X132692000Y-109797000I150000J0D01*
G01*
G37*
%TD.AperFunction*%
%TO.P,U12,13*%
%TO.N,Net-(R15-Pad1)*%
%TA.AperFunction,SMDPad,CuDef*%
G36*
G01*
X131422000Y-109797000D02*
X131722000Y-109797000D01*
G75*
G02*
X131872000Y-109947000I0J-150000D01*
G01*
X131872000Y-111697000D01*
G75*
G02*
X131722000Y-111847000I-150000J0D01*
G01*
X131422000Y-111847000D01*
G75*
G02*
X131272000Y-111697000I0J150000D01*
G01*
X131272000Y-109947000D01*
G75*
G02*
X131422000Y-109797000I150000J0D01*
G01*
G37*
%TD.AperFunction*%
%TO.P,U12,12*%
%TO.N,Net-(R1-Pad1)*%
%TA.AperFunction,SMDPad,CuDef*%
G36*
G01*
X130152000Y-109797000D02*
X130452000Y-109797000D01*
G75*
G02*
X130602000Y-109947000I0J-150000D01*
G01*
X130602000Y-111697000D01*
G75*
G02*
X130452000Y-111847000I-150000J0D01*
G01*
X130152000Y-111847000D01*
G75*
G02*
X130002000Y-111697000I0J150000D01*
G01*
X130002000Y-109947000D01*
G75*
G02*
X130152000Y-109797000I150000J0D01*
G01*
G37*
%TD.AperFunction*%
%TO.P,U12,11*%
%TO.N,Net-(U12-Pad11)*%
%TA.AperFunction,SMDPad,CuDef*%
G36*
G01*
X128882000Y-109797000D02*
X129182000Y-109797000D01*
G75*
G02*
X129332000Y-109947000I0J-150000D01*
G01*
X129332000Y-111697000D01*
G75*
G02*
X129182000Y-111847000I-150000J0D01*
G01*
X128882000Y-111847000D01*
G75*
G02*
X128732000Y-111697000I0J150000D01*
G01*
X128732000Y-109947000D01*
G75*
G02*
X128882000Y-109797000I150000J0D01*
G01*
G37*
%TD.AperFunction*%
%TO.P,U12,10*%
%TO.N,Net-(U12-Pad10)*%
%TA.AperFunction,SMDPad,CuDef*%
G36*
G01*
X127612000Y-109797000D02*
X127912000Y-109797000D01*
G75*
G02*
X128062000Y-109947000I0J-150000D01*
G01*
X128062000Y-111697000D01*
G75*
G02*
X127912000Y-111847000I-150000J0D01*
G01*
X127612000Y-111847000D01*
G75*
G02*
X127462000Y-111697000I0J150000D01*
G01*
X127462000Y-109947000D01*
G75*
G02*
X127612000Y-109797000I150000J0D01*
G01*
G37*
%TD.AperFunction*%
%TO.P,U12,9*%
%TO.N,GNDD*%
%TA.AperFunction,SMDPad,CuDef*%
G36*
G01*
X126342000Y-109797000D02*
X126642000Y-109797000D01*
G75*
G02*
X126792000Y-109947000I0J-150000D01*
G01*
X126792000Y-111697000D01*
G75*
G02*
X126642000Y-111847000I-150000J0D01*
G01*
X126342000Y-111847000D01*
G75*
G02*
X126192000Y-111697000I0J150000D01*
G01*
X126192000Y-109947000D01*
G75*
G02*
X126342000Y-109797000I150000J0D01*
G01*
G37*
%TD.AperFunction*%
%TO.P,U12,8*%
%TO.N,GND*%
%TA.AperFunction,SMDPad,CuDef*%
G36*
G01*
X126342000Y-100497000D02*
X126642000Y-100497000D01*
G75*
G02*
X126792000Y-100647000I0J-150000D01*
G01*
X126792000Y-102397000D01*
G75*
G02*
X126642000Y-102547000I-150000J0D01*
G01*
X126342000Y-102547000D01*
G75*
G02*
X126192000Y-102397000I0J150000D01*
G01*
X126192000Y-100647000D01*
G75*
G02*
X126342000Y-100497000I150000J0D01*
G01*
G37*
%TD.AperFunction*%
%TO.P,U12,7*%
%TO.N,+3V3*%
%TA.AperFunction,SMDPad,CuDef*%
G36*
G01*
X127612000Y-100497000D02*
X127912000Y-100497000D01*
G75*
G02*
X128062000Y-100647000I0J-150000D01*
G01*
X128062000Y-102397000D01*
G75*
G02*
X127912000Y-102547000I-150000J0D01*
G01*
X127612000Y-102547000D01*
G75*
G02*
X127462000Y-102397000I0J150000D01*
G01*
X127462000Y-100647000D01*
G75*
G02*
X127612000Y-100497000I150000J0D01*
G01*
G37*
%TD.AperFunction*%
%TO.P,U12,6*%
%TO.N,/8(TX)*%
%TA.AperFunction,SMDPad,CuDef*%
G36*
G01*
X128882000Y-100497000D02*
X129182000Y-100497000D01*
G75*
G02*
X129332000Y-100647000I0J-150000D01*
G01*
X129332000Y-102397000D01*
G75*
G02*
X129182000Y-102547000I-150000J0D01*
G01*
X128882000Y-102547000D01*
G75*
G02*
X128732000Y-102397000I0J150000D01*
G01*
X128732000Y-100647000D01*
G75*
G02*
X128882000Y-100497000I150000J0D01*
G01*
G37*
%TD.AperFunction*%
%TO.P,U12,5*%
%TO.N,/7(DE)*%
%TA.AperFunction,SMDPad,CuDef*%
G36*
G01*
X130152000Y-100497000D02*
X130452000Y-100497000D01*
G75*
G02*
X130602000Y-100647000I0J-150000D01*
G01*
X130602000Y-102397000D01*
G75*
G02*
X130452000Y-102547000I-150000J0D01*
G01*
X130152000Y-102547000D01*
G75*
G02*
X130002000Y-102397000I0J150000D01*
G01*
X130002000Y-100647000D01*
G75*
G02*
X130152000Y-100497000I150000J0D01*
G01*
G37*
%TD.AperFunction*%
%TO.P,U12,4*%
%TA.AperFunction,SMDPad,CuDef*%
G36*
G01*
X131422000Y-100497000D02*
X131722000Y-100497000D01*
G75*
G02*
X131872000Y-100647000I0J-150000D01*
G01*
X131872000Y-102397000D01*
G75*
G02*
X131722000Y-102547000I-150000J0D01*
G01*
X131422000Y-102547000D01*
G75*
G02*
X131272000Y-102397000I0J150000D01*
G01*
X131272000Y-100647000D01*
G75*
G02*
X131422000Y-100497000I150000J0D01*
G01*
G37*
%TD.AperFunction*%
%TO.P,U12,3*%
%TO.N,/2(RX)*%
%TA.AperFunction,SMDPad,CuDef*%
G36*
G01*
X132692000Y-100497000D02*
X132992000Y-100497000D01*
G75*
G02*
X133142000Y-100647000I0J-150000D01*
G01*
X133142000Y-102397000D01*
G75*
G02*
X132992000Y-102547000I-150000J0D01*
G01*
X132692000Y-102547000D01*
G75*
G02*
X132542000Y-102397000I0J150000D01*
G01*
X132542000Y-100647000D01*
G75*
G02*
X132692000Y-100497000I150000J0D01*
G01*
G37*
%TD.AperFunction*%
%TO.P,U12,2*%
%TO.N,GND*%
%TA.AperFunction,SMDPad,CuDef*%
G36*
G01*
X133962000Y-100497000D02*
X134262000Y-100497000D01*
G75*
G02*
X134412000Y-100647000I0J-150000D01*
G01*
X134412000Y-102397000D01*
G75*
G02*
X134262000Y-102547000I-150000J0D01*
G01*
X133962000Y-102547000D01*
G75*
G02*
X133812000Y-102397000I0J150000D01*
G01*
X133812000Y-100647000D01*
G75*
G02*
X133962000Y-100497000I150000J0D01*
G01*
G37*
%TD.AperFunction*%
%TO.P,U12,1*%
%TO.N,+3V3*%
%TA.AperFunction,SMDPad,CuDef*%
G36*
G01*
X135232000Y-100497000D02*
X135532000Y-100497000D01*
G75*
G02*
X135682000Y-100647000I0J-150000D01*
G01*
X135682000Y-102397000D01*
G75*
G02*
X135532000Y-102547000I-150000J0D01*
G01*
X135232000Y-102547000D01*
G75*
G02*
X135082000Y-102397000I0J150000D01*
G01*
X135082000Y-100647000D01*
G75*
G02*
X135232000Y-100497000I150000J0D01*
G01*
G37*
%TD.AperFunction*%
%TD*%
D20*
%TO.P,U10,1*%
%TO.N,GNDD*%
X113788000Y-102085000D03*
D21*
%TO.P,U10,2*%
%TO.N,+5VD*%
X116328000Y-102085000D03*
%TO.P,U10,3*%
%TO.N,GND*%
X118868000Y-102085000D03*
%TO.P,U10,4*%
%TO.N,+5V*%
X121408000Y-102085000D03*
%TD*%
D20*
%TO.P,U9,1*%
%TO.N,GNDD*%
X113788000Y-94865000D03*
D21*
%TO.P,U9,2*%
%TO.N,+5VD*%
X116328000Y-94865000D03*
%TO.P,U9,3*%
%TO.N,GNDA*%
X118868000Y-94865000D03*
%TO.P,U9,4*%
%TO.N,/RVCC*%
X121408000Y-94865000D03*
%TD*%
D22*
%TO.P,U8,7*%
%TO.N,GNDD*%
X115200000Y-119200000D03*
%TO.P,U8,6*%
%TO.N,Net-(C7-Pad1)*%
%TA.AperFunction,SMDPad,CuDef*%
G36*
G01*
X114500000Y-119743750D02*
X114500000Y-119956250D01*
G75*
G02*
X114406250Y-120050000I-93750J0D01*
G01*
X114218750Y-120050000D01*
G75*
G02*
X114125000Y-119956250I0J93750D01*
G01*
X114125000Y-119743750D01*
G75*
G02*
X114218750Y-119650000I93750J0D01*
G01*
X114406250Y-119650000D01*
G75*
G02*
X114500000Y-119743750I0J-93750D01*
G01*
G37*
%TD.AperFunction*%
%TO.P,U8,5*%
%TA.AperFunction,SMDPad,CuDef*%
G36*
G01*
X114500000Y-119093750D02*
X114500000Y-119306250D01*
G75*
G02*
X114406250Y-119400000I-93750J0D01*
G01*
X114218750Y-119400000D01*
G75*
G02*
X114125000Y-119306250I0J93750D01*
G01*
X114125000Y-119093750D01*
G75*
G02*
X114218750Y-119000000I93750J0D01*
G01*
X114406250Y-119000000D01*
G75*
G02*
X114500000Y-119093750I0J-93750D01*
G01*
G37*
%TD.AperFunction*%
%TO.P,U8,4*%
%TA.AperFunction,SMDPad,CuDef*%
G36*
G01*
X114500000Y-118443750D02*
X114500000Y-118656250D01*
G75*
G02*
X114406250Y-118750000I-93750J0D01*
G01*
X114218750Y-118750000D01*
G75*
G02*
X114125000Y-118656250I0J93750D01*
G01*
X114125000Y-118443750D01*
G75*
G02*
X114218750Y-118350000I93750J0D01*
G01*
X114406250Y-118350000D01*
G75*
G02*
X114500000Y-118443750I0J-93750D01*
G01*
G37*
%TD.AperFunction*%
%TO.P,U8,3*%
%TO.N,GNDD*%
%TA.AperFunction,SMDPad,CuDef*%
G36*
G01*
X116275000Y-118443750D02*
X116275000Y-118656250D01*
G75*
G02*
X116181250Y-118750000I-93750J0D01*
G01*
X115993750Y-118750000D01*
G75*
G02*
X115900000Y-118656250I0J93750D01*
G01*
X115900000Y-118443750D01*
G75*
G02*
X115993750Y-118350000I93750J0D01*
G01*
X116181250Y-118350000D01*
G75*
G02*
X116275000Y-118443750I0J-93750D01*
G01*
G37*
%TD.AperFunction*%
%TO.P,U8,2*%
%TA.AperFunction,SMDPad,CuDef*%
G36*
G01*
X116275000Y-119093750D02*
X116275000Y-119306250D01*
G75*
G02*
X116181250Y-119400000I-93750J0D01*
G01*
X115993750Y-119400000D01*
G75*
G02*
X115900000Y-119306250I0J93750D01*
G01*
X115900000Y-119093750D01*
G75*
G02*
X115993750Y-119000000I93750J0D01*
G01*
X116181250Y-119000000D01*
G75*
G02*
X116275000Y-119093750I0J-93750D01*
G01*
G37*
%TD.AperFunction*%
%TO.P,U8,1*%
%TA.AperFunction,SMDPad,CuDef*%
G36*
G01*
X116275000Y-119743750D02*
X116275000Y-119956250D01*
G75*
G02*
X116181250Y-120050000I-93750J0D01*
G01*
X115993750Y-120050000D01*
G75*
G02*
X115900000Y-119956250I0J93750D01*
G01*
X115900000Y-119743750D01*
G75*
G02*
X115993750Y-119650000I93750J0D01*
G01*
X116181250Y-119650000D01*
G75*
G02*
X116275000Y-119743750I0J-93750D01*
G01*
G37*
%TD.AperFunction*%
%TD*%
D16*
%TO.P,U7,5*%
%TO.N,VDDA*%
X164148000Y-97315000D03*
%TO.P,U7,4*%
%TO.N,Net-(U7-Pad4)*%
X162248000Y-97315000D03*
%TO.P,U7,3*%
%TO.N,+3V3*%
X162248000Y-95115000D03*
%TO.P,U7,2*%
%TO.N,GND*%
X163198000Y-95115000D03*
%TO.P,U7,1*%
%TO.N,Net-(C2-Pad1)*%
X164148000Y-95115000D03*
%TD*%
D15*
%TO.P,U1,5*%
%TO.N,+3V3*%
X138350000Y-94300000D03*
%TO.P,U1,4*%
%TO.N,Net-(U1-Pad4)*%
X138350000Y-96200000D03*
%TO.P,U1,3*%
%TO.N,+5V*%
X136150000Y-96200000D03*
%TO.P,U1,2*%
%TO.N,GND*%
X136150000Y-95250000D03*
%TO.P,U1,1*%
%TO.N,+5V*%
X136150000Y-94300000D03*
%TD*%
%TO.P,R14,2*%
%TO.N,/6(RPM1)*%
%TA.AperFunction,SMDPad,CuDef*%
G36*
G01*
X149275500Y-83335000D02*
X148800500Y-83335000D01*
G75*
G02*
X148563000Y-83097500I0J237500D01*
G01*
X148563000Y-82522500D01*
G75*
G02*
X148800500Y-82285000I237500J0D01*
G01*
X149275500Y-82285000D01*
G75*
G02*
X149513000Y-82522500I0J-237500D01*
G01*
X149513000Y-83097500D01*
G75*
G02*
X149275500Y-83335000I-237500J0D01*
G01*
G37*
%TD.AperFunction*%
%TO.P,R14,1*%
%TO.N,Net-(R11-Pad2)*%
%TA.AperFunction,SMDPad,CuDef*%
G36*
G01*
X149275500Y-85085000D02*
X148800500Y-85085000D01*
G75*
G02*
X148563000Y-84847500I0J237500D01*
G01*
X148563000Y-84272500D01*
G75*
G02*
X148800500Y-84035000I237500J0D01*
G01*
X149275500Y-84035000D01*
G75*
G02*
X149513000Y-84272500I0J-237500D01*
G01*
X149513000Y-84847500D01*
G75*
G02*
X149275500Y-85085000I-237500J0D01*
G01*
G37*
%TD.AperFunction*%
%TD*%
%TO.P,R13,2*%
%TO.N,/9(RPM2)*%
%TA.AperFunction,SMDPad,CuDef*%
G36*
G01*
X148800500Y-87845000D02*
X149275500Y-87845000D01*
G75*
G02*
X149513000Y-88082500I0J-237500D01*
G01*
X149513000Y-88657500D01*
G75*
G02*
X149275500Y-88895000I-237500J0D01*
G01*
X148800500Y-88895000D01*
G75*
G02*
X148563000Y-88657500I0J237500D01*
G01*
X148563000Y-88082500D01*
G75*
G02*
X148800500Y-87845000I237500J0D01*
G01*
G37*
%TD.AperFunction*%
%TO.P,R13,1*%
%TO.N,Net-(R10-Pad1)*%
%TA.AperFunction,SMDPad,CuDef*%
G36*
G01*
X148800500Y-86095000D02*
X149275500Y-86095000D01*
G75*
G02*
X149513000Y-86332500I0J-237500D01*
G01*
X149513000Y-86907500D01*
G75*
G02*
X149275500Y-87145000I-237500J0D01*
G01*
X148800500Y-87145000D01*
G75*
G02*
X148563000Y-86907500I0J237500D01*
G01*
X148563000Y-86332500D01*
G75*
G02*
X148800500Y-86095000I237500J0D01*
G01*
G37*
%TD.AperFunction*%
%TD*%
%TO.P,R12,2*%
%TO.N,GND*%
%TA.AperFunction,SMDPad,CuDef*%
G36*
G01*
X140012500Y-83850000D02*
X140487500Y-83850000D01*
G75*
G02*
X140725000Y-84087500I0J-237500D01*
G01*
X140725000Y-84662500D01*
G75*
G02*
X140487500Y-84900000I-237500J0D01*
G01*
X140012500Y-84900000D01*
G75*
G02*
X139775000Y-84662500I0J237500D01*
G01*
X139775000Y-84087500D01*
G75*
G02*
X140012500Y-83850000I237500J0D01*
G01*
G37*
%TD.AperFunction*%
%TO.P,R12,1*%
%TO.N,Net-(R11-Pad2)*%
%TA.AperFunction,SMDPad,CuDef*%
G36*
G01*
X140012500Y-82100000D02*
X140487500Y-82100000D01*
G75*
G02*
X140725000Y-82337500I0J-237500D01*
G01*
X140725000Y-82912500D01*
G75*
G02*
X140487500Y-83150000I-237500J0D01*
G01*
X140012500Y-83150000D01*
G75*
G02*
X139775000Y-82912500I0J237500D01*
G01*
X139775000Y-82337500D01*
G75*
G02*
X140012500Y-82100000I237500J0D01*
G01*
G37*
%TD.AperFunction*%
%TD*%
%TO.P,R11,2*%
%TO.N,Net-(R11-Pad2)*%
%TA.AperFunction,SMDPad,CuDef*%
G36*
G01*
X151648000Y-84327500D02*
X151648000Y-84802500D01*
G75*
G02*
X151410500Y-85040000I-237500J0D01*
G01*
X150835500Y-85040000D01*
G75*
G02*
X150598000Y-84802500I0J237500D01*
G01*
X150598000Y-84327500D01*
G75*
G02*
X150835500Y-84090000I237500J0D01*
G01*
X151410500Y-84090000D01*
G75*
G02*
X151648000Y-84327500I0J-237500D01*
G01*
G37*
%TD.AperFunction*%
%TO.P,R11,1*%
%TO.N,+3V3*%
%TA.AperFunction,SMDPad,CuDef*%
G36*
G01*
X153398000Y-84327500D02*
X153398000Y-84802500D01*
G75*
G02*
X153160500Y-85040000I-237500J0D01*
G01*
X152585500Y-85040000D01*
G75*
G02*
X152348000Y-84802500I0J237500D01*
G01*
X152348000Y-84327500D01*
G75*
G02*
X152585500Y-84090000I237500J0D01*
G01*
X153160500Y-84090000D01*
G75*
G02*
X153398000Y-84327500I0J-237500D01*
G01*
G37*
%TD.AperFunction*%
%TD*%
%TO.P,R10,2*%
%TO.N,GND*%
%TA.AperFunction,SMDPad,CuDef*%
G36*
G01*
X140487500Y-87400000D02*
X140012500Y-87400000D01*
G75*
G02*
X139775000Y-87162500I0J237500D01*
G01*
X139775000Y-86587500D01*
G75*
G02*
X140012500Y-86350000I237500J0D01*
G01*
X140487500Y-86350000D01*
G75*
G02*
X140725000Y-86587500I0J-237500D01*
G01*
X140725000Y-87162500D01*
G75*
G02*
X140487500Y-87400000I-237500J0D01*
G01*
G37*
%TD.AperFunction*%
%TO.P,R10,1*%
%TO.N,Net-(R10-Pad1)*%
%TA.AperFunction,SMDPad,CuDef*%
G36*
G01*
X140487500Y-89150000D02*
X140012500Y-89150000D01*
G75*
G02*
X139775000Y-88912500I0J237500D01*
G01*
X139775000Y-88337500D01*
G75*
G02*
X140012500Y-88100000I237500J0D01*
G01*
X140487500Y-88100000D01*
G75*
G02*
X140725000Y-88337500I0J-237500D01*
G01*
X140725000Y-88912500D01*
G75*
G02*
X140487500Y-89150000I-237500J0D01*
G01*
G37*
%TD.AperFunction*%
%TD*%
%TO.P,R9,2*%
%TO.N,Net-(R10-Pad1)*%
%TA.AperFunction,SMDPad,CuDef*%
G36*
G01*
X151648000Y-86327500D02*
X151648000Y-86802500D01*
G75*
G02*
X151410500Y-87040000I-237500J0D01*
G01*
X150835500Y-87040000D01*
G75*
G02*
X150598000Y-86802500I0J237500D01*
G01*
X150598000Y-86327500D01*
G75*
G02*
X150835500Y-86090000I237500J0D01*
G01*
X151410500Y-86090000D01*
G75*
G02*
X151648000Y-86327500I0J-237500D01*
G01*
G37*
%TD.AperFunction*%
%TO.P,R9,1*%
%TO.N,+3V3*%
%TA.AperFunction,SMDPad,CuDef*%
G36*
G01*
X153398000Y-86327500D02*
X153398000Y-86802500D01*
G75*
G02*
X153160500Y-87040000I-237500J0D01*
G01*
X152585500Y-87040000D01*
G75*
G02*
X152348000Y-86802500I0J237500D01*
G01*
X152348000Y-86327500D01*
G75*
G02*
X152585500Y-86090000I237500J0D01*
G01*
X153160500Y-86090000D01*
G75*
G02*
X153398000Y-86327500I0J-237500D01*
G01*
G37*
%TD.AperFunction*%
%TD*%
%TO.P,R8,2*%
%TO.N,+3V3*%
%TA.AperFunction,SMDPad,CuDef*%
G36*
G01*
X141850000Y-91602500D02*
X141850000Y-91127500D01*
G75*
G02*
X142087500Y-90890000I237500J0D01*
G01*
X142662500Y-90890000D01*
G75*
G02*
X142900000Y-91127500I0J-237500D01*
G01*
X142900000Y-91602500D01*
G75*
G02*
X142662500Y-91840000I-237500J0D01*
G01*
X142087500Y-91840000D01*
G75*
G02*
X141850000Y-91602500I0J237500D01*
G01*
G37*
%TD.AperFunction*%
%TO.P,R8,1*%
%TO.N,Net-(R8-Pad1)*%
%TA.AperFunction,SMDPad,CuDef*%
G36*
G01*
X140100000Y-91602500D02*
X140100000Y-91127500D01*
G75*
G02*
X140337500Y-90890000I237500J0D01*
G01*
X140912500Y-90890000D01*
G75*
G02*
X141150000Y-91127500I0J-237500D01*
G01*
X141150000Y-91602500D01*
G75*
G02*
X140912500Y-91840000I-237500J0D01*
G01*
X140337500Y-91840000D01*
G75*
G02*
X140100000Y-91602500I0J237500D01*
G01*
G37*
%TD.AperFunction*%
%TD*%
%TO.P,R7,2*%
%TO.N,Net-(R7-Pad2)*%
%TA.AperFunction,SMDPad,CuDef*%
G36*
G01*
X145048000Y-80927500D02*
X145048000Y-81402500D01*
G75*
G02*
X144810500Y-81640000I-237500J0D01*
G01*
X144235500Y-81640000D01*
G75*
G02*
X143998000Y-81402500I0J237500D01*
G01*
X143998000Y-80927500D01*
G75*
G02*
X144235500Y-80690000I237500J0D01*
G01*
X144810500Y-80690000D01*
G75*
G02*
X145048000Y-80927500I0J-237500D01*
G01*
G37*
%TD.AperFunction*%
%TO.P,R7,1*%
%TO.N,+3V3*%
%TA.AperFunction,SMDPad,CuDef*%
G36*
G01*
X146798000Y-80927500D02*
X146798000Y-81402500D01*
G75*
G02*
X146560500Y-81640000I-237500J0D01*
G01*
X145985500Y-81640000D01*
G75*
G02*
X145748000Y-81402500I0J237500D01*
G01*
X145748000Y-80927500D01*
G75*
G02*
X145985500Y-80690000I237500J0D01*
G01*
X146560500Y-80690000D01*
G75*
G02*
X146798000Y-80927500I0J-237500D01*
G01*
G37*
%TD.AperFunction*%
%TD*%
%TO.P,R6,2*%
%TO.N,Net-(R6-Pad2)*%
%TA.AperFunction,SMDPad,CuDef*%
G36*
G01*
X123550000Y-87700001D02*
X123550000Y-86799999D01*
G75*
G02*
X123799999Y-86550000I249999J0D01*
G01*
X124450001Y-86550000D01*
G75*
G02*
X124700000Y-86799999I0J-249999D01*
G01*
X124700000Y-87700001D01*
G75*
G02*
X124450001Y-87950000I-249999J0D01*
G01*
X123799999Y-87950000D01*
G75*
G02*
X123550000Y-87700001I0J249999D01*
G01*
G37*
%TD.AperFunction*%
%TO.P,R6,1*%
%TO.N,Net-(J6-Pad1)*%
%TA.AperFunction,SMDPad,CuDef*%
G36*
G01*
X121500000Y-87700001D02*
X121500000Y-86799999D01*
G75*
G02*
X121749999Y-86550000I249999J0D01*
G01*
X122400001Y-86550000D01*
G75*
G02*
X122650000Y-86799999I0J-249999D01*
G01*
X122650000Y-87700001D01*
G75*
G02*
X122400001Y-87950000I-249999J0D01*
G01*
X121749999Y-87950000D01*
G75*
G02*
X121500000Y-87700001I0J249999D01*
G01*
G37*
%TD.AperFunction*%
%TD*%
%TO.P,R5,2*%
%TO.N,Net-(R5-Pad2)*%
%TA.AperFunction,SMDPad,CuDef*%
G36*
G01*
X123675000Y-81700001D02*
X123675000Y-80799999D01*
G75*
G02*
X123924999Y-80550000I249999J0D01*
G01*
X124575001Y-80550000D01*
G75*
G02*
X124825000Y-80799999I0J-249999D01*
G01*
X124825000Y-81700001D01*
G75*
G02*
X124575001Y-81950000I-249999J0D01*
G01*
X123924999Y-81950000D01*
G75*
G02*
X123675000Y-81700001I0J249999D01*
G01*
G37*
%TD.AperFunction*%
%TO.P,R5,1*%
%TO.N,Net-(J5-Pad1)*%
%TA.AperFunction,SMDPad,CuDef*%
G36*
G01*
X121625000Y-81700001D02*
X121625000Y-80799999D01*
G75*
G02*
X121874999Y-80550000I249999J0D01*
G01*
X122525001Y-80550000D01*
G75*
G02*
X122775000Y-80799999I0J-249999D01*
G01*
X122775000Y-81700001D01*
G75*
G02*
X122525001Y-81950000I-249999J0D01*
G01*
X121874999Y-81950000D01*
G75*
G02*
X121625000Y-81700001I0J249999D01*
G01*
G37*
%TD.AperFunction*%
%TD*%
%TO.P,R4,2*%
%TO.N,Net-(C10-Pad1)*%
%TA.AperFunction,SMDPad,CuDef*%
G36*
G01*
X167760500Y-108590000D02*
X168235500Y-108590000D01*
G75*
G02*
X168473000Y-108827500I0J-237500D01*
G01*
X168473000Y-109402500D01*
G75*
G02*
X168235500Y-109640000I-237500J0D01*
G01*
X167760500Y-109640000D01*
G75*
G02*
X167523000Y-109402500I0J237500D01*
G01*
X167523000Y-108827500D01*
G75*
G02*
X167760500Y-108590000I237500J0D01*
G01*
G37*
%TD.AperFunction*%
%TO.P,R4,1*%
%TO.N,Net-(D4-Pad1)*%
%TA.AperFunction,SMDPad,CuDef*%
G36*
G01*
X167760500Y-106840000D02*
X168235500Y-106840000D01*
G75*
G02*
X168473000Y-107077500I0J-237500D01*
G01*
X168473000Y-107652500D01*
G75*
G02*
X168235500Y-107890000I-237500J0D01*
G01*
X167760500Y-107890000D01*
G75*
G02*
X167523000Y-107652500I0J237500D01*
G01*
X167523000Y-107077500D01*
G75*
G02*
X167760500Y-106840000I237500J0D01*
G01*
G37*
%TD.AperFunction*%
%TD*%
%TO.P,R3,2*%
%TO.N,Net-(C9-Pad1)*%
%TA.AperFunction,SMDPad,CuDef*%
G36*
G01*
X170762500Y-118714000D02*
X171237500Y-118714000D01*
G75*
G02*
X171475000Y-118951500I0J-237500D01*
G01*
X171475000Y-119526500D01*
G75*
G02*
X171237500Y-119764000I-237500J0D01*
G01*
X170762500Y-119764000D01*
G75*
G02*
X170525000Y-119526500I0J237500D01*
G01*
X170525000Y-118951500D01*
G75*
G02*
X170762500Y-118714000I237500J0D01*
G01*
G37*
%TD.AperFunction*%
%TO.P,R3,1*%
%TO.N,Net-(D3-Pad1)*%
%TA.AperFunction,SMDPad,CuDef*%
G36*
G01*
X170762500Y-116964000D02*
X171237500Y-116964000D01*
G75*
G02*
X171475000Y-117201500I0J-237500D01*
G01*
X171475000Y-117776500D01*
G75*
G02*
X171237500Y-118014000I-237500J0D01*
G01*
X170762500Y-118014000D01*
G75*
G02*
X170525000Y-117776500I0J237500D01*
G01*
X170525000Y-117201500D01*
G75*
G02*
X170762500Y-116964000I237500J0D01*
G01*
G37*
%TD.AperFunction*%
%TD*%
%TO.P,R2,2*%
%TO.N,Net-(C8-Pad1)*%
%TA.AperFunction,SMDPad,CuDef*%
G36*
G01*
X172362500Y-118714000D02*
X172837500Y-118714000D01*
G75*
G02*
X173075000Y-118951500I0J-237500D01*
G01*
X173075000Y-119526500D01*
G75*
G02*
X172837500Y-119764000I-237500J0D01*
G01*
X172362500Y-119764000D01*
G75*
G02*
X172125000Y-119526500I0J237500D01*
G01*
X172125000Y-118951500D01*
G75*
G02*
X172362500Y-118714000I237500J0D01*
G01*
G37*
%TD.AperFunction*%
%TO.P,R2,1*%
%TO.N,Net-(D2-Pad1)*%
%TA.AperFunction,SMDPad,CuDef*%
G36*
G01*
X172362500Y-116964000D02*
X172837500Y-116964000D01*
G75*
G02*
X173075000Y-117201500I0J-237500D01*
G01*
X173075000Y-117776500D01*
G75*
G02*
X172837500Y-118014000I-237500J0D01*
G01*
X172362500Y-118014000D01*
G75*
G02*
X172125000Y-117776500I0J237500D01*
G01*
X172125000Y-117201500D01*
G75*
G02*
X172362500Y-116964000I237500J0D01*
G01*
G37*
%TD.AperFunction*%
%TD*%
%TO.P,F1,2*%
%TO.N,Net-(D1-Pad1)*%
%TA.AperFunction,SMDPad,CuDef*%
G36*
G01*
X117950000Y-124325001D02*
X117950000Y-121424999D01*
G75*
G02*
X118199999Y-121175000I249999J0D01*
G01*
X118825001Y-121175000D01*
G75*
G02*
X119075000Y-121424999I0J-249999D01*
G01*
X119075000Y-124325001D01*
G75*
G02*
X118825001Y-124575000I-249999J0D01*
G01*
X118199999Y-124575000D01*
G75*
G02*
X117950000Y-124325001I0J249999D01*
G01*
G37*
%TD.AperFunction*%
%TO.P,F1,1*%
%TO.N,Net-(C7-Pad1)*%
%TA.AperFunction,SMDPad,CuDef*%
G36*
G01*
X113675000Y-124325001D02*
X113675000Y-121424999D01*
G75*
G02*
X113924999Y-121175000I249999J0D01*
G01*
X114550001Y-121175000D01*
G75*
G02*
X114800000Y-121424999I0J-249999D01*
G01*
X114800000Y-124325001D01*
G75*
G02*
X114550001Y-124575000I-249999J0D01*
G01*
X113924999Y-124575000D01*
G75*
G02*
X113675000Y-124325001I0J249999D01*
G01*
G37*
%TD.AperFunction*%
%TD*%
D23*
%TO.P,D1,2*%
%TO.N,Net-(D1-Pad2)*%
X124950000Y-118000000D03*
%TO.P,D1,1*%
%TO.N,Net-(D1-Pad1)*%
X120650000Y-118000000D03*
%TD*%
%TO.P,C14,2*%
%TO.N,GND*%
%TA.AperFunction,SMDPad,CuDef*%
G36*
G01*
X137811500Y-102701000D02*
X138286500Y-102701000D01*
G75*
G02*
X138524000Y-102938500I0J-237500D01*
G01*
X138524000Y-103513500D01*
G75*
G02*
X138286500Y-103751000I-237500J0D01*
G01*
X137811500Y-103751000D01*
G75*
G02*
X137574000Y-103513500I0J237500D01*
G01*
X137574000Y-102938500D01*
G75*
G02*
X137811500Y-102701000I237500J0D01*
G01*
G37*
%TD.AperFunction*%
%TO.P,C14,1*%
%TO.N,+3V3*%
%TA.AperFunction,SMDPad,CuDef*%
G36*
G01*
X137811500Y-100951000D02*
X138286500Y-100951000D01*
G75*
G02*
X138524000Y-101188500I0J-237500D01*
G01*
X138524000Y-101763500D01*
G75*
G02*
X138286500Y-102001000I-237500J0D01*
G01*
X137811500Y-102001000D01*
G75*
G02*
X137574000Y-101763500I0J237500D01*
G01*
X137574000Y-101188500D01*
G75*
G02*
X137811500Y-100951000I237500J0D01*
G01*
G37*
%TD.AperFunction*%
%TD*%
%TO.P,C13,2*%
%TO.N,GND*%
%TA.AperFunction,SMDPad,CuDef*%
G36*
G01*
X146850000Y-91602500D02*
X146850000Y-91127500D01*
G75*
G02*
X147087500Y-90890000I237500J0D01*
G01*
X147662500Y-90890000D01*
G75*
G02*
X147900000Y-91127500I0J-237500D01*
G01*
X147900000Y-91602500D01*
G75*
G02*
X147662500Y-91840000I-237500J0D01*
G01*
X147087500Y-91840000D01*
G75*
G02*
X146850000Y-91602500I0J237500D01*
G01*
G37*
%TD.AperFunction*%
%TO.P,C13,1*%
%TO.N,+3V3*%
%TA.AperFunction,SMDPad,CuDef*%
G36*
G01*
X145100000Y-91602500D02*
X145100000Y-91127500D01*
G75*
G02*
X145337500Y-90890000I237500J0D01*
G01*
X145912500Y-90890000D01*
G75*
G02*
X146150000Y-91127500I0J-237500D01*
G01*
X146150000Y-91602500D01*
G75*
G02*
X145912500Y-91840000I-237500J0D01*
G01*
X145337500Y-91840000D01*
G75*
G02*
X145100000Y-91602500I0J237500D01*
G01*
G37*
%TD.AperFunction*%
%TD*%
%TO.P,C12,2*%
%TO.N,GNDD*%
%TA.AperFunction,SMDPad,CuDef*%
G36*
G01*
X134345000Y-113603500D02*
X134345000Y-114078500D01*
G75*
G02*
X134107500Y-114316000I-237500J0D01*
G01*
X133532500Y-114316000D01*
G75*
G02*
X133295000Y-114078500I0J237500D01*
G01*
X133295000Y-113603500D01*
G75*
G02*
X133532500Y-113366000I237500J0D01*
G01*
X134107500Y-113366000D01*
G75*
G02*
X134345000Y-113603500I0J-237500D01*
G01*
G37*
%TD.AperFunction*%
%TO.P,C12,1*%
%TO.N,+5VD*%
%TA.AperFunction,SMDPad,CuDef*%
G36*
G01*
X136095000Y-113603500D02*
X136095000Y-114078500D01*
G75*
G02*
X135857500Y-114316000I-237500J0D01*
G01*
X135282500Y-114316000D01*
G75*
G02*
X135045000Y-114078500I0J237500D01*
G01*
X135045000Y-113603500D01*
G75*
G02*
X135282500Y-113366000I237500J0D01*
G01*
X135857500Y-113366000D01*
G75*
G02*
X136095000Y-113603500I0J-237500D01*
G01*
G37*
%TD.AperFunction*%
%TD*%
%TO.P,C11,2*%
%TO.N,GNDA*%
%TA.AperFunction,SMDPad,CuDef*%
G36*
G01*
X124799999Y-94350000D02*
X125700001Y-94350000D01*
G75*
G02*
X125950000Y-94599999I0J-249999D01*
G01*
X125950000Y-95250001D01*
G75*
G02*
X125700001Y-95500000I-249999J0D01*
G01*
X124799999Y-95500000D01*
G75*
G02*
X124550000Y-95250001I0J249999D01*
G01*
X124550000Y-94599999D01*
G75*
G02*
X124799999Y-94350000I249999J0D01*
G01*
G37*
%TD.AperFunction*%
%TO.P,C11,1*%
%TO.N,/RVCC*%
%TA.AperFunction,SMDPad,CuDef*%
G36*
G01*
X124799999Y-92300000D02*
X125700001Y-92300000D01*
G75*
G02*
X125950000Y-92549999I0J-249999D01*
G01*
X125950000Y-93200001D01*
G75*
G02*
X125700001Y-93450000I-249999J0D01*
G01*
X124799999Y-93450000D01*
G75*
G02*
X124550000Y-93200001I0J249999D01*
G01*
X124550000Y-92549999D01*
G75*
G02*
X124799999Y-92300000I249999J0D01*
G01*
G37*
%TD.AperFunction*%
%TD*%
%TO.P,C10,2*%
%TO.N,GND*%
%TA.AperFunction,SMDPad,CuDef*%
G36*
G01*
X168235500Y-114015000D02*
X167760500Y-114015000D01*
G75*
G02*
X167523000Y-113777500I0J237500D01*
G01*
X167523000Y-113202500D01*
G75*
G02*
X167760500Y-112965000I237500J0D01*
G01*
X168235500Y-112965000D01*
G75*
G02*
X168473000Y-113202500I0J-237500D01*
G01*
X168473000Y-113777500D01*
G75*
G02*
X168235500Y-114015000I-237500J0D01*
G01*
G37*
%TD.AperFunction*%
%TO.P,C10,1*%
%TO.N,Net-(C10-Pad1)*%
%TA.AperFunction,SMDPad,CuDef*%
G36*
G01*
X168235500Y-115765000D02*
X167760500Y-115765000D01*
G75*
G02*
X167523000Y-115527500I0J237500D01*
G01*
X167523000Y-114952500D01*
G75*
G02*
X167760500Y-114715000I237500J0D01*
G01*
X168235500Y-114715000D01*
G75*
G02*
X168473000Y-114952500I0J-237500D01*
G01*
X168473000Y-115527500D01*
G75*
G02*
X168235500Y-115765000I-237500J0D01*
G01*
G37*
%TD.AperFunction*%
%TD*%
%TO.P,C9,2*%
%TO.N,GND*%
%TA.AperFunction,SMDPad,CuDef*%
G36*
G01*
X169655500Y-118014000D02*
X169180500Y-118014000D01*
G75*
G02*
X168943000Y-117776500I0J237500D01*
G01*
X168943000Y-117201500D01*
G75*
G02*
X169180500Y-116964000I237500J0D01*
G01*
X169655500Y-116964000D01*
G75*
G02*
X169893000Y-117201500I0J-237500D01*
G01*
X169893000Y-117776500D01*
G75*
G02*
X169655500Y-118014000I-237500J0D01*
G01*
G37*
%TD.AperFunction*%
%TO.P,C9,1*%
%TO.N,Net-(C9-Pad1)*%
%TA.AperFunction,SMDPad,CuDef*%
G36*
G01*
X169655500Y-119764000D02*
X169180500Y-119764000D01*
G75*
G02*
X168943000Y-119526500I0J237500D01*
G01*
X168943000Y-118951500D01*
G75*
G02*
X169180500Y-118714000I237500J0D01*
G01*
X169655500Y-118714000D01*
G75*
G02*
X169893000Y-118951500I0J-237500D01*
G01*
X169893000Y-119526500D01*
G75*
G02*
X169655500Y-119764000I-237500J0D01*
G01*
G37*
%TD.AperFunction*%
%TD*%
%TO.P,C8,2*%
%TO.N,GND*%
%TA.AperFunction,SMDPad,CuDef*%
G36*
G01*
X162112500Y-118650000D02*
X161637500Y-118650000D01*
G75*
G02*
X161400000Y-118412500I0J237500D01*
G01*
X161400000Y-117837500D01*
G75*
G02*
X161637500Y-117600000I237500J0D01*
G01*
X162112500Y-117600000D01*
G75*
G02*
X162350000Y-117837500I0J-237500D01*
G01*
X162350000Y-118412500D01*
G75*
G02*
X162112500Y-118650000I-237500J0D01*
G01*
G37*
%TD.AperFunction*%
%TO.P,C8,1*%
%TO.N,Net-(C8-Pad1)*%
%TA.AperFunction,SMDPad,CuDef*%
G36*
G01*
X162112500Y-120400000D02*
X161637500Y-120400000D01*
G75*
G02*
X161400000Y-120162500I0J237500D01*
G01*
X161400000Y-119587500D01*
G75*
G02*
X161637500Y-119350000I237500J0D01*
G01*
X162112500Y-119350000D01*
G75*
G02*
X162350000Y-119587500I0J-237500D01*
G01*
X162350000Y-120162500D01*
G75*
G02*
X162112500Y-120400000I-237500J0D01*
G01*
G37*
%TD.AperFunction*%
%TD*%
%TO.P,C7,2*%
%TO.N,GNDD*%
%TA.AperFunction,SMDPad,CuDef*%
G36*
G01*
X115975000Y-116275000D02*
X115975000Y-114125000D01*
G75*
G02*
X116225000Y-113875000I250000J0D01*
G01*
X117150000Y-113875000D01*
G75*
G02*
X117400000Y-114125000I0J-250000D01*
G01*
X117400000Y-116275000D01*
G75*
G02*
X117150000Y-116525000I-250000J0D01*
G01*
X116225000Y-116525000D01*
G75*
G02*
X115975000Y-116275000I0J250000D01*
G01*
G37*
%TD.AperFunction*%
%TO.P,C7,1*%
%TO.N,Net-(C7-Pad1)*%
%TA.AperFunction,SMDPad,CuDef*%
G36*
G01*
X113000000Y-116275000D02*
X113000000Y-114125000D01*
G75*
G02*
X113250000Y-113875000I250000J0D01*
G01*
X114175000Y-113875000D01*
G75*
G02*
X114425000Y-114125000I0J-250000D01*
G01*
X114425000Y-116275000D01*
G75*
G02*
X114175000Y-116525000I-250000J0D01*
G01*
X113250000Y-116525000D01*
G75*
G02*
X113000000Y-116275000I0J250000D01*
G01*
G37*
%TD.AperFunction*%
%TD*%
%TO.P,C6,2*%
%TO.N,GND*%
%TA.AperFunction,SMDPad,CuDef*%
G36*
G01*
X166398001Y-98015000D02*
X165497999Y-98015000D01*
G75*
G02*
X165248000Y-97765001I0J249999D01*
G01*
X165248000Y-97114999D01*
G75*
G02*
X165497999Y-96865000I249999J0D01*
G01*
X166398001Y-96865000D01*
G75*
G02*
X166648000Y-97114999I0J-249999D01*
G01*
X166648000Y-97765001D01*
G75*
G02*
X166398001Y-98015000I-249999J0D01*
G01*
G37*
%TD.AperFunction*%
%TO.P,C6,1*%
%TO.N,VDDA*%
%TA.AperFunction,SMDPad,CuDef*%
G36*
G01*
X166398001Y-100065000D02*
X165497999Y-100065000D01*
G75*
G02*
X165248000Y-99815001I0J249999D01*
G01*
X165248000Y-99164999D01*
G75*
G02*
X165497999Y-98915000I249999J0D01*
G01*
X166398001Y-98915000D01*
G75*
G02*
X166648000Y-99164999I0J-249999D01*
G01*
X166648000Y-99815001D01*
G75*
G02*
X166398001Y-100065000I-249999J0D01*
G01*
G37*
%TD.AperFunction*%
%TD*%
%TO.P,C5,2*%
%TO.N,GND*%
%TA.AperFunction,SMDPad,CuDef*%
G36*
G01*
X169045000Y-80791500D02*
X169045000Y-81266500D01*
G75*
G02*
X168807500Y-81504000I-237500J0D01*
G01*
X168232500Y-81504000D01*
G75*
G02*
X167995000Y-81266500I0J237500D01*
G01*
X167995000Y-80791500D01*
G75*
G02*
X168232500Y-80554000I237500J0D01*
G01*
X168807500Y-80554000D01*
G75*
G02*
X169045000Y-80791500I0J-237500D01*
G01*
G37*
%TD.AperFunction*%
%TO.P,C5,1*%
%TO.N,/IOREF*%
%TA.AperFunction,SMDPad,CuDef*%
G36*
G01*
X170795000Y-80791500D02*
X170795000Y-81266500D01*
G75*
G02*
X170557500Y-81504000I-237500J0D01*
G01*
X169982500Y-81504000D01*
G75*
G02*
X169745000Y-81266500I0J237500D01*
G01*
X169745000Y-80791500D01*
G75*
G02*
X169982500Y-80554000I237500J0D01*
G01*
X170557500Y-80554000D01*
G75*
G02*
X170795000Y-80791500I0J-237500D01*
G01*
G37*
%TD.AperFunction*%
%TD*%
%TO.P,C4,2*%
%TO.N,GND*%
%TA.AperFunction,SMDPad,CuDef*%
G36*
G01*
X168900000Y-93887500D02*
X168900000Y-94362500D01*
G75*
G02*
X168662500Y-94600000I-237500J0D01*
G01*
X168087500Y-94600000D01*
G75*
G02*
X167850000Y-94362500I0J237500D01*
G01*
X167850000Y-93887500D01*
G75*
G02*
X168087500Y-93650000I237500J0D01*
G01*
X168662500Y-93650000D01*
G75*
G02*
X168900000Y-93887500I0J-237500D01*
G01*
G37*
%TD.AperFunction*%
%TO.P,C4,1*%
%TO.N,/AREF*%
%TA.AperFunction,SMDPad,CuDef*%
G36*
G01*
X170650000Y-93887500D02*
X170650000Y-94362500D01*
G75*
G02*
X170412500Y-94600000I-237500J0D01*
G01*
X169837500Y-94600000D01*
G75*
G02*
X169600000Y-94362500I0J237500D01*
G01*
X169600000Y-93887500D01*
G75*
G02*
X169837500Y-93650000I237500J0D01*
G01*
X170412500Y-93650000D01*
G75*
G02*
X170650000Y-93887500I0J-237500D01*
G01*
G37*
%TD.AperFunction*%
%TD*%
%TO.P,C3,2*%
%TO.N,GND*%
%TA.AperFunction,SMDPad,CuDef*%
G36*
G01*
X169025000Y-84137500D02*
X169025000Y-84612500D01*
G75*
G02*
X168787500Y-84850000I-237500J0D01*
G01*
X168212500Y-84850000D01*
G75*
G02*
X167975000Y-84612500I0J237500D01*
G01*
X167975000Y-84137500D01*
G75*
G02*
X168212500Y-83900000I237500J0D01*
G01*
X168787500Y-83900000D01*
G75*
G02*
X169025000Y-84137500I0J-237500D01*
G01*
G37*
%TD.AperFunction*%
%TO.P,C3,1*%
%TO.N,VDDA*%
%TA.AperFunction,SMDPad,CuDef*%
G36*
G01*
X170775000Y-84137500D02*
X170775000Y-84612500D01*
G75*
G02*
X170537500Y-84850000I-237500J0D01*
G01*
X169962500Y-84850000D01*
G75*
G02*
X169725000Y-84612500I0J237500D01*
G01*
X169725000Y-84137500D01*
G75*
G02*
X169962500Y-83900000I237500J0D01*
G01*
X170537500Y-83900000D01*
G75*
G02*
X170775000Y-84137500I0J-237500D01*
G01*
G37*
%TD.AperFunction*%
%TD*%
%TO.P,C2,2*%
%TO.N,GND*%
%TA.AperFunction,SMDPad,CuDef*%
G36*
G01*
X165497999Y-94915000D02*
X166398001Y-94915000D01*
G75*
G02*
X166648000Y-95164999I0J-249999D01*
G01*
X166648000Y-95815001D01*
G75*
G02*
X166398001Y-96065000I-249999J0D01*
G01*
X165497999Y-96065000D01*
G75*
G02*
X165248000Y-95815001I0J249999D01*
G01*
X165248000Y-95164999D01*
G75*
G02*
X165497999Y-94915000I249999J0D01*
G01*
G37*
%TD.AperFunction*%
%TO.P,C2,1*%
%TO.N,Net-(C2-Pad1)*%
%TA.AperFunction,SMDPad,CuDef*%
G36*
G01*
X165497999Y-92865000D02*
X166398001Y-92865000D01*
G75*
G02*
X166648000Y-93114999I0J-249999D01*
G01*
X166648000Y-93765001D01*
G75*
G02*
X166398001Y-94015000I-249999J0D01*
G01*
X165497999Y-94015000D01*
G75*
G02*
X165248000Y-93765001I0J249999D01*
G01*
X165248000Y-93114999D01*
G75*
G02*
X165497999Y-92865000I249999J0D01*
G01*
G37*
%TD.AperFunction*%
%TD*%
%TO.P,C1,2*%
%TO.N,GND*%
%TA.AperFunction,SMDPad,CuDef*%
G36*
G01*
X168900000Y-98887500D02*
X168900000Y-99362500D01*
G75*
G02*
X168662500Y-99600000I-237500J0D01*
G01*
X168087500Y-99600000D01*
G75*
G02*
X167850000Y-99362500I0J237500D01*
G01*
X167850000Y-98887500D01*
G75*
G02*
X168087500Y-98650000I237500J0D01*
G01*
X168662500Y-98650000D01*
G75*
G02*
X168900000Y-98887500I0J-237500D01*
G01*
G37*
%TD.AperFunction*%
%TO.P,C1,1*%
%TO.N,VDDA*%
%TA.AperFunction,SMDPad,CuDef*%
G36*
G01*
X170650000Y-98887500D02*
X170650000Y-99362500D01*
G75*
G02*
X170412500Y-99600000I-237500J0D01*
G01*
X169837500Y-99600000D01*
G75*
G02*
X169600000Y-99362500I0J237500D01*
G01*
X169600000Y-98887500D01*
G75*
G02*
X169837500Y-98650000I237500J0D01*
G01*
X170412500Y-98650000D01*
G75*
G02*
X170650000Y-98887500I0J-237500D01*
G01*
G37*
%TD.AperFunction*%
%TD*%
D24*
%TO.P,U6,3*%
%TO.N,+5VD*%
X120328000Y-110235000D03*
%TO.P,U6,2*%
%TO.N,GNDD*%
X117788000Y-110235000D03*
D25*
%TO.P,U6,1*%
%TO.N,Net-(C7-Pad1)*%
X115248000Y-110235000D03*
%TD*%
D26*
%TO.P,U4,3*%
%TO.N,GND*%
X168250000Y-96625000D03*
%TO.P,U4,2*%
%TO.N,/AREF*%
X170250000Y-95675000D03*
%TO.P,U4,1*%
%TO.N,VDDA*%
X170250000Y-97575000D03*
%TD*%
%TO.P,U3,8*%
%TO.N,+3V3*%
%TA.AperFunction,SMDPad,CuDef*%
G36*
G01*
X145713000Y-87725000D02*
X146013000Y-87725000D01*
G75*
G02*
X146163000Y-87875000I0J-150000D01*
G01*
X146163000Y-89525000D01*
G75*
G02*
X146013000Y-89675000I-150000J0D01*
G01*
X145713000Y-89675000D01*
G75*
G02*
X145563000Y-89525000I0J150000D01*
G01*
X145563000Y-87875000D01*
G75*
G02*
X145713000Y-87725000I150000J0D01*
G01*
G37*
%TD.AperFunction*%
%TO.P,U3,7*%
%TO.N,/9(RPM2)*%
%TA.AperFunction,SMDPad,CuDef*%
G36*
G01*
X144443000Y-87725000D02*
X144743000Y-87725000D01*
G75*
G02*
X144893000Y-87875000I0J-150000D01*
G01*
X144893000Y-89525000D01*
G75*
G02*
X144743000Y-89675000I-150000J0D01*
G01*
X144443000Y-89675000D01*
G75*
G02*
X144293000Y-89525000I0J150000D01*
G01*
X144293000Y-87875000D01*
G75*
G02*
X144443000Y-87725000I150000J0D01*
G01*
G37*
%TD.AperFunction*%
%TO.P,U3,6*%
%TO.N,Net-(R8-Pad1)*%
%TA.AperFunction,SMDPad,CuDef*%
G36*
G01*
X143173000Y-87725000D02*
X143473000Y-87725000D01*
G75*
G02*
X143623000Y-87875000I0J-150000D01*
G01*
X143623000Y-89525000D01*
G75*
G02*
X143473000Y-89675000I-150000J0D01*
G01*
X143173000Y-89675000D01*
G75*
G02*
X143023000Y-89525000I0J150000D01*
G01*
X143023000Y-87875000D01*
G75*
G02*
X143173000Y-87725000I150000J0D01*
G01*
G37*
%TD.AperFunction*%
%TO.P,U3,5*%
%TO.N,Net-(R10-Pad1)*%
%TA.AperFunction,SMDPad,CuDef*%
G36*
G01*
X141903000Y-87725000D02*
X142203000Y-87725000D01*
G75*
G02*
X142353000Y-87875000I0J-150000D01*
G01*
X142353000Y-89525000D01*
G75*
G02*
X142203000Y-89675000I-150000J0D01*
G01*
X141903000Y-89675000D01*
G75*
G02*
X141753000Y-89525000I0J150000D01*
G01*
X141753000Y-87875000D01*
G75*
G02*
X141903000Y-87725000I150000J0D01*
G01*
G37*
%TD.AperFunction*%
%TO.P,U3,4*%
%TO.N,GND*%
%TA.AperFunction,SMDPad,CuDef*%
G36*
G01*
X141903000Y-82775000D02*
X142203000Y-82775000D01*
G75*
G02*
X142353000Y-82925000I0J-150000D01*
G01*
X142353000Y-84575000D01*
G75*
G02*
X142203000Y-84725000I-150000J0D01*
G01*
X141903000Y-84725000D01*
G75*
G02*
X141753000Y-84575000I0J150000D01*
G01*
X141753000Y-82925000D01*
G75*
G02*
X141903000Y-82775000I150000J0D01*
G01*
G37*
%TD.AperFunction*%
%TO.P,U3,3*%
%TO.N,Net-(R11-Pad2)*%
%TA.AperFunction,SMDPad,CuDef*%
G36*
G01*
X143173000Y-82775000D02*
X143473000Y-82775000D01*
G75*
G02*
X143623000Y-82925000I0J-150000D01*
G01*
X143623000Y-84575000D01*
G75*
G02*
X143473000Y-84725000I-150000J0D01*
G01*
X143173000Y-84725000D01*
G75*
G02*
X143023000Y-84575000I0J150000D01*
G01*
X143023000Y-82925000D01*
G75*
G02*
X143173000Y-82775000I150000J0D01*
G01*
G37*
%TD.AperFunction*%
%TO.P,U3,2*%
%TO.N,Net-(R7-Pad2)*%
%TA.AperFunction,SMDPad,CuDef*%
G36*
G01*
X144443000Y-82775000D02*
X144743000Y-82775000D01*
G75*
G02*
X144893000Y-82925000I0J-150000D01*
G01*
X144893000Y-84575000D01*
G75*
G02*
X144743000Y-84725000I-150000J0D01*
G01*
X144443000Y-84725000D01*
G75*
G02*
X144293000Y-84575000I0J150000D01*
G01*
X144293000Y-82925000D01*
G75*
G02*
X144443000Y-82775000I150000J0D01*
G01*
G37*
%TD.AperFunction*%
%TO.P,U3,1*%
%TO.N,/6(RPM1)*%
%TA.AperFunction,SMDPad,CuDef*%
G36*
G01*
X145713000Y-82775000D02*
X146013000Y-82775000D01*
G75*
G02*
X146163000Y-82925000I0J-150000D01*
G01*
X146163000Y-84575000D01*
G75*
G02*
X146013000Y-84725000I-150000J0D01*
G01*
X145713000Y-84725000D01*
G75*
G02*
X145563000Y-84575000I0J150000D01*
G01*
X145563000Y-82925000D01*
G75*
G02*
X145713000Y-82775000I150000J0D01*
G01*
G37*
%TD.AperFunction*%
%TD*%
D27*
%TO.P,U2,12*%
%TO.N,/3(SCK)*%
X173592500Y-83375000D03*
%TO.P,U2,11*%
%TO.N,GND*%
X173592500Y-83875000D03*
%TO.P,U2,6*%
%TO.N,Net-(U2-Pad6)*%
X172067500Y-83875000D03*
%TO.P,U2,5*%
%TO.N,Net-(U2-Pad5)*%
X172067500Y-83375000D03*
D28*
%TO.P,U2,10*%
%TO.N,/A2(SS)*%
X173580000Y-84387500D03*
%TO.P,U2,1*%
%TO.N,/5(MISO)*%
X173580000Y-82862500D03*
%TO.P,U2,7*%
%TO.N,VDDA*%
X172080000Y-84387500D03*
%TO.P,U2,4*%
%TO.N,GND*%
X172080000Y-82862500D03*
%TO.P,U2,8*%
%TO.N,N/C*%
X172580000Y-84387500D03*
%TO.P,U2,9*%
%TO.N,GND*%
X173080000Y-84387500D03*
%TO.P,U2,3*%
%TO.N,/IOREF*%
X172580000Y-82862500D03*
%TO.P,U2,2*%
%TO.N,/4(MOSI)*%
X173080000Y-82862500D03*
%TD*%
D29*
%TO.P,P1,1*%
%TO.N,Net-(P1-Pad1)*%
X138938000Y-123825000D03*
%TO.P,P1,2*%
%TO.N,/IOREF*%
X141478000Y-123825000D03*
%TO.P,P1,3*%
%TO.N,/Reset*%
X144018000Y-123825000D03*
%TO.P,P1,4*%
%TO.N,+3V3*%
X146558000Y-123825000D03*
%TO.P,P1,5*%
%TO.N,+5V*%
X149098000Y-123825000D03*
%TO.P,P1,6*%
%TO.N,GND*%
X151638000Y-123825000D03*
%TO.P,P1,7*%
X154178000Y-123825000D03*
%TO.P,P1,8*%
%TO.N,/Vin*%
X156718000Y-123825000D03*
%TD*%
%TO.P,P2,1*%
%TO.N,/A0*%
X161798000Y-123825000D03*
%TO.P,P2,2*%
%TO.N,/A1*%
X164338000Y-123825000D03*
%TO.P,P2,3*%
%TO.N,/A2(SS)*%
X166878000Y-123825000D03*
%TO.P,P2,4*%
%TO.N,/A3*%
X169418000Y-123825000D03*
%TO.P,P2,5*%
%TO.N,/A4*%
X171958000Y-123825000D03*
%TO.P,P2,6*%
%TO.N,/A5*%
X174498000Y-123825000D03*
%TD*%
%TO.P,P3,1*%
%TO.N,/A5(SCL)*%
X129794000Y-75565000D03*
%TO.P,P3,2*%
%TO.N,/A4(SDA)*%
X132334000Y-75565000D03*
%TO.P,P3,3*%
%TO.N,/AREF*%
X134874000Y-75565000D03*
%TO.P,P3,4*%
%TO.N,GND*%
X137414000Y-75565000D03*
%TO.P,P3,5*%
%TO.N,/13(SCK)*%
X139954000Y-75565000D03*
%TO.P,P3,6*%
%TO.N,/12(MISO)*%
X142494000Y-75565000D03*
%TO.P,P3,7*%
%TO.N,/11(\u002A\u002A/MOSI)*%
X145034000Y-75565000D03*
%TO.P,P3,8*%
%TO.N,/10(\u002A\u002A/SS)*%
X147574000Y-75565000D03*
%TO.P,P3,9*%
%TO.N,/9(RPM2)*%
X150114000Y-75565000D03*
%TO.P,P3,10*%
%TO.N,/8(TX)*%
X152654000Y-75565000D03*
%TD*%
%TO.P,P4,1*%
%TO.N,/7(DE)*%
X156718000Y-75565000D03*
%TO.P,P4,2*%
%TO.N,/6(RPM1)*%
X159258000Y-75565000D03*
%TO.P,P4,3*%
%TO.N,/5(MISO)*%
X161798000Y-75565000D03*
%TO.P,P4,4*%
%TO.N,/4(MOSI)*%
X164338000Y-75565000D03*
%TO.P,P4,5*%
%TO.N,/3(SCK)*%
X166878000Y-75565000D03*
%TO.P,P4,6*%
%TO.N,/2(RX)*%
X169418000Y-75565000D03*
%TO.P,P4,7*%
%TO.N,/1(Tx)*%
X171958000Y-75565000D03*
%TO.P,P4,8*%
%TO.N,/0(Rx)*%
X174498000Y-75565000D03*
%TD*%
D30*
%TO.P,P5,1*%
%TO.N,Net-(P5-Pad1)*%
X124968000Y-123825000D03*
%TD*%
%TO.P,P6,1*%
%TO.N,Net-(P6-Pad1)*%
X177038000Y-118745000D03*
%TD*%
%TO.P,P7,1*%
%TO.N,Net-(P7-Pad1)*%
X126238000Y-75565000D03*
%TD*%
%TO.P,P8,1*%
%TO.N,Net-(P8-Pad1)*%
X177038000Y-90805000D03*
%TD*%
D31*
%TO.N,/IOREF*%
X171250000Y-79750000D03*
X169750000Y-79750000D03*
%TO.N,/Reset*%
X156337030Y-80772000D03*
X146250000Y-109940000D03*
%TO.N,+5V*%
X160250000Y-98125000D03*
X158875000Y-98125000D03*
X158875000Y-96750000D03*
X136150000Y-93025000D03*
X134500000Y-93000000D03*
X134500000Y-94250000D03*
%TO.N,GND*%
X175375012Y-98875000D03*
X141998000Y-85615000D03*
X151748000Y-99855702D03*
X143198000Y-117565000D03*
X145598000Y-117765000D03*
X153998000Y-120765000D03*
X146250000Y-96500000D03*
X157000000Y-107500000D03*
X177248000Y-98875000D03*
X178500000Y-98875000D03*
X168000000Y-82500000D03*
X164592000Y-84582000D03*
X164592000Y-83312000D03*
X166006000Y-118000000D03*
X169418000Y-116218000D03*
X163198000Y-96302000D03*
X126500000Y-99500000D03*
X139650000Y-95300000D03*
X139650000Y-97125000D03*
X137250000Y-97150000D03*
X144942847Y-110994847D03*
X145598000Y-119097992D03*
X138750000Y-84205000D03*
X140250000Y-85625000D03*
X139055000Y-90555000D03*
X134112000Y-99568000D03*
X134112000Y-103505000D03*
X150114000Y-91694000D03*
X156591000Y-87122000D03*
X151003000Y-90787500D03*
X164900000Y-113865000D03*
X164623000Y-110205000D03*
X161575000Y-110205000D03*
X165862000Y-105664000D03*
X155375000Y-112000000D03*
X158500000Y-118750000D03*
X148093554Y-89985258D03*
X146500001Y-99874999D03*
X173375000Y-98875000D03*
X173875000Y-86500000D03*
X154250000Y-112000000D03*
X172625000Y-86500000D03*
X168000000Y-79625000D03*
X170750000Y-85874994D03*
X168375000Y-95375000D03*
X168375000Y-97875000D03*
X126500000Y-103375000D03*
X154375000Y-104500000D03*
X154375000Y-105625000D03*
X144942847Y-109942847D03*
X141940000Y-117565000D03*
%TO.N,/A0*%
X158875000Y-116500000D03*
%TO.N,/A1*%
X160750000Y-116500002D03*
%TO.N,/A3*%
X157046004Y-109600000D03*
%TO.N,/AREF*%
X173375000Y-89750000D03*
%TO.N,/10(\u002A\u002A/SS)*%
X156210000Y-108573002D03*
X146176027Y-104823973D03*
%TO.N,+3V3*%
X143250000Y-113000000D03*
X148898000Y-115865000D03*
X147500000Y-112035000D03*
X162348000Y-87027000D03*
X154525000Y-85625000D03*
X152375000Y-82875000D03*
X128250000Y-98750000D03*
X148000000Y-81125000D03*
X149375000Y-81125000D03*
X136730000Y-101522000D03*
X135382000Y-99568000D03*
X152873000Y-87849004D03*
X150500000Y-99875002D03*
X147125000Y-89125000D03*
X151000000Y-96750000D03*
X144998000Y-96501998D03*
X129250000Y-97750000D03*
X143625000Y-96500000D03*
X143625000Y-97750000D03*
X144124996Y-90625000D03*
X144125000Y-92125000D03*
X153875000Y-110625000D03*
X155125000Y-110625000D03*
X142125000Y-113000000D03*
X155375000Y-102250000D03*
X154500000Y-103000000D03*
%TO.N,VDDA*%
X171704000Y-95250000D03*
X171704000Y-94234000D03*
X162553000Y-114815000D03*
X162553000Y-113926000D03*
X157400000Y-120850000D03*
X158600000Y-120850000D03*
X164898000Y-120125000D03*
X166125000Y-120125000D03*
X169500000Y-83000000D03*
X170875000Y-83000000D03*
%TO.N,/A2(SS)*%
X157000012Y-96500000D03*
%TO.N,/9(RPM2)*%
X150999992Y-88375000D03*
%TO.N,/8(TX)*%
X145875000Y-103000010D03*
%TO.N,/7(DE)*%
X131572000Y-99580000D03*
X130302000Y-99580000D03*
X141535000Y-100584000D03*
X140773000Y-99822000D03*
X147125000Y-102125000D03*
%TO.N,/5(MISO)*%
X165750000Y-81750000D03*
%TO.N,/4(MOSI)*%
X166875000Y-81000000D03*
%TO.N,/3(SCK)*%
X173874995Y-80500007D03*
%TO.N,/2(RX)*%
X155448000Y-82042000D03*
X148250000Y-103000000D03*
%TO.N,/EX*%
X175500000Y-94125000D03*
X174125000Y-94125000D03*
%TO.N,Net-(C17-Pad1)*%
X156750000Y-103875000D03*
X156750000Y-105000000D03*
X172000000Y-92875000D03*
X173375000Y-91125000D03*
X173125000Y-92375000D03*
X156750000Y-106125000D03*
%TO.N,/SensorBoardCPU/SWCLK*%
X156418006Y-84582000D03*
X150000000Y-102874998D03*
%TO.N,/SensorBoardCPU/SWDIO*%
X156375000Y-85852000D03*
X150000000Y-101625000D03*
%TD*%
D32*
%TO.N,/IOREF*%
X170270000Y-81029000D02*
X171032000Y-81029000D01*
X171221000Y-81029000D02*
X171250000Y-81000000D01*
X170270000Y-81029000D02*
X171221000Y-81029000D01*
X171250000Y-79750000D02*
X171250000Y-81000000D01*
X171500000Y-81000000D02*
X171250000Y-81000000D01*
X172580000Y-82862500D02*
X172580000Y-82080000D01*
X171529000Y-81029000D02*
X171687500Y-81187500D01*
X172580000Y-82080000D02*
X171687500Y-81187500D01*
X170270000Y-81029000D02*
X171529000Y-81029000D01*
X171687500Y-81187500D02*
X171500000Y-81000000D01*
X169750000Y-79750000D02*
X170000000Y-79750000D01*
X170000000Y-79750000D02*
X171250000Y-79750000D01*
%TO.N,/Reset*%
X144078001Y-123764999D02*
X144018000Y-123825000D01*
X144073000Y-120440000D02*
X144078001Y-120445001D01*
X158448000Y-80772000D02*
X156337030Y-80772000D01*
X146210000Y-109980000D02*
X146250000Y-109940000D01*
X145206000Y-112294000D02*
X144669000Y-112294000D01*
X146210000Y-111290000D02*
X145206000Y-112294000D01*
X144231500Y-112731500D02*
X144231500Y-117018500D01*
X144669000Y-112294000D02*
X144231500Y-112731500D01*
X143198000Y-120440000D02*
X143940000Y-120440000D01*
X144231500Y-117018500D02*
X144231500Y-120148500D01*
X143940000Y-120440000D02*
X144073000Y-120440000D01*
X144231500Y-121799502D02*
X144078001Y-121953001D01*
X144078001Y-121953001D02*
X144078001Y-123764999D01*
X144153000Y-120440000D02*
X144231500Y-120518500D01*
X144231500Y-120148500D02*
X144231500Y-120518500D01*
X143940000Y-120440000D02*
X144153000Y-120440000D01*
X144231500Y-120518500D02*
X144231500Y-121799502D01*
X146210000Y-110960000D02*
X150153000Y-110960000D01*
X146210000Y-111290000D02*
X146210000Y-110960000D01*
X146210000Y-110960000D02*
X146210000Y-109980000D01*
X150153000Y-110960000D02*
X150721500Y-111528500D01*
X150483000Y-111290000D02*
X150721500Y-111528500D01*
X151500000Y-112307000D02*
X151500000Y-113675000D01*
X150721500Y-111528500D02*
X151284000Y-112091000D01*
X151500000Y-112307000D02*
X151284000Y-112091000D01*
%TO.N,+5V*%
X160250000Y-96750000D02*
X160250000Y-98125000D01*
X160250000Y-98125000D02*
X158875000Y-98125000D01*
X158875000Y-98125000D02*
X158875000Y-96750000D01*
X160250000Y-96750000D02*
X158875000Y-96750000D01*
X136150000Y-94300000D02*
X136150000Y-93025000D01*
X136150000Y-93025000D02*
X134525000Y-93025000D01*
X136150000Y-94300000D02*
X134550000Y-94300000D01*
X134550000Y-94300000D02*
X134500000Y-94250000D01*
X134500000Y-93000000D02*
X134500000Y-94250000D01*
X136150000Y-96200000D02*
X134950000Y-96200000D01*
X134500000Y-95750000D02*
X134950000Y-96200000D01*
X134500000Y-94250000D02*
X134500000Y-95750000D01*
%TO.N,GND*%
X142053000Y-83750000D02*
X142053000Y-85560000D01*
X137063000Y-90555000D02*
X138688000Y-90555000D01*
X143198000Y-116440000D02*
X143198000Y-117365000D01*
X143198000Y-117365000D02*
X143198000Y-117565000D01*
X143198000Y-118690000D02*
X143198000Y-117565000D01*
X146998000Y-117740000D02*
X145623000Y-117740000D01*
X145623000Y-117740000D02*
X145598000Y-117765000D01*
X145723000Y-115865000D02*
X145723000Y-116840000D01*
X145598000Y-116965000D02*
X145598000Y-117765000D01*
X145723000Y-116840000D02*
X145598000Y-116965000D01*
X153998000Y-119490000D02*
X153998000Y-120765000D01*
X172948000Y-97615000D02*
X173815000Y-97615000D01*
X177248000Y-97615000D02*
X177248000Y-98752000D01*
X162348000Y-84582000D02*
X164592000Y-84582000D01*
X162348000Y-83312000D02*
X164592000Y-83312000D01*
X164592000Y-83312000D02*
X164592000Y-84582000D01*
X167098000Y-118000000D02*
X166006000Y-118000000D01*
X167098000Y-118000000D02*
X168004000Y-118000000D01*
X168515000Y-117489000D02*
X169418000Y-117489000D01*
X168004000Y-118000000D02*
X168515000Y-117489000D01*
X169418000Y-117489000D02*
X169418000Y-116218000D01*
X145500000Y-97250000D02*
X146250000Y-96500000D01*
X145500000Y-98325000D02*
X145500000Y-97250000D01*
X164623000Y-109627000D02*
X164623000Y-108865000D01*
X157000000Y-107500000D02*
X158675000Y-107500000D01*
X163198000Y-96448000D02*
X163198000Y-96302000D01*
X163198000Y-95115000D02*
X163198000Y-96302000D01*
X165948000Y-95490000D02*
X165948000Y-96302000D01*
X168318000Y-96585000D02*
X168318000Y-95682000D01*
X159952410Y-107500000D02*
X161500000Y-109047590D01*
X158675000Y-107500000D02*
X159952410Y-107500000D01*
X144998000Y-93490000D02*
X145740000Y-93490000D01*
X143325000Y-111500000D02*
X144437694Y-111500000D01*
X144437694Y-111500000D02*
X144942847Y-110994847D01*
X145598000Y-117765000D02*
X145598000Y-119097992D01*
X145765000Y-120765000D02*
X145598000Y-120598000D01*
X145598000Y-120598000D02*
X145598000Y-119097992D01*
X153998000Y-120765000D02*
X145765000Y-120765000D01*
X161250000Y-101625000D02*
X160375000Y-101625000D01*
X160375000Y-101625000D02*
X159750000Y-101000000D01*
X158675000Y-101000000D02*
X159750000Y-101000000D01*
X137063000Y-84205000D02*
X138750000Y-84205000D01*
X138750000Y-84205000D02*
X139330000Y-84205000D01*
X140250000Y-84500000D02*
X140250000Y-85625000D01*
X140250000Y-85625000D02*
X140250000Y-86875000D01*
X141988000Y-85625000D02*
X141998000Y-85615000D01*
X140250000Y-85625000D02*
X141988000Y-85625000D01*
X139330000Y-84205000D02*
X139500000Y-84375000D01*
X140250000Y-84375000D02*
X139500000Y-84375000D01*
X138688000Y-90555000D02*
X139055000Y-90555000D01*
X134112000Y-101522000D02*
X134112000Y-99568000D01*
X134112000Y-101522000D02*
X134112000Y-103505000D01*
X134112000Y-103505000D02*
X136017000Y-103505000D01*
X136296000Y-103226000D02*
X138049000Y-103226000D01*
X136017000Y-103505000D02*
X136296000Y-103226000D01*
X150114000Y-93486000D02*
X150114000Y-91694000D01*
X155575000Y-88138000D02*
X156591000Y-87122000D01*
X150876000Y-90932000D02*
X150876000Y-90787500D01*
X150114000Y-91676500D02*
X151003000Y-90787500D01*
X150114000Y-91694000D02*
X150114000Y-91676500D01*
X166098000Y-113865000D02*
X164900000Y-113865000D01*
X166098000Y-113865000D02*
X166932000Y-113865000D01*
X167307000Y-113490000D02*
X167998000Y-113490000D01*
X166932000Y-113865000D02*
X167307000Y-113490000D01*
X164900000Y-115057002D02*
X164900000Y-113865000D01*
X169418000Y-116218000D02*
X166060998Y-116218000D01*
X166060998Y-116218000D02*
X164900000Y-115057002D01*
X164623000Y-109115000D02*
X164623000Y-110078000D01*
X164623000Y-110078000D02*
X164623000Y-110205000D01*
X161448000Y-110205000D02*
X161575000Y-110205000D01*
X164623000Y-110205000D02*
X161575000Y-110205000D01*
X161575000Y-109122590D02*
X161500000Y-109047590D01*
X161575000Y-110205000D02*
X161575000Y-109122590D01*
X164623000Y-105060000D02*
X165258000Y-105060000D01*
X164623000Y-105060000D02*
X164623000Y-104365000D01*
X164623000Y-105865000D02*
X164623000Y-105060000D01*
X165258000Y-105060000D02*
X165735000Y-105537000D01*
X165735000Y-105537000D02*
X165862000Y-105664000D01*
X164623000Y-105865000D02*
X164623000Y-107615000D01*
X164623000Y-107615000D02*
X164623000Y-109115000D01*
X156000000Y-113675000D02*
X156000000Y-112809298D01*
X156000000Y-112809298D02*
X156000000Y-112625000D01*
X156000000Y-112625000D02*
X155500000Y-112125000D01*
X155500000Y-112125000D02*
X155375000Y-112000000D01*
X159919000Y-114794000D02*
X160655000Y-114794000D01*
X159750000Y-114625000D02*
X159919000Y-114794000D01*
X156000000Y-113675000D02*
X156000000Y-115125000D01*
X157375000Y-115500000D02*
X158250000Y-114625000D01*
X156375000Y-115500000D02*
X157375000Y-115500000D01*
X156000000Y-115125000D02*
X156375000Y-115500000D01*
X158250000Y-114625000D02*
X159750000Y-114625000D01*
X160500000Y-118750000D02*
X159600000Y-118750000D01*
X161125000Y-118125000D02*
X160500000Y-118750000D01*
X161375000Y-118125000D02*
X161875000Y-118125000D01*
X161375000Y-118125000D02*
X161125000Y-118125000D01*
X161750000Y-118125000D02*
X161375000Y-118125000D01*
X166006000Y-118000000D02*
X163250000Y-118000000D01*
X163125000Y-118125000D02*
X161875000Y-118125000D01*
X163250000Y-118000000D02*
X163125000Y-118125000D01*
X159600000Y-118750000D02*
X158625000Y-118750000D01*
X158625000Y-118750000D02*
X158500000Y-118750000D01*
X139650000Y-96400000D02*
X139650000Y-97125000D01*
X139650000Y-96400000D02*
X139650000Y-96550000D01*
X141875000Y-96275000D02*
X139650000Y-96275000D01*
X139650000Y-95300000D02*
X139650000Y-96275000D01*
X139650000Y-96275000D02*
X139650000Y-96400000D01*
X139600000Y-95250000D02*
X139650000Y-95300000D01*
X137250000Y-95375000D02*
X137125000Y-95250000D01*
X136150000Y-95250000D02*
X137125000Y-95250000D01*
X137250000Y-97150000D02*
X137250000Y-95375000D01*
X137125000Y-95250000D02*
X137375000Y-95250000D01*
X137250000Y-95375000D02*
X137375000Y-95250000D01*
X137375000Y-95250000D02*
X139600000Y-95250000D01*
X148125000Y-90000000D02*
X148110258Y-89985258D01*
X148110258Y-89985258D02*
X148093554Y-89985258D01*
X151000000Y-98325000D02*
X151024990Y-98349990D01*
X151024990Y-98349990D02*
X151024990Y-99215692D01*
X151024990Y-99215692D02*
X151665000Y-99855702D01*
X151665000Y-99855702D02*
X151748000Y-99855702D01*
X145500000Y-98325000D02*
X145500000Y-99511398D01*
X145500000Y-99511398D02*
X145863601Y-99874999D01*
X145863601Y-99874999D02*
X146500001Y-99874999D01*
X175185000Y-97615000D02*
X173815000Y-97615000D01*
X177248000Y-95615000D02*
X176365000Y-95615000D01*
X173375000Y-98875000D02*
X175375012Y-98875000D01*
X175365024Y-97615000D02*
X175375012Y-97624988D01*
X175375012Y-98875000D02*
X175375012Y-97624988D01*
X175185000Y-97615000D02*
X175365024Y-97615000D01*
X175688161Y-97311839D02*
X175375012Y-97624988D01*
X175688161Y-96813161D02*
X175688161Y-97311839D01*
X175688161Y-96813161D02*
X175688161Y-97111839D01*
X178500000Y-98875000D02*
X177248000Y-98875000D01*
X150000000Y-100750000D02*
X149124999Y-99874999D01*
X151000000Y-100750000D02*
X150000000Y-100750000D01*
X149124999Y-99874999D02*
X146500001Y-99874999D01*
X151748000Y-99855702D02*
X151748000Y-100002000D01*
X151748000Y-100002000D02*
X151000000Y-100750000D01*
X146250000Y-94750000D02*
X146250000Y-96500000D01*
X146250000Y-93500000D02*
X146250000Y-94750000D01*
X146240000Y-93490000D02*
X146250000Y-93500000D01*
X144998000Y-93490000D02*
X146240000Y-93490000D01*
X148093554Y-89985258D02*
X147375000Y-90703812D01*
X147375000Y-90703812D02*
X147375000Y-91365000D01*
X147375000Y-92375000D02*
X147000000Y-92750000D01*
X147125000Y-92625000D02*
X147000000Y-92750000D01*
X147375000Y-91365000D02*
X147375000Y-92375000D01*
X147000000Y-92750000D02*
X146250000Y-93500000D01*
X155375000Y-112000000D02*
X154250000Y-112000000D01*
X168520000Y-81029000D02*
X168520000Y-80145000D01*
X168520000Y-80145000D02*
X168000000Y-79625000D01*
X168625000Y-85250000D02*
X168699992Y-85324992D01*
X172080000Y-82580000D02*
X171500000Y-82000000D01*
X172080000Y-82862500D02*
X172080000Y-82580000D01*
X174375000Y-84125000D02*
X174375000Y-86000000D01*
X173592500Y-83875000D02*
X174125000Y-83875000D01*
X174375000Y-86000000D02*
X173875000Y-86500000D01*
X174125000Y-83875000D02*
X174375000Y-84125000D01*
X173875000Y-86500000D02*
X172625000Y-86500000D01*
X168500000Y-83415000D02*
X168520000Y-83395000D01*
X168500000Y-85125000D02*
X168937500Y-85562500D01*
X168500000Y-84375000D02*
X168500000Y-85125000D01*
X168937500Y-85562500D02*
X168625000Y-85250000D01*
X169249994Y-85874994D02*
X170750000Y-85874994D01*
X168937500Y-85562500D02*
X169249994Y-85874994D01*
X173080000Y-84825000D02*
X172780000Y-85125000D01*
X173080000Y-84387500D02*
X173080000Y-84825000D01*
X172780000Y-85125000D02*
X171499994Y-85125000D01*
X171499994Y-85125000D02*
X170750000Y-85874994D01*
X168520000Y-81980000D02*
X168000000Y-82500000D01*
X168520000Y-81029000D02*
X168520000Y-81980000D01*
X168500000Y-84375000D02*
X168500000Y-83750000D01*
X168500000Y-83750000D02*
X168500000Y-83415000D01*
X168000000Y-82500000D02*
X168500000Y-83000000D01*
X168500000Y-83000000D02*
X168500000Y-83415000D01*
X170355000Y-81980000D02*
X170375000Y-82000000D01*
X168520000Y-81980000D02*
X170355000Y-81980000D01*
X171500000Y-82000000D02*
X170375000Y-82000000D01*
X170375000Y-82000000D02*
X169375000Y-82000000D01*
X168250000Y-96625000D02*
X168250000Y-97750000D01*
X168375000Y-97875000D02*
X168250000Y-97750000D01*
X168375000Y-99125000D02*
X168375000Y-97875000D01*
X168250000Y-96625000D02*
X167500000Y-96625000D01*
X167323000Y-96448000D02*
X165948000Y-96448000D01*
X167500000Y-96625000D02*
X167323000Y-96448000D01*
X165948000Y-96302000D02*
X165948000Y-96448000D01*
X165948000Y-96448000D02*
X165948000Y-97440000D01*
X165948000Y-96448000D02*
X164948000Y-96448000D01*
X164948000Y-96448000D02*
X164802000Y-96302000D01*
X163198000Y-96302000D02*
X164802000Y-96302000D01*
X168375000Y-95625000D02*
X168318000Y-95682000D01*
X168875000Y-93125000D02*
X168625000Y-93125000D01*
X169174990Y-92825010D02*
X168875000Y-93125000D01*
X169174990Y-90755010D02*
X169174990Y-92825010D01*
X169375000Y-90555000D02*
X169174990Y-90755010D01*
X168375000Y-93375000D02*
X168375000Y-94125000D01*
X168625000Y-93125000D02*
X168375000Y-93375000D01*
X169375000Y-89775000D02*
X169375000Y-90555000D01*
X168375000Y-95375000D02*
X168375000Y-95625000D01*
X168375000Y-94125000D02*
X168375000Y-95375000D01*
X126492000Y-99758000D02*
X126492000Y-101522000D01*
X126750000Y-99500000D02*
X126492000Y-99758000D01*
X126492000Y-101522000D02*
X126492000Y-103367000D01*
X126492000Y-103367000D02*
X126500000Y-103375000D01*
X175688161Y-96166839D02*
X175688161Y-96813161D01*
X175688161Y-96061839D02*
X175688161Y-96166839D01*
X177248000Y-95615000D02*
X176135000Y-95615000D01*
X176135000Y-95615000D02*
X175688161Y-96061839D01*
X154375000Y-104500000D02*
X154375000Y-105625000D01*
X158675000Y-101000000D02*
X157699000Y-101000000D01*
X157099500Y-101900500D02*
X155562500Y-103437500D01*
X157699000Y-101000000D02*
X157099500Y-101599500D01*
X157099500Y-101599500D02*
X157099500Y-101900500D01*
X155125000Y-104500000D02*
X154375000Y-104500000D01*
X155562500Y-104062500D02*
X155125000Y-104500000D01*
X155562500Y-103437500D02*
X155562500Y-104062500D01*
X143325000Y-111500000D02*
X142375000Y-111500000D01*
X142162500Y-111287500D02*
X141250000Y-111287500D01*
X142375000Y-111500000D02*
X142162500Y-111287500D01*
X144942847Y-110994847D02*
X144942847Y-109942847D01*
X143198000Y-117565000D02*
X141940000Y-117565000D01*
%TO.N,/A0*%
X154500000Y-115250000D02*
X154500000Y-113675000D01*
X157050000Y-117800000D02*
X155937500Y-116687500D01*
X157400000Y-117800000D02*
X157050000Y-117800000D01*
X156165000Y-116915000D02*
X155937500Y-116687500D01*
X155937500Y-116687500D02*
X154500000Y-115250000D01*
X158450000Y-116925000D02*
X158875000Y-116500000D01*
X158450000Y-117800000D02*
X158450000Y-116925000D01*
X158450000Y-117800000D02*
X157400000Y-117800000D01*
X159600000Y-117800000D02*
X158450000Y-117800000D01*
%TO.N,/A1*%
X166050000Y-117050000D02*
X164898000Y-117050000D01*
X167098000Y-117050000D02*
X166050000Y-117050000D01*
X163350001Y-116650001D02*
X163750000Y-117050000D01*
X164898000Y-117050000D02*
X163750000Y-117050000D01*
X155000000Y-113675000D02*
X155000000Y-115000000D01*
X155000000Y-115000000D02*
X156000000Y-116000000D01*
X156000000Y-116000000D02*
X157625000Y-116000000D01*
X159375000Y-115250000D02*
X158375000Y-115250000D01*
X158375000Y-115250000D02*
X157625000Y-116000000D01*
X160125000Y-116000000D02*
X159375000Y-115250000D01*
X160625002Y-116500002D02*
X160750000Y-116500002D01*
X163200002Y-116500002D02*
X160750000Y-116500002D01*
X163750000Y-117050000D02*
X163200002Y-116500002D01*
X160200000Y-116075000D02*
X160625002Y-116500002D01*
%TO.N,/A3*%
X164948000Y-112915000D02*
X166098000Y-112915000D01*
X163898000Y-112915000D02*
X164948000Y-112915000D01*
X157580002Y-109066002D02*
X157046004Y-109600000D01*
X158675000Y-109000000D02*
X157646004Y-109000000D01*
X157646004Y-109000000D02*
X157580002Y-109066002D01*
X162062589Y-112915000D02*
X163898000Y-112915000D01*
X160274000Y-111126411D02*
X162062589Y-112915000D01*
X160274000Y-109474000D02*
X160274000Y-111126411D01*
X158675000Y-109000000D02*
X159800000Y-109000000D01*
X159800000Y-109000000D02*
X160274000Y-109474000D01*
%TO.N,/AREF*%
X170325000Y-90555000D02*
X169625000Y-91255000D01*
X170325000Y-89775000D02*
X170325000Y-90555000D01*
X170250000Y-95675000D02*
X170250000Y-95000000D01*
X170125000Y-94875000D02*
X170125000Y-94125000D01*
X170250000Y-95000000D02*
X170125000Y-94875000D01*
X170125000Y-94125000D02*
X170125000Y-93375000D01*
X169625000Y-92875000D02*
X169625000Y-92375000D01*
X170125000Y-93375000D02*
X169625000Y-92875000D01*
X169625000Y-91255000D02*
X169625000Y-92375000D01*
X169625000Y-92375000D02*
X169625000Y-92715002D01*
X170350000Y-89750000D02*
X170325000Y-89775000D01*
X172000000Y-89750000D02*
X170350000Y-89750000D01*
X172000000Y-89750000D02*
X173375000Y-89750000D01*
%TO.N,/10(\u002A\u002A/SS)*%
X158675000Y-108000000D02*
X157684000Y-108000000D01*
X157110998Y-108573002D02*
X156210000Y-108573002D01*
X157684000Y-108000000D02*
X157110998Y-108573002D01*
X159500000Y-108000000D02*
X158675000Y-108000000D01*
X159750000Y-108000000D02*
X159500000Y-108000000D01*
X160782000Y-109032000D02*
X159750000Y-108000000D01*
X171625010Y-97946602D02*
X171625010Y-100174990D01*
X171615010Y-97936602D02*
X171625010Y-97946602D01*
X171615010Y-97615010D02*
X171615010Y-97936602D01*
X172948000Y-97115000D02*
X172115020Y-97115000D01*
X172115020Y-97115000D02*
X171615010Y-97615010D01*
X171625010Y-100174990D02*
X167000000Y-104800000D01*
X167000000Y-104800000D02*
X167000000Y-110750000D01*
X167000000Y-110750000D02*
X165736000Y-112014000D01*
X165736000Y-112014000D02*
X161798000Y-112014000D01*
X161798000Y-112014000D02*
X160782000Y-110998000D01*
X160782000Y-110998000D02*
X160782000Y-109032000D01*
X177248000Y-96615000D02*
X178148000Y-96615000D01*
X178148000Y-96615000D02*
X178398000Y-96365000D01*
X178398000Y-96365000D02*
X178398000Y-95273000D01*
X149925056Y-108573002D02*
X146176027Y-104823973D01*
X156210000Y-108573002D02*
X149925056Y-108573002D01*
X172948000Y-97115000D02*
X174135000Y-97115000D01*
X175228001Y-96021999D02*
X175228001Y-95646999D01*
X174135000Y-97115000D02*
X175228001Y-96021999D01*
X175228001Y-95646999D02*
X176000000Y-94875000D01*
X178000000Y-94875000D02*
X178398000Y-95273000D01*
X176000000Y-94875000D02*
X178000000Y-94875000D01*
%TO.N,+3V3*%
X147473000Y-115865000D02*
X148898000Y-115865000D01*
X143198000Y-113765000D02*
X143198000Y-114690000D01*
X143250000Y-112075000D02*
X143325000Y-112000000D01*
X143250000Y-113000000D02*
X143250000Y-112075000D01*
X143250000Y-113713000D02*
X143198000Y-113765000D01*
X143250000Y-113000000D02*
X143250000Y-113713000D01*
X138096000Y-94300000D02*
X139664996Y-94300000D01*
X162348000Y-85852000D02*
X162348000Y-87027000D01*
X161250000Y-99875000D02*
X160375000Y-99875000D01*
X160375000Y-99875000D02*
X159750000Y-100500000D01*
X159750000Y-100500000D02*
X158675000Y-100500000D01*
X152873000Y-85627000D02*
X154523000Y-85627000D01*
X152873000Y-85627000D02*
X152873000Y-84565000D01*
X154523000Y-85627000D02*
X154525000Y-85625000D01*
X152873000Y-86565000D02*
X152873000Y-85627000D01*
X152873000Y-83373000D02*
X152375000Y-82875000D01*
X152873000Y-84565000D02*
X152873000Y-83373000D01*
X146273000Y-81165000D02*
X147960000Y-81165000D01*
X147960000Y-81165000D02*
X148000000Y-81125000D01*
X139800000Y-94300000D02*
X139664996Y-94300000D01*
X135382000Y-101522000D02*
X136730000Y-101522000D01*
X136776000Y-101476000D02*
X136730000Y-101522000D01*
X138049000Y-101476000D02*
X136776000Y-101476000D01*
X135382000Y-101522000D02*
X135382000Y-99568000D01*
X152873000Y-86565000D02*
X152873000Y-87849004D01*
X159081000Y-113044000D02*
X160655000Y-113044000D01*
X157125000Y-115000000D02*
X159081000Y-113044000D01*
X156750000Y-115000000D02*
X157125000Y-115000000D01*
X156500000Y-113675000D02*
X156500000Y-114750000D01*
X156500000Y-114750000D02*
X156750000Y-115000000D01*
X141800000Y-94300000D02*
X141875000Y-94225000D01*
X138350000Y-94300000D02*
X141800000Y-94300000D01*
X145863000Y-88700000D02*
X145863000Y-90012000D01*
X150500000Y-98325000D02*
X150500000Y-99875002D01*
X146700000Y-88700000D02*
X147125000Y-89125000D01*
X145863000Y-88700000D02*
X146700000Y-88700000D01*
X150500000Y-97250000D02*
X151000000Y-96750000D01*
X150114000Y-95236000D02*
X150114000Y-95864000D01*
X150500000Y-98325000D02*
X150500000Y-97250000D01*
X150114000Y-95864000D02*
X151000000Y-96750000D01*
X145000000Y-98325000D02*
X145000000Y-96645000D01*
X144998000Y-95240000D02*
X144998000Y-96501998D01*
X145000000Y-96645000D02*
X144998000Y-96643000D01*
X144998000Y-96643000D02*
X144998000Y-96501998D01*
X143750000Y-95125000D02*
X143625000Y-95250000D01*
X143625000Y-95250000D02*
X143625000Y-96500000D01*
X144998000Y-96501998D02*
X143626998Y-96501998D01*
X143626998Y-96501998D02*
X143625000Y-96500000D01*
X143600000Y-94225000D02*
X143625000Y-94250000D01*
X143625000Y-95250000D02*
X143625000Y-94250000D01*
X141875000Y-94225000D02*
X143600000Y-94225000D01*
X143625000Y-96500000D02*
X143625000Y-97750000D01*
X144124996Y-91125004D02*
X144124996Y-90625000D01*
X145375000Y-91365000D02*
X144864996Y-91365000D01*
X142375000Y-91365000D02*
X143384996Y-91365000D01*
X144124996Y-92124996D02*
X144125000Y-92125000D01*
X143625000Y-94250000D02*
X143625000Y-93000000D01*
X144135000Y-91365000D02*
X144124996Y-91375004D01*
X144124996Y-90625000D02*
X144124996Y-91375004D01*
X145625000Y-91365000D02*
X144135000Y-91365000D01*
X144124996Y-91375004D02*
X144124996Y-92124996D01*
X142375000Y-91365000D02*
X144135000Y-91365000D01*
X145625000Y-90250000D02*
X145863000Y-90012000D01*
X145625000Y-91365000D02*
X145625000Y-90250000D01*
X143625000Y-92625000D02*
X143625000Y-93000000D01*
X144125000Y-92125000D02*
X143625000Y-92625000D01*
X161490000Y-95115000D02*
X162248000Y-95115000D01*
X161490000Y-95135000D02*
X161490000Y-95115000D01*
X161250000Y-95375000D02*
X161490000Y-95135000D01*
X161250000Y-99875000D02*
X161250000Y-95375000D01*
X127762000Y-101522000D02*
X127762000Y-99863000D01*
X129250000Y-97750000D02*
X128250000Y-98750000D01*
X127762000Y-99238000D02*
X127762000Y-99863000D01*
X128250000Y-98750000D02*
X127762000Y-99238000D01*
X143125000Y-113000000D02*
X142125000Y-113000000D01*
X155298015Y-102048015D02*
X155298015Y-102076985D01*
X157125000Y-100500000D02*
X155375000Y-102250000D01*
X158675000Y-100500000D02*
X157125000Y-100500000D01*
X155250000Y-102250000D02*
X154500000Y-103000000D01*
X155375000Y-102250000D02*
X155250000Y-102250000D01*
X155124996Y-110625000D02*
X153875000Y-110625000D01*
X156500000Y-111125000D02*
X156500000Y-113675000D01*
X155125000Y-110625000D02*
X156000000Y-110625000D01*
X156000000Y-110625000D02*
X156500000Y-111125000D01*
X148000000Y-81125000D02*
X149375000Y-81125000D01*
X147500000Y-115838000D02*
X147500000Y-113675000D01*
X147473000Y-115865000D02*
X147500000Y-115838000D01*
X147500000Y-113675000D02*
X147500000Y-112035000D01*
%TO.N,GNDA*%
X125250000Y-94925000D02*
X125250000Y-96000000D01*
X125250000Y-96000000D02*
X124625000Y-96625000D01*
X120628000Y-96625000D02*
X118868000Y-94865000D01*
X124625000Y-96625000D02*
X120628000Y-96625000D01*
D33*
X113920000Y-78125000D02*
X113920000Y-84250000D01*
X113920000Y-84250000D02*
X113920000Y-86795000D01*
X118868000Y-91743000D02*
X118868000Y-94865000D01*
X113920000Y-86795000D02*
X118868000Y-91743000D01*
D32*
%TO.N,VDDA*%
X172948000Y-95615000D02*
X172069000Y-95615000D01*
X172069000Y-95615000D02*
X171704000Y-95250000D01*
X164148000Y-97315000D02*
X164148000Y-98898000D01*
X164740000Y-99490000D02*
X165948000Y-99490000D01*
X164148000Y-98898000D02*
X164740000Y-99490000D01*
X170318000Y-99000000D02*
X170193000Y-99125000D01*
X165948000Y-99490000D02*
X165948000Y-100698000D01*
X165948000Y-100698000D02*
X166000000Y-100750000D01*
X166000000Y-100750000D02*
X169500000Y-100750000D01*
X170193000Y-100057000D02*
X170193000Y-99125000D01*
X169500000Y-100750000D02*
X170193000Y-100057000D01*
X164623000Y-102865000D02*
X165635000Y-102865000D01*
X165948000Y-102552000D02*
X165948000Y-100948000D01*
X165635000Y-102865000D02*
X165948000Y-102552000D01*
X165948000Y-100948000D02*
X165948000Y-100698000D01*
X163898000Y-114815000D02*
X162553000Y-114815000D01*
X157400000Y-119700000D02*
X157400000Y-120850000D01*
X157400000Y-120850000D02*
X158600000Y-120850000D01*
X164898000Y-118950000D02*
X164898000Y-119898000D01*
X164898000Y-119898000D02*
X164898000Y-120125000D01*
X164898000Y-120125000D02*
X166000000Y-120125000D01*
X166000000Y-120125000D02*
X166125000Y-120125000D01*
D33*
X162553000Y-113926000D02*
X162553000Y-114815000D01*
X171704000Y-94234000D02*
X171704000Y-95250000D01*
D32*
X171387500Y-84387500D02*
X172080000Y-84387500D01*
X170375000Y-83000000D02*
X170875000Y-83000000D01*
X170125000Y-83000000D02*
X170125000Y-83500000D01*
X170125000Y-83000000D02*
X169500000Y-83000000D01*
X170375000Y-83000000D02*
X170125000Y-83000000D01*
X170262500Y-84387500D02*
X170250000Y-84375000D01*
X172080000Y-84387500D02*
X170262500Y-84387500D01*
X170250000Y-83625000D02*
X170125000Y-83500000D01*
X170250000Y-84375000D02*
X170250000Y-83625000D01*
X170325000Y-91975000D02*
X170325000Y-92700000D01*
X171250000Y-93780000D02*
X171704000Y-94234000D01*
X170250000Y-97575000D02*
X170250000Y-98250000D01*
X170125000Y-98375000D02*
X170125000Y-99125000D01*
X170250000Y-98250000D02*
X170125000Y-98375000D01*
X170325000Y-92855000D02*
X170325000Y-92700000D01*
X171704000Y-94234000D02*
X170325000Y-92855000D01*
X170965000Y-97535000D02*
X170318000Y-97535000D01*
X171704000Y-96796000D02*
X170965000Y-97535000D01*
X171704000Y-95250000D02*
X171704000Y-96796000D01*
%TO.N,Net-(C2-Pad1)*%
X165948000Y-93440000D02*
X164690000Y-93440000D01*
X164690000Y-93440000D02*
X164560000Y-93440000D01*
X164148000Y-93523000D02*
X164065000Y-93440000D01*
X164148000Y-94023000D02*
X164148000Y-93523000D01*
X164148000Y-94023000D02*
X164148000Y-95115000D01*
X164065000Y-93440000D02*
X164690000Y-93440000D01*
X164148000Y-93852000D02*
X164148000Y-94023000D01*
X160250000Y-95000000D02*
X160250000Y-94250000D01*
X161060000Y-93440000D02*
X161810000Y-93440000D01*
X160250000Y-94250000D02*
X161060000Y-93440000D01*
X161810000Y-93440000D02*
X164065000Y-93440000D01*
D33*
%TO.N,Net-(C7-Pad1)*%
X115248000Y-111877000D02*
X115248000Y-110235000D01*
X113712500Y-115200000D02*
X113712500Y-113412500D01*
X113712500Y-113412500D02*
X115248000Y-111877000D01*
D32*
X114312500Y-119850000D02*
X114312500Y-119200000D01*
X114312500Y-119200000D02*
X114312500Y-118550000D01*
X113712500Y-115200000D02*
X113712500Y-117212500D01*
X114312500Y-117812500D02*
X114312500Y-118550000D01*
X113712500Y-117212500D02*
X114312500Y-117812500D01*
X114237500Y-122875000D02*
X114237500Y-120762500D01*
X114312500Y-120687500D02*
X114312500Y-119850000D01*
X114237500Y-120762500D02*
X114312500Y-120687500D01*
D33*
%TO.N,+5VD*%
X116328000Y-94865000D02*
X116328000Y-102085000D01*
X120328000Y-110235000D02*
X120328000Y-108078000D01*
X116328000Y-104078000D02*
X116328000Y-102085000D01*
X120328000Y-108078000D02*
X116328000Y-104078000D01*
D32*
X134675000Y-108711000D02*
X135330000Y-109366000D01*
X135382000Y-110822000D02*
X135382000Y-112268000D01*
X135570000Y-112456000D02*
X135570000Y-113841000D01*
X135382000Y-112268000D02*
X135570000Y-112456000D01*
X135382000Y-109418000D02*
X134675000Y-108711000D01*
X135382000Y-110822000D02*
X135382000Y-109418000D01*
X123824000Y-108711000D02*
X134675000Y-108711000D01*
X123191000Y-108078000D02*
X123824000Y-108711000D01*
X120328000Y-108078000D02*
X123191000Y-108078000D01*
D33*
%TO.N,Net-(D1-Pad2)*%
X126875000Y-118000000D02*
X124950000Y-118000000D01*
X127375000Y-118500000D02*
X126875000Y-118000000D01*
X127375000Y-119875000D02*
X127375000Y-118500000D01*
X129875000Y-122375000D02*
X128937500Y-121437500D01*
X129875000Y-123875000D02*
X129875000Y-122375000D01*
X129750000Y-122250000D02*
X128937500Y-121437500D01*
X128937500Y-121437500D02*
X127375000Y-119875000D01*
%TO.N,Net-(D1-Pad1)*%
X120650000Y-122350000D02*
X120125000Y-122875000D01*
X120650000Y-118000000D02*
X120650000Y-122350000D01*
X120125000Y-122875000D02*
X118512500Y-122875000D01*
D32*
%TO.N,Net-(D2-Pad1)*%
X174498000Y-112895000D02*
X174498000Y-114265000D01*
X172600000Y-116163000D02*
X173281500Y-115481500D01*
X174498000Y-114265000D02*
X173281500Y-115481500D01*
X172600000Y-117489000D02*
X172600000Y-116163000D01*
%TO.N,Net-(D3-Pad1)*%
X174498000Y-107815000D02*
X174498000Y-109302000D01*
X173635000Y-110165000D02*
X172165000Y-110165000D01*
X172998000Y-110165000D02*
X172165000Y-110165000D01*
X174498000Y-109302000D02*
X173635000Y-110165000D01*
X170998000Y-110165000D02*
X172165000Y-110165000D01*
X169598000Y-111565000D02*
X170998000Y-110165000D01*
X171000000Y-117489000D02*
X171000000Y-116604000D01*
X171000000Y-117489000D02*
X171000000Y-115800000D01*
X169598000Y-114398000D02*
X169598000Y-114198000D01*
X171000000Y-115800000D02*
X169598000Y-114398000D01*
X169598000Y-114198000D02*
X169598000Y-111565000D01*
%TO.N,Net-(D4-Pad1)*%
X167998000Y-106165000D02*
X167998000Y-107365000D01*
X168798000Y-105365000D02*
X167998000Y-106165000D01*
X174498000Y-102735000D02*
X174498000Y-104102000D01*
X173235000Y-105365000D02*
X170765000Y-105365000D01*
X174498000Y-104102000D02*
X173235000Y-105365000D01*
X170765000Y-105365000D02*
X168798000Y-105365000D01*
%TO.N,/A2(SS)*%
X157000000Y-98325000D02*
X157000000Y-96500012D01*
X157000000Y-96500012D02*
X157000012Y-96500000D01*
X173035000Y-85625000D02*
X173580000Y-85080000D01*
X160000000Y-91000000D02*
X163250000Y-91000000D01*
X157000012Y-93999988D02*
X160000000Y-91000000D01*
X172250000Y-85625000D02*
X173035000Y-85625000D01*
X167500000Y-86750000D02*
X170377990Y-86750000D01*
X157000012Y-96500000D02*
X157000012Y-93999988D01*
X171124992Y-86750008D02*
X172250000Y-85625000D01*
X170377998Y-86750008D02*
X171124992Y-86750008D01*
X173580000Y-85080000D02*
X173580000Y-84387500D01*
X163250000Y-91000000D02*
X167500000Y-86750000D01*
X170377990Y-86750000D02*
X170377998Y-86750008D01*
%TO.N,/9(RPM2)*%
X144593000Y-87725000D02*
X144598000Y-87720000D01*
X144593000Y-88700000D02*
X144593000Y-87725000D01*
X144598000Y-87720000D02*
X144598000Y-87365000D01*
X144598000Y-87365000D02*
X145198000Y-86765000D01*
X145198000Y-86765000D02*
X146198000Y-86765000D01*
X147803000Y-88370000D02*
X149038000Y-88370000D01*
X146198000Y-86765000D02*
X147803000Y-88370000D01*
X149038000Y-88370000D02*
X150994992Y-88370000D01*
X150994992Y-88370000D02*
X150999992Y-88375000D01*
X149500000Y-97250000D02*
X149500000Y-98325000D01*
X148590000Y-96340000D02*
X149500000Y-97250000D01*
X148590000Y-91035000D02*
X148590000Y-96340000D01*
X149038000Y-90587000D02*
X148590000Y-91035000D01*
X149038000Y-88370000D02*
X149038000Y-90587000D01*
%TO.N,/8(TX)*%
X145875000Y-102875000D02*
X145875000Y-103000010D01*
X143325000Y-101500000D02*
X144500000Y-101500000D01*
X144500000Y-101500000D02*
X145875000Y-102875000D01*
X129032000Y-99343000D02*
X129032000Y-101522000D01*
X130331000Y-98044000D02*
X129032000Y-99343000D01*
X137414000Y-98044000D02*
X130331000Y-98044000D01*
X143325000Y-101500000D02*
X140870000Y-101500000D01*
X140870000Y-101500000D02*
X137414000Y-98044000D01*
%TO.N,/7(DE)*%
X142500000Y-101000000D02*
X143325000Y-101000000D01*
X142000000Y-101000000D02*
X142500000Y-101000000D01*
X130302000Y-101522000D02*
X130302000Y-99580000D01*
X131572000Y-101522000D02*
X131572000Y-99580000D01*
X141951000Y-101000000D02*
X141535000Y-100584000D01*
X142000000Y-101000000D02*
X141951000Y-101000000D01*
X141535000Y-100584000D02*
X140773000Y-99822000D01*
X146375000Y-102125000D02*
X147125000Y-102125000D01*
X146250000Y-102000000D02*
X146375000Y-102125000D01*
X145750000Y-102000000D02*
X146250000Y-102000000D01*
X144750000Y-101000000D02*
X145750000Y-102000000D01*
X143325000Y-101000000D02*
X144750000Y-101000000D01*
%TO.N,/6(RPM1)*%
X145863000Y-83750000D02*
X147213000Y-83750000D01*
X148153000Y-82810000D02*
X149038000Y-82810000D01*
X147213000Y-83750000D02*
X148153000Y-82810000D01*
X158724000Y-77750000D02*
X159258000Y-77216000D01*
X156481500Y-77750000D02*
X158724000Y-77750000D01*
X153740750Y-80490750D02*
X156481500Y-77750000D01*
X159258000Y-77216000D02*
X159258000Y-75565000D01*
X153740750Y-82115750D02*
X153740750Y-80490750D01*
X155375000Y-83750000D02*
X153740750Y-82115750D01*
X150000000Y-98325000D02*
X150000000Y-97073002D01*
X152185000Y-89750000D02*
X155375000Y-86560000D01*
X150000000Y-97073002D02*
X149098000Y-96171002D01*
X150750000Y-89750000D02*
X152185000Y-89750000D01*
X155375000Y-86560000D02*
X155375000Y-83750000D01*
X149098000Y-96171002D02*
X149098000Y-91402000D01*
X149098000Y-91402000D02*
X150750000Y-89750000D01*
X149038000Y-82810000D02*
X150565000Y-82810000D01*
X152884250Y-80490750D02*
X153134250Y-80490750D01*
X150565000Y-82810000D02*
X152884250Y-80490750D01*
X153134250Y-80490750D02*
X153740750Y-80490750D01*
%TO.N,/5(MISO)*%
X155000000Y-99500000D02*
X155028000Y-99528000D01*
X155000000Y-98325000D02*
X155000000Y-99500000D01*
X155000000Y-99500000D02*
X155250000Y-99750000D01*
X155250000Y-99750000D02*
X155750000Y-99750000D01*
X155750000Y-99750000D02*
X156000000Y-99500000D01*
X173580000Y-81795000D02*
X173580000Y-81545000D01*
X166375000Y-82375000D02*
X165750000Y-81750000D01*
X155000000Y-98325000D02*
X155000000Y-94500000D01*
X155000000Y-94500000D02*
X159543205Y-89956795D01*
X166375000Y-86375000D02*
X166375000Y-82375000D01*
X159543205Y-89956795D02*
X162793205Y-89956795D01*
X162793205Y-89956795D02*
X166375000Y-86375000D01*
X172875000Y-80823002D02*
X172875000Y-79500000D01*
X173580000Y-81795000D02*
X173580000Y-81528002D01*
X173580000Y-81528002D02*
X172875000Y-80823002D01*
X172875000Y-79500000D02*
X172875000Y-79125000D01*
X172875000Y-79125000D02*
X172580805Y-78830805D01*
X167000000Y-78125000D02*
X165750000Y-79375000D01*
X165750000Y-79375000D02*
X165750000Y-81750000D01*
X171875000Y-78125000D02*
X172875000Y-79125000D01*
X170250000Y-78125000D02*
X167000000Y-78125000D01*
X171000000Y-78125000D02*
X170250000Y-78125000D01*
X170500000Y-78125000D02*
X170250000Y-78125000D01*
X171000000Y-78125000D02*
X171875000Y-78125000D01*
X170750000Y-78125000D02*
X171000000Y-78125000D01*
X173580000Y-82214000D02*
X173580000Y-81955000D01*
X173580000Y-82862500D02*
X173580000Y-81955000D01*
X173580000Y-81955000D02*
X173580000Y-81795000D01*
X156000000Y-99500000D02*
X156000000Y-98325000D01*
%TO.N,/4(MOSI)*%
X155500000Y-97500000D02*
X155500000Y-97250000D01*
X155500000Y-98325000D02*
X155500000Y-97500000D01*
X155524990Y-97475010D02*
X155500000Y-97500000D01*
X161500000Y-90500000D02*
X160875000Y-90500000D01*
X163000000Y-90500000D02*
X160875000Y-90500000D01*
X166924991Y-86575009D02*
X163000000Y-90500000D01*
X166924991Y-81049991D02*
X166875000Y-81000000D01*
X166924991Y-81200009D02*
X166924991Y-81049991D01*
X166924991Y-81200009D02*
X166924991Y-86575009D01*
X155500000Y-98325000D02*
X155500000Y-94750000D01*
X159750000Y-90500000D02*
X160875000Y-90500000D01*
X155500000Y-94750000D02*
X159750000Y-90500000D01*
X166924991Y-79075009D02*
X166924991Y-81200009D01*
X167250000Y-78750000D02*
X166924991Y-79075009D01*
X172375000Y-81125000D02*
X172375000Y-79375000D01*
X173080000Y-82862500D02*
X173080000Y-81830000D01*
X172375000Y-79375000D02*
X171750000Y-78750000D01*
X173080000Y-81830000D02*
X172375000Y-81125000D01*
X171750000Y-78750000D02*
X167250000Y-78750000D01*
%TO.N,/3(SCK)*%
X156500000Y-98325000D02*
X156500000Y-99250000D01*
X156818000Y-99568000D02*
X157182000Y-99568000D01*
X156874000Y-99568000D02*
X157182000Y-99568000D01*
X156500000Y-99250000D02*
X156818000Y-99568000D01*
X167875000Y-87375000D02*
X168000000Y-87375000D01*
X163500000Y-91500000D02*
X167625000Y-87375000D01*
X157432000Y-99568000D02*
X157875000Y-99125000D01*
X157182000Y-99568000D02*
X157432000Y-99568000D01*
X167625000Y-87375000D02*
X168000000Y-87375000D01*
X157875000Y-99125000D02*
X157875000Y-93886410D01*
X157875000Y-93886410D02*
X160261410Y-91500000D01*
X160261410Y-91500000D02*
X163500000Y-91500000D01*
X168000000Y-87375000D02*
X174272004Y-87375000D01*
X174272004Y-87375000D02*
X174900002Y-86747002D01*
X174399000Y-81024012D02*
X173874995Y-80500007D01*
X174375000Y-83375000D02*
X174399000Y-83351000D01*
X174399000Y-83351000D02*
X174399000Y-81024012D01*
X173592500Y-83375000D02*
X174125000Y-83375000D01*
X174125000Y-83375000D02*
X174375000Y-83375000D01*
X174900002Y-83900002D02*
X174900002Y-84650002D01*
X174375000Y-83375000D02*
X174900002Y-83900002D01*
X174900002Y-86747002D02*
X174900002Y-84650002D01*
X174900002Y-84650002D02*
X174900002Y-84328002D01*
%TO.N,/2(RX)*%
X169418000Y-75565000D02*
X169418000Y-75832000D01*
X159000000Y-78500000D02*
X158375000Y-78500000D01*
X167750000Y-77375000D02*
X169418000Y-75707000D01*
X164500000Y-77375000D02*
X167750000Y-77375000D01*
X169418000Y-75707000D02*
X169418000Y-75565000D01*
X163375000Y-78500000D02*
X164500000Y-77375000D01*
X158375000Y-78500000D02*
X163375000Y-78500000D01*
X154875000Y-81469000D02*
X155448000Y-82042000D01*
X154875000Y-80500000D02*
X154875000Y-81469000D01*
X158375000Y-78500000D02*
X156875000Y-78500000D01*
X156875000Y-78500000D02*
X154875000Y-80500000D01*
X144238580Y-102000000D02*
X143325000Y-102000000D01*
X148250000Y-103000000D02*
X147349999Y-103900001D01*
X144920351Y-103545351D02*
X144920351Y-102681771D01*
X144920351Y-102681771D02*
X144238580Y-102000000D01*
X147349999Y-103900001D02*
X145275001Y-103900001D01*
X145275001Y-103900001D02*
X144920351Y-103545351D01*
X132842000Y-99408000D02*
X132842000Y-101522000D01*
X133571000Y-98679000D02*
X132842000Y-99408000D01*
X143325000Y-102000000D02*
X140481000Y-102000000D01*
X137160000Y-98679000D02*
X133571000Y-98679000D01*
X140481000Y-102000000D02*
X137160000Y-98679000D01*
%TO.N,Net-(R5-Pad2)*%
X127533000Y-84205000D02*
X125330000Y-84205000D01*
X124250000Y-83125000D02*
X124250000Y-81250000D01*
X125330000Y-84205000D02*
X124250000Y-83125000D01*
%TO.N,Net-(R6-Pad2)*%
X127533000Y-90555000D02*
X125555000Y-90555000D01*
X124125000Y-89125000D02*
X124125000Y-87250000D01*
X125555000Y-90555000D02*
X124125000Y-89125000D01*
%TO.N,Net-(R7-Pad2)*%
X144523000Y-83680000D02*
X144593000Y-83750000D01*
X144593000Y-81235000D02*
X144523000Y-81165000D01*
X144593000Y-83750000D02*
X144593000Y-81235000D01*
X139165000Y-81665000D02*
X137063000Y-81665000D01*
X139665000Y-81165000D02*
X139165000Y-81665000D01*
X144523000Y-81165000D02*
X139665000Y-81165000D01*
%TO.N,Net-(R8-Pad1)*%
X143323000Y-90040000D02*
X143323000Y-88700000D01*
X138798000Y-88923000D02*
X140240000Y-90365000D01*
X138798000Y-88365000D02*
X138798000Y-88923000D01*
X137063000Y-88015000D02*
X138448000Y-88015000D01*
X138448000Y-88015000D02*
X138798000Y-88365000D01*
X142998000Y-90365000D02*
X143119000Y-90244000D01*
X143119000Y-90244000D02*
X143323000Y-90040000D01*
X140250000Y-90375000D02*
X140240000Y-90365000D01*
X140625000Y-91365000D02*
X140625000Y-90375000D01*
X140625000Y-90375000D02*
X140250000Y-90375000D01*
X142988000Y-90375000D02*
X143119000Y-90244000D01*
X140625000Y-90375000D02*
X142988000Y-90375000D01*
%TO.N,Net-(R10-Pad1)*%
X141083000Y-88700000D02*
X142053000Y-88700000D01*
X151068000Y-86620000D02*
X151123000Y-86565000D01*
X149038000Y-86620000D02*
X151068000Y-86620000D01*
X148893000Y-86765000D02*
X149038000Y-86620000D01*
X142053000Y-88700000D02*
X142053000Y-87510000D01*
X147598000Y-86765000D02*
X148893000Y-86765000D01*
X142053000Y-87510000D02*
X143398000Y-86165000D01*
X146998000Y-86165000D02*
X147598000Y-86765000D01*
X143398000Y-86165000D02*
X146998000Y-86165000D01*
X141008000Y-88625000D02*
X141083000Y-88700000D01*
X140250000Y-88625000D02*
X141008000Y-88625000D01*
%TO.N,Net-(R11-Pad2)*%
X151118000Y-84560000D02*
X151123000Y-84565000D01*
X149038000Y-84560000D02*
X151118000Y-84560000D01*
X143323000Y-82490000D02*
X143323000Y-83750000D01*
X142798000Y-81965000D02*
X143323000Y-82490000D01*
X148003000Y-84560000D02*
X149038000Y-84560000D01*
X146998000Y-85565000D02*
X148003000Y-84560000D01*
X143798000Y-85565000D02*
X146998000Y-85565000D01*
X143323000Y-85090000D02*
X143798000Y-85565000D01*
X143323000Y-83750000D02*
X143323000Y-85090000D01*
X140938000Y-82625000D02*
X140969000Y-82594000D01*
X140250000Y-82625000D02*
X140938000Y-82625000D01*
X140969000Y-82594000D02*
X141086000Y-82594000D01*
X141086000Y-82594000D02*
X141715000Y-81965000D01*
X141715000Y-81965000D02*
X142798000Y-81965000D01*
%TO.N,/B*%
X131732000Y-114976000D02*
X131732000Y-115857000D01*
X132290000Y-116415000D02*
X132062500Y-116187500D01*
X132062500Y-116187500D02*
X132207000Y-116332000D01*
X132415000Y-116540000D02*
X131937500Y-116062500D01*
X132415000Y-117602000D02*
X132415000Y-116540000D01*
X131732000Y-115857000D02*
X131937500Y-116062500D01*
X131937500Y-116062500D02*
X132062500Y-116187500D01*
%TO.N,/A*%
X130107000Y-114976000D02*
X130107000Y-115892000D01*
X129875000Y-116124000D02*
X129999500Y-115999500D01*
X129875000Y-117602000D02*
X129875000Y-116124000D01*
X130107000Y-115892000D02*
X129999500Y-115999500D01*
X129999500Y-115999500D02*
X129937000Y-116062000D01*
%TO.N,Net-(U11-Pad2)*%
X168425000Y-91975000D02*
X168425000Y-89775000D01*
X173748000Y-96115000D02*
X172948000Y-96115000D01*
X173998000Y-95865000D02*
X173748000Y-96115000D01*
X173998000Y-95248000D02*
X173998000Y-95865000D01*
X177248000Y-97115000D02*
X178284410Y-97115000D01*
X178284410Y-97115000D02*
X178848010Y-96551400D01*
X176750000Y-94250000D02*
X176375000Y-93875000D01*
X178848010Y-94848010D02*
X178250000Y-94250000D01*
X178250000Y-94250000D02*
X176750000Y-94250000D01*
X176375000Y-93852998D02*
X175772002Y-93250000D01*
X176375000Y-93875000D02*
X176375000Y-93852998D01*
X173250000Y-94500000D02*
X173998000Y-95248000D01*
X178848010Y-96551400D02*
X178848010Y-94848010D01*
X173250000Y-93625000D02*
X173250000Y-94500000D01*
X173625000Y-93250000D02*
X173250000Y-93625000D01*
X174125000Y-93250000D02*
X173625000Y-93250000D01*
X175772002Y-93250000D02*
X174250000Y-93250000D01*
X174250000Y-93250000D02*
X174125000Y-93250000D01*
X168425000Y-89075000D02*
X168750000Y-88750000D01*
X168425000Y-89775000D02*
X168425000Y-89075000D01*
X168750000Y-88750000D02*
X173750000Y-88750000D01*
X173750000Y-88750000D02*
X174250000Y-89250000D01*
X174250000Y-93125000D02*
X174250000Y-93250000D01*
X174250000Y-89250000D02*
X174250000Y-93125000D01*
%TO.N,GNDD*%
X117788000Y-110235000D02*
X117788000Y-110755000D01*
X126440000Y-109306000D02*
X126455000Y-109291000D01*
D33*
X113788000Y-94865000D02*
X113788000Y-102085000D01*
X117788000Y-110235000D02*
X117788000Y-107913000D01*
X113788000Y-103913000D02*
X113788000Y-102085000D01*
X117788000Y-107913000D02*
X113788000Y-103913000D01*
D32*
X117788000Y-110235000D02*
X117788000Y-111462000D01*
X117788000Y-112337000D02*
X117760000Y-112365000D01*
X116087500Y-119850000D02*
X116087500Y-119200000D01*
X116087500Y-119200000D02*
X116087500Y-118550000D01*
X116087500Y-118550000D02*
X116087500Y-117787500D01*
X116687500Y-117187500D02*
X116687500Y-115200000D01*
X116087500Y-117787500D02*
X116687500Y-117187500D01*
D33*
X117788000Y-111962000D02*
X117788000Y-110235000D01*
X116687500Y-115200000D02*
X116687500Y-113062500D01*
X116687500Y-113062500D02*
X117788000Y-111962000D01*
D32*
X126492000Y-109328000D02*
X126455000Y-109291000D01*
X126492000Y-110871000D02*
X126492000Y-109328000D01*
X134112000Y-110822000D02*
X134112000Y-112268000D01*
X133820000Y-112560000D02*
X133820000Y-113841000D01*
X134112000Y-112268000D02*
X133820000Y-112560000D01*
X126455000Y-109291000D02*
X127056000Y-109291000D01*
X127056000Y-109291000D02*
X133855000Y-109291000D01*
X134112000Y-109548000D02*
X133855000Y-109291000D01*
X134112000Y-110822000D02*
X134112000Y-109548000D01*
X127056000Y-109291000D02*
X123754000Y-109291000D01*
X118451000Y-112625000D02*
X117788000Y-111962000D01*
X123754000Y-109291000D02*
X123063000Y-109982000D01*
X123063000Y-111506000D02*
X121944000Y-112625000D01*
X123063000Y-109982000D02*
X123063000Y-111506000D01*
X121944000Y-112625000D02*
X118451000Y-112625000D01*
X133820000Y-116195000D02*
X133820000Y-116445000D01*
X133820000Y-116467000D02*
X133820000Y-115930000D01*
X133820000Y-113841000D02*
X133820000Y-115930000D01*
X134955000Y-117602000D02*
X133820000Y-116467000D01*
X133820000Y-115930000D02*
X133820000Y-116195000D01*
X115200000Y-119200000D02*
X115200000Y-117800000D01*
X115200000Y-117800000D02*
X115250000Y-117750000D01*
X115250000Y-117750000D02*
X116250000Y-117750000D01*
X115200000Y-119200000D02*
X115200000Y-120325000D01*
X115200000Y-120325000D02*
X115375000Y-120500000D01*
X115375000Y-120500000D02*
X116125000Y-120500000D01*
%TO.N,Net-(C8-Pad1)*%
X162625000Y-119875000D02*
X161875000Y-119875000D01*
X161750000Y-119875000D02*
X162625000Y-119875000D01*
X160875000Y-119875000D02*
X161875000Y-119875000D01*
X160700000Y-119700000D02*
X160875000Y-119875000D01*
X159600000Y-119700000D02*
X160700000Y-119700000D01*
X172600000Y-120200000D02*
X172600000Y-119239000D01*
X172176999Y-120623001D02*
X172600000Y-120200000D01*
X162625000Y-119875000D02*
X162875000Y-119875000D01*
X164000000Y-121000000D02*
X167750000Y-121000000D01*
X168126999Y-120623001D02*
X172176999Y-120623001D01*
X162875000Y-119875000D02*
X164000000Y-121000000D01*
X167750000Y-121000000D02*
X168126999Y-120623001D01*
%TO.N,Net-(C9-Pad1)*%
X169418000Y-119239000D02*
X170942000Y-119239000D01*
X168274000Y-119239000D02*
X168273000Y-119240000D01*
X169418000Y-119239000D02*
X168274000Y-119239000D01*
X167983000Y-118950000D02*
X168016500Y-118983500D01*
X167098000Y-118950000D02*
X167983000Y-118950000D01*
X168016500Y-118983500D02*
X168273000Y-119240000D01*
%TO.N,Net-(C10-Pad1)*%
X168723000Y-115240000D02*
X167998000Y-115240000D01*
X168998000Y-111965000D02*
X168998000Y-114965000D01*
X167998000Y-109115000D02*
X167998000Y-110965000D01*
X168998000Y-114965000D02*
X168723000Y-115240000D01*
X167998000Y-110965000D02*
X168998000Y-111965000D01*
X166098000Y-114815000D02*
X166848000Y-114815000D01*
X167273000Y-115240000D02*
X167998000Y-115240000D01*
X166848000Y-114815000D02*
X167273000Y-115240000D01*
%TO.N,/nEX*%
X177038000Y-102735000D02*
X177038000Y-107815000D01*
X177038000Y-112895000D02*
X177038000Y-107815000D01*
X177248000Y-96115000D02*
X176385000Y-96115000D01*
X177538000Y-101105000D02*
X177538000Y-102735000D01*
X176250000Y-96250000D02*
X176250000Y-99617000D01*
X176250000Y-99617000D02*
X177538000Y-100905000D01*
X176385000Y-96115000D02*
X176250000Y-96250000D01*
X177538000Y-100905000D02*
X177538000Y-101105000D01*
%TO.N,/EX*%
X173884410Y-96615000D02*
X174750000Y-95749410D01*
X172948000Y-96615000D02*
X173884410Y-96615000D01*
X174750000Y-95749410D02*
X174750000Y-94500000D01*
X174750000Y-94250000D02*
X174875000Y-94125000D01*
X174750000Y-95749410D02*
X174750000Y-94250000D01*
D34*
X175500000Y-94125000D02*
X174875000Y-94125000D01*
X174875000Y-94125000D02*
X174125000Y-94125000D01*
D32*
%TO.N,Net-(C15-Pad2)*%
X149548000Y-119465000D02*
X149398000Y-119465000D01*
X150448000Y-119315000D02*
X150448000Y-118165000D01*
X150298000Y-119465000D02*
X150448000Y-119315000D01*
X149348000Y-119465000D02*
X150298000Y-119465000D01*
X150448000Y-118165000D02*
X150448000Y-118565000D01*
X149323000Y-119490000D02*
X149348000Y-119465000D01*
X146998000Y-119490000D02*
X149323000Y-119490000D01*
X150448000Y-116565000D02*
X150448000Y-118165000D01*
X150500000Y-116500000D02*
X150448000Y-116552000D01*
X150448000Y-116552000D02*
X150448000Y-116565000D01*
X150500000Y-113675000D02*
X150500000Y-116500000D01*
%TO.N,Net-(C16-Pad2)*%
X151373000Y-117740000D02*
X151348000Y-117765000D01*
X153748000Y-117740000D02*
X151373000Y-117740000D01*
X151548000Y-116665000D02*
X151548000Y-117765000D01*
X151000000Y-116117000D02*
X151548000Y-116665000D01*
X151000000Y-113675000D02*
X151000000Y-116117000D01*
%TO.N,Net-(C17-Pad1)*%
X162873000Y-108865000D02*
X162873000Y-107365000D01*
X158675000Y-107000000D02*
X160000000Y-107000000D01*
X160250000Y-107000000D02*
X160000000Y-107000000D01*
X162873000Y-107615000D02*
X161865000Y-107615000D01*
X161250000Y-107000000D02*
X160250000Y-107000000D01*
X161865000Y-107615000D02*
X161250000Y-107000000D01*
X158675000Y-107000000D02*
X157750000Y-107000000D01*
X156750000Y-106000000D02*
X156750000Y-105000000D01*
X156750000Y-105000000D02*
X156750000Y-103875000D01*
X172000000Y-92875000D02*
X172125000Y-92875000D01*
X172000000Y-92875000D02*
X172750000Y-92875000D01*
X173375000Y-92250000D02*
X173375000Y-91500000D01*
X172750000Y-92875000D02*
X173375000Y-92250000D01*
X172000000Y-91500000D02*
X172000000Y-92875000D01*
X157375000Y-106625000D02*
X157125000Y-106625000D01*
X157750000Y-107000000D02*
X157375000Y-106625000D01*
X156750000Y-106250000D02*
X157125000Y-106625000D01*
X156750000Y-106125000D02*
X156750000Y-106250000D01*
%TO.N,Net-(C20-Pad1)*%
X162873000Y-104365000D02*
X162873000Y-105865000D01*
X162873000Y-102865000D02*
X162873000Y-104365000D01*
X162873000Y-105865000D02*
X161885000Y-105865000D01*
X161250000Y-106500000D02*
X158675000Y-106500000D01*
X161885000Y-105865000D02*
X161250000Y-106500000D01*
%TO.N,/SensorBoardCPU/SWCLK*%
X158448000Y-84582000D02*
X156418006Y-84582000D01*
X148375002Y-101250000D02*
X150000000Y-102874998D01*
X145698911Y-101250000D02*
X148375002Y-101250000D01*
X143325000Y-100500000D02*
X144948911Y-100500000D01*
X144948911Y-100500000D02*
X145698911Y-101250000D01*
%TO.N,/SensorBoardCPU/SWDIO*%
X158448000Y-85852000D02*
X156210000Y-85852000D01*
X147865000Y-100750000D02*
X147500000Y-100750000D01*
X145250000Y-100000000D02*
X143325000Y-100000000D01*
X147500000Y-100750000D02*
X146000000Y-100750000D01*
X147500000Y-100750000D02*
X148500000Y-100750000D01*
X148500000Y-100750000D02*
X148750000Y-100750000D01*
X149125000Y-100750000D02*
X150000000Y-101625000D01*
X148500000Y-100750000D02*
X149125000Y-100750000D01*
X146000000Y-100750000D02*
X145250000Y-100000000D01*
%TO.N,/RVCC*%
X125260000Y-92885000D02*
X125250000Y-92875000D01*
X128790000Y-81665000D02*
X127533000Y-81665000D01*
X129500000Y-82375000D02*
X128790000Y-81665000D01*
X129360000Y-88015000D02*
X129500000Y-87875000D01*
X127533000Y-88015000D02*
X129360000Y-88015000D01*
X129500000Y-87875000D02*
X129500000Y-82375000D01*
X121408000Y-94865000D02*
X121408000Y-93342000D01*
X125250000Y-92875000D02*
X128625000Y-92875000D01*
X128625000Y-92875000D02*
X129500000Y-92000000D01*
X129500000Y-92000000D02*
X129500000Y-87875000D01*
D33*
X116460000Y-86460000D02*
X116460000Y-84250000D01*
X121408000Y-91408000D02*
X116460000Y-86460000D01*
D32*
X121441000Y-92875000D02*
X121408000Y-92842000D01*
X122500000Y-92875000D02*
X121441000Y-92875000D01*
X121875000Y-92875000D02*
X122500000Y-92875000D01*
X122500000Y-92875000D02*
X125250000Y-92875000D01*
D33*
X121408000Y-94865000D02*
X121408000Y-92842000D01*
X121408000Y-92842000D02*
X121408000Y-91408000D01*
X116460000Y-78125000D02*
X116460000Y-84250000D01*
D32*
%TO.N,Net-(J5-Pad1)*%
X119000000Y-78125000D02*
X121000000Y-78125000D01*
X122200000Y-79325000D02*
X122200000Y-81250000D01*
X121000000Y-78125000D02*
X122200000Y-79325000D01*
%TO.N,Net-(J6-Pad1)*%
X119000000Y-84250000D02*
X121000000Y-84250000D01*
X122075000Y-85325000D02*
X122075000Y-87250000D01*
X121000000Y-84250000D02*
X122075000Y-85325000D01*
%TO.N,Net-(R1-Pad1)*%
X130302000Y-110822000D02*
X130302000Y-112141000D01*
X130107000Y-112336000D02*
X130107000Y-113226000D01*
X130302000Y-112141000D02*
X130107000Y-112336000D01*
%TO.N,Net-(R15-Pad1)*%
X131572000Y-110822000D02*
X131572000Y-112141000D01*
X131732000Y-112301000D02*
X131732000Y-113226000D01*
X131572000Y-112141000D02*
X131732000Y-112301000D01*
%TO.N,Net-(D6-Pad3)*%
X156564950Y-89127950D02*
X157300900Y-88392000D01*
X157554900Y-88138000D02*
X156564950Y-89127950D01*
X159232500Y-88138000D02*
X157554900Y-88138000D01*
%TO.N,Net-(D6-Pad2)*%
X154090076Y-91602824D02*
X153162000Y-92530900D01*
X153162000Y-92530900D02*
X153162000Y-93573500D01*
%TO.N,Net-(D6-Pad1)*%
X151638000Y-92075000D02*
X151638000Y-93573500D01*
X153100126Y-90612874D02*
X151638000Y-92075000D01*
%TO.N,/SensorBoardCPU/B*%
X158242000Y-89281000D02*
X154178000Y-93345000D01*
X160807500Y-88874500D02*
X160655000Y-89027000D01*
X158623000Y-89027000D02*
X158369000Y-89281000D01*
X160807500Y-88138000D02*
X160807500Y-88874500D01*
X160655000Y-89027000D02*
X158623000Y-89027000D01*
X154178000Y-93345000D02*
X154178000Y-94615000D01*
X158369000Y-89281000D02*
X158242000Y-89281000D01*
X153000000Y-98325000D02*
X153000000Y-96809000D01*
X154178000Y-95631000D02*
X154178000Y-94615000D01*
X153000000Y-96809000D02*
X154178000Y-95631000D01*
%TO.N,/SensorBoardCPU/G*%
X153162000Y-95148500D02*
X153162000Y-95885000D01*
X152500000Y-96547000D02*
X152500000Y-98325000D01*
X153162000Y-95885000D02*
X152500000Y-96547000D01*
%TO.N,/SensorBoardCPU/R*%
X151638000Y-95148500D02*
X151638000Y-95763000D01*
X152000000Y-96125000D02*
X152000000Y-97000000D01*
X151638000Y-95763000D02*
X152000000Y-96125000D01*
X152000000Y-97000000D02*
X152000000Y-98325000D01*
%TO.N,Net-(R19-Pad2)*%
X143325000Y-109500000D02*
X142250000Y-109500000D01*
X142037500Y-109712500D02*
X141250000Y-109712500D01*
X142250000Y-109500000D02*
X142037500Y-109712500D01*
%TD*%
D35*
%TO.N,GNDD*%
G36*
X118524459Y-112534403D02*
G01*
X118401527Y-120525000D01*
X115350000Y-120525000D01*
X115350000Y-120350000D01*
X115354002Y-120350000D01*
X115354002Y-120262502D01*
X115441500Y-120350000D01*
X115700000Y-120351694D01*
X115718538Y-120349868D01*
X115765413Y-120374923D01*
X115831388Y-120394936D01*
X115900000Y-120401694D01*
X115912500Y-120400000D01*
X116000000Y-120312500D01*
X116000000Y-120181215D01*
X116024923Y-120134587D01*
X116044936Y-120068612D01*
X116051694Y-120000000D01*
X116051543Y-119950000D01*
X116175000Y-119950000D01*
X116175000Y-120312500D01*
X116262500Y-120400000D01*
X116275000Y-120401694D01*
X116343612Y-120394936D01*
X116409587Y-120374923D01*
X116470391Y-120342423D01*
X116523685Y-120298685D01*
X116567423Y-120245391D01*
X116599923Y-120184587D01*
X116619936Y-120118612D01*
X116626694Y-120050000D01*
X116625000Y-120037500D01*
X116537500Y-119950000D01*
X116175000Y-119950000D01*
X116051543Y-119950000D01*
X116050000Y-119441500D01*
X116000000Y-119391500D01*
X116000000Y-119300000D01*
X116175000Y-119300000D01*
X116175000Y-119750000D01*
X116262500Y-119750000D01*
X116275000Y-119751694D01*
X116292199Y-119750000D01*
X116537500Y-119750000D01*
X116625000Y-119662500D01*
X116626694Y-119650000D01*
X116619936Y-119581388D01*
X116602831Y-119525000D01*
X116619936Y-119468612D01*
X116626694Y-119400000D01*
X116625000Y-119387500D01*
X116537500Y-119300000D01*
X116292199Y-119300000D01*
X116275000Y-119298306D01*
X116262500Y-119300000D01*
X116175000Y-119300000D01*
X116000000Y-119300000D01*
X115912500Y-119300000D01*
X115900000Y-119298306D01*
X115882801Y-119300000D01*
X115637500Y-119300000D01*
X115583500Y-119354000D01*
X115354000Y-119354000D01*
X115354000Y-119374000D01*
X115350000Y-119374000D01*
X115350000Y-119026000D01*
X115354000Y-119026000D01*
X115354000Y-119046000D01*
X115583500Y-119046000D01*
X115637500Y-119100000D01*
X115882801Y-119100000D01*
X115900000Y-119101694D01*
X115912500Y-119100000D01*
X116000000Y-119100000D01*
X116000000Y-119008500D01*
X116050000Y-118958500D01*
X116050935Y-118650000D01*
X116175000Y-118650000D01*
X116175000Y-119100000D01*
X116262500Y-119100000D01*
X116275000Y-119101694D01*
X116292199Y-119100000D01*
X116537500Y-119100000D01*
X116625000Y-119012500D01*
X116626694Y-119000000D01*
X116619936Y-118931388D01*
X116602831Y-118875000D01*
X116619936Y-118818612D01*
X116626694Y-118750000D01*
X116625000Y-118737500D01*
X116537500Y-118650000D01*
X116292199Y-118650000D01*
X116275000Y-118648306D01*
X116262500Y-118650000D01*
X116175000Y-118650000D01*
X116050935Y-118650000D01*
X116051694Y-118400000D01*
X116044936Y-118331388D01*
X116024923Y-118265413D01*
X116000000Y-118218785D01*
X116000000Y-118087500D01*
X116175000Y-118087500D01*
X116175000Y-118450000D01*
X116537500Y-118450000D01*
X116625000Y-118362500D01*
X116626694Y-118350000D01*
X116619936Y-118281388D01*
X116599923Y-118215413D01*
X116567423Y-118154609D01*
X116523685Y-118101315D01*
X116470391Y-118057577D01*
X116409587Y-118025077D01*
X116343612Y-118005064D01*
X116275000Y-117998306D01*
X116262500Y-118000000D01*
X116175000Y-118087500D01*
X116000000Y-118087500D01*
X115912500Y-118000000D01*
X115900000Y-117998306D01*
X115831388Y-118005064D01*
X115765413Y-118025077D01*
X115718538Y-118050132D01*
X115700000Y-118048306D01*
X115441500Y-118050000D01*
X115354002Y-118137498D01*
X115354002Y-118050000D01*
X115350000Y-118050000D01*
X115350000Y-117725000D01*
X116000000Y-117725000D01*
X116019509Y-117723079D01*
X116038268Y-117717388D01*
X116055557Y-117708147D01*
X116070711Y-117695711D01*
X116083147Y-117680557D01*
X116092388Y-117663268D01*
X116098079Y-117644509D01*
X116100000Y-117625000D01*
X116100000Y-116876244D01*
X116446000Y-116875000D01*
X116533500Y-116787500D01*
X116533500Y-115354000D01*
X116841500Y-115354000D01*
X116841500Y-116787500D01*
X116929000Y-116875000D01*
X117400000Y-116876694D01*
X117468612Y-116869936D01*
X117534587Y-116849923D01*
X117595391Y-116817423D01*
X117648685Y-116773685D01*
X117692423Y-116720391D01*
X117724923Y-116659587D01*
X117744936Y-116593612D01*
X117751694Y-116525000D01*
X117750000Y-115441500D01*
X117662500Y-115354000D01*
X116841500Y-115354000D01*
X116533500Y-115354000D01*
X116513500Y-115354000D01*
X116513500Y-115046000D01*
X116533500Y-115046000D01*
X116533500Y-113612500D01*
X116841500Y-113612500D01*
X116841500Y-115046000D01*
X117662500Y-115046000D01*
X117750000Y-114958500D01*
X117751694Y-113875000D01*
X117744936Y-113806388D01*
X117724923Y-113740413D01*
X117692423Y-113679609D01*
X117648685Y-113626315D01*
X117595391Y-113582577D01*
X117534587Y-113550077D01*
X117468612Y-113530064D01*
X117400000Y-113523306D01*
X116929000Y-113525000D01*
X116841500Y-113612500D01*
X116533500Y-113612500D01*
X116446000Y-113525000D01*
X116100000Y-113523756D01*
X116100000Y-113169237D01*
X117413660Y-111975000D01*
X118076937Y-111975000D01*
X118524459Y-112534403D01*
G37*
X118524459Y-112534403D02*
X118401527Y-120525000D01*
X115350000Y-120525000D01*
X115350000Y-120350000D01*
X115354002Y-120350000D01*
X115354002Y-120262502D01*
X115441500Y-120350000D01*
X115700000Y-120351694D01*
X115718538Y-120349868D01*
X115765413Y-120374923D01*
X115831388Y-120394936D01*
X115900000Y-120401694D01*
X115912500Y-120400000D01*
X116000000Y-120312500D01*
X116000000Y-120181215D01*
X116024923Y-120134587D01*
X116044936Y-120068612D01*
X116051694Y-120000000D01*
X116051543Y-119950000D01*
X116175000Y-119950000D01*
X116175000Y-120312500D01*
X116262500Y-120400000D01*
X116275000Y-120401694D01*
X116343612Y-120394936D01*
X116409587Y-120374923D01*
X116470391Y-120342423D01*
X116523685Y-120298685D01*
X116567423Y-120245391D01*
X116599923Y-120184587D01*
X116619936Y-120118612D01*
X116626694Y-120050000D01*
X116625000Y-120037500D01*
X116537500Y-119950000D01*
X116175000Y-119950000D01*
X116051543Y-119950000D01*
X116050000Y-119441500D01*
X116000000Y-119391500D01*
X116000000Y-119300000D01*
X116175000Y-119300000D01*
X116175000Y-119750000D01*
X116262500Y-119750000D01*
X116275000Y-119751694D01*
X116292199Y-119750000D01*
X116537500Y-119750000D01*
X116625000Y-119662500D01*
X116626694Y-119650000D01*
X116619936Y-119581388D01*
X116602831Y-119525000D01*
X116619936Y-119468612D01*
X116626694Y-119400000D01*
X116625000Y-119387500D01*
X116537500Y-119300000D01*
X116292199Y-119300000D01*
X116275000Y-119298306D01*
X116262500Y-119300000D01*
X116175000Y-119300000D01*
X116000000Y-119300000D01*
X115912500Y-119300000D01*
X115900000Y-119298306D01*
X115882801Y-119300000D01*
X115637500Y-119300000D01*
X115583500Y-119354000D01*
X115354000Y-119354000D01*
X115354000Y-119374000D01*
X115350000Y-119374000D01*
X115350000Y-119026000D01*
X115354000Y-119026000D01*
X115354000Y-119046000D01*
X115583500Y-119046000D01*
X115637500Y-119100000D01*
X115882801Y-119100000D01*
X115900000Y-119101694D01*
X115912500Y-119100000D01*
X116000000Y-119100000D01*
X116000000Y-119008500D01*
X116050000Y-118958500D01*
X116050935Y-118650000D01*
X116175000Y-118650000D01*
X116175000Y-119100000D01*
X116262500Y-119100000D01*
X116275000Y-119101694D01*
X116292199Y-119100000D01*
X116537500Y-119100000D01*
X116625000Y-119012500D01*
X116626694Y-119000000D01*
X116619936Y-118931388D01*
X116602831Y-118875000D01*
X116619936Y-118818612D01*
X116626694Y-118750000D01*
X116625000Y-118737500D01*
X116537500Y-118650000D01*
X116292199Y-118650000D01*
X116275000Y-118648306D01*
X116262500Y-118650000D01*
X116175000Y-118650000D01*
X116050935Y-118650000D01*
X116051694Y-118400000D01*
X116044936Y-118331388D01*
X116024923Y-118265413D01*
X116000000Y-118218785D01*
X116000000Y-118087500D01*
X116175000Y-118087500D01*
X116175000Y-118450000D01*
X116537500Y-118450000D01*
X116625000Y-118362500D01*
X116626694Y-118350000D01*
X116619936Y-118281388D01*
X116599923Y-118215413D01*
X116567423Y-118154609D01*
X116523685Y-118101315D01*
X116470391Y-118057577D01*
X116409587Y-118025077D01*
X116343612Y-118005064D01*
X116275000Y-117998306D01*
X116262500Y-118000000D01*
X116175000Y-118087500D01*
X116000000Y-118087500D01*
X115912500Y-118000000D01*
X115900000Y-117998306D01*
X115831388Y-118005064D01*
X115765413Y-118025077D01*
X115718538Y-118050132D01*
X115700000Y-118048306D01*
X115441500Y-118050000D01*
X115354002Y-118137498D01*
X115354002Y-118050000D01*
X115350000Y-118050000D01*
X115350000Y-117725000D01*
X116000000Y-117725000D01*
X116019509Y-117723079D01*
X116038268Y-117717388D01*
X116055557Y-117708147D01*
X116070711Y-117695711D01*
X116083147Y-117680557D01*
X116092388Y-117663268D01*
X116098079Y-117644509D01*
X116100000Y-117625000D01*
X116100000Y-116876244D01*
X116446000Y-116875000D01*
X116533500Y-116787500D01*
X116533500Y-115354000D01*
X116841500Y-115354000D01*
X116841500Y-116787500D01*
X116929000Y-116875000D01*
X117400000Y-116876694D01*
X117468612Y-116869936D01*
X117534587Y-116849923D01*
X117595391Y-116817423D01*
X117648685Y-116773685D01*
X117692423Y-116720391D01*
X117724923Y-116659587D01*
X117744936Y-116593612D01*
X117751694Y-116525000D01*
X117750000Y-115441500D01*
X117662500Y-115354000D01*
X116841500Y-115354000D01*
X116533500Y-115354000D01*
X116513500Y-115354000D01*
X116513500Y-115046000D01*
X116533500Y-115046000D01*
X116533500Y-113612500D01*
X116841500Y-113612500D01*
X116841500Y-115046000D01*
X117662500Y-115046000D01*
X117750000Y-114958500D01*
X117751694Y-113875000D01*
X117744936Y-113806388D01*
X117724923Y-113740413D01*
X117692423Y-113679609D01*
X117648685Y-113626315D01*
X117595391Y-113582577D01*
X117534587Y-113550077D01*
X117468612Y-113530064D01*
X117400000Y-113523306D01*
X116929000Y-113525000D01*
X116841500Y-113612500D01*
X116533500Y-113612500D01*
X116446000Y-113525000D01*
X116100000Y-113523756D01*
X116100000Y-113169237D01*
X117413660Y-111975000D01*
X118076937Y-111975000D01*
X118524459Y-112534403D01*
%TO.N,Net-(C7-Pad1)*%
G36*
X114400000Y-113298063D02*
G01*
X114400000Y-113523396D01*
X113954000Y-113525000D01*
X113866500Y-113612500D01*
X113866500Y-115046000D01*
X113886500Y-115046000D01*
X113886500Y-115354000D01*
X113866500Y-115354000D01*
X113866500Y-116787500D01*
X113954000Y-116875000D01*
X114400000Y-116876604D01*
X114400000Y-117870950D01*
X114360579Y-117892021D01*
X114267999Y-117967999D01*
X114241737Y-118000000D01*
X114158498Y-118000000D01*
X114158498Y-118020998D01*
X114137500Y-118000000D01*
X114125000Y-117998306D01*
X114056388Y-118005064D01*
X113990413Y-118025077D01*
X113929609Y-118057577D01*
X113876315Y-118101315D01*
X113832577Y-118154609D01*
X113800077Y-118215413D01*
X113780064Y-118281388D01*
X113773306Y-118350000D01*
X113775000Y-118362500D01*
X113862500Y-118450000D01*
X114089059Y-118450000D01*
X114089059Y-118650000D01*
X113862500Y-118650000D01*
X113775000Y-118737500D01*
X113773306Y-118750000D01*
X113780064Y-118818612D01*
X113797169Y-118875000D01*
X113780064Y-118931388D01*
X113773306Y-119000000D01*
X113775000Y-119012500D01*
X113862500Y-119100000D01*
X114089059Y-119100000D01*
X114089059Y-119300000D01*
X113862500Y-119300000D01*
X113775000Y-119387500D01*
X113773306Y-119400000D01*
X113780064Y-119468612D01*
X113797169Y-119525000D01*
X113780064Y-119581388D01*
X113773306Y-119650000D01*
X113775000Y-119662500D01*
X113862500Y-119750000D01*
X114089059Y-119750000D01*
X114089059Y-119950000D01*
X113862500Y-119950000D01*
X113775000Y-120037500D01*
X113773306Y-120050000D01*
X113780064Y-120118612D01*
X113800077Y-120184587D01*
X113832577Y-120245391D01*
X113876315Y-120298685D01*
X113929609Y-120342423D01*
X113990413Y-120374923D01*
X114056388Y-120394936D01*
X114125000Y-120401694D01*
X114137500Y-120400000D01*
X114158498Y-120379002D01*
X114158498Y-120400000D01*
X114241737Y-120400000D01*
X114267999Y-120432001D01*
X114360579Y-120507979D01*
X114400000Y-120529050D01*
X114400000Y-120904000D01*
X114391500Y-120912500D01*
X114391500Y-122721000D01*
X114400000Y-122721000D01*
X114400000Y-123029000D01*
X114391500Y-123029000D01*
X114391500Y-124837500D01*
X114479000Y-124925000D01*
X114775000Y-124926562D01*
X114775000Y-125525000D01*
X111850000Y-125525000D01*
X111850000Y-124575000D01*
X113323306Y-124575000D01*
X113330064Y-124643612D01*
X113350077Y-124709587D01*
X113382577Y-124770391D01*
X113426315Y-124823685D01*
X113479609Y-124867423D01*
X113540413Y-124899923D01*
X113606388Y-124919936D01*
X113675000Y-124926694D01*
X113996000Y-124925000D01*
X114083500Y-124837500D01*
X114083500Y-123029000D01*
X113412500Y-123029000D01*
X113325000Y-123116500D01*
X113323306Y-124575000D01*
X111850000Y-124575000D01*
X111850000Y-121175000D01*
X113323306Y-121175000D01*
X113325000Y-122633500D01*
X113412500Y-122721000D01*
X114083500Y-122721000D01*
X114083500Y-120912500D01*
X113996000Y-120825000D01*
X113675000Y-120823306D01*
X113606388Y-120830064D01*
X113540413Y-120850077D01*
X113479609Y-120882577D01*
X113426315Y-120926315D01*
X113382577Y-120979609D01*
X113350077Y-121040413D01*
X113330064Y-121106388D01*
X113323306Y-121175000D01*
X111850000Y-121175000D01*
X111850000Y-116525000D01*
X112648306Y-116525000D01*
X112655064Y-116593612D01*
X112675077Y-116659587D01*
X112707577Y-116720391D01*
X112751315Y-116773685D01*
X112804609Y-116817423D01*
X112865413Y-116849923D01*
X112931388Y-116869936D01*
X113000000Y-116876694D01*
X113471000Y-116875000D01*
X113558500Y-116787500D01*
X113558500Y-115354000D01*
X112737500Y-115354000D01*
X112650000Y-115441500D01*
X112648306Y-116525000D01*
X111850000Y-116525000D01*
X111850000Y-113875000D01*
X112648306Y-113875000D01*
X112650000Y-114958500D01*
X112737500Y-115046000D01*
X113558500Y-115046000D01*
X113558500Y-113612500D01*
X113471000Y-113525000D01*
X113000000Y-113523306D01*
X112931388Y-113530064D01*
X112865413Y-113550077D01*
X112804609Y-113582577D01*
X112751315Y-113626315D01*
X112707577Y-113679609D01*
X112675077Y-113740413D01*
X112655064Y-113806388D01*
X112648306Y-113875000D01*
X111850000Y-113875000D01*
X111850000Y-112850000D01*
X113839921Y-112850000D01*
X114400000Y-113298063D01*
G37*
X114400000Y-113298063D02*
X114400000Y-113523396D01*
X113954000Y-113525000D01*
X113866500Y-113612500D01*
X113866500Y-115046000D01*
X113886500Y-115046000D01*
X113886500Y-115354000D01*
X113866500Y-115354000D01*
X113866500Y-116787500D01*
X113954000Y-116875000D01*
X114400000Y-116876604D01*
X114400000Y-117870950D01*
X114360579Y-117892021D01*
X114267999Y-117967999D01*
X114241737Y-118000000D01*
X114158498Y-118000000D01*
X114158498Y-118020998D01*
X114137500Y-118000000D01*
X114125000Y-117998306D01*
X114056388Y-118005064D01*
X113990413Y-118025077D01*
X113929609Y-118057577D01*
X113876315Y-118101315D01*
X113832577Y-118154609D01*
X113800077Y-118215413D01*
X113780064Y-118281388D01*
X113773306Y-118350000D01*
X113775000Y-118362500D01*
X113862500Y-118450000D01*
X114089059Y-118450000D01*
X114089059Y-118650000D01*
X113862500Y-118650000D01*
X113775000Y-118737500D01*
X113773306Y-118750000D01*
X113780064Y-118818612D01*
X113797169Y-118875000D01*
X113780064Y-118931388D01*
X113773306Y-119000000D01*
X113775000Y-119012500D01*
X113862500Y-119100000D01*
X114089059Y-119100000D01*
X114089059Y-119300000D01*
X113862500Y-119300000D01*
X113775000Y-119387500D01*
X113773306Y-119400000D01*
X113780064Y-119468612D01*
X113797169Y-119525000D01*
X113780064Y-119581388D01*
X113773306Y-119650000D01*
X113775000Y-119662500D01*
X113862500Y-119750000D01*
X114089059Y-119750000D01*
X114089059Y-119950000D01*
X113862500Y-119950000D01*
X113775000Y-120037500D01*
X113773306Y-120050000D01*
X113780064Y-120118612D01*
X113800077Y-120184587D01*
X113832577Y-120245391D01*
X113876315Y-120298685D01*
X113929609Y-120342423D01*
X113990413Y-120374923D01*
X114056388Y-120394936D01*
X114125000Y-120401694D01*
X114137500Y-120400000D01*
X114158498Y-120379002D01*
X114158498Y-120400000D01*
X114241737Y-120400000D01*
X114267999Y-120432001D01*
X114360579Y-120507979D01*
X114400000Y-120529050D01*
X114400000Y-120904000D01*
X114391500Y-120912500D01*
X114391500Y-122721000D01*
X114400000Y-122721000D01*
X114400000Y-123029000D01*
X114391500Y-123029000D01*
X114391500Y-124837500D01*
X114479000Y-124925000D01*
X114775000Y-124926562D01*
X114775000Y-125525000D01*
X111850000Y-125525000D01*
X111850000Y-124575000D01*
X113323306Y-124575000D01*
X113330064Y-124643612D01*
X113350077Y-124709587D01*
X113382577Y-124770391D01*
X113426315Y-124823685D01*
X113479609Y-124867423D01*
X113540413Y-124899923D01*
X113606388Y-124919936D01*
X113675000Y-124926694D01*
X113996000Y-124925000D01*
X114083500Y-124837500D01*
X114083500Y-123029000D01*
X113412500Y-123029000D01*
X113325000Y-123116500D01*
X113323306Y-124575000D01*
X111850000Y-124575000D01*
X111850000Y-121175000D01*
X113323306Y-121175000D01*
X113325000Y-122633500D01*
X113412500Y-122721000D01*
X114083500Y-122721000D01*
X114083500Y-120912500D01*
X113996000Y-120825000D01*
X113675000Y-120823306D01*
X113606388Y-120830064D01*
X113540413Y-120850077D01*
X113479609Y-120882577D01*
X113426315Y-120926315D01*
X113382577Y-120979609D01*
X113350077Y-121040413D01*
X113330064Y-121106388D01*
X113323306Y-121175000D01*
X111850000Y-121175000D01*
X111850000Y-116525000D01*
X112648306Y-116525000D01*
X112655064Y-116593612D01*
X112675077Y-116659587D01*
X112707577Y-116720391D01*
X112751315Y-116773685D01*
X112804609Y-116817423D01*
X112865413Y-116849923D01*
X112931388Y-116869936D01*
X113000000Y-116876694D01*
X113471000Y-116875000D01*
X113558500Y-116787500D01*
X113558500Y-115354000D01*
X112737500Y-115354000D01*
X112650000Y-115441500D01*
X112648306Y-116525000D01*
X111850000Y-116525000D01*
X111850000Y-113875000D01*
X112648306Y-113875000D01*
X112650000Y-114958500D01*
X112737500Y-115046000D01*
X113558500Y-115046000D01*
X113558500Y-113612500D01*
X113471000Y-113525000D01*
X113000000Y-113523306D01*
X112931388Y-113530064D01*
X112865413Y-113550077D01*
X112804609Y-113582577D01*
X112751315Y-113626315D01*
X112707577Y-113679609D01*
X112675077Y-113740413D01*
X112655064Y-113806388D01*
X112648306Y-113875000D01*
X111850000Y-113875000D01*
X111850000Y-112850000D01*
X113839921Y-112850000D01*
X114400000Y-113298063D01*
%TD*%
M02*
